G04*
G04 #@! TF.GenerationSoftware,Altium Limited,Altium Designer,24.1.2 (44)*
G04*
G04 Layer_Physical_Order=2*
G04 Layer_Color=11436288*
%FSLAX25Y25*%
%MOIN*%
G70*
G04*
G04 #@! TF.SameCoordinates,88DA356C-355F-4143-99CD-49144B340763*
G04*
G04*
G04 #@! TF.FilePolarity,Positive*
G04*
G01*
G75*
%ADD10C,0.00787*%
%ADD43C,0.01575*%
G04:AMPARAMS|DCode=45|XSize=62.99mil|YSize=78.74mil|CornerRadius=15.75mil|HoleSize=0mil|Usage=FLASHONLY|Rotation=270.000|XOffset=0mil|YOffset=0mil|HoleType=Round|Shape=RoundedRectangle|*
%AMROUNDEDRECTD45*
21,1,0.06299,0.04724,0,0,270.0*
21,1,0.03150,0.07874,0,0,270.0*
1,1,0.03150,-0.02362,-0.01575*
1,1,0.03150,-0.02362,0.01575*
1,1,0.03150,0.02362,0.01575*
1,1,0.03150,0.02362,-0.01575*
%
%ADD45ROUNDEDRECTD45*%
%ADD46O,0.07874X0.06299*%
%ADD47C,0.06299*%
G04:AMPARAMS|DCode=48|XSize=62.99mil|YSize=62.99mil|CornerRadius=15.75mil|HoleSize=0mil|Usage=FLASHONLY|Rotation=0.000|XOffset=0mil|YOffset=0mil|HoleType=Round|Shape=RoundedRectangle|*
%AMROUNDEDRECTD48*
21,1,0.06299,0.03150,0,0,0.0*
21,1,0.03150,0.06299,0,0,0.0*
1,1,0.03150,0.01575,-0.01575*
1,1,0.03150,-0.01575,-0.01575*
1,1,0.03150,-0.01575,0.01575*
1,1,0.03150,0.01575,0.01575*
%
%ADD48ROUNDEDRECTD48*%
G04:AMPARAMS|DCode=49|XSize=47.24mil|YSize=55.12mil|CornerRadius=11.81mil|HoleSize=0mil|Usage=FLASHONLY|Rotation=0.000|XOffset=0mil|YOffset=0mil|HoleType=Round|Shape=RoundedRectangle|*
%AMROUNDEDRECTD49*
21,1,0.04724,0.03150,0,0,0.0*
21,1,0.02362,0.05512,0,0,0.0*
1,1,0.02362,0.01181,-0.01575*
1,1,0.02362,-0.01181,-0.01575*
1,1,0.02362,-0.01181,0.01575*
1,1,0.02362,0.01181,0.01575*
%
%ADD49ROUNDEDRECTD49*%
G04:AMPARAMS|DCode=50|XSize=55.12mil|YSize=78.74mil|CornerRadius=13.78mil|HoleSize=0mil|Usage=FLASHONLY|Rotation=90.000|XOffset=0mil|YOffset=0mil|HoleType=Round|Shape=RoundedRectangle|*
%AMROUNDEDRECTD50*
21,1,0.05512,0.05118,0,0,90.0*
21,1,0.02756,0.07874,0,0,90.0*
1,1,0.02756,0.02559,0.01378*
1,1,0.02756,0.02559,-0.01378*
1,1,0.02756,-0.02559,-0.01378*
1,1,0.02756,-0.02559,0.01378*
%
%ADD50ROUNDEDRECTD50*%
%ADD51O,0.07874X0.05512*%
G04:AMPARAMS|DCode=52|XSize=70.87mil|YSize=125.98mil|CornerRadius=17.72mil|HoleSize=0mil|Usage=FLASHONLY|Rotation=90.000|XOffset=0mil|YOffset=0mil|HoleType=Round|Shape=RoundedRectangle|*
%AMROUNDEDRECTD52*
21,1,0.07087,0.09055,0,0,90.0*
21,1,0.03543,0.12598,0,0,90.0*
1,1,0.03543,0.04528,0.01772*
1,1,0.03543,0.04528,-0.01772*
1,1,0.03543,-0.04528,-0.01772*
1,1,0.03543,-0.04528,0.01772*
%
%ADD52ROUNDEDRECTD52*%
%ADD53C,0.01968*%
%AMCUSTOMSHAPE54*
4,1,12,-0.01575,-0.01299,-0.01102,-0.01772,0.02165,-0.01772,0.03780,-0.01772,0.03780,-0.01496,0.02244,-0.00433,0.02244,0.00433,0.03780,0.01496,0.03780,0.01772,0.02165,0.01772,-0.01102,0.01772,-0.01575,0.01299,-0.01575,-0.01299,0.0*%
%ADD54CUSTOMSHAPE54*%

%AMCUSTOMSHAPE55*
4,1,10,-0.01850,0.01142,-0.03386,0.00079,-0.03386,-0.00079,-0.01850,-0.01142,-0.01850,-0.01772,0.01102,-0.01772,0.01614,-0.01260,0.01614,0.01260,0.01102,0.01772,-0.01850,0.01772,-0.01850,0.01142,0.0*%
%ADD55CUSTOMSHAPE55*%

%AMCUSTOMSHAPE56*
4,1,12,0.01575,0.01299,0.01102,0.01772,-0.02165,0.01772,-0.03780,0.01772,-0.03780,0.01496,-0.02244,0.00433,-0.02244,-0.00433,-0.03780,-0.01496,-0.03780,-0.01772,-0.02165,-0.01772,0.01102,-0.01772,0.01575,-0.01299,0.01575,0.01299,0.0*%
%ADD56CUSTOMSHAPE56*%

%AMCUSTOMSHAPE57*
4,1,10,0.01850,-0.01142,0.03386,-0.00079,0.03386,0.00079,0.01850,0.01142,0.01850,0.01772,-0.01102,0.01772,-0.01614,0.01260,-0.01614,-0.01260,-0.01102,-0.01772,0.01850,-0.01772,0.01850,-0.01142,0.0*%
%ADD57CUSTOMSHAPE57*%

G36*
X155875Y1606D02*
X19291D01*
Y57450D01*
X155875D01*
X155875Y1606D01*
D02*
G37*
%LPC*%
G36*
X131164Y55909D02*
X62717D01*
X62511Y55895D01*
X62308Y55855D01*
X62113Y55789D01*
X61927Y55698D01*
X61756Y55583D01*
X61601Y55447D01*
X60134Y53980D01*
X56213D01*
X56170Y54062D01*
X56071Y54181D01*
X55559Y54693D01*
X55440Y54792D01*
X55303Y54865D01*
X55154Y54910D01*
X55000Y54925D01*
X52047D01*
X51893Y54910D01*
X51745Y54865D01*
X51732Y54858D01*
X51720Y54865D01*
X51572Y54910D01*
X51417Y54925D01*
X46535D01*
X46381Y54910D01*
X46233Y54865D01*
X46096Y54792D01*
X45976Y54693D01*
X45504Y54221D01*
X45405Y54101D01*
X45332Y53964D01*
X45325Y53940D01*
X42323D01*
X42117Y53927D01*
X41914Y53887D01*
X41719Y53820D01*
X41534Y53729D01*
X41362Y53614D01*
X41207Y53478D01*
X39278Y51549D01*
X39142Y51394D01*
X39027Y51222D01*
X38936Y51037D01*
X38869Y50841D01*
X38829Y50639D01*
X38816Y50433D01*
Y38032D01*
X38774Y38025D01*
X38561Y37963D01*
X38357Y37879D01*
X38164Y37772D01*
X37983Y37644D01*
X37819Y37497D01*
X37671Y37332D01*
X37543Y37151D01*
X37436Y36958D01*
X37352Y36753D01*
X37290Y36541D01*
X37253Y36323D01*
X37241Y36102D01*
Y32953D01*
X37253Y32732D01*
X37290Y32514D01*
X37352Y32302D01*
X37436Y32097D01*
X37543Y31904D01*
X37671Y31723D01*
X37819Y31559D01*
X37983Y31411D01*
X38164Y31283D01*
X38357Y31176D01*
X38561Y31092D01*
X38774Y31031D01*
X38992Y30994D01*
X39209Y30981D01*
Y24567D01*
X39224Y24382D01*
X39267Y24201D01*
X39338Y24029D01*
X39435Y23871D01*
X39556Y23729D01*
X44484Y18801D01*
Y10236D01*
X44499Y10051D01*
X44543Y9870D01*
X44614Y9698D01*
X44711Y9540D01*
X44831Y9398D01*
X46603Y7627D01*
X46745Y7506D01*
X46903Y7409D01*
X47075Y7338D01*
X47256Y7294D01*
X47441Y7280D01*
X75875D01*
X76060Y7294D01*
X76241Y7338D01*
X76412Y7409D01*
X76571Y7506D01*
X76712Y7627D01*
X79531Y10445D01*
X79998Y10394D01*
X80352Y10272D01*
X80371Y10209D01*
X80445Y10072D01*
X80543Y9952D01*
X81015Y9480D01*
X81135Y9381D01*
X81272Y9308D01*
X81420Y9263D01*
X81575Y9248D01*
X86457D01*
X86611Y9263D01*
X86760Y9308D01*
X86772Y9315D01*
X86784Y9308D01*
X86932Y9263D01*
X87087Y9248D01*
X90039D01*
X90194Y9263D01*
X90342Y9308D01*
X90479Y9381D01*
X90599Y9480D01*
X91111Y9992D01*
X91209Y10112D01*
X91282Y10248D01*
X91327Y10397D01*
X91342Y10551D01*
X92099Y10626D01*
X103279D01*
X103464Y10641D01*
X103645Y10684D01*
X103817Y10755D01*
X103975Y10853D01*
X104117Y10973D01*
X104578Y11434D01*
X104699Y11576D01*
X104796Y11734D01*
X104867Y11906D01*
X104910Y12087D01*
X104925Y12272D01*
Y14961D01*
X105037D01*
X105268Y14991D01*
X105492Y15051D01*
X105707Y15140D01*
X105908Y15256D01*
X105973Y15306D01*
X106108Y15401D01*
X106496Y15500D01*
X106884Y15401D01*
X107019Y15306D01*
X107085Y15256D01*
X107286Y15140D01*
X107500Y15051D01*
X107724Y14991D01*
X107870Y14972D01*
Y10924D01*
X103643Y6697D01*
X91342D01*
Y6772D01*
X91327Y6926D01*
X91282Y7074D01*
X91209Y7211D01*
X91111Y7331D01*
X90599Y7843D01*
X90479Y7941D01*
X90342Y8014D01*
X90194Y8060D01*
X90039Y8075D01*
X87087D01*
X86932Y8060D01*
X86784Y8014D01*
X86772Y8008D01*
X86760Y8014D01*
X86611Y8060D01*
X86457Y8075D01*
X81575D01*
X81420Y8060D01*
X81272Y8014D01*
X81135Y7941D01*
X81015Y7843D01*
X80543Y7371D01*
X80445Y7251D01*
X80371Y7114D01*
X80326Y6965D01*
X80311Y6811D01*
Y6697D01*
X79528D01*
X79342Y6682D01*
X79162Y6639D01*
X78990Y6567D01*
X78831Y6470D01*
X78690Y6350D01*
X77856Y5516D01*
X43601D01*
X41578Y7538D01*
Y10981D01*
X41796Y10994D01*
X42013Y11031D01*
X42226Y11092D01*
X42430Y11176D01*
X42624Y11283D01*
X42804Y11411D01*
X42969Y11559D01*
X43116Y11723D01*
X43244Y11904D01*
X43351Y12097D01*
X43436Y12302D01*
X43497Y12514D01*
X43534Y12732D01*
X43546Y12953D01*
Y16102D01*
X43534Y16323D01*
X43497Y16541D01*
X43436Y16754D01*
X43351Y16958D01*
X43244Y17151D01*
X43116Y17332D01*
X42969Y17496D01*
X42804Y17644D01*
X42624Y17772D01*
X42430Y17879D01*
X42226Y17963D01*
X42013Y18024D01*
X41796Y18062D01*
X41575Y18074D01*
X39213D01*
X38992Y18062D01*
X38774Y18024D01*
X38561Y17963D01*
X38357Y17879D01*
X38164Y17772D01*
X37983Y17644D01*
X37819Y17496D01*
X37671Y17332D01*
X37543Y17151D01*
X37436Y16958D01*
X37352Y16754D01*
X37290Y16541D01*
X37253Y16323D01*
X37241Y16102D01*
Y12953D01*
X37253Y12732D01*
X37290Y12514D01*
X37352Y12302D01*
X37436Y12097D01*
X37543Y11904D01*
X37671Y11723D01*
X37819Y11559D01*
X37983Y11411D01*
X38164Y11283D01*
X38357Y11176D01*
X38561Y11092D01*
X38774Y11031D01*
X38992Y10994D01*
X39209Y10981D01*
Y7047D01*
X39224Y6862D01*
X39267Y6681D01*
X39338Y6509D01*
X39435Y6351D01*
X39556Y6210D01*
X42272Y3493D01*
X42414Y3372D01*
X42572Y3275D01*
X42744Y3204D01*
X42925Y3161D01*
X43110Y3146D01*
X78347D01*
X78532Y3161D01*
X78713Y3204D01*
X78884Y3275D01*
X79043Y3372D01*
X79184Y3493D01*
X79579Y3887D01*
X79871Y3896D01*
X80338Y3796D01*
X80505Y3700D01*
X80543Y3653D01*
X81015Y3181D01*
X81135Y3082D01*
X81272Y3009D01*
X81420Y2964D01*
X81575Y2949D01*
X86457D01*
X86611Y2964D01*
X86760Y3009D01*
X86772Y3016D01*
X86784Y3009D01*
X86932Y2964D01*
X87087Y2949D01*
X90039D01*
X90194Y2964D01*
X90342Y3009D01*
X90479Y3082D01*
X90599Y3181D01*
X91111Y3692D01*
X91209Y3812D01*
X91282Y3949D01*
X91327Y4098D01*
X91342Y4252D01*
X92099Y4327D01*
X104134D01*
X104319Y4342D01*
X104500Y4385D01*
X104672Y4456D01*
X104830Y4553D01*
X104972Y4674D01*
X109893Y9595D01*
X110014Y9737D01*
X110111Y9895D01*
X110182Y10067D01*
X110225Y10248D01*
X110240Y10433D01*
Y15748D01*
X110225Y15933D01*
X110182Y16114D01*
X110111Y16286D01*
X110014Y16444D01*
X109893Y16586D01*
X109843Y16636D01*
Y16848D01*
X109812Y17079D01*
X109752Y17303D01*
X109663Y17517D01*
X109547Y17719D01*
X109406Y17903D01*
X109241Y18067D01*
X109057Y18209D01*
X108856Y18325D01*
X108642Y18414D01*
X108417Y18474D01*
X108187Y18504D01*
X107955D01*
X107724Y18474D01*
X107500Y18414D01*
X107286Y18325D01*
X107085Y18209D01*
X107019Y18158D01*
X106884Y18063D01*
X106496Y17964D01*
X106108Y18063D01*
X105973Y18158D01*
X105908Y18209D01*
X105707Y18325D01*
X105492Y18414D01*
X105268Y18474D01*
X105037Y18504D01*
X104805D01*
X104575Y18474D01*
X104351Y18414D01*
X104136Y18325D01*
X103935Y18209D01*
X103751Y18067D01*
X103586Y17903D01*
X103445Y17719D01*
X103329Y17517D01*
X103240Y17303D01*
X103180Y17079D01*
X103150Y16848D01*
Y16636D01*
X102902Y16389D01*
X102782Y16248D01*
X102684Y16089D01*
X102613Y15917D01*
X102570Y15736D01*
X102555Y15551D01*
Y12996D01*
X91342D01*
Y13071D01*
X91327Y13225D01*
X91282Y13374D01*
X91209Y13510D01*
X91111Y13630D01*
X90599Y14142D01*
X90479Y14241D01*
X90342Y14314D01*
X90194Y14359D01*
X90039Y14374D01*
X87087D01*
X86932Y14359D01*
X86784Y14314D01*
X86772Y14307D01*
X86760Y14314D01*
X86611Y14359D01*
X86457Y14374D01*
X81575D01*
X81420Y14359D01*
X81272Y14314D01*
X81135Y14241D01*
X81015Y14142D01*
X80543Y13670D01*
X80445Y13550D01*
X80371Y13413D01*
X80326Y13265D01*
X80311Y13110D01*
Y12996D01*
X79221D01*
X79036Y12981D01*
X78855Y12938D01*
X78683Y12867D01*
X78525Y12769D01*
X78383Y12649D01*
X75384Y9649D01*
X47932D01*
X46854Y10727D01*
Y11908D01*
X47641Y12156D01*
X47661Y12129D01*
X47882Y11865D01*
X48125Y11622D01*
X48388Y11401D01*
X48670Y11204D01*
X48968Y11032D01*
X49279Y10887D01*
X49602Y10769D01*
X49935Y10680D01*
X50273Y10621D01*
X50616Y10591D01*
X50959D01*
X51302Y10621D01*
X51640Y10680D01*
X51972Y10769D01*
X52296Y10887D01*
X52607Y11032D01*
X52905Y11204D01*
X53186Y11401D01*
X53450Y11622D01*
X53693Y11865D01*
X53914Y12129D01*
X54111Y12410D01*
X54283Y12708D01*
X54428Y13020D01*
X54546Y13342D01*
X54635Y13675D01*
X54694Y14013D01*
X54724Y14356D01*
Y14699D01*
X54694Y15042D01*
X54635Y15381D01*
X54546Y15713D01*
X54428Y16036D01*
X54283Y16347D01*
X54111Y16645D01*
X53914Y16927D01*
X53693Y17190D01*
X53450Y17433D01*
X53186Y17654D01*
X52905Y17851D01*
X52607Y18023D01*
X52296Y18168D01*
X51972Y18286D01*
X51640Y18375D01*
X51302Y18435D01*
X50959Y18465D01*
X50616D01*
X50273Y18435D01*
X49935Y18375D01*
X49602Y18286D01*
X49279Y18168D01*
X48968Y18023D01*
X48670Y17851D01*
X48388Y17654D01*
X48125Y17433D01*
X47882Y17190D01*
X47661Y16927D01*
X47641Y16899D01*
X46854Y17147D01*
Y19291D01*
X46839Y19477D01*
X46796Y19658D01*
X46725Y19829D01*
X46628Y19988D01*
X46507Y20129D01*
X41578Y25058D01*
Y30981D01*
X41796Y30994D01*
X42013Y31031D01*
X42226Y31092D01*
X42430Y31176D01*
X42624Y31283D01*
X42804Y31411D01*
X42969Y31559D01*
X43116Y31723D01*
X43244Y31904D01*
X43351Y32097D01*
X43436Y32302D01*
X43497Y32514D01*
X43534Y32732D01*
X43546Y32953D01*
Y36102D01*
X43534Y36323D01*
X43497Y36541D01*
X43436Y36753D01*
X43351Y36958D01*
X43244Y37151D01*
X43116Y37332D01*
X42969Y37497D01*
X42804Y37644D01*
X42624Y37772D01*
X42430Y37879D01*
X42226Y37963D01*
X42013Y38025D01*
X41972Y38032D01*
Y49779D01*
X42976Y50784D01*
X45325D01*
X45332Y50760D01*
X45405Y50623D01*
X45504Y50503D01*
X45976Y50031D01*
X46096Y49933D01*
X46233Y49860D01*
X46381Y49815D01*
X46535Y49799D01*
X51417D01*
X51572Y49815D01*
X51720Y49860D01*
X51732Y49866D01*
X51745Y49860D01*
X51893Y49815D01*
X52047Y49799D01*
X55000D01*
X55154Y49815D01*
X55303Y49860D01*
X55440Y49933D01*
X55559Y50031D01*
X56071Y50543D01*
X56170Y50663D01*
X56243Y50800D01*
X56250Y50823D01*
X58815D01*
Y48032D01*
X58774Y48024D01*
X58561Y47963D01*
X58357Y47879D01*
X58164Y47772D01*
X57983Y47644D01*
X57819Y47497D01*
X57671Y47332D01*
X57543Y47151D01*
X57436Y46958D01*
X57352Y46753D01*
X57290Y46541D01*
X57253Y46323D01*
X57241Y46102D01*
Y42953D01*
X57253Y42732D01*
X57290Y42514D01*
X57352Y42302D01*
X57436Y42097D01*
X57543Y41904D01*
X57671Y41723D01*
X57819Y41559D01*
X57983Y41411D01*
X58164Y41283D01*
X58357Y41176D01*
X58561Y41092D01*
X58774Y41031D01*
X58992Y40994D01*
X59213Y40981D01*
X61575D01*
X61796Y40994D01*
X62014Y41031D01*
X62226Y41092D01*
X62430Y41176D01*
X62624Y41283D01*
X62804Y41411D01*
X62969Y41559D01*
X63116Y41723D01*
X63244Y41904D01*
X63351Y42097D01*
X63436Y42302D01*
X63497Y42514D01*
X63534Y42732D01*
X63546Y42953D01*
Y46102D01*
X63534Y46323D01*
X63497Y46541D01*
X63436Y46753D01*
X63351Y46958D01*
X63244Y47151D01*
X63116Y47332D01*
X62969Y47497D01*
X62804Y47644D01*
X62624Y47772D01*
X62430Y47879D01*
X62226Y47963D01*
X62014Y48024D01*
X61972Y48032D01*
Y51354D01*
X63370Y52753D01*
X130510D01*
X131296Y51967D01*
Y51597D01*
X131282Y51573D01*
X131193Y51358D01*
X131133Y51134D01*
X131102Y50903D01*
Y50671D01*
X131133Y50441D01*
X131193Y50217D01*
X131282Y50002D01*
X131398Y49801D01*
X131539Y49617D01*
X131703Y49453D01*
X131888Y49311D01*
X132089Y49195D01*
X132303Y49106D01*
X132528Y49046D01*
X132758Y49016D01*
X132990D01*
X133220Y49046D01*
X133445Y49106D01*
X133659Y49195D01*
X133860Y49311D01*
X134045Y49453D01*
X134209Y49617D01*
X134350Y49801D01*
X134466Y50002D01*
X134555Y50217D01*
X134615Y50441D01*
X134646Y50671D01*
Y50903D01*
X134615Y51134D01*
X134555Y51358D01*
X134466Y51573D01*
X134452Y51597D01*
Y52621D01*
X134439Y52827D01*
X134398Y53029D01*
X134332Y53225D01*
X134241Y53410D01*
X134126Y53582D01*
X133990Y53737D01*
X132280Y55447D01*
X132125Y55583D01*
X131953Y55698D01*
X131768Y55789D01*
X131573Y55855D01*
X131370Y55895D01*
X131164Y55909D01*
D02*
G37*
G36*
X152165Y56302D02*
X143110D01*
X142859Y56290D01*
X142610Y56253D01*
X142367Y56192D01*
X142130Y56107D01*
X141902Y56000D01*
X141687Y55870D01*
X141485Y55721D01*
X141298Y55552D01*
X141130Y55366D01*
X140980Y55164D01*
X140851Y54948D01*
X140743Y54721D01*
X140658Y54484D01*
X140597Y54240D01*
X140560Y53991D01*
X140548Y53740D01*
Y50197D01*
X140560Y49946D01*
X140597Y49697D01*
X140658Y49453D01*
X140743Y49216D01*
X140851Y48989D01*
X140980Y48773D01*
X141130Y48571D01*
X141298Y48385D01*
X141485Y48216D01*
X141687Y48066D01*
X141902Y47937D01*
X142130Y47830D01*
X142367Y47745D01*
X142610Y47684D01*
X142859Y47647D01*
X143110Y47635D01*
X152165D01*
X152417Y47647D01*
X152665Y47684D01*
X152909Y47745D01*
X153146Y47830D01*
X153373Y47937D01*
X153589Y48066D01*
X153791Y48216D01*
X153977Y48385D01*
X154146Y48571D01*
X154296Y48773D01*
X154425Y48989D01*
X154533Y49216D01*
X154617Y49453D01*
X154678Y49697D01*
X154715Y49946D01*
X154727Y50197D01*
Y53740D01*
X154715Y53991D01*
X154678Y54240D01*
X154617Y54484D01*
X154533Y54721D01*
X154425Y54948D01*
X154296Y55164D01*
X154146Y55366D01*
X153977Y55552D01*
X153791Y55721D01*
X153589Y55870D01*
X153373Y56000D01*
X153146Y56107D01*
X152909Y56192D01*
X152665Y56253D01*
X152417Y56290D01*
X152165Y56302D01*
D02*
G37*
G36*
X32677Y48232D02*
X27953D01*
X27688Y48217D01*
X27426Y48173D01*
X27171Y48099D01*
X26926Y47998D01*
X26694Y47869D01*
X26478Y47716D01*
X26280Y47539D01*
X26103Y47341D01*
X25949Y47125D01*
X25821Y46893D01*
X25720Y46648D01*
X25646Y46393D01*
X25602Y46131D01*
X25587Y45866D01*
Y42717D01*
X25602Y42452D01*
X25646Y42190D01*
X25720Y41935D01*
X25821Y41690D01*
X25949Y41458D01*
X26103Y41241D01*
X26280Y41044D01*
X26478Y40867D01*
X26694Y40713D01*
X26926Y40585D01*
X27171Y40483D01*
X27426Y40410D01*
X27688Y40365D01*
X27953Y40351D01*
X32677D01*
X32942Y40365D01*
X33204Y40410D01*
X33459Y40483D01*
X33704Y40585D01*
X33936Y40713D01*
X34152Y40867D01*
X34350Y41044D01*
X34527Y41241D01*
X34681Y41458D01*
X34809Y41690D01*
X34910Y41935D01*
X34984Y42190D01*
X35028Y42452D01*
X35043Y42717D01*
Y45866D01*
X35028Y46131D01*
X34984Y46393D01*
X34910Y46648D01*
X34809Y46893D01*
X34681Y47125D01*
X34527Y47341D01*
X34350Y47539D01*
X34152Y47716D01*
X33936Y47869D01*
X33704Y47998D01*
X33459Y48099D01*
X33204Y48173D01*
X32942Y48217D01*
X32677Y48232D01*
D02*
G37*
G36*
X141929Y46854D02*
X136811D01*
X136568Y46840D01*
X136328Y46799D01*
X136095Y46732D01*
X135870Y46639D01*
X135657Y46521D01*
X135459Y46381D01*
X135277Y46219D01*
X135115Y46037D01*
X134975Y45839D01*
X134857Y45626D01*
X134764Y45401D01*
X134697Y45168D01*
X134656Y44928D01*
X134642Y44685D01*
Y41929D01*
X134656Y41686D01*
X134697Y41447D01*
X134764Y41213D01*
X134857Y40988D01*
X134975Y40775D01*
X135115Y40577D01*
X135277Y40396D01*
X135459Y40233D01*
X135657Y40093D01*
X135870Y39975D01*
X136095Y39882D01*
X136328Y39815D01*
X136568Y39774D01*
X136811Y39760D01*
X141929D01*
X142172Y39774D01*
X142412Y39815D01*
X142645Y39882D01*
X142870Y39975D01*
X143083Y40093D01*
X143281Y40233D01*
X143463Y40396D01*
X143625Y40577D01*
X143765Y40775D01*
X143883Y40988D01*
X143976Y41213D01*
X144044Y41447D01*
X144084Y41686D01*
X144098Y41929D01*
Y44685D01*
X144084Y44928D01*
X144044Y45168D01*
X143976Y45401D01*
X143883Y45626D01*
X143765Y45839D01*
X143625Y46037D01*
X143463Y46219D01*
X143281Y46381D01*
X143083Y46521D01*
X142870Y46639D01*
X142645Y46732D01*
X142412Y46799D01*
X142172Y46840D01*
X141929Y46854D01*
D02*
G37*
G36*
X147783Y41339D02*
X147493D01*
X147204Y41310D01*
X146920Y41254D01*
X146642Y41169D01*
X146374Y41058D01*
X146118Y40922D01*
X145877Y40760D01*
X145652Y40576D01*
X145447Y40371D01*
X145263Y40147D01*
X145102Y39906D01*
X144965Y39650D01*
X144854Y39382D01*
X144770Y39104D01*
X144713Y38820D01*
X144685Y38531D01*
Y38241D01*
X144713Y37952D01*
X144770Y37668D01*
X144854Y37390D01*
X144965Y37122D01*
X145102Y36866D01*
X145263Y36625D01*
X145447Y36400D01*
X145652Y36195D01*
X145877Y36011D01*
X146118Y35850D01*
X146374Y35713D01*
X146642Y35602D01*
X146920Y35518D01*
X147204Y35462D01*
X147493Y35433D01*
X147783D01*
X148072Y35462D01*
X148356Y35518D01*
X148634Y35602D01*
X148902Y35713D01*
X149158Y35850D01*
X149399Y36011D01*
X149623Y36195D01*
X149828Y36400D01*
X150012Y36625D01*
X150173Y36866D01*
X150310Y37122D01*
X150421Y37390D01*
X150505Y37668D01*
X150562Y37952D01*
X150591Y38241D01*
Y38531D01*
X150562Y38820D01*
X150505Y39104D01*
X150421Y39382D01*
X150310Y39650D01*
X150173Y39906D01*
X150012Y40147D01*
X149828Y40371D01*
X149623Y40576D01*
X149399Y40760D01*
X149158Y40922D01*
X148902Y41058D01*
X148634Y41169D01*
X148356Y41254D01*
X148072Y41310D01*
X147783Y41339D01*
D02*
G37*
G36*
X70748Y36421D02*
X70236D01*
Y34449D01*
X72051D01*
Y35118D01*
X72036Y35272D01*
X71991Y35421D01*
X71918Y35558D01*
X71819Y35678D01*
X71307Y36189D01*
X71188Y36288D01*
X71051Y36361D01*
X70902Y36406D01*
X70748Y36421D01*
D02*
G37*
G36*
X72051Y33268D02*
X70236D01*
Y31295D01*
X70748D01*
X70902Y31311D01*
X71051Y31356D01*
X71188Y31429D01*
X71307Y31527D01*
X71819Y32039D01*
X71918Y32159D01*
X71991Y32296D01*
X72036Y32444D01*
X72051Y32598D01*
Y33268D01*
D02*
G37*
G36*
X66258Y50591D02*
X66026D01*
X65795Y50560D01*
X65571Y50500D01*
X65356Y50411D01*
X65155Y50295D01*
X64971Y50154D01*
X64807Y49990D01*
X64666Y49805D01*
X64549Y49604D01*
X64460Y49390D01*
X64400Y49165D01*
X64370Y48935D01*
Y48703D01*
X64400Y48472D01*
X64460Y48248D01*
X64549Y48034D01*
X64666Y47833D01*
X64807Y47648D01*
X64957Y47498D01*
Y41142D01*
X64972Y40956D01*
X65015Y40776D01*
X65086Y40604D01*
X65183Y40445D01*
X65304Y40304D01*
X67273Y38335D01*
X67414Y38215D01*
X67572Y38118D01*
X67744Y38047D01*
X67925Y38003D01*
X68110Y37988D01*
X71557D01*
X74406Y35139D01*
Y25000D01*
X74420Y24815D01*
X74464Y24634D01*
X74535Y24462D01*
X74632Y24304D01*
X74753Y24162D01*
X77848Y21067D01*
X77706Y20279D01*
X75354D01*
X75200Y20264D01*
X75051Y20219D01*
X75039Y20213D01*
X75027Y20219D01*
X74879Y20264D01*
X74724Y20279D01*
X71772D01*
X71657Y20268D01*
X71606Y20270D01*
X71065Y20562D01*
X70945Y20665D01*
X70869Y20766D01*
Y22252D01*
X70902Y22255D01*
X71051Y22300D01*
X71188Y22374D01*
X71307Y22472D01*
X71819Y22984D01*
X71918Y23104D01*
X71991Y23241D01*
X72036Y23389D01*
X72051Y23543D01*
Y26063D01*
X72036Y26217D01*
X71991Y26366D01*
X71918Y26503D01*
X71819Y26623D01*
X71307Y27134D01*
X71188Y27233D01*
X71051Y27306D01*
X70902Y27351D01*
X70748Y27366D01*
X67795D01*
X67641Y27351D01*
X67493Y27306D01*
X67480Y27299D01*
X67468Y27306D01*
X67320Y27351D01*
X67165Y27366D01*
X65751D01*
Y31295D01*
X67165D01*
X67320Y31311D01*
X67468Y31356D01*
X67480Y31362D01*
X67493Y31356D01*
X67641Y31311D01*
X67795Y31295D01*
X69055D01*
Y33858D01*
Y36421D01*
X67795D01*
X67641Y36406D01*
X67493Y36361D01*
X67480Y36354D01*
X67468Y36361D01*
X67320Y36406D01*
X67165Y36421D01*
X62283D01*
X62129Y36406D01*
X61981Y36361D01*
X61844Y36288D01*
X61724Y36189D01*
X61251Y35717D01*
X61153Y35597D01*
X61080Y35460D01*
X61073Y35436D01*
X59906D01*
X59649Y35693D01*
Y37244D01*
X59636Y37450D01*
X59595Y37653D01*
X59529Y37848D01*
X59438Y38033D01*
X59323Y38205D01*
X59187Y38360D01*
X54721Y42826D01*
X54728Y42953D01*
Y46102D01*
X54713Y46367D01*
X54669Y46629D01*
X54595Y46884D01*
X54494Y47129D01*
X54365Y47361D01*
X54212Y47578D01*
X54035Y47775D01*
X53837Y47952D01*
X53621Y48106D01*
X53389Y48234D01*
X53144Y48335D01*
X52889Y48409D01*
X52627Y48453D01*
X52362Y48468D01*
X49213D01*
X48948Y48453D01*
X48686Y48409D01*
X48431Y48335D01*
X48186Y48234D01*
X47954Y48106D01*
X47738Y47952D01*
X47540Y47775D01*
X47363Y47578D01*
X47209Y47361D01*
X47081Y47129D01*
X46979Y46884D01*
X46906Y46629D01*
X46862Y46367D01*
X46847Y46102D01*
Y42953D01*
X46862Y42688D01*
X46906Y42426D01*
X46979Y42171D01*
X47081Y41926D01*
X47209Y41694D01*
X47363Y41478D01*
X47540Y41280D01*
X47738Y41103D01*
X47954Y40949D01*
X48186Y40821D01*
X48431Y40720D01*
X48686Y40646D01*
X48948Y40602D01*
X49213Y40587D01*
X52362D01*
X52489Y40594D01*
X56493Y36590D01*
Y35039D01*
X56506Y34833D01*
X56546Y34631D01*
X56613Y34435D01*
X56704Y34250D01*
X56819Y34079D01*
X56955Y33923D01*
X58136Y32742D01*
X58291Y32606D01*
X58463Y32491D01*
X58648Y32400D01*
X58843Y32334D01*
X59046Y32294D01*
X59252Y32280D01*
X61073D01*
X61080Y32256D01*
X61153Y32120D01*
X61251Y32000D01*
X61724Y31527D01*
X61844Y31429D01*
X61981Y31356D01*
X62129Y31311D01*
X62283Y31295D01*
X62595D01*
Y27366D01*
X62283D01*
X62129Y27351D01*
X61981Y27306D01*
X61844Y27233D01*
X61724Y27134D01*
X61251Y26662D01*
X61153Y26542D01*
X61080Y26405D01*
X61035Y26257D01*
X61020Y26102D01*
Y23504D01*
X61035Y23350D01*
X61080Y23201D01*
X61153Y23064D01*
X61251Y22944D01*
X61724Y22472D01*
X61844Y22374D01*
X61981Y22300D01*
X62129Y22255D01*
X62283Y22240D01*
X67165D01*
X67593Y21772D01*
X67713Y21561D01*
Y17913D01*
Y16106D01*
X63546D01*
X63534Y16323D01*
X63497Y16541D01*
X63436Y16754D01*
X63351Y16958D01*
X63244Y17151D01*
X63116Y17332D01*
X62969Y17496D01*
X62804Y17644D01*
X62624Y17772D01*
X62430Y17879D01*
X62226Y17963D01*
X62014Y18024D01*
X61796Y18062D01*
X61575Y18074D01*
X59213D01*
X58992Y18062D01*
X58774Y18024D01*
X58561Y17963D01*
X58357Y17879D01*
X58164Y17772D01*
X57983Y17644D01*
X57819Y17496D01*
X57671Y17332D01*
X57543Y17151D01*
X57436Y16958D01*
X57352Y16754D01*
X57290Y16541D01*
X57253Y16323D01*
X57241Y16102D01*
Y12953D01*
X57253Y12732D01*
X57290Y12514D01*
X57352Y12302D01*
X57436Y12097D01*
X57543Y11904D01*
X57671Y11723D01*
X57819Y11559D01*
X57983Y11411D01*
X58164Y11283D01*
X58357Y11176D01*
X58561Y11092D01*
X58774Y11031D01*
X58992Y10994D01*
X59213Y10981D01*
X61575D01*
X61796Y10994D01*
X62014Y11031D01*
X62226Y11092D01*
X62430Y11176D01*
X62624Y11283D01*
X62804Y11411D01*
X62969Y11559D01*
X63116Y11723D01*
X63244Y11904D01*
X63351Y12097D01*
X63436Y12302D01*
X63497Y12514D01*
X63534Y12732D01*
X63546Y12949D01*
X68567D01*
X68721Y12886D01*
X68945Y12826D01*
X69175Y12795D01*
X69407D01*
X69638Y12826D01*
X69862Y12886D01*
X70077Y12975D01*
X70278Y13091D01*
X70462Y13232D01*
X70626Y13396D01*
X70768Y13580D01*
X70884Y13782D01*
X70973Y13996D01*
X71033Y14221D01*
X71063Y14451D01*
Y14538D01*
X71167Y14712D01*
X71315Y14862D01*
X71688Y15126D01*
X71772Y15154D01*
X74724D01*
X74879Y15169D01*
X75027Y15214D01*
X75039Y15220D01*
X75051Y15214D01*
X75200Y15169D01*
X75354Y15154D01*
X80236D01*
X80391Y15169D01*
X80539Y15214D01*
X80676Y15287D01*
X80796Y15385D01*
X81268Y15858D01*
X81366Y15978D01*
X81440Y16115D01*
X81485Y16263D01*
X81500Y16417D01*
Y16532D01*
X83325D01*
X83475Y16382D01*
X83659Y16240D01*
X83860Y16124D01*
X84075Y16035D01*
X84299Y15975D01*
X84530Y15945D01*
X84762D01*
X84992Y15975D01*
X85216Y16035D01*
X85431Y16124D01*
X85632Y16240D01*
X85816Y16382D01*
X85980Y16546D01*
X86122Y16730D01*
X86238Y16931D01*
X86327Y17146D01*
X86387Y17370D01*
X86417Y17600D01*
Y17833D01*
X86387Y18063D01*
X86327Y18287D01*
X86238Y18502D01*
X86122Y18703D01*
X85980Y18887D01*
X85816Y19051D01*
X85632Y19193D01*
X85431Y19309D01*
X85216Y19398D01*
X84992Y19458D01*
X84762Y19488D01*
X84530D01*
X84299Y19458D01*
X84075Y19398D01*
X83860Y19309D01*
X83659Y19193D01*
X83475Y19051D01*
X83325Y18901D01*
X81500D01*
Y19016D01*
X81485Y19170D01*
X81440Y19319D01*
X81366Y19455D01*
X81268Y19575D01*
X80796Y20048D01*
X80676Y20146D01*
X80539Y20219D01*
X80391Y20264D01*
X80319Y20271D01*
Y21457D01*
X80304Y21642D01*
X80261Y21823D01*
X80190Y21995D01*
X80092Y22153D01*
X79972Y22294D01*
X76775Y25491D01*
Y35630D01*
X76761Y35815D01*
X76717Y35996D01*
X76646Y36168D01*
X76549Y36326D01*
X76428Y36468D01*
X72885Y40011D01*
X72744Y40132D01*
X72585Y40229D01*
X72413Y40300D01*
X72233Y40343D01*
X72047Y40358D01*
X68601D01*
X67326Y41633D01*
Y47498D01*
X67477Y47648D01*
X67618Y47833D01*
X67734Y48034D01*
X67823Y48248D01*
X67883Y48472D01*
X67913Y48703D01*
Y48935D01*
X67883Y49165D01*
X67823Y49390D01*
X67734Y49604D01*
X67618Y49805D01*
X67477Y49990D01*
X67312Y50154D01*
X67128Y50295D01*
X66927Y50411D01*
X66712Y50500D01*
X66488Y50560D01*
X66258Y50591D01*
D02*
G37*
G36*
X50959Y38465D02*
X50616D01*
X50273Y38435D01*
X49935Y38375D01*
X49602Y38286D01*
X49279Y38168D01*
X48968Y38023D01*
X48670Y37851D01*
X48388Y37654D01*
X48125Y37433D01*
X47882Y37190D01*
X47661Y36926D01*
X47464Y36645D01*
X47292Y36347D01*
X47147Y36036D01*
X47029Y35713D01*
X46940Y35381D01*
X46880Y35042D01*
X46850Y34699D01*
Y34356D01*
X46880Y34013D01*
X46940Y33675D01*
X47029Y33342D01*
X47147Y33020D01*
X47292Y32708D01*
X47464Y32410D01*
X47661Y32129D01*
X47882Y31865D01*
X48125Y31622D01*
X48388Y31401D01*
X48670Y31204D01*
X48968Y31032D01*
X49279Y30887D01*
X49602Y30769D01*
X49935Y30680D01*
X50273Y30621D01*
X50616Y30591D01*
X50959D01*
X51302Y30621D01*
X51640Y30680D01*
X51972Y30769D01*
X52296Y30887D01*
X52607Y31032D01*
X52905Y31204D01*
X53186Y31401D01*
X53450Y31622D01*
X53693Y31865D01*
X53914Y32129D01*
X54111Y32410D01*
X54283Y32708D01*
X54428Y33020D01*
X54546Y33342D01*
X54635Y33675D01*
X54694Y34013D01*
X54724Y34356D01*
Y34699D01*
X54694Y35042D01*
X54635Y35381D01*
X54546Y35713D01*
X54428Y36036D01*
X54283Y36347D01*
X54111Y36645D01*
X53914Y36926D01*
X53693Y37190D01*
X53450Y37433D01*
X53186Y37654D01*
X52905Y37851D01*
X52607Y38023D01*
X52296Y38168D01*
X51972Y38286D01*
X51640Y38375D01*
X51302Y38435D01*
X50959Y38465D01*
D02*
G37*
G36*
X31102Y38390D02*
X29528D01*
X29184Y38375D01*
X28843Y38330D01*
X28508Y38255D01*
X28180Y38152D01*
X27862Y38020D01*
X27557Y37862D01*
X27267Y37677D01*
X26994Y37468D01*
X26741Y37235D01*
X26509Y36982D01*
X26300Y36709D01*
X26115Y36419D01*
X25956Y36114D01*
X25824Y35797D01*
X25721Y35469D01*
X25647Y35133D01*
X25602Y34792D01*
X25587Y34449D01*
X25602Y34105D01*
X25647Y33764D01*
X25721Y33429D01*
X25824Y33101D01*
X25956Y32783D01*
X26115Y32478D01*
X26300Y32188D01*
X26509Y31916D01*
X26741Y31662D01*
X26994Y31430D01*
X27267Y31221D01*
X27557Y31036D01*
X27862Y30877D01*
X28180Y30746D01*
X28508Y30642D01*
X28843Y30568D01*
X29184Y30523D01*
X29528Y30508D01*
X31102D01*
X31446Y30523D01*
X31787Y30568D01*
X32122Y30642D01*
X32450Y30746D01*
X32768Y30877D01*
X33073Y31036D01*
X33363Y31221D01*
X33635Y31430D01*
X33889Y31662D01*
X34121Y31916D01*
X34330Y32188D01*
X34515Y32478D01*
X34674Y32783D01*
X34806Y33101D01*
X34909Y33429D01*
X34983Y33764D01*
X35028Y34105D01*
X35043Y34449D01*
X35028Y34792D01*
X34983Y35133D01*
X34909Y35469D01*
X34806Y35797D01*
X34674Y36114D01*
X34515Y36419D01*
X34330Y36709D01*
X34121Y36982D01*
X33889Y37235D01*
X33635Y37468D01*
X33363Y37677D01*
X33073Y37862D01*
X32768Y38020D01*
X32450Y38152D01*
X32122Y38255D01*
X31787Y38330D01*
X31446Y38375D01*
X31102Y38390D01*
D02*
G37*
G36*
X140551Y37011D02*
X138189D01*
X137880Y36998D01*
X137573Y36957D01*
X137271Y36890D01*
X136976Y36797D01*
X136690Y36679D01*
X136416Y36536D01*
X136155Y36370D01*
X135909Y36182D01*
X135681Y35972D01*
X135472Y35744D01*
X135284Y35499D01*
X135117Y35238D01*
X134975Y34964D01*
X134856Y34678D01*
X134763Y34383D01*
X134696Y34080D01*
X134656Y33774D01*
X134642Y33465D01*
X134656Y33156D01*
X134696Y32849D01*
X134763Y32547D01*
X134856Y32252D01*
X134975Y31966D01*
X135117Y31691D01*
X135284Y31430D01*
X135472Y31185D01*
X135681Y30957D01*
X135909Y30748D01*
X136155Y30559D01*
X136416Y30393D01*
X136690Y30250D01*
X136976Y30132D01*
X137271Y30039D01*
X137573Y29972D01*
X137880Y29931D01*
X138103Y29922D01*
Y29133D01*
X137880Y29124D01*
X137573Y29083D01*
X137271Y29016D01*
X136976Y28923D01*
X136690Y28805D01*
X136416Y28662D01*
X136155Y28496D01*
X135909Y28308D01*
X135681Y28098D01*
X135472Y27870D01*
X135284Y27625D01*
X135117Y27364D01*
X134975Y27089D01*
X134856Y26804D01*
X134763Y26509D01*
X134696Y26206D01*
X134656Y25900D01*
X134642Y25591D01*
X134656Y25281D01*
X134696Y24975D01*
X134763Y24673D01*
X134856Y24377D01*
X134975Y24092D01*
X135117Y23817D01*
X135284Y23556D01*
X135472Y23311D01*
X135681Y23083D01*
X135909Y22874D01*
X136155Y22685D01*
X136416Y22519D01*
X136690Y22376D01*
X136976Y22258D01*
X137271Y22165D01*
X137573Y22098D01*
X137880Y22057D01*
X138189Y22044D01*
X140551D01*
X140860Y22057D01*
X141167Y22098D01*
X141469Y22165D01*
X141764Y22258D01*
X142050Y22376D01*
X142324Y22519D01*
X142586Y22685D01*
X142831Y22874D01*
X143059Y23083D01*
X143268Y23311D01*
X143456Y23556D01*
X143623Y23817D01*
X143766Y24092D01*
X143884Y24377D01*
X143977Y24673D01*
X144044Y24975D01*
X144084Y25281D01*
X144098Y25591D01*
X144084Y25900D01*
X144044Y26206D01*
X143977Y26509D01*
X143884Y26804D01*
X143766Y27089D01*
X143623Y27364D01*
X143456Y27625D01*
X143268Y27870D01*
X143059Y28098D01*
X142831Y28308D01*
X142586Y28496D01*
X142324Y28662D01*
X142050Y28805D01*
X141764Y28923D01*
X141469Y29016D01*
X141167Y29083D01*
X140860Y29124D01*
X140637Y29133D01*
Y29922D01*
X140860Y29931D01*
X141167Y29972D01*
X141469Y30039D01*
X141764Y30132D01*
X142050Y30250D01*
X142324Y30393D01*
X142586Y30559D01*
X142831Y30748D01*
X143059Y30957D01*
X143268Y31185D01*
X143456Y31430D01*
X143623Y31691D01*
X143766Y31966D01*
X143884Y32252D01*
X143977Y32547D01*
X144044Y32849D01*
X144084Y33156D01*
X144098Y33465D01*
X144084Y33774D01*
X144044Y34080D01*
X143977Y34383D01*
X143884Y34678D01*
X143766Y34964D01*
X143623Y35238D01*
X143456Y35499D01*
X143268Y35744D01*
X143059Y35972D01*
X142831Y36182D01*
X142586Y36370D01*
X142324Y36536D01*
X142050Y36679D01*
X141764Y36797D01*
X141469Y36890D01*
X141167Y36957D01*
X140860Y36998D01*
X140551Y37011D01*
D02*
G37*
G36*
X31102Y28547D02*
X29528D01*
X29184Y28532D01*
X28843Y28487D01*
X28508Y28413D01*
X28180Y28309D01*
X27862Y28178D01*
X27557Y28019D01*
X27267Y27834D01*
X26994Y27625D01*
X26741Y27393D01*
X26509Y27139D01*
X26300Y26867D01*
X26115Y26577D01*
X25956Y26272D01*
X25824Y25954D01*
X25721Y25626D01*
X25647Y25291D01*
X25602Y24950D01*
X25587Y24606D01*
X25602Y24263D01*
X25647Y23922D01*
X25721Y23586D01*
X25824Y23258D01*
X25956Y22941D01*
X26115Y22636D01*
X26300Y22346D01*
X26509Y22073D01*
X26741Y21820D01*
X26994Y21587D01*
X27267Y21378D01*
X27557Y21193D01*
X27862Y21035D01*
X28180Y20903D01*
X28508Y20800D01*
X28843Y20725D01*
X29184Y20681D01*
X29528Y20665D01*
X31102D01*
X31446Y20681D01*
X31787Y20725D01*
X32122Y20800D01*
X32450Y20903D01*
X32768Y21035D01*
X33073Y21193D01*
X33363Y21378D01*
X33635Y21587D01*
X33889Y21820D01*
X34121Y22073D01*
X34330Y22346D01*
X34515Y22636D01*
X34674Y22941D01*
X34806Y23258D01*
X34909Y23586D01*
X34983Y23922D01*
X35028Y24263D01*
X35043Y24606D01*
X35028Y24950D01*
X34983Y25291D01*
X34909Y25626D01*
X34806Y25954D01*
X34674Y26272D01*
X34515Y26577D01*
X34330Y26867D01*
X34121Y27139D01*
X33889Y27393D01*
X33635Y27625D01*
X33363Y27834D01*
X33073Y28019D01*
X32768Y28178D01*
X32450Y28309D01*
X32122Y28413D01*
X31787Y28487D01*
X31446Y28532D01*
X31102Y28547D01*
D02*
G37*
G36*
X50959Y28465D02*
X50616D01*
X50273Y28435D01*
X49935Y28375D01*
X49602Y28286D01*
X49279Y28168D01*
X48968Y28023D01*
X48670Y27851D01*
X48388Y27654D01*
X48125Y27433D01*
X47882Y27190D01*
X47661Y26926D01*
X47464Y26645D01*
X47292Y26347D01*
X47147Y26036D01*
X47029Y25713D01*
X46940Y25381D01*
X46880Y25042D01*
X46850Y24699D01*
Y24356D01*
X46880Y24013D01*
X46940Y23675D01*
X47029Y23343D01*
X47147Y23020D01*
X47292Y22708D01*
X47464Y22410D01*
X47661Y22129D01*
X47882Y21865D01*
X48125Y21622D01*
X48388Y21401D01*
X48670Y21204D01*
X48968Y21032D01*
X49279Y20887D01*
X49602Y20769D01*
X49935Y20680D01*
X50273Y20620D01*
X50616Y20591D01*
X50959D01*
X51302Y20620D01*
X51640Y20680D01*
X51972Y20769D01*
X52296Y20887D01*
X52607Y21032D01*
X52905Y21204D01*
X53186Y21401D01*
X53450Y21622D01*
X53693Y21865D01*
X53914Y22129D01*
X54111Y22410D01*
X54283Y22708D01*
X54428Y23020D01*
X54546Y23343D01*
X54635Y23675D01*
X54694Y24013D01*
X54724Y24356D01*
Y24699D01*
X54694Y25042D01*
X54635Y25381D01*
X54546Y25713D01*
X54428Y26036D01*
X54283Y26347D01*
X54111Y26645D01*
X53914Y26926D01*
X53693Y27190D01*
X53450Y27433D01*
X53186Y27654D01*
X52905Y27851D01*
X52607Y28023D01*
X52296Y28168D01*
X51972Y28286D01*
X51640Y28375D01*
X51302Y28435D01*
X50959Y28465D01*
D02*
G37*
G36*
X147783Y23622D02*
X147493D01*
X147204Y23594D01*
X146920Y23537D01*
X146642Y23453D01*
X146374Y23342D01*
X146118Y23205D01*
X145877Y23044D01*
X145652Y22860D01*
X145447Y22655D01*
X145263Y22430D01*
X145102Y22189D01*
X144965Y21933D01*
X144854Y21665D01*
X144770Y21388D01*
X144713Y21103D01*
X144685Y20814D01*
Y20524D01*
X144713Y20235D01*
X144770Y19951D01*
X144854Y19673D01*
X144965Y19405D01*
X145102Y19149D01*
X145263Y18908D01*
X145447Y18684D01*
X145652Y18479D01*
X145877Y18295D01*
X146118Y18134D01*
X146374Y17997D01*
X146642Y17886D01*
X146920Y17802D01*
X147204Y17745D01*
X147493Y17717D01*
X147783D01*
X148072Y17745D01*
X148356Y17802D01*
X148634Y17886D01*
X148902Y17997D01*
X149158Y18134D01*
X149399Y18295D01*
X149623Y18479D01*
X149828Y18684D01*
X150012Y18908D01*
X150173Y19149D01*
X150310Y19405D01*
X150421Y19673D01*
X150505Y19951D01*
X150562Y20235D01*
X150591Y20524D01*
Y20814D01*
X150562Y21103D01*
X150505Y21388D01*
X150421Y21665D01*
X150310Y21933D01*
X150173Y22189D01*
X150012Y22430D01*
X149828Y22655D01*
X149623Y22860D01*
X149399Y23044D01*
X149158Y23205D01*
X148902Y23342D01*
X148634Y23453D01*
X148356Y23537D01*
X148072Y23594D01*
X147783Y23622D01*
D02*
G37*
G36*
X140551Y19295D02*
X140157D01*
Y16535D01*
X144006D01*
X143977Y16666D01*
X143884Y16961D01*
X143766Y17247D01*
X143623Y17521D01*
X143456Y17782D01*
X143268Y18028D01*
X143059Y18256D01*
X142831Y18465D01*
X142586Y18653D01*
X142324Y18820D01*
X142050Y18962D01*
X141764Y19081D01*
X141469Y19174D01*
X141167Y19241D01*
X140860Y19281D01*
X140551Y19295D01*
D02*
G37*
G36*
X138583D02*
X138189D01*
X137880Y19281D01*
X137573Y19241D01*
X137271Y19174D01*
X136976Y19081D01*
X136690Y18962D01*
X136416Y18820D01*
X136155Y18653D01*
X135909Y18465D01*
X135681Y18256D01*
X135472Y18028D01*
X135284Y17782D01*
X135117Y17521D01*
X134975Y17247D01*
X134856Y16961D01*
X134763Y16666D01*
X134734Y16535D01*
X138583D01*
Y19295D01*
D02*
G37*
G36*
X31102Y18704D02*
Y15551D01*
X34960D01*
X34909Y15784D01*
X34806Y16112D01*
X34674Y16429D01*
X34515Y16734D01*
X34330Y17024D01*
X34121Y17297D01*
X33889Y17550D01*
X33635Y17783D01*
X33363Y17992D01*
X33073Y18177D01*
X32768Y18335D01*
X32450Y18467D01*
X32122Y18570D01*
X31787Y18645D01*
X31446Y18689D01*
X31102Y18704D01*
D02*
G37*
G36*
X29528D02*
X29528D01*
X29184Y18689D01*
X28843Y18645D01*
X28508Y18570D01*
X28180Y18467D01*
X27862Y18335D01*
X27557Y18177D01*
X27267Y17992D01*
X26994Y17783D01*
X26741Y17550D01*
X26509Y17297D01*
X26300Y17024D01*
X26115Y16734D01*
X25956Y16429D01*
X25824Y16112D01*
X25721Y15784D01*
X25670Y15551D01*
X29528D01*
Y18704D01*
D02*
G37*
G36*
X144006Y14961D02*
X140157D01*
Y12201D01*
X140551D01*
X140860Y12215D01*
X141167Y12255D01*
X141469Y12322D01*
X141764Y12415D01*
X142050Y12534D01*
X142324Y12676D01*
X142586Y12843D01*
X142831Y13031D01*
X143059Y13240D01*
X143268Y13468D01*
X143456Y13714D01*
X143623Y13975D01*
X143766Y14249D01*
X143884Y14535D01*
X143977Y14830D01*
X144006Y14961D01*
D02*
G37*
G36*
X138583D02*
X134734D01*
X134763Y14830D01*
X134856Y14535D01*
X134975Y14249D01*
X135117Y13975D01*
X135284Y13714D01*
X135472Y13468D01*
X135681Y13240D01*
X135909Y13031D01*
X136155Y12843D01*
X136416Y12676D01*
X136690Y12534D01*
X136976Y12415D01*
X137271Y12322D01*
X137573Y12255D01*
X137880Y12215D01*
X138189Y12201D01*
X138583D01*
Y14961D01*
D02*
G37*
G36*
X34960Y13976D02*
X31102D01*
Y10823D01*
X31446Y10838D01*
X31787Y10883D01*
X32122Y10957D01*
X32450Y11061D01*
X32768Y11192D01*
X33073Y11351D01*
X33363Y11536D01*
X33635Y11745D01*
X33889Y11977D01*
X34121Y12231D01*
X34330Y12504D01*
X34515Y12793D01*
X34674Y13098D01*
X34806Y13416D01*
X34909Y13744D01*
X34960Y13976D01*
D02*
G37*
G36*
X29528D02*
X25670D01*
X25721Y13744D01*
X25824Y13416D01*
X25956Y13098D01*
X26115Y12793D01*
X26300Y12504D01*
X26509Y12231D01*
X26741Y11977D01*
X26994Y11745D01*
X27267Y11536D01*
X27557Y11351D01*
X27862Y11192D01*
X28180Y11061D01*
X28508Y10957D01*
X28843Y10883D01*
X29184Y10838D01*
X29528Y10823D01*
X29528D01*
Y13976D01*
D02*
G37*
G36*
X152165Y11420D02*
X143110D01*
X142859Y11408D01*
X142610Y11371D01*
X142367Y11310D01*
X142130Y11225D01*
X141902Y11118D01*
X141687Y10989D01*
X141485Y10839D01*
X141298Y10670D01*
X141130Y10484D01*
X140980Y10282D01*
X140851Y10066D01*
X140743Y9839D01*
X140658Y9602D01*
X140597Y9358D01*
X140560Y9109D01*
X140548Y8858D01*
Y5315D01*
X140560Y5064D01*
X140597Y4815D01*
X140658Y4571D01*
X140743Y4335D01*
X140851Y4107D01*
X140980Y3892D01*
X141130Y3690D01*
X141298Y3503D01*
X141485Y3334D01*
X141687Y3185D01*
X141902Y3055D01*
X142130Y2948D01*
X142367Y2863D01*
X142610Y2802D01*
X142859Y2765D01*
X143110Y2753D01*
X152165D01*
X152417Y2765D01*
X152665Y2802D01*
X152909Y2863D01*
X153146Y2948D01*
X153373Y3055D01*
X153589Y3185D01*
X153791Y3334D01*
X153977Y3503D01*
X154146Y3690D01*
X154296Y3892D01*
X154425Y4107D01*
X154533Y4335D01*
X154617Y4571D01*
X154678Y4815D01*
X154715Y5064D01*
X154727Y5315D01*
Y8858D01*
X154715Y9109D01*
X154678Y9358D01*
X154617Y9602D01*
X154533Y9839D01*
X154425Y10066D01*
X154296Y10282D01*
X154146Y10484D01*
X153977Y10670D01*
X153791Y10839D01*
X153589Y10989D01*
X153373Y11118D01*
X153146Y11225D01*
X152909Y11310D01*
X152665Y11371D01*
X152417Y11408D01*
X152165Y11420D01*
D02*
G37*
%LPD*%
D10*
X40394Y24567D02*
X45669Y19291D01*
Y10236D02*
X47441Y8465D01*
X45669Y10236D02*
Y19291D01*
X79134Y17717D02*
X84646D01*
X69488D02*
X72874D01*
X68110Y39173D02*
X72047D01*
X75591Y25000D02*
Y35630D01*
X72047Y39173D02*
X75591Y35630D01*
Y25000D02*
X79134Y21457D01*
Y17717D02*
Y21457D01*
X75875Y8465D02*
X79221Y11811D01*
X47441Y8465D02*
X75875D01*
X40394Y7047D02*
X43110Y4331D01*
X78347D02*
X79528Y5512D01*
X43110Y4331D02*
X78347D01*
X66142Y41142D02*
X68110Y39173D01*
X66142Y41142D02*
Y48819D01*
X79221Y11811D02*
X82677D01*
X103279D02*
X103740Y12272D01*
Y15551D01*
X88937Y11811D02*
X103279D01*
X82677Y5512D02*
X82717D01*
X79528D02*
X82677D01*
X108071Y16732D02*
X109055Y15748D01*
Y10433D02*
Y15748D01*
X104134Y5512D02*
X109055Y10433D01*
X103740Y15551D02*
X104921Y16732D01*
X88976Y5512D02*
X104134D01*
X40394Y24567D02*
Y34528D01*
Y7047D02*
Y14528D01*
D43*
X58071Y35039D02*
Y37244D01*
X59252Y33858D02*
X63386D01*
X58071Y35039D02*
X59252Y33858D01*
X50787Y44528D02*
X58071Y37244D01*
X69291Y17913D02*
Y24449D01*
Y14567D02*
Y17913D01*
X69488Y17717D01*
X60394Y14528D02*
X69252D01*
X69291Y14567D01*
Y24449D02*
X69646Y24803D01*
X64173Y25591D02*
Y33071D01*
X60394Y44528D02*
Y52008D01*
X62717Y54331D02*
X131164D01*
X53937Y52402D02*
X60787D01*
X62717Y54331D01*
X131164D02*
X132874Y52621D01*
Y50787D02*
Y52621D01*
X63386Y33858D02*
X64173Y33071D01*
X63386Y24803D02*
X64173Y25591D01*
X40394Y50433D02*
X42323Y52362D01*
X47638D01*
X40394Y34528D02*
Y50433D01*
D45*
X30315Y44291D02*
D03*
D46*
Y34449D02*
D03*
Y14764D02*
D03*
Y24606D02*
D03*
D47*
X50787Y14528D02*
D03*
Y24528D02*
D03*
Y34528D02*
D03*
D48*
Y44528D02*
D03*
D49*
X60394D02*
D03*
X40394Y34528D02*
D03*
Y14528D02*
D03*
X60394D02*
D03*
Y44528D02*
D03*
Y14528D02*
D03*
D50*
X139370Y43307D02*
D03*
D51*
Y25591D02*
D03*
Y33465D02*
D03*
Y15748D02*
D03*
D52*
X147638Y7087D02*
D03*
Y51968D02*
D03*
D53*
X93307Y9646D02*
D03*
X116732Y27756D02*
D03*
X93307Y14567D02*
D03*
X81693Y48228D02*
D03*
X84646Y17717D02*
D03*
X69291Y14567D02*
D03*
X111811Y10236D02*
D03*
X66142Y48819D02*
D03*
X108071Y16732D02*
D03*
X104921D02*
D03*
X125591Y44685D02*
D03*
X132874Y50787D02*
D03*
X119882D02*
D03*
X116142Y47047D02*
D03*
X122835Y10236D02*
D03*
X105118Y50787D02*
D03*
D54*
X82677Y11811D02*
D03*
Y5512D02*
D03*
X63386Y33858D02*
D03*
Y24803D02*
D03*
X47638Y52362D02*
D03*
D55*
X88937Y11811D02*
D03*
Y5512D02*
D03*
X69646Y33858D02*
D03*
Y24803D02*
D03*
X53898Y52362D02*
D03*
D56*
X79134Y17717D02*
D03*
D57*
X72874D02*
D03*
M02*
