G04*
G04 #@! TF.GenerationSoftware,Altium Limited,Altium Designer,24.1.2 (44)*
G04*
G04 Layer_Color=15132400*
%FSLAX25Y25*%
%MOIN*%
G70*
G04*
G04 #@! TF.SameCoordinates,BDA9EC6A-9AC3-4E12-91BF-0EC6BD0774E5*
G04*
G04*
G04 #@! TF.FilePolarity,Positive*
G04*
G01*
G75*
%ADD10C,0.00787*%
%ADD11C,0.00591*%
%ADD12C,0.00472*%
D10*
X153347Y46063D02*
X155512D01*
Y29528D02*
Y46063D01*
Y12992D02*
Y29528D01*
X153347Y12992D02*
X155512D01*
X69095Y17126D02*
X70472D01*
X69095D02*
Y41929D01*
X81496D02*
X82874D01*
Y17126D02*
Y41929D01*
X81496Y17126D02*
X82874D01*
X69095Y41929D02*
X70472D01*
X82874Y17717D02*
Y41339D01*
X86221Y25591D02*
Y39764D01*
X60394Y21654D02*
X60394Y18504D01*
X60394Y40551D02*
X60394Y37402D01*
X62913Y21654D02*
Y37402D01*
X57874Y21654D02*
X62913D01*
X57874Y37402D02*
X62913D01*
X57874Y21654D02*
Y37402D01*
X46063Y9843D02*
X55512D01*
X46063Y49213D02*
X55512D01*
Y9843D02*
Y49213D01*
X46063Y9843D02*
Y49213D01*
X64173Y8661D02*
Y50394D01*
X36614D02*
X64173D01*
X36614Y8661D02*
X64173D01*
X36614D02*
Y50394D01*
X100197Y13386D02*
Y15748D01*
X99606Y7480D02*
Y11417D01*
X96457Y7480D02*
X99606D01*
X87795D02*
Y11417D01*
Y7480D02*
X90945D01*
X111417Y25591D02*
Y39764D01*
X86221D02*
X111417D01*
X86221Y25591D02*
X111417D01*
X85236Y19291D02*
Y23228D01*
X111811Y49212D02*
X112598D01*
X111811Y52362D02*
X112598D01*
X101968Y9843D02*
Y10630D01*
X105118Y9843D02*
Y10630D01*
X125591Y49311D02*
X126378D01*
X125591Y52264D02*
X126378D01*
X116142Y9842D02*
Y10630D01*
X112992Y9842D02*
Y10630D01*
X107480Y9843D02*
Y10630D01*
X110630Y9843D02*
Y10630D01*
X117618Y40551D02*
Y41338D01*
X114666Y40551D02*
Y41338D01*
X118898Y16142D02*
X121260D01*
X118504Y9842D02*
Y10630D01*
X121654Y9842D02*
Y10630D01*
X127362Y20866D02*
Y32677D01*
X123819Y20866D02*
Y32677D01*
Y20866D02*
X127362D01*
X123819Y32677D02*
X127362D01*
X119095Y33268D02*
X121457D01*
X129134Y35039D02*
Y38189D01*
X125197Y35039D02*
X129134D01*
Y43701D02*
Y46850D01*
X125197D02*
X129134D01*
X120866Y47441D02*
X123228D01*
X132677Y9842D02*
Y10630D01*
X129528Y9842D02*
Y10630D01*
X127166Y9842D02*
Y10630D01*
X124016Y9842D02*
Y10630D01*
X124409Y16142D02*
X126772D01*
X86614Y52264D02*
X87402D01*
X86614Y49311D02*
X87402D01*
X98425Y49311D02*
X99212D01*
X98425Y52263D02*
X99212D01*
X68701Y51575D02*
X70472D01*
X71653Y51379D02*
X76378D01*
X71653Y46260D02*
X76378D01*
X68701Y12992D02*
X70472D01*
X71653Y12796D02*
X76378D01*
X71653Y7678D02*
X76378D01*
X4724Y5118D02*
Y53937D01*
X6693D01*
X4724Y5118D02*
X6693D01*
X82284Y9842D02*
Y10630D01*
X85433Y9842D02*
Y10630D01*
D11*
X23720Y24606D02*
X25098D01*
X23720D02*
Y26587D01*
X22008Y26975D02*
X23917Y33011D01*
Y34640D01*
X25295D01*
X43110Y42913D02*
X44422D01*
X43766D01*
Y46849D01*
X43110Y46193D01*
D12*
X115827Y19763D02*
Y17402D01*
X117401D01*
X118188Y19763D02*
Y17402D01*
X119369D01*
X119763Y17795D01*
Y19369D01*
X119369Y19763D01*
X118188D01*
X120550Y17402D02*
X121337D01*
X120943D01*
Y19763D01*
X120550Y19369D01*
X22362Y25472D02*
Y23898D01*
X20788Y25472D01*
X20394D01*
X20001Y25078D01*
Y24291D01*
X20394Y23898D01*
X22362Y34134D02*
Y34921D01*
Y34527D01*
X20001D01*
X20394Y34134D01*
X124488Y19763D02*
Y17402D01*
X126063D01*
X126850Y19763D02*
Y17402D01*
X128030D01*
X128424Y17795D01*
Y19369D01*
X128030Y19763D01*
X126850D01*
X130785Y17402D02*
X129211D01*
X130785Y18976D01*
Y19369D01*
X130392Y19763D01*
X129605D01*
X129211Y19369D01*
X23150Y13309D02*
X22757Y12915D01*
Y12128D01*
X23150Y11734D01*
X24724D01*
X25118Y12128D01*
Y12915D01*
X24724Y13309D01*
X23937D01*
Y12521D01*
X25118Y14096D02*
X22757D01*
X25118Y15670D01*
X22757D01*
Y16457D02*
X25118D01*
Y17638D01*
X24724Y18032D01*
X23150D01*
X22757Y17638D01*
Y16457D01*
Y41221D02*
Y42008D01*
Y41614D01*
X25118D01*
Y41221D01*
Y42008D01*
Y43188D02*
X22757D01*
X25118Y44763D01*
X22757D01*
X25118Y45550D02*
X22757D01*
Y46731D01*
X23150Y47124D01*
X23937D01*
X24331Y46731D01*
Y45550D01*
X50394Y54330D02*
X49607D01*
X50000D01*
Y52363D01*
X49607Y51969D01*
X49213D01*
X48820Y52363D01*
X52755Y51969D02*
X51181D01*
X52755Y53543D01*
Y53937D01*
X52362Y54330D01*
X51574D01*
X51181Y53937D01*
X110237Y53741D02*
Y56102D01*
X111418D01*
X111811Y55708D01*
Y54921D01*
X111418Y54528D01*
X110237D01*
X111024D02*
X111811Y53741D01*
X112598Y56102D02*
X114173D01*
Y55708D01*
X112598Y54134D01*
Y53741D01*
X61574Y27560D02*
X59213D01*
Y28740D01*
X59607Y29134D01*
X60394D01*
X60787Y28740D01*
Y27560D01*
Y28347D02*
X61574Y29134D01*
X59607Y29921D02*
X59213Y30315D01*
Y31102D01*
X59607Y31495D01*
X60000D01*
X60394Y31102D01*
Y30708D01*
Y31102D01*
X60787Y31495D01*
X61181D01*
X61574Y31102D01*
Y30315D01*
X61181Y29921D01*
X107087Y2363D02*
Y4724D01*
X108268D01*
X108661Y4330D01*
Y3543D01*
X108268Y3150D01*
X107087D01*
X107874D02*
X108661Y2363D01*
X110629D02*
Y4724D01*
X109449Y3543D01*
X111023D01*
X101575Y2363D02*
Y4724D01*
X102756D01*
X103150Y4330D01*
Y3543D01*
X102756Y3150D01*
X101575D01*
X102363D02*
X103150Y2363D01*
X105511D02*
X103937D01*
X105511Y3937D01*
Y4330D01*
X105118Y4724D01*
X104330D01*
X103937Y4330D01*
X129135Y2363D02*
Y4724D01*
X130315D01*
X130709Y4330D01*
Y3543D01*
X130315Y3150D01*
X129135D01*
X129922D02*
X130709Y2363D01*
X133070Y4724D02*
X132283Y4330D01*
X131496Y3543D01*
Y2756D01*
X131889Y2363D01*
X132677D01*
X133070Y2756D01*
Y3150D01*
X132677Y3543D01*
X131496D01*
X72048Y6299D02*
Y3937D01*
X73229D01*
X73622Y4331D01*
Y5905D01*
X73229Y6299D01*
X72048D01*
X75984Y3937D02*
X74409D01*
X75984Y5512D01*
Y5905D01*
X75590Y6299D01*
X74803D01*
X74409Y5905D01*
X72441Y55118D02*
Y52756D01*
X73622D01*
X74016Y53150D01*
Y54724D01*
X73622Y55118D01*
X72441D01*
X74803Y52756D02*
X75590D01*
X75196D01*
Y55118D01*
X74803Y54724D01*
X67913Y27363D02*
X65552D01*
Y28544D01*
X65945Y28937D01*
X66732D01*
X67126Y28544D01*
Y27363D01*
X65552Y29724D02*
X67913D01*
Y30905D01*
X67519Y31299D01*
X67126D01*
X66732Y30905D01*
Y29724D01*
Y30905D01*
X66339Y31299D01*
X65945D01*
X65552Y30905D01*
Y29724D01*
X67913Y32086D02*
Y32873D01*
Y32480D01*
X65552D01*
X65945Y32086D01*
X86614Y55708D02*
X86221Y56102D01*
X85434D01*
X85040Y55708D01*
Y54134D01*
X85434Y53741D01*
X86221D01*
X86614Y54134D01*
X88976Y53741D02*
X87401D01*
X88976Y55315D01*
Y55708D01*
X88582Y56102D01*
X87795D01*
X87401Y55708D01*
X137008Y8661D02*
X136221D01*
X136614D01*
Y6693D01*
X136221Y6300D01*
X135827D01*
X135434Y6693D01*
X137795Y8267D02*
X138189Y8661D01*
X138976D01*
X139369Y8267D01*
Y7874D01*
X138976Y7480D01*
X138582D01*
X138976D01*
X139369Y7087D01*
Y6693D01*
X138976Y6300D01*
X138189D01*
X137795Y6693D01*
X130709Y43701D02*
X132677D01*
X133071Y44095D01*
Y44882D01*
X132677Y45276D01*
X130709D01*
X133071Y47637D02*
Y46063D01*
X131496Y47637D01*
X131103D01*
X130709Y47244D01*
Y46456D01*
X131103Y46063D01*
X83071Y43504D02*
X85039D01*
X85433Y43898D01*
Y44685D01*
X85039Y45079D01*
X83071D01*
X85433Y45866D02*
Y46653D01*
Y46259D01*
X83071D01*
X83465Y45866D01*
X112599Y2363D02*
Y4724D01*
X113780D01*
X114173Y4330D01*
Y3543D01*
X113780Y3150D01*
X112599D01*
X113386D02*
X114173Y2363D01*
X116535Y4724D02*
X114961D01*
Y3543D01*
X115748Y3937D01*
X116141D01*
X116535Y3543D01*
Y2756D01*
X116141Y2363D01*
X115354D01*
X114961Y2756D01*
X82481Y2363D02*
Y4724D01*
X83662D01*
X84055Y4330D01*
Y3543D01*
X83662Y3150D01*
X82481D01*
X83268D02*
X84055Y2363D01*
X84842D02*
X85629D01*
X85236D01*
Y4724D01*
X84842Y4330D01*
X89173Y4134D02*
Y5708D01*
X88780Y6102D01*
X87993D01*
X87599Y5708D01*
Y4134D01*
X87993Y3740D01*
X88780D01*
X88386Y4528D02*
X89173Y3740D01*
X88780D02*
X89173Y4134D01*
X89960Y3740D02*
X90747D01*
X90354D01*
Y6102D01*
X89960Y5708D01*
X60040Y54330D02*
Y51969D01*
Y52756D01*
X61614Y54330D01*
X60434Y53150D01*
X61614Y51969D01*
X62401D02*
X63188D01*
X62795D01*
Y54330D01*
X62401Y53937D01*
X30512Y54330D02*
X29725D01*
X30118D01*
Y52363D01*
X29725Y51969D01*
X29331D01*
X28938Y52363D01*
X31299Y51969D02*
X32086D01*
X31692D01*
Y54330D01*
X31299Y53937D01*
X114567Y25001D02*
X116929D01*
Y26181D01*
X116535Y26575D01*
X114961D01*
X114567Y26181D01*
Y25001D01*
X114961Y27362D02*
X114567Y27756D01*
Y28543D01*
X114961Y28936D01*
X115355D01*
X115748Y28543D01*
Y28149D01*
Y28543D01*
X116142Y28936D01*
X116535D01*
X116929Y28543D01*
Y27756D01*
X116535Y27362D01*
X115355Y34842D02*
X114961Y35236D01*
X114174D01*
X113780Y34842D01*
Y33268D01*
X114174Y32874D01*
X114961D01*
X115355Y33268D01*
X117322Y32874D02*
Y35236D01*
X116142Y34055D01*
X117716D01*
X125591Y55511D02*
X125197Y55905D01*
X124410D01*
X124016Y55511D01*
Y53937D01*
X124410Y53544D01*
X125197D01*
X125591Y53937D01*
X126378Y55511D02*
X126771Y55905D01*
X127559D01*
X127952Y55511D01*
Y55118D01*
X127559Y54724D01*
X127165D01*
X127559D01*
X127952Y54331D01*
Y53937D01*
X127559Y53544D01*
X126771D01*
X126378Y53937D01*
X98819Y55708D02*
X98425Y56102D01*
X97638D01*
X97245Y55708D01*
Y54134D01*
X97638Y53741D01*
X98425D01*
X98819Y54134D01*
X99606Y53741D02*
X100393D01*
X100000D01*
Y56102D01*
X99606Y55708D01*
M02*
