G04*
G04 #@! TF.GenerationSoftware,Altium Limited,Altium Designer,24.1.2 (44)*
G04*
G04 Layer_Color=20142*
%FSLAX25Y25*%
%MOIN*%
G70*
G04*
G04 #@! TF.SameCoordinates,88DA356C-355F-4143-99CD-49144B340763*
G04*
G04*
G04 #@! TF.FilePolarity,Negative*
G04*
G01*
G75*
%ADD23R,0.24803X0.05118*%
G04:AMPARAMS|DCode=24|XSize=74.02mil|YSize=66.14mil|CornerRadius=17.32mil|HoleSize=0mil|Usage=FLASHONLY|Rotation=270.000|XOffset=0mil|YOffset=0mil|HoleType=Round|Shape=RoundedRectangle|*
%AMROUNDEDRECTD24*
21,1,0.07402,0.03150,0,0,270.0*
21,1,0.03937,0.06614,0,0,270.0*
1,1,0.03465,-0.01575,-0.01968*
1,1,0.03465,-0.01575,0.01968*
1,1,0.03465,0.01575,0.01968*
1,1,0.03465,0.01575,-0.01968*
%
%ADD24ROUNDEDRECTD24*%
G04:AMPARAMS|DCode=25|XSize=34.65mil|YSize=38.58mil|CornerRadius=9.45mil|HoleSize=0mil|Usage=FLASHONLY|Rotation=0.000|XOffset=0mil|YOffset=0mil|HoleType=Round|Shape=RoundedRectangle|*
%AMROUNDEDRECTD25*
21,1,0.03465,0.01968,0,0,0.0*
21,1,0.01575,0.03858,0,0,0.0*
1,1,0.01890,0.00787,-0.00984*
1,1,0.01890,-0.00787,-0.00984*
1,1,0.01890,-0.00787,0.00984*
1,1,0.01890,0.00787,0.00984*
%
%ADD25ROUNDEDRECTD25*%
G04:AMPARAMS|DCode=26|XSize=18.9mil|YSize=62.21mil|CornerRadius=5.51mil|HoleSize=0mil|Usage=FLASHONLY|Rotation=180.000|XOffset=0mil|YOffset=0mil|HoleType=Round|Shape=RoundedRectangle|*
%AMROUNDEDRECTD26*
21,1,0.01890,0.05118,0,0,180.0*
21,1,0.00787,0.06221,0,0,180.0*
1,1,0.01102,-0.00394,0.02559*
1,1,0.01102,0.00394,0.02559*
1,1,0.01102,0.00394,-0.02559*
1,1,0.01102,-0.00394,-0.02559*
%
%ADD26ROUNDEDRECTD26*%
G04:AMPARAMS|DCode=27|XSize=38.58mil|YSize=34.65mil|CornerRadius=9.45mil|HoleSize=0mil|Usage=FLASHONLY|Rotation=270.000|XOffset=0mil|YOffset=0mil|HoleType=Round|Shape=RoundedRectangle|*
%AMROUNDEDRECTD27*
21,1,0.03858,0.01575,0,0,270.0*
21,1,0.01968,0.03465,0,0,270.0*
1,1,0.01890,-0.00787,-0.00984*
1,1,0.01890,-0.00787,0.00984*
1,1,0.01890,0.00787,0.00984*
1,1,0.01890,0.00787,-0.00984*
%
%ADD27ROUNDEDRECTD27*%
G04:AMPARAMS|DCode=28|XSize=38.58mil|YSize=34.65mil|CornerRadius=9.45mil|HoleSize=0mil|Usage=FLASHONLY|Rotation=180.000|XOffset=0mil|YOffset=0mil|HoleType=Round|Shape=RoundedRectangle|*
%AMROUNDEDRECTD28*
21,1,0.03858,0.01575,0,0,180.0*
21,1,0.01968,0.03465,0,0,180.0*
1,1,0.01890,-0.00984,0.00787*
1,1,0.01890,0.00984,0.00787*
1,1,0.01890,0.00984,-0.00787*
1,1,0.01890,-0.00984,-0.00787*
%
%ADD28ROUNDEDRECTD28*%
G04:AMPARAMS|DCode=29|XSize=42.52mil|YSize=34.65mil|CornerRadius=9.45mil|HoleSize=0mil|Usage=FLASHONLY|Rotation=90.000|XOffset=0mil|YOffset=0mil|HoleType=Round|Shape=RoundedRectangle|*
%AMROUNDEDRECTD29*
21,1,0.04252,0.01575,0,0,90.0*
21,1,0.02362,0.03465,0,0,90.0*
1,1,0.01890,0.00787,0.01181*
1,1,0.01890,0.00787,-0.01181*
1,1,0.01890,-0.00787,-0.01181*
1,1,0.01890,-0.00787,0.01181*
%
%ADD29ROUNDEDRECTD29*%
G04:AMPARAMS|DCode=30|XSize=42.52mil|YSize=34.65mil|CornerRadius=9.45mil|HoleSize=0mil|Usage=FLASHONLY|Rotation=0.000|XOffset=0mil|YOffset=0mil|HoleType=Round|Shape=RoundedRectangle|*
%AMROUNDEDRECTD30*
21,1,0.04252,0.01575,0,0,0.0*
21,1,0.02362,0.03465,0,0,0.0*
1,1,0.01890,0.01181,-0.00787*
1,1,0.01890,-0.01181,-0.00787*
1,1,0.01890,-0.01181,0.00787*
1,1,0.01890,0.01181,0.00787*
%
%ADD30ROUNDEDRECTD30*%
G04:AMPARAMS|DCode=31|XSize=26.77mil|YSize=42.52mil|CornerRadius=7.48mil|HoleSize=0mil|Usage=FLASHONLY|Rotation=90.000|XOffset=0mil|YOffset=0mil|HoleType=Round|Shape=RoundedRectangle|*
%AMROUNDEDRECTD31*
21,1,0.02677,0.02756,0,0,90.0*
21,1,0.01181,0.04252,0,0,90.0*
1,1,0.01496,0.01378,0.00591*
1,1,0.01496,0.01378,-0.00591*
1,1,0.01496,-0.01378,-0.00591*
1,1,0.01496,-0.01378,0.00591*
%
%ADD31ROUNDEDRECTD31*%
G04:AMPARAMS|DCode=32|XSize=34.65mil|YSize=38.58mil|CornerRadius=9.45mil|HoleSize=0mil|Usage=FLASHONLY|Rotation=90.000|XOffset=0mil|YOffset=0mil|HoleType=Round|Shape=RoundedRectangle|*
%AMROUNDEDRECTD32*
21,1,0.03465,0.01968,0,0,90.0*
21,1,0.01575,0.03858,0,0,90.0*
1,1,0.01890,0.00984,0.00787*
1,1,0.01890,0.00984,-0.00787*
1,1,0.01890,-0.00984,-0.00787*
1,1,0.01890,-0.00984,0.00787*
%
%ADD32ROUNDEDRECTD32*%
G04:AMPARAMS|DCode=33|XSize=34.65mil|YSize=30.71mil|CornerRadius=8.47mil|HoleSize=0mil|Usage=FLASHONLY|Rotation=90.000|XOffset=0mil|YOffset=0mil|HoleType=Round|Shape=RoundedRectangle|*
%AMROUNDEDRECTD33*
21,1,0.03465,0.01378,0,0,90.0*
21,1,0.01772,0.03071,0,0,90.0*
1,1,0.01693,0.00689,0.00886*
1,1,0.01693,0.00689,-0.00886*
1,1,0.01693,-0.00689,-0.00886*
1,1,0.01693,-0.00689,0.00886*
%
%ADD33ROUNDEDRECTD33*%
G04:AMPARAMS|DCode=34|XSize=66.14mil|YSize=81.89mil|CornerRadius=17.32mil|HoleSize=0mil|Usage=FLASHONLY|Rotation=270.000|XOffset=0mil|YOffset=0mil|HoleType=Round|Shape=RoundedRectangle|*
%AMROUNDEDRECTD34*
21,1,0.06614,0.04724,0,0,270.0*
21,1,0.03150,0.08189,0,0,270.0*
1,1,0.03465,-0.02362,-0.01575*
1,1,0.03465,-0.02362,0.01575*
1,1,0.03465,0.02362,0.01575*
1,1,0.03465,0.02362,-0.01575*
%
%ADD34ROUNDEDRECTD34*%
%ADD35O,0.08189X0.06614*%
%ADD36C,0.06614*%
G04:AMPARAMS|DCode=37|XSize=66.14mil|YSize=66.14mil|CornerRadius=17.32mil|HoleSize=0mil|Usage=FLASHONLY|Rotation=0.000|XOffset=0mil|YOffset=0mil|HoleType=Round|Shape=RoundedRectangle|*
%AMROUNDEDRECTD37*
21,1,0.06614,0.03150,0,0,0.0*
21,1,0.03150,0.06614,0,0,0.0*
1,1,0.03465,0.01575,-0.01575*
1,1,0.03465,-0.01575,-0.01575*
1,1,0.03465,-0.01575,0.01575*
1,1,0.03465,0.01575,0.01575*
%
%ADD37ROUNDEDRECTD37*%
G04:AMPARAMS|DCode=38|XSize=50.39mil|YSize=58.27mil|CornerRadius=13.39mil|HoleSize=0mil|Usage=FLASHONLY|Rotation=0.000|XOffset=0mil|YOffset=0mil|HoleType=Round|Shape=RoundedRectangle|*
%AMROUNDEDRECTD38*
21,1,0.05039,0.03150,0,0,0.0*
21,1,0.02362,0.05827,0,0,0.0*
1,1,0.02677,0.01181,-0.01575*
1,1,0.02677,-0.01181,-0.01575*
1,1,0.02677,-0.01181,0.01575*
1,1,0.02677,0.01181,0.01575*
%
%ADD38ROUNDEDRECTD38*%
%ADD39C,0.05118*%
G04:AMPARAMS|DCode=40|XSize=58.27mil|YSize=81.89mil|CornerRadius=15.35mil|HoleSize=0mil|Usage=FLASHONLY|Rotation=90.000|XOffset=0mil|YOffset=0mil|HoleType=Round|Shape=RoundedRectangle|*
%AMROUNDEDRECTD40*
21,1,0.05827,0.05118,0,0,90.0*
21,1,0.02756,0.08189,0,0,90.0*
1,1,0.03071,0.02559,0.01378*
1,1,0.03071,0.02559,-0.01378*
1,1,0.03071,-0.02559,-0.01378*
1,1,0.03071,-0.02559,0.01378*
%
%ADD40ROUNDEDRECTD40*%
%ADD41O,0.08189X0.05827*%
G04:AMPARAMS|DCode=42|XSize=74.02mil|YSize=129.13mil|CornerRadius=19.29mil|HoleSize=0mil|Usage=FLASHONLY|Rotation=90.000|XOffset=0mil|YOffset=0mil|HoleType=Round|Shape=RoundedRectangle|*
%AMROUNDEDRECTD42*
21,1,0.07402,0.09055,0,0,90.0*
21,1,0.03543,0.12913,0,0,90.0*
1,1,0.03858,0.04528,0.01772*
1,1,0.03858,0.04528,-0.01772*
1,1,0.03858,-0.04528,-0.01772*
1,1,0.03858,-0.04528,0.01772*
%
%ADD42ROUNDEDRECTD42*%
D23*
X98819Y44094D02*
D03*
Y21260D02*
D03*
D24*
X75984Y40157D02*
D03*
Y18898D02*
D03*
D25*
X97441Y14567D02*
D03*
X93701Y5906D02*
D03*
X89961Y14567D02*
D03*
D26*
X102657Y44094D02*
D03*
X105217D02*
D03*
X100098D02*
D03*
X110335D02*
D03*
X107776D02*
D03*
X94980D02*
D03*
X97539D02*
D03*
X92421D02*
D03*
X105217Y21260D02*
D03*
X110335D02*
D03*
X107776D02*
D03*
X94980D02*
D03*
X97539D02*
D03*
X92421D02*
D03*
X102657D02*
D03*
X100098D02*
D03*
X89862Y44094D02*
D03*
X87303D02*
D03*
X89862Y21260D02*
D03*
X87303D02*
D03*
D27*
X115354Y50787D02*
D03*
X109055D02*
D03*
D28*
X103543Y7087D02*
D03*
Y13386D02*
D03*
X114567D02*
D03*
Y7087D02*
D03*
X109055D02*
D03*
Y13386D02*
D03*
X120079Y7087D02*
D03*
Y13386D02*
D03*
X131102D02*
D03*
Y7087D02*
D03*
X125591Y13386D02*
D03*
Y7087D02*
D03*
X83858D02*
D03*
Y13386D02*
D03*
D29*
X122835Y50787D02*
D03*
X129134D02*
D03*
X90158D02*
D03*
X83858D02*
D03*
X95669D02*
D03*
X101969D02*
D03*
D30*
X116142Y37795D02*
D03*
Y44094D02*
D03*
D31*
X130905Y26772D02*
D03*
Y30512D02*
D03*
Y23031D02*
D03*
X120276D02*
D03*
Y26772D02*
D03*
Y30512D02*
D03*
D32*
X130709Y40945D02*
D03*
X122047Y37205D02*
D03*
Y44685D02*
D03*
D33*
X78347Y48819D02*
D03*
X69685D02*
D03*
X78347Y10236D02*
D03*
X69685D02*
D03*
D34*
X30315Y44291D02*
D03*
D35*
Y34449D02*
D03*
Y14764D02*
D03*
Y24606D02*
D03*
D36*
X50787Y14528D02*
D03*
Y24528D02*
D03*
Y34528D02*
D03*
D37*
Y44528D02*
D03*
D38*
X60394D02*
D03*
X40394Y34528D02*
D03*
Y14528D02*
D03*
X60394D02*
D03*
Y44528D02*
D03*
Y14528D02*
D03*
D39*
X147638Y38386D02*
D03*
Y20669D02*
D03*
D40*
X139370Y43307D02*
D03*
D41*
Y25591D02*
D03*
Y33465D02*
D03*
Y15748D02*
D03*
D42*
X147638Y7087D02*
D03*
Y51968D02*
D03*
M02*
