M48
;Layer_Color=6321
;FILE_FORMAT=2:5
INCH,TZ
;TYPE=PLATED
T01F00S00C0.01181
T02F00S00C0.02756
T03F00S00C0.03937
;TYPE=NON_PLATED
T05F00S00C0.04331
T06F00S00C0.07874
%
T01
X73425Y29921
X90945Y34252
X84843Y70473
X62008Y73228
X73425Y88976
X90945Y93307
X107087Y88780
X120866Y88976
X121850Y105512
X120079Y120276
X114173Y125787
X110433Y70473
X103150
X114173Y66732
X117913Y70473
X120079Y61221
X121850Y46457
X120866Y29921
X107087Y29724
X130905Y70473
X227362Y73228
X250197Y70473
X238780Y88976
Y29921
X256299Y34252
X272441Y29724
X286221Y29921
X287205Y46457
X285433Y61221
X283268Y70473
X275787
X268504
X279528Y66732
X296260Y70473
X286221Y88976
X272441Y88780
X256299Y93307
X287205Y105512
X285433Y120276
X279528Y125787
X275787Y129528
X268504
X283268
X296260
X286221Y148032
X272441Y147835
X256299Y152362
X287205Y164567
X285433Y179331
X283268Y188583
X275787
X268504
X279528Y184843
X296260Y188583
X286221Y207087
X272441Y206890
X256299Y211417
X287205Y223622
X285433Y238386
X283268Y247638
X275787
X268504
X279528Y243898
X296260Y247638
X286221Y266142
X272441Y265945
X256299Y270473
X287205Y282677
X238780Y266142
X227362Y250394
X250197Y247638
X238780Y207087
X227362Y191339
X250197Y188583
X238780Y148032
X227362Y132283
X250197Y129528
X130905
X117913
X110433
X103150
X107087Y147835
X120866Y148032
X121850Y164567
X120079Y179331
X117913Y188583
X110433
X103150
X114173Y184843
X130905Y188583
X120866Y207087
X107087Y206890
X121850Y223622
X120079Y238386
X117913Y247638
X110433
X103150
X114173Y243898
X130905Y247638
X120866Y266142
X107087Y265945
X121850Y282677
X90945Y270473
X73425Y266142
X62008Y250394
X84843Y247638
X90945Y211417
X73425Y207087
X62008Y191339
X84843Y188583
X90945Y152362
X73425Y148032
X62008Y132283
X84843Y129528
Y306693
X62008Y309449
X103150Y306693
X110433
X114173Y302953
X117913Y306693
X120079Y297441
X130905Y306693
X227362Y309449
X250197Y306693
X268504
X275787
X279528Y302953
X283268Y306693
X285433Y297441
X296260Y306693
T02
X40394Y34213
Y54213
X60394Y64213
Y93268
X40394
Y113268
X60394Y123268
Y34213
X205748
Y54213
X225748Y64213
Y93268
X205748
Y113268
X225748Y123268
Y34213
Y152323
X205748
Y172323
X225748Y182323
Y211378
X205748
Y231378
X225748Y241378
Y270433
X205748
X60394
X40394
Y231378
Y211378
X60394
Y182323
X40394Y172323
Y152323
X60394
Y241378
Y300433
X40394Y290433
X205748
X225748Y300433
T03
X30315Y34449
Y44291
Y54134
Y63976
X50787Y64213
Y54213
Y44213
Y34213
Y93268
Y103268
Y113268
Y123268
X30315Y123031
Y113189
Y103347
Y93504
X137402Y94488
Y104331
Y112205
Y122047
Y62992
Y53150
Y45276
Y35433
X195669Y34449
Y44291
Y54134
Y63976
X216142Y64213
Y54213
Y44213
Y34213
Y93268
Y103268
Y113268
Y123268
X195669Y123031
Y113189
Y103347
Y93504
X302756Y94488
Y104331
Y112205
Y122047
Y62992
Y53150
Y45276
Y35433
Y153543
Y163386
Y171260
Y181102
Y212598
Y222441
Y230315
Y240158
Y271654
Y281496
X216142Y280433
Y270433
X195669Y270669
Y280512
Y241142
Y231299
Y221457
Y211614
X216142Y211378
Y221378
Y231378
Y241378
Y182323
Y172323
Y162323
Y152323
X195669Y152559
Y162402
Y172244
Y182087
X137402Y181102
Y171260
Y163386
Y153543
Y212598
Y222441
Y230315
Y240158
Y271654
Y281496
X50787Y280433
Y270433
X30315Y270669
Y280512
Y241142
Y231299
Y221457
Y211614
X50787Y211378
Y221378
Y231378
Y241378
Y182323
Y172323
Y162323
Y152323
X30315Y152559
Y162402
Y172244
Y182087
Y290354
Y300197
X50787Y300433
Y290433
X137402Y289370
Y299213
X195669Y300197
Y290354
X216142Y290433
Y300433
X302756Y299213
Y289370
T05
X145669Y40354
Y58071
Y99410
Y117126
X311024
Y99410
Y58071
Y40354
Y158465
Y176181
Y217520
Y235236
Y276575
X145669
Y235236
Y217520
Y176181
Y158465
Y294291
X311024
T06
X11811Y9843
X311024Y9842
X11811Y324803
X311024
M30
