M48
;Layer_Color=6321
;FILE_FORMAT=2:5
INCH,TZ
;TYPE=PLATED
T04F00S00C0.03937
;TYPE=NON_PLATED
%
G90
G05
T04
G00X148425Y26772
M15
G01X142913
M16
G00X142913Y71654
M15
G01X148425
M16
G00X148425Y85827
M15
G01X142913
M16
G00X313780Y85827
M15
G01X308268
M16
G00X308268Y71654
M15
G01X313780
M16
G00X313780Y26772
M15
G01X308268
M16
G00X308268Y130709
M15
G01X313780
M16
G00X313780Y144882
M15
G01X308268
M16
G00X308268Y189764
M15
G01X313780
M16
G00X313780Y203937
M15
G01X308268
M16
G00X308268Y248819
M15
G01X313780
M16
G00X313780Y262992
M15
G01X308268
M16
G00X148425Y262992
M15
G01X142913
M16
G00X142913Y248819
M15
G01X148425
M16
G00X148425Y203937
M15
G01X142913
M16
G00X142913Y189764
M15
G01X148425
M16
G00X148425Y144882
M15
G01X142913
M16
G00X142913Y130709
M15
G01X148425
M16
G00X142913Y307874
M15
G01X148425
M16
G00X308268Y307874
M15
G01X313780
M16
M17
M30
