G04*
G04 #@! TF.GenerationSoftware,Altium Limited,Altium Designer,24.1.2 (44)*
G04*
G04 Layer_Physical_Order=1*
G04 Layer_Color=25308*
%FSLAX25Y25*%
%MOIN*%
G70*
G04*
G04 #@! TF.SameCoordinates,5240DE8C-081E-48C3-8EDC-D625F821AD92*
G04*
G04*
G04 #@! TF.FilePolarity,Positive*
G04*
G01*
G75*
%ADD10C,0.00787*%
G04:AMPARAMS|DCode=32|XSize=35.43mil|YSize=31.5mil|CornerRadius=7.87mil|HoleSize=0mil|Usage=FLASHONLY|Rotation=270.000|XOffset=0mil|YOffset=0mil|HoleType=Round|Shape=RoundedRectangle|*
%AMROUNDEDRECTD32*
21,1,0.03543,0.01575,0,0,270.0*
21,1,0.01968,0.03150,0,0,270.0*
1,1,0.01575,-0.00787,-0.00984*
1,1,0.01575,-0.00787,0.00984*
1,1,0.01575,0.00787,0.00984*
1,1,0.01575,0.00787,-0.00984*
%
%ADD32ROUNDEDRECTD32*%
G04:AMPARAMS|DCode=33|XSize=35.43mil|YSize=31.5mil|CornerRadius=7.87mil|HoleSize=0mil|Usage=FLASHONLY|Rotation=0.000|XOffset=0mil|YOffset=0mil|HoleType=Round|Shape=RoundedRectangle|*
%AMROUNDEDRECTD33*
21,1,0.03543,0.01575,0,0,0.0*
21,1,0.01968,0.03150,0,0,0.0*
1,1,0.01575,0.00984,-0.00787*
1,1,0.01575,-0.00984,-0.00787*
1,1,0.01575,-0.00984,0.00787*
1,1,0.01575,0.00984,0.00787*
%
%ADD33ROUNDEDRECTD33*%
G04:AMPARAMS|DCode=34|XSize=31.5mil|YSize=35.43mil|CornerRadius=7.87mil|HoleSize=0mil|Usage=FLASHONLY|Rotation=0.000|XOffset=0mil|YOffset=0mil|HoleType=Round|Shape=RoundedRectangle|*
%AMROUNDEDRECTD34*
21,1,0.03150,0.01968,0,0,0.0*
21,1,0.01575,0.03543,0,0,0.0*
1,1,0.01575,0.00787,-0.00984*
1,1,0.01575,-0.00787,-0.00984*
1,1,0.01575,-0.00787,0.00984*
1,1,0.01575,0.00787,0.00984*
%
%ADD34ROUNDEDRECTD34*%
G04:AMPARAMS|DCode=35|XSize=39.37mil|YSize=31.5mil|CornerRadius=7.87mil|HoleSize=0mil|Usage=FLASHONLY|Rotation=90.000|XOffset=0mil|YOffset=0mil|HoleType=Round|Shape=RoundedRectangle|*
%AMROUNDEDRECTD35*
21,1,0.03937,0.01575,0,0,90.0*
21,1,0.02362,0.03150,0,0,90.0*
1,1,0.01575,0.00787,0.01181*
1,1,0.01575,0.00787,-0.01181*
1,1,0.01575,-0.00787,-0.01181*
1,1,0.01575,-0.00787,0.01181*
%
%ADD35ROUNDEDRECTD35*%
G04:AMPARAMS|DCode=36|XSize=15.75mil|YSize=59.06mil|CornerRadius=3.94mil|HoleSize=0mil|Usage=FLASHONLY|Rotation=180.000|XOffset=0mil|YOffset=0mil|HoleType=Round|Shape=RoundedRectangle|*
%AMROUNDEDRECTD36*
21,1,0.01575,0.05118,0,0,180.0*
21,1,0.00787,0.05906,0,0,180.0*
1,1,0.00787,-0.00394,0.02559*
1,1,0.00787,0.00394,0.02559*
1,1,0.00787,0.00394,-0.02559*
1,1,0.00787,-0.00394,-0.02559*
%
%ADD36ROUNDEDRECTD36*%
G04:AMPARAMS|DCode=37|XSize=39.37mil|YSize=31.5mil|CornerRadius=7.87mil|HoleSize=0mil|Usage=FLASHONLY|Rotation=0.000|XOffset=0mil|YOffset=0mil|HoleType=Round|Shape=RoundedRectangle|*
%AMROUNDEDRECTD37*
21,1,0.03937,0.01575,0,0,0.0*
21,1,0.02362,0.03150,0,0,0.0*
1,1,0.01575,0.01181,-0.00787*
1,1,0.01575,-0.01181,-0.00787*
1,1,0.01575,-0.01181,0.00787*
1,1,0.01575,0.01181,0.00787*
%
%ADD37ROUNDEDRECTD37*%
G04:AMPARAMS|DCode=38|XSize=23.62mil|YSize=39.37mil|CornerRadius=5.91mil|HoleSize=0mil|Usage=FLASHONLY|Rotation=90.000|XOffset=0mil|YOffset=0mil|HoleType=Round|Shape=RoundedRectangle|*
%AMROUNDEDRECTD38*
21,1,0.02362,0.02756,0,0,90.0*
21,1,0.01181,0.03937,0,0,90.0*
1,1,0.01181,0.01378,0.00591*
1,1,0.01181,0.01378,-0.00591*
1,1,0.01181,-0.01378,-0.00591*
1,1,0.01181,-0.01378,0.00591*
%
%ADD38ROUNDEDRECTD38*%
G04:AMPARAMS|DCode=39|XSize=31.5mil|YSize=35.43mil|CornerRadius=7.87mil|HoleSize=0mil|Usage=FLASHONLY|Rotation=90.000|XOffset=0mil|YOffset=0mil|HoleType=Round|Shape=RoundedRectangle|*
%AMROUNDEDRECTD39*
21,1,0.03150,0.01968,0,0,90.0*
21,1,0.01575,0.03543,0,0,90.0*
1,1,0.01575,0.00984,0.00787*
1,1,0.01575,0.00984,-0.00787*
1,1,0.01575,-0.00984,-0.00787*
1,1,0.01575,-0.00984,0.00787*
%
%ADD39ROUNDEDRECTD39*%
G04:AMPARAMS|DCode=40|XSize=31.5mil|YSize=27.56mil|CornerRadius=6.89mil|HoleSize=0mil|Usage=FLASHONLY|Rotation=90.000|XOffset=0mil|YOffset=0mil|HoleType=Round|Shape=RoundedRectangle|*
%AMROUNDEDRECTD40*
21,1,0.03150,0.01378,0,0,90.0*
21,1,0.01772,0.02756,0,0,90.0*
1,1,0.01378,0.00689,0.00886*
1,1,0.01378,0.00689,-0.00886*
1,1,0.01378,-0.00689,-0.00886*
1,1,0.01378,-0.00689,0.00886*
%
%ADD40ROUNDEDRECTD40*%
G04:AMPARAMS|DCode=41|XSize=110.24mil|YSize=85.04mil|CornerRadius=21.26mil|HoleSize=0mil|Usage=FLASHONLY|Rotation=270.000|XOffset=0mil|YOffset=0mil|HoleType=Round|Shape=RoundedRectangle|*
%AMROUNDEDRECTD41*
21,1,0.11024,0.04252,0,0,270.0*
21,1,0.06772,0.08504,0,0,270.0*
1,1,0.04252,-0.02126,-0.03386*
1,1,0.04252,-0.02126,0.03386*
1,1,0.04252,0.02126,0.03386*
1,1,0.04252,0.02126,-0.03386*
%
%ADD41ROUNDEDRECTD41*%
%ADD42C,0.01181*%
%ADD43C,0.01575*%
G04:AMPARAMS|DCode=44|XSize=62.99mil|YSize=78.74mil|CornerRadius=15.75mil|HoleSize=0mil|Usage=FLASHONLY|Rotation=270.000|XOffset=0mil|YOffset=0mil|HoleType=Round|Shape=RoundedRectangle|*
%AMROUNDEDRECTD44*
21,1,0.06299,0.04724,0,0,270.0*
21,1,0.03150,0.07874,0,0,270.0*
1,1,0.03150,-0.02362,-0.01575*
1,1,0.03150,-0.02362,0.01575*
1,1,0.03150,0.02362,0.01575*
1,1,0.03150,0.02362,-0.01575*
%
%ADD44ROUNDEDRECTD44*%
%ADD45O,0.07874X0.06299*%
G04:AMPARAMS|DCode=46|XSize=70.87mil|YSize=125.98mil|CornerRadius=17.72mil|HoleSize=0mil|Usage=FLASHONLY|Rotation=270.000|XOffset=0mil|YOffset=0mil|HoleType=Round|Shape=RoundedRectangle|*
%AMROUNDEDRECTD46*
21,1,0.07087,0.09055,0,0,270.0*
21,1,0.03543,0.12598,0,0,270.0*
1,1,0.03543,-0.04528,-0.01772*
1,1,0.03543,-0.04528,0.01772*
1,1,0.03543,0.04528,0.01772*
1,1,0.03543,0.04528,-0.01772*
%
%ADD46ROUNDEDRECTD46*%
%ADD47O,0.07874X0.05512*%
G04:AMPARAMS|DCode=48|XSize=55.12mil|YSize=78.74mil|CornerRadius=13.78mil|HoleSize=0mil|Usage=FLASHONLY|Rotation=90.000|XOffset=0mil|YOffset=0mil|HoleType=Round|Shape=RoundedRectangle|*
%AMROUNDEDRECTD48*
21,1,0.05512,0.05118,0,0,90.0*
21,1,0.02756,0.07874,0,0,90.0*
1,1,0.02756,0.02559,0.01378*
1,1,0.02756,0.02559,-0.01378*
1,1,0.02756,-0.02559,-0.01378*
1,1,0.02756,-0.02559,0.01378*
%
%ADD48ROUNDEDRECTD48*%
G04:AMPARAMS|DCode=49|XSize=47.24mil|YSize=55.12mil|CornerRadius=11.81mil|HoleSize=0mil|Usage=FLASHONLY|Rotation=0.000|XOffset=0mil|YOffset=0mil|HoleType=Round|Shape=RoundedRectangle|*
%AMROUNDEDRECTD49*
21,1,0.04724,0.03150,0,0,0.0*
21,1,0.02362,0.05512,0,0,0.0*
1,1,0.02362,0.01181,-0.01575*
1,1,0.02362,-0.01181,-0.01575*
1,1,0.02362,-0.01181,0.01575*
1,1,0.02362,0.01181,0.01575*
%
%ADD49ROUNDEDRECTD49*%
%ADD50C,0.01968*%
D10*
X49291Y34567D02*
X50394D01*
X43110Y40748D02*
Y44291D01*
Y40748D02*
X49291Y34567D01*
X44882Y52559D02*
X66732D01*
X43110Y44291D02*
Y50787D01*
X44882Y52559D01*
X67716Y48819D02*
Y51575D01*
X66732Y52559D02*
X67716Y51575D01*
Y46063D02*
Y48819D01*
X30315Y44291D02*
X43110D01*
X66732Y26063D02*
Y45079D01*
X67716Y46063D01*
X68307Y31890D02*
Y44291D01*
Y31890D02*
X70669Y29528D01*
X73161D01*
X73622Y29066D01*
X68307Y44291D02*
X70866Y46850D01*
X73622Y20039D02*
Y29066D01*
X74055Y20472D02*
X81299D01*
X82087Y21260D02*
X85335D01*
X81299Y20472D02*
X82087Y21260D01*
X73622Y20039D02*
X74055Y20472D01*
X67716Y14961D02*
X69291Y13386D01*
X67716Y14961D02*
Y25079D01*
X66732Y26063D02*
X67716Y25079D01*
X110433Y50787D02*
X113386D01*
X87402Y53937D02*
X88189Y53150D01*
Y50787D02*
Y53150D01*
X72835Y46850D02*
X73622Y46063D01*
X72835Y53150D02*
X73622Y53937D01*
X72835Y46850D02*
Y53150D01*
X73622Y53937D02*
X87402D01*
X73622Y39016D02*
Y46063D01*
X76378Y48819D02*
X78937D01*
X81102Y46654D01*
Y36220D02*
Y46654D01*
Y36220D02*
X90748Y26575D01*
X70866Y46850D02*
Y53740D01*
X72244Y55118D01*
X105709D01*
X106890Y53937D01*
Y50984D02*
Y53937D01*
Y50984D02*
X107087Y50787D01*
X51732Y44528D02*
X60236Y36024D01*
X50787Y44528D02*
X51732D01*
X60236Y33071D02*
Y36024D01*
X58602Y22894D02*
X60236Y24528D01*
Y26772D01*
X57824Y22894D02*
X58602D01*
X90748Y26575D02*
X97047D01*
X128150Y17323D02*
X129134Y16339D01*
X108366Y17913D02*
Y21260D01*
Y17913D02*
X108957Y17323D01*
X128150D01*
X112008Y15945D02*
X112598Y15354D01*
X105807Y16634D02*
X106496Y15945D01*
X112008D01*
X112598Y13386D02*
Y15354D01*
X105807Y16634D02*
Y21260D01*
X100787Y16929D02*
Y21161D01*
X100689Y21260D02*
X100787Y21161D01*
Y16929D02*
X101575Y16142D01*
Y13386D02*
Y16142D01*
X95473Y9646D02*
X98032Y7087D01*
X95473Y9646D02*
Y14567D01*
X98032Y7087D02*
X101575D01*
Y13386D02*
X107087D01*
X129134D02*
Y16339D01*
X107087Y7087D02*
Y10039D01*
X69291Y13386D02*
X81890D01*
X70866Y7087D02*
X81890D01*
X67716Y10236D02*
X70866Y7087D01*
X97047Y26575D02*
X98130Y25492D01*
Y21260D02*
Y25492D01*
X123622Y7087D02*
X129134D01*
X112598D02*
X118110D01*
X120866Y10236D02*
X123161D01*
X118571D02*
X120866D01*
X123622Y10697D02*
Y13386D01*
X123161Y10236D02*
X123622Y10697D01*
X118110D02*
X118571Y10236D01*
X118110Y10697D02*
Y13386D01*
D32*
X113386Y50787D02*
D03*
X107087D02*
D03*
D33*
X60236Y33071D02*
D03*
Y26772D02*
D03*
X101575Y7087D02*
D03*
Y13386D02*
D03*
X112598D02*
D03*
Y7087D02*
D03*
X107087D02*
D03*
Y13386D02*
D03*
X118110Y7087D02*
D03*
Y13386D02*
D03*
X129134D02*
D03*
Y7087D02*
D03*
X123622Y13386D02*
D03*
Y7087D02*
D03*
X81890D02*
D03*
Y13386D02*
D03*
D34*
X87992Y14567D02*
D03*
X91732Y5906D02*
D03*
X95473Y14567D02*
D03*
D35*
X120866Y50787D02*
D03*
X127165D02*
D03*
X88189D02*
D03*
X81890D02*
D03*
X93701D02*
D03*
X100000D02*
D03*
D36*
X85335Y21260D02*
D03*
X87894D02*
D03*
X85335Y44094D02*
D03*
X87894D02*
D03*
X98130Y21260D02*
D03*
X100689D02*
D03*
X90453D02*
D03*
X95571D02*
D03*
X93012D02*
D03*
X105807D02*
D03*
X108366D02*
D03*
X103248D02*
D03*
X90453Y44094D02*
D03*
X95571D02*
D03*
X93012D02*
D03*
X105807D02*
D03*
X108366D02*
D03*
X98130D02*
D03*
X103248D02*
D03*
X100689D02*
D03*
D37*
X114173Y37795D02*
D03*
Y44094D02*
D03*
D38*
X128937Y26772D02*
D03*
Y30512D02*
D03*
Y23031D02*
D03*
X118307D02*
D03*
Y26772D02*
D03*
Y30512D02*
D03*
D39*
X128740Y40945D02*
D03*
X120079Y37205D02*
D03*
Y44685D02*
D03*
D40*
X76378Y48819D02*
D03*
X67716D02*
D03*
X76378Y10236D02*
D03*
X67716D02*
D03*
D41*
X73622Y39016D02*
D03*
Y20039D02*
D03*
D42*
X84842Y50787D02*
X85039D01*
X133465Y23031D02*
X136024Y25591D01*
X128937Y23031D02*
X133465D01*
X136024Y25591D02*
X137402D01*
X133749Y30512D02*
X136702Y33465D01*
X128937Y30512D02*
X133749D01*
X136702Y33465D02*
X137402D01*
D43*
X81890Y50787D02*
X84842D01*
X64983Y20844D02*
Y36001D01*
X60394Y40591D02*
X64983Y36001D01*
Y12970D02*
X66929Y11024D01*
X64983Y12970D02*
Y20844D01*
X64567Y21260D02*
X64983Y20844D01*
X59458Y21260D02*
X64567D01*
X67126Y11024D02*
X67716Y10433D01*
X66929Y11024D02*
X67126D01*
X67716Y10236D02*
Y10433D01*
X115235Y22954D02*
X118955D01*
X110236Y50787D02*
X110433D01*
X30315Y34528D02*
X40394D01*
X60394Y40591D02*
Y44528D01*
X57824Y22894D02*
X59458Y21260D01*
X56190Y24528D02*
X57824Y22894D01*
X50787Y24528D02*
X50787Y24528D01*
X56190D01*
X112795Y30512D02*
X118028D01*
X100959Y29016D02*
X111299D01*
X112795Y30512D01*
X92795Y37180D02*
X100959Y29016D01*
X95571Y44094D02*
Y48917D01*
Y39862D02*
Y44094D01*
Y39862D02*
X98228Y37205D01*
X113583D01*
X114173Y43898D02*
Y44094D01*
X109843Y39567D02*
X114173Y43898D01*
X99279Y39567D02*
X109843D01*
X98130Y40716D02*
X99279Y39567D01*
X98130Y40716D02*
Y44094D01*
X113583Y37205D02*
X114173Y37795D01*
X120079Y44685D02*
Y47244D01*
X120866Y48031D01*
X116551Y44094D02*
X117141Y44685D01*
X120079D01*
X114173Y44094D02*
X116551D01*
X120079Y44685D02*
X120079Y44685D01*
Y41535D02*
Y44685D01*
Y41535D02*
X120079Y41535D01*
X120866Y48031D02*
Y50787D01*
X88189D02*
X93701D01*
X100000D02*
X103150D01*
X98130Y48917D02*
X100000Y50787D01*
X93701D02*
X95571Y48917D01*
X98130Y44094D02*
Y48917D01*
X130905Y50787D02*
X134449D01*
X127165D02*
X130905D01*
X134449D02*
X137402Y47835D01*
Y43307D02*
Y47835D01*
X127165Y46850D02*
Y50787D01*
X116732Y37795D02*
X117323Y37205D01*
X120079D01*
X114173Y37795D02*
X116732D01*
X128740Y40945D02*
Y45276D01*
X127165Y46850D02*
X128740Y45276D01*
X124409Y39173D02*
X126181Y40945D01*
X128740D01*
X124409Y27694D02*
Y39173D01*
Y27694D02*
X125332Y26772D01*
X128586D01*
X118307D02*
X121850D01*
X118955Y22954D02*
X119075Y22835D01*
X111299Y26890D02*
X115235Y22954D01*
X100079Y26890D02*
X111299D01*
X117913Y50787D02*
X120866D01*
X114173Y44094D02*
Y47047D01*
X87992Y14567D02*
X90945D01*
X87992Y14567D02*
X87992Y14567D01*
X90945D02*
X90945Y14567D01*
X76378Y10236D02*
X90354D01*
X73425D02*
X76378D01*
X90354D02*
X91732Y8858D01*
Y5906D02*
Y8858D01*
X90669Y36299D02*
Y41713D01*
Y36299D02*
X100079Y26890D01*
X92795Y37180D02*
Y41713D01*
X93012Y41929D01*
Y44094D01*
X90453Y41929D02*
Y44094D01*
Y41929D02*
X90669Y41713D01*
X40394Y14528D02*
Y21417D01*
X37205Y24606D02*
X40394Y21417D01*
X30315Y24606D02*
X37205D01*
D44*
X50787Y44528D02*
D03*
X30315Y44291D02*
D03*
D45*
X50787Y34528D02*
D03*
Y14528D02*
D03*
Y24528D02*
D03*
X30315Y24606D02*
D03*
Y14764D02*
D03*
Y34449D02*
D03*
D46*
X145669Y51968D02*
D03*
Y7087D02*
D03*
D47*
X137402Y15748D02*
D03*
Y33465D02*
D03*
Y25591D02*
D03*
D48*
Y43307D02*
D03*
D49*
X60394Y44528D02*
D03*
X40394Y34528D02*
D03*
Y14528D02*
D03*
X60394D02*
D03*
D50*
X84842Y50787D02*
D03*
X110433D02*
D03*
X120079Y41535D02*
D03*
X130905Y50787D02*
D03*
X121850Y26772D02*
D03*
X117913Y50787D02*
D03*
X114173Y47047D02*
D03*
X107087Y10039D02*
D03*
X90945Y14567D02*
D03*
X73425Y10236D02*
D03*
X120866D02*
D03*
X103150Y50787D02*
D03*
M02*
