G04*
G04 #@! TF.GenerationSoftware,Altium Limited,Altium Designer,24.1.2 (44)*
G04*
G04 Layer_Color=13813960*
%FSLAX25Y25*%
%MOIN*%
G70*
G04*
G04 #@! TF.SameCoordinates,0CAF7D85-E977-4B9D-9D86-D71ED8E1370B*
G04*
G04*
G04 #@! TF.FilePolarity,Positive*
G04*
G01*
G75*
%ADD12C,0.00591*%
%ADD13C,0.00472*%
%ADD61C,0.00866*%
D12*
X4301Y24928D02*
X5679D01*
X4498Y34174D02*
X5876D01*
X2589Y26509D02*
X4498Y32546D01*
Y34174D01*
X4301Y24928D02*
Y26909D01*
D13*
X75275Y39852D02*
X74882Y39458D01*
X74094D01*
X73701Y39852D01*
Y40245D01*
X74094Y40639D01*
X74882D01*
X75275Y41032D01*
Y41426D01*
X74882Y41820D01*
X74094D01*
X73701Y41426D01*
X77243Y41820D02*
X76456D01*
X76062Y41426D01*
Y40639D01*
X76456Y40245D01*
X77243D01*
X77636Y40639D01*
Y41032D01*
X76062D01*
X78424Y40245D02*
Y41820D01*
Y41032D01*
X78817Y40639D01*
X79211Y40245D01*
X79604D01*
X80785D02*
X81572Y41820D01*
X82359Y40245D01*
X83540Y41820D02*
X84327D01*
X84721Y41426D01*
Y40639D01*
X84327Y40245D01*
X83540D01*
X83147Y40639D01*
Y41426D01*
X83540Y41820D01*
X87869D02*
X89050D01*
X89444Y41426D01*
X89050Y41032D01*
X88263D01*
X87869Y40639D01*
X88263Y40245D01*
X89444D01*
X90231Y39458D02*
Y41820D01*
Y40639D01*
X90624Y40245D01*
X91412D01*
X91805Y40639D01*
Y41820D01*
X92986D02*
X93773D01*
X94167Y41426D01*
Y40639D01*
X93773Y40245D01*
X92986D01*
X92592Y40639D01*
Y41426D01*
X92986Y41820D01*
X94954Y40245D02*
Y41820D01*
Y41032D01*
X95347Y40639D01*
X95741Y40245D01*
X96135D01*
X97709Y39852D02*
Y40245D01*
X97315D01*
X98102D01*
X97709D01*
Y41426D01*
X98102Y41820D01*
X101645Y39458D02*
Y41820D01*
X102825D01*
X103219Y41426D01*
Y41032D01*
X102825Y40639D01*
X101645D01*
X102825D01*
X103219Y40245D01*
Y39852D01*
X102825Y39458D01*
X101645D01*
X105580D02*
X104006D01*
Y40639D01*
X104793Y40245D01*
X105187D01*
X105580Y40639D01*
Y41426D01*
X105187Y41820D01*
X104400D01*
X104006Y41426D01*
X106761Y42213D02*
X107155Y41820D01*
Y41426D01*
X106761D01*
Y41820D01*
X107155D01*
X106761Y42213D01*
X106367Y42607D01*
X111090Y39458D02*
Y41820D01*
X112271D01*
X112665Y41426D01*
Y41032D01*
X112271Y40639D01*
X111090D01*
X112271D01*
X112665Y40245D01*
Y39852D01*
X112271Y39458D01*
X111090D01*
X113452Y41820D02*
X114239D01*
X113845D01*
Y39458D01*
X113452Y39852D01*
X73701Y43426D02*
X74488D01*
X74094D01*
Y45787D01*
X73701D01*
X74488D01*
X75669D02*
Y44213D01*
X76849D01*
X77243Y44607D01*
Y45787D01*
X81966Y43426D02*
X81179D01*
X81572D01*
Y45394D01*
X81179Y45787D01*
X80785D01*
X80392Y45394D01*
X84327Y45787D02*
X82753D01*
X84327Y44213D01*
Y43819D01*
X83934Y43426D01*
X83147D01*
X82753Y43819D01*
X88657Y43426D02*
X87869D01*
X87476Y43819D01*
Y45394D01*
X87869Y45787D01*
X88657D01*
X89050Y45394D01*
Y43819D01*
X88657Y43426D01*
X89837Y44213D02*
Y45394D01*
X90231Y45787D01*
X91412D01*
Y44213D01*
X92592Y43819D02*
Y44213D01*
X92199D01*
X92986D01*
X92592D01*
Y45394D01*
X92986Y45787D01*
X98102Y43426D02*
X97315D01*
X97709D01*
Y45394D01*
X97315Y45787D01*
X96922D01*
X96528Y45394D01*
X98889Y45787D02*
X99677D01*
X99283D01*
Y43426D01*
X98889Y43819D01*
X101251Y46181D02*
X101645Y45787D01*
Y45394D01*
X101251D01*
Y45787D01*
X101645D01*
X101251Y46181D01*
X100857Y46574D01*
X105580Y43426D02*
Y45787D01*
Y45000D01*
X107155Y43426D01*
X105974Y44607D01*
X107155Y45787D01*
X107942D02*
X108729D01*
X108335D01*
Y43426D01*
X107942Y43819D01*
X110303Y46181D02*
X110697Y45787D01*
Y45394D01*
X110303D01*
Y45787D01*
X110697D01*
X110303Y46181D01*
X109909Y46574D01*
X114632Y45787D02*
Y43426D01*
X115813D01*
X116207Y43819D01*
Y44607D01*
X115813Y45000D01*
X114632D01*
X115420D02*
X116207Y45787D01*
X116994Y43819D02*
X117387Y43426D01*
X118175D01*
X118568Y43819D01*
Y44213D01*
X118175Y44607D01*
X117781D01*
X118175D01*
X118568Y45000D01*
Y45394D01*
X118175Y45787D01*
X117387D01*
X116994Y45394D01*
X75275Y28435D02*
X73701D01*
Y29616D01*
X74488D01*
X73701D01*
Y30797D01*
X76062D02*
Y29222D01*
X76849Y28435D01*
X77636Y29222D01*
Y30797D01*
Y29616D01*
X76062D01*
X78424Y30797D02*
Y28435D01*
X79998Y30797D01*
Y28435D01*
X84327Y30797D02*
Y28435D01*
X83147Y29616D01*
X84721D01*
X87869Y31584D02*
Y29222D01*
X89050D01*
X89444Y29616D01*
Y30403D01*
X89050Y30797D01*
X87869D01*
X90231D02*
X91018D01*
X90624D01*
Y29222D01*
X90231D01*
X92199Y30797D02*
Y29222D01*
X93379D01*
X93773Y29616D01*
Y30797D01*
X96922D02*
X98102D01*
X98496Y30403D01*
X98102Y30010D01*
X97315D01*
X96922Y29616D01*
X97315Y29222D01*
X98496D01*
X99283Y28435D02*
Y30797D01*
Y29616D01*
X99677Y29222D01*
X100464D01*
X100857Y29616D01*
Y30797D01*
X102038D02*
X102825D01*
X103219Y30403D01*
Y29616D01*
X102825Y29222D01*
X102038D01*
X101645Y29616D01*
Y30403D01*
X102038Y30797D01*
X104006Y29222D02*
Y30797D01*
Y30010D01*
X104400Y29616D01*
X104793Y29222D01*
X105187D01*
X106761Y28829D02*
Y29222D01*
X106367D01*
X107155D01*
X106761D01*
Y30403D01*
X107155Y30797D01*
X110697Y28435D02*
Y30797D01*
X111877D01*
X112271Y30403D01*
Y30010D01*
X111877Y29616D01*
X110697D01*
X111877D01*
X112271Y29222D01*
Y28829D01*
X111877Y28435D01*
X110697D01*
X114632D02*
X113058D01*
Y29616D01*
X113845Y29222D01*
X114239D01*
X114632Y29616D01*
Y30403D01*
X114239Y30797D01*
X113452D01*
X113058Y30403D01*
X73701Y33190D02*
X74488D01*
X74094D01*
Y35551D01*
X73701D01*
X74488D01*
X75669D02*
Y33977D01*
X76849D01*
X77243Y34371D01*
Y35551D01*
X81966Y33190D02*
X81179D01*
X81572D01*
Y35158D01*
X81179Y35551D01*
X80785D01*
X80392Y35158D01*
X84327Y35551D02*
X82753D01*
X84327Y33977D01*
Y33584D01*
X83934Y33190D01*
X83147D01*
X82753Y33584D01*
X85508Y35945D02*
X85902Y35551D01*
Y35158D01*
X85508D01*
Y35551D01*
X85902D01*
X85508Y35945D01*
X85114Y36339D01*
X89837Y35551D02*
Y33190D01*
X91018D01*
X91412Y33584D01*
Y34371D01*
X91018Y34764D01*
X89837D01*
X90624D02*
X91412Y35551D01*
X92199Y33584D02*
X92592Y33190D01*
X93379D01*
X93773Y33584D01*
Y33977D01*
X93379Y34371D01*
X92986D01*
X93379D01*
X93773Y34764D01*
Y35158D01*
X93379Y35551D01*
X92592D01*
X92199Y35158D01*
X98102Y33190D02*
X97315D01*
X96922Y33584D01*
Y35158D01*
X97315Y35551D01*
X98102D01*
X98496Y35158D01*
Y33584D01*
X98102Y33190D01*
X99283Y33977D02*
Y35158D01*
X99677Y35551D01*
X100857D01*
Y33977D01*
X102038Y33584D02*
Y33977D01*
X101645D01*
X102432D01*
X102038D01*
Y35158D01*
X102432Y35551D01*
X107548Y33190D02*
X106761D01*
X107155D01*
Y35158D01*
X106761Y35551D01*
X106367D01*
X105974Y35158D01*
X108335Y35551D02*
X109122D01*
X108729D01*
Y33190D01*
X108335Y33584D01*
X110697Y35945D02*
X111090Y35551D01*
Y35158D01*
X110697D01*
Y35551D01*
X111090D01*
X110697Y35945D01*
X110303Y36339D01*
X115026Y33190D02*
Y35551D01*
Y34764D01*
X116600Y33190D01*
X115419Y34371D01*
X116600Y35551D01*
X117387D02*
X118175D01*
X117781D01*
Y33190D01*
X117387Y33584D01*
X47913Y49891D02*
X47519Y49498D01*
X46732D01*
X46339Y49891D01*
Y50285D01*
X46732Y50678D01*
X47519D01*
X47913Y51072D01*
Y51466D01*
X47519Y51859D01*
X46732D01*
X46339Y51466D01*
X50274Y49891D02*
X49881Y49498D01*
X49094D01*
X48700Y49891D01*
Y50285D01*
X49094Y50678D01*
X49881D01*
X50274Y51072D01*
Y51466D01*
X49881Y51859D01*
X49094D01*
X48700Y51466D01*
X51061Y51859D02*
Y49498D01*
X52242D01*
X52636Y49891D01*
Y50678D01*
X52242Y51072D01*
X51061D01*
X51849D02*
X52636Y51859D01*
X57359Y49891D02*
X56965Y49498D01*
X56178D01*
X55784Y49891D01*
Y50285D01*
X56178Y50678D01*
X56965D01*
X57359Y51072D01*
Y51466D01*
X56965Y51859D01*
X56178D01*
X55784Y51466D01*
X58146Y49498D02*
Y51859D01*
Y50678D01*
X58539Y50285D01*
X59326D01*
X59720Y50678D01*
Y51859D01*
X60901D02*
X61688D01*
X62081Y51466D01*
Y50678D01*
X61688Y50285D01*
X60901D01*
X60507Y50678D01*
Y51466D01*
X60901Y51859D01*
X62869Y50285D02*
Y51859D01*
Y51072D01*
X63262Y50678D01*
X63656Y50285D01*
X64049D01*
X65624Y49891D02*
Y50285D01*
X65230D01*
X66017D01*
X65624D01*
Y51466D01*
X66017Y51859D01*
X69559Y49498D02*
Y51859D01*
X70740D01*
X71134Y51466D01*
Y51072D01*
X70740Y50678D01*
X69559D01*
X70740D01*
X71134Y50285D01*
Y49891D01*
X70740Y49498D01*
X69559D01*
X73495D02*
X72708Y49891D01*
X71921Y50678D01*
Y51466D01*
X72314Y51859D01*
X73102D01*
X73495Y51466D01*
Y51072D01*
X73102Y50678D01*
X71921D01*
X76644Y49498D02*
X77431D01*
X77037D01*
Y51859D01*
X76644D01*
X77431D01*
X78612D02*
Y50285D01*
X79792D01*
X80186Y50678D01*
Y51859D01*
X84909Y49498D02*
X84122D01*
X84515D01*
Y51466D01*
X84122Y51859D01*
X83728D01*
X83334Y51466D01*
X85696Y51859D02*
X86483D01*
X86089D01*
Y49498D01*
X85696Y49891D01*
X88057Y52253D02*
X88451Y51859D01*
Y51466D01*
X88057D01*
Y51859D01*
X88451D01*
X88057Y52253D01*
X87664Y52646D01*
X92387Y49498D02*
Y51859D01*
Y51072D01*
X93961Y49498D01*
X92780Y50678D01*
X93961Y51859D01*
X94748D02*
X95535D01*
X95142D01*
Y49498D01*
X94748Y49891D01*
X100258Y49498D02*
X99471D01*
X99077Y49891D01*
Y51466D01*
X99471Y51859D01*
X100258D01*
X100652Y51466D01*
Y49891D01*
X100258Y49498D01*
X101439Y50285D02*
Y51466D01*
X101832Y51859D01*
X103013D01*
Y50285D01*
X104194Y49891D02*
Y50285D01*
X103800D01*
X104587D01*
X104194D01*
Y51466D01*
X104587Y51859D01*
X109704Y49498D02*
X108917D01*
X109310D01*
Y51466D01*
X108917Y51859D01*
X108523D01*
X108130Y51466D01*
X112065Y51859D02*
X110491D01*
X112065Y50285D01*
Y49891D01*
X111672Y49498D01*
X110885D01*
X110491Y49891D01*
X113246Y52253D02*
X113640Y51859D01*
Y51466D01*
X113246D01*
Y51859D01*
X113640D01*
X113246Y52253D01*
X112852Y52646D01*
X117575Y51859D02*
Y49498D01*
X118756D01*
X119150Y49891D01*
Y50678D01*
X118756Y51072D01*
X117575D01*
X118362D02*
X119150Y51859D01*
X119937Y49891D02*
X120330Y49498D01*
X121117D01*
X121511Y49891D01*
Y50285D01*
X121117Y50678D01*
X120724D01*
X121117D01*
X121511Y51072D01*
Y51466D01*
X121117Y51859D01*
X120330D01*
X119937Y51466D01*
X46339Y55827D02*
Y53465D01*
X47519D01*
X47913Y53859D01*
Y54646D01*
X47519Y55040D01*
X46339D01*
X48700Y55827D02*
X49487D01*
X49094D01*
Y54252D01*
X48700D01*
X50668Y55827D02*
Y54252D01*
X51849D01*
X52242Y54646D01*
Y55827D01*
X56965D02*
X55391D01*
X56965Y54252D01*
Y53859D01*
X56572Y53465D01*
X55784D01*
X55391Y53859D01*
X57752Y54252D02*
X58146D01*
Y54646D01*
X57752D01*
Y54252D01*
Y55433D02*
X58146D01*
Y55827D01*
X57752D01*
Y55433D01*
X63656Y53859D02*
X63262Y53465D01*
X62475D01*
X62081Y53859D01*
Y54252D01*
X62475Y54646D01*
X63262D01*
X63656Y55040D01*
Y55433D01*
X63262Y55827D01*
X62475D01*
X62081Y55433D01*
X66017Y53859D02*
X65624Y53465D01*
X64837D01*
X64443Y53859D01*
Y54252D01*
X64837Y54646D01*
X65624D01*
X66017Y55040D01*
Y55433D01*
X65624Y55827D01*
X64837D01*
X64443Y55433D01*
X66804Y55827D02*
Y53465D01*
X67985D01*
X68379Y53859D01*
Y54646D01*
X67985Y55040D01*
X66804D01*
X67592D02*
X68379Y55827D01*
X69166Y54646D02*
X70740D01*
X69953Y53859D02*
Y55433D01*
X77824Y53859D02*
X77431Y53465D01*
X76644D01*
X76250Y53859D01*
Y55433D01*
X76644Y55827D01*
X77431D01*
X77824Y55433D01*
Y54646D01*
X77037D01*
X78612Y55827D02*
Y53465D01*
X80186Y55827D01*
Y53465D01*
X80973D02*
Y55827D01*
X82154D01*
X82547Y55433D01*
Y53859D01*
X82154Y53465D01*
X80973D01*
X83334Y54252D02*
X83728D01*
Y54646D01*
X83334D01*
Y54252D01*
Y55433D02*
X83728D01*
Y55827D01*
X83334D01*
Y55433D01*
X89238Y53859D02*
X88845Y53465D01*
X88057D01*
X87664Y53859D01*
Y54252D01*
X88057Y54646D01*
X88845D01*
X89238Y55040D01*
Y55433D01*
X88845Y55827D01*
X88057D01*
X87664Y55433D01*
X91600Y53859D02*
X91206Y53465D01*
X90419D01*
X90025Y53859D01*
Y54252D01*
X90419Y54646D01*
X91206D01*
X91600Y55040D01*
Y55433D01*
X91206Y55827D01*
X90419D01*
X90025Y55433D01*
X92387Y55827D02*
Y53465D01*
X93567D01*
X93961Y53859D01*
Y54646D01*
X93567Y55040D01*
X92387D01*
X93174D02*
X93961Y55827D01*
X94748Y54646D02*
X96322D01*
X75275Y17412D02*
X73701D01*
Y18592D01*
X74488D01*
X73701D01*
Y19773D01*
X76062D02*
Y18199D01*
X76849Y17412D01*
X77636Y18199D01*
Y19773D01*
Y18592D01*
X76062D01*
X78424Y19773D02*
Y17412D01*
X79998Y19773D01*
Y17412D01*
X84721Y19773D02*
X83147D01*
X84721Y18199D01*
Y17805D01*
X84327Y17412D01*
X83540D01*
X83147Y17805D01*
X85902Y20167D02*
X86295Y19773D01*
Y19379D01*
X85902D01*
Y19773D01*
X86295D01*
X85902Y20167D01*
X85508Y20560D01*
X87869Y17805D02*
X88263Y17412D01*
X89050D01*
X89444Y17805D01*
Y18199D01*
X89050Y18592D01*
X88657D01*
X89050D01*
X89444Y18986D01*
Y19379D01*
X89050Y19773D01*
X88263D01*
X87869Y19379D01*
X92592Y20560D02*
Y18199D01*
X93773D01*
X94167Y18592D01*
Y19379D01*
X93773Y19773D01*
X92592D01*
X94954D02*
X95741D01*
X95347D01*
Y18199D01*
X94954D01*
X96922Y19773D02*
Y18199D01*
X98102D01*
X98496Y18592D01*
Y19773D01*
X101645D02*
X102825D01*
X103219Y19379D01*
X102825Y18986D01*
X102038D01*
X101645Y18592D01*
X102038Y18199D01*
X103219D01*
X104006Y17412D02*
Y19773D01*
Y18592D01*
X104400Y18199D01*
X105187D01*
X105580Y18592D01*
Y19773D01*
X106761D02*
X107548D01*
X107942Y19379D01*
Y18592D01*
X107548Y18199D01*
X106761D01*
X106367Y18592D01*
Y19379D01*
X106761Y19773D01*
X108729Y18199D02*
Y19773D01*
Y18986D01*
X109122Y18592D01*
X109516Y18199D01*
X109909D01*
X111484Y17805D02*
Y18199D01*
X111090D01*
X111877D01*
X111484D01*
Y19379D01*
X111877Y19773D01*
X115420Y17412D02*
Y19773D01*
X116600D01*
X116994Y19379D01*
Y18986D01*
X116600Y18592D01*
X115420D01*
X116600D01*
X116994Y18199D01*
Y17805D01*
X116600Y17412D01*
X115420D01*
X118962Y19773D02*
Y17412D01*
X117781Y18592D01*
X119355D01*
X73701Y22166D02*
X74488D01*
X74094D01*
Y24528D01*
X73701D01*
X74488D01*
X75669D02*
Y22953D01*
X76849D01*
X77243Y23347D01*
Y24528D01*
X81966Y22166D02*
X81179D01*
X81572D01*
Y24134D01*
X81179Y24528D01*
X80785D01*
X80392Y24134D01*
X84327Y24528D02*
X82753D01*
X84327Y22953D01*
Y22560D01*
X83934Y22166D01*
X83147D01*
X82753Y22560D01*
X88657Y22166D02*
X87869D01*
X87476Y22560D01*
Y24134D01*
X87869Y24528D01*
X88657D01*
X89050Y24134D01*
Y22560D01*
X88657Y22166D01*
X89837Y22953D02*
Y24134D01*
X90231Y24528D01*
X91412D01*
Y22953D01*
X92592Y22560D02*
Y22953D01*
X92199D01*
X92986D01*
X92592D01*
Y24134D01*
X92986Y24528D01*
X98102Y22166D02*
X97315D01*
X97709D01*
Y24134D01*
X97315Y24528D01*
X96922D01*
X96528Y24134D01*
X98889Y24528D02*
X99677D01*
X99283D01*
Y22166D01*
X98889Y22560D01*
X101251Y24921D02*
X101645Y24528D01*
Y24134D01*
X101251D01*
Y24528D01*
X101645D01*
X101251Y24921D01*
X100857Y25315D01*
X105580Y22166D02*
Y24528D01*
Y23741D01*
X107155Y22166D01*
X105974Y23347D01*
X107155Y24528D01*
X107942D02*
X108729D01*
X108335D01*
Y22166D01*
X107942Y22560D01*
X110303Y24921D02*
X110697Y24528D01*
Y24134D01*
X110303D01*
Y24528D01*
X110697D01*
X110303Y24921D01*
X109909Y25315D01*
X114632Y24528D02*
Y22166D01*
X115813D01*
X116207Y22560D01*
Y23347D01*
X115813Y23741D01*
X114632D01*
X115419D02*
X116207Y24528D01*
X116994Y22560D02*
X117387Y22166D01*
X118175D01*
X118568Y22560D01*
Y22953D01*
X118175Y23347D01*
X117781D01*
X118175D01*
X118568Y23741D01*
Y24134D01*
X118175Y24528D01*
X117387D01*
X116994Y24134D01*
X81575Y3798D02*
Y5766D01*
X81968Y6159D01*
X82756D01*
X83149Y5766D01*
Y3798D01*
X83936Y6159D02*
Y4585D01*
X84724Y3798D01*
X85511Y4585D01*
Y6159D01*
Y4979D01*
X83936D01*
X86298Y6159D02*
Y3798D01*
X87479D01*
X87872Y4191D01*
Y4979D01*
X87479Y5372D01*
X86298D01*
X87085D02*
X87872Y6159D01*
X88659Y3798D02*
X90234D01*
X89446D01*
Y6159D01*
X93382D02*
X94563D01*
X94956Y5766D01*
X94563Y5372D01*
X93776D01*
X93382Y4979D01*
X93776Y4585D01*
X94956D01*
X95744Y3798D02*
Y6159D01*
Y4979D01*
X96137Y4585D01*
X96924D01*
X97318Y4979D01*
Y6159D01*
X98499D02*
X99286D01*
X99679Y5766D01*
Y4979D01*
X99286Y4585D01*
X98499D01*
X98105Y4979D01*
Y5766D01*
X98499Y6159D01*
X100467Y4585D02*
Y6159D01*
Y5372D01*
X100860Y4979D01*
X101254Y4585D01*
X101647D01*
X103221Y4191D02*
Y4585D01*
X102828D01*
X103615D01*
X103221D01*
Y5766D01*
X103615Y6159D01*
X107157Y3798D02*
Y6159D01*
X108338D01*
X108731Y5766D01*
Y5372D01*
X108338Y4979D01*
X107157D01*
X108338D01*
X108731Y4585D01*
Y4191D01*
X108338Y3798D01*
X107157D01*
X111093Y6159D02*
X109519D01*
X111093Y4585D01*
Y4191D01*
X110699Y3798D01*
X109912D01*
X109519Y4191D01*
X112274Y6553D02*
X112667Y6159D01*
Y5766D01*
X112274D01*
Y6159D01*
X112667D01*
X112274Y6553D01*
X111880Y6946D01*
X116603Y3798D02*
Y6159D01*
X117784D01*
X118177Y5766D01*
Y5372D01*
X117784Y4979D01*
X116603D01*
X117784D01*
X118177Y4585D01*
Y4191D01*
X117784Y3798D01*
X116603D01*
X118964Y4191D02*
X119358Y3798D01*
X120145D01*
X120539Y4191D01*
Y4585D01*
X120145Y4979D01*
X119752D01*
X120145D01*
X120539Y5372D01*
Y5766D01*
X120145Y6159D01*
X119358D01*
X118964Y5766D01*
X81575Y7766D02*
X82362D01*
X81968D01*
Y10127D01*
X81575D01*
X82362D01*
X83543D02*
Y8553D01*
X84724D01*
X85117Y8946D01*
Y10127D01*
X89840Y7766D02*
X89053D01*
X89446D01*
Y9733D01*
X89053Y10127D01*
X88659D01*
X88266Y9733D01*
X90627Y10127D02*
X91414D01*
X91021D01*
Y7766D01*
X90627Y8159D01*
X96137Y7766D02*
X95350D01*
X94956Y8159D01*
Y9733D01*
X95350Y10127D01*
X96137D01*
X96531Y9733D01*
Y8159D01*
X96137Y7766D01*
X97318Y8553D02*
Y9733D01*
X97711Y10127D01*
X98892D01*
Y8553D01*
X100073Y8159D02*
Y8553D01*
X99679D01*
X100467D01*
X100073D01*
Y9733D01*
X100467Y10127D01*
X105583Y7766D02*
X104796D01*
X105189D01*
Y9733D01*
X104796Y10127D01*
X104402D01*
X104009Y9733D01*
X107944Y10127D02*
X106370D01*
X107944Y8553D01*
Y8159D01*
X107551Y7766D01*
X106764D01*
X106370Y8159D01*
X109125Y10520D02*
X109519Y10127D01*
Y9733D01*
X109125D01*
Y10127D01*
X109519D01*
X109125Y10520D01*
X108731Y10914D01*
X113454Y7766D02*
Y10127D01*
Y9340D01*
X115029Y7766D01*
X113848Y8946D01*
X115029Y10127D01*
X115816D02*
X116603D01*
X116209D01*
Y7766D01*
X115816Y8159D01*
X118177Y10520D02*
X118571Y10127D01*
Y9733D01*
X118177D01*
Y10127D01*
X118571D01*
X118177Y10520D01*
X117784Y10914D01*
X122507Y10127D02*
Y7766D01*
X123687D01*
X124081Y8159D01*
Y8946D01*
X123687Y9340D01*
X122507D01*
X123294D02*
X124081Y10127D01*
X124868Y8159D02*
X125262Y7766D01*
X126049D01*
X126442Y8159D01*
Y8553D01*
X126049Y8946D01*
X125655D01*
X126049D01*
X126442Y9340D01*
Y9733D01*
X126049Y10127D01*
X125262D01*
X124868Y9733D01*
X81575Y14095D02*
Y11733D01*
X82756D01*
X83149Y12127D01*
Y12914D01*
X82756Y13307D01*
X81575D01*
X83936Y14095D02*
X84724D01*
X84330D01*
Y12520D01*
X83936D01*
X85904Y14095D02*
Y12520D01*
X87085D01*
X87479Y12914D01*
Y14095D01*
X90627D02*
X91414D01*
X91021D01*
Y11733D01*
X90627Y12127D01*
X92595Y12520D02*
X92989D01*
Y12914D01*
X92595D01*
Y12520D01*
Y13701D02*
X92989D01*
Y14095D01*
X92595D01*
Y13701D01*
X94563Y14095D02*
Y11733D01*
X95744D01*
X96137Y12127D01*
Y12914D01*
X95744Y13307D01*
X94563D01*
X95350D02*
X96137Y14095D01*
X96924Y11733D02*
X98499Y14095D01*
Y11733D02*
X96924Y14095D01*
X101647D02*
Y11733D01*
X102828D01*
X103221Y12127D01*
Y12914D01*
X102828Y13307D01*
X101647D01*
X104009Y14095D02*
X104796D01*
X104402D01*
Y12520D01*
X104009D01*
X105976Y14095D02*
Y12520D01*
X107157D01*
X107551Y12914D01*
Y14095D01*
X112274D02*
X110699D01*
X112274Y12520D01*
Y12127D01*
X111880Y11733D01*
X111093D01*
X110699Y12127D01*
X113061Y12520D02*
X113454D01*
Y12914D01*
X113061D01*
Y12520D01*
Y13701D02*
X113454D01*
Y14095D01*
X113061D01*
Y13701D01*
X115029Y11733D02*
X116603D01*
X115816D01*
Y14095D01*
X117390Y11733D02*
X118964Y14095D01*
Y11733D02*
X117390Y14095D01*
X5827Y21969D02*
Y23543D01*
X4253Y21969D01*
X3859D01*
X3465Y22363D01*
Y23150D01*
X3859Y23543D01*
X3465Y47362D02*
Y46575D01*
Y46969D01*
X5827D01*
Y47362D01*
Y46575D01*
Y45394D02*
X3465D01*
X5827Y43820D01*
X3465D01*
X5827Y43033D02*
X3465D01*
Y41852D01*
X3859Y41459D01*
X4646D01*
X5040Y41852D01*
Y43033D01*
X3859Y16022D02*
X3465Y16416D01*
Y17203D01*
X3859Y17596D01*
X5433D01*
X5827Y17203D01*
Y16416D01*
X5433Y16022D01*
X4646D01*
Y16809D01*
X5827Y15235D02*
X3465D01*
X5827Y13661D01*
X3465D01*
Y12874D02*
X5827D01*
Y11693D01*
X5433Y11299D01*
X3859D01*
X3465Y11693D01*
Y12874D01*
X5827Y36535D02*
Y35748D01*
Y36142D01*
X3465D01*
X3859Y36535D01*
X63776Y4338D02*
X63784Y6699D01*
X64965Y6695D01*
X65357Y6300D01*
X65356Y5907D01*
X64961Y5514D01*
X63780Y5519D01*
X64961Y5514D01*
X65353Y5120D01*
X65352Y4726D01*
X64957Y4334D01*
X63776Y4338D01*
X67720Y6686D02*
X66146Y6691D01*
X67715Y5111D01*
X67713Y4718D01*
X67318Y4326D01*
X66531Y4328D01*
X66139Y4723D01*
X63780Y14567D02*
Y12205D01*
X64961D01*
X65355Y12599D01*
Y12992D01*
X64961Y13386D01*
X63780D01*
X64961D01*
X65355Y13779D01*
Y14173D01*
X64961Y14567D01*
X63780D01*
X66142Y14173D02*
X66535Y14567D01*
X67322D01*
X67716Y14173D01*
Y13779D01*
X67322Y13386D01*
X66929D01*
X67322D01*
X67716Y12992D01*
Y12599D01*
X67322Y12205D01*
X66535D01*
X66142Y12599D01*
X53347Y18307D02*
Y20669D01*
X54528D01*
X54921Y20275D01*
Y19882D01*
X54528Y19488D01*
X53347D01*
X54528D01*
X54921Y19095D01*
Y18701D01*
X54528Y18307D01*
X53347D01*
X55708Y20669D02*
X56496D01*
X56102D01*
Y18307D01*
X55708Y18701D01*
X46260Y25788D02*
Y28149D01*
X47441D01*
X47835Y27756D01*
Y27362D01*
X47441Y26969D01*
X46260D01*
X47441D01*
X47835Y26575D01*
Y26181D01*
X47441Y25788D01*
X46260D01*
X49803Y28149D02*
Y25788D01*
X48622Y26969D01*
X50196D01*
X46260Y34843D02*
Y37204D01*
X47441D01*
X47835Y36811D01*
Y36417D01*
X47441Y36024D01*
X46260D01*
X47441D01*
X47835Y35630D01*
Y35236D01*
X47441Y34843D01*
X46260D01*
X50196D02*
X48622D01*
Y36024D01*
X49409Y35630D01*
X49803D01*
X50196Y36024D01*
Y36811D01*
X49803Y37204D01*
X49016D01*
X48622Y36811D01*
X29331Y51182D02*
Y53543D01*
X30512D01*
X30906Y53149D01*
Y52756D01*
X30512Y52362D01*
X29331D01*
X30512D01*
X30906Y51969D01*
Y51575D01*
X30512Y51182D01*
X29331D01*
X33267D02*
X32480Y51575D01*
X31693Y52362D01*
Y53149D01*
X32086Y53543D01*
X32873D01*
X33267Y53149D01*
Y52756D01*
X32873Y52362D01*
X31693D01*
D61*
X12284Y3663D02*
Y7599D01*
X13071Y8386D01*
X14645D01*
X15432Y7599D01*
Y3663D01*
X20155Y4450D02*
X19368Y3663D01*
X17794D01*
X17006Y4450D01*
Y5237D01*
X17794Y6024D01*
X19368D01*
X20155Y6812D01*
Y7599D01*
X19368Y8386D01*
X17794D01*
X17006Y7599D01*
X21729Y3663D02*
Y8386D01*
X24091D01*
X24878Y7599D01*
Y6812D01*
X24091Y6024D01*
X21729D01*
X24091D01*
X24878Y5237D01*
Y4450D01*
X24091Y3663D01*
X21729D01*
X26452Y6024D02*
X29601D01*
X34324Y4450D02*
X33536Y3663D01*
X31962D01*
X31175Y4450D01*
Y5237D01*
X31962Y6024D01*
X33536D01*
X34324Y6812D01*
Y7599D01*
X33536Y8386D01*
X31962D01*
X31175Y7599D01*
X35898Y3663D02*
Y8386D01*
X37472Y6812D01*
X39046Y8386D01*
Y3663D01*
X40621Y6024D02*
X43769D01*
X45344Y8386D02*
Y5237D01*
X46918Y3663D01*
X48492Y5237D01*
Y8386D01*
Y6024D01*
X45344D01*
M02*
