G04*
G04 #@! TF.GenerationSoftware,Altium Limited,Altium Designer,24.1.2 (44)*
G04*
G04 Layer_Color=8150272*
%FSLAX25Y25*%
%MOIN*%
G70*
G04*
G04 #@! TF.SameCoordinates,EE77DEAB-9AB2-494E-AFD2-A50B0434E7B8*
G04*
G04*
G04 #@! TF.FilePolarity,Negative*
G04*
G01*
G75*
%ADD35O,0.08976X0.06614*%
G04:AMPARAMS|DCode=36|XSize=66.14mil|YSize=89.76mil|CornerRadius=17.32mil|HoleSize=0mil|Usage=FLASHONLY|Rotation=270.000|XOffset=0mil|YOffset=0mil|HoleType=Round|Shape=RoundedRectangle|*
%AMROUNDEDRECTD36*
21,1,0.06614,0.05512,0,0,270.0*
21,1,0.03150,0.08976,0,0,270.0*
1,1,0.03465,-0.02756,-0.01575*
1,1,0.03465,-0.02756,0.01575*
1,1,0.03465,0.02756,0.01575*
1,1,0.03465,0.02756,-0.01575*
%
%ADD36ROUNDEDRECTD36*%
%ADD37C,0.06614*%
G04:AMPARAMS|DCode=38|XSize=66.14mil|YSize=66.14mil|CornerRadius=17.32mil|HoleSize=0mil|Usage=FLASHONLY|Rotation=0.000|XOffset=0mil|YOffset=0mil|HoleType=Round|Shape=RoundedRectangle|*
%AMROUNDEDRECTD38*
21,1,0.06614,0.03150,0,0,0.0*
21,1,0.03150,0.06614,0,0,0.0*
1,1,0.03465,0.01575,-0.01575*
1,1,0.03465,-0.01575,-0.01575*
1,1,0.03465,-0.01575,0.01575*
1,1,0.03465,0.01575,0.01575*
%
%ADD38ROUNDEDRECTD38*%
G04:AMPARAMS|DCode=39|XSize=50.39mil|YSize=58.27mil|CornerRadius=13.39mil|HoleSize=0mil|Usage=FLASHONLY|Rotation=0.000|XOffset=0mil|YOffset=0mil|HoleType=Round|Shape=RoundedRectangle|*
%AMROUNDEDRECTD39*
21,1,0.05039,0.03150,0,0,0.0*
21,1,0.02362,0.05827,0,0,0.0*
1,1,0.02677,0.01181,-0.01575*
1,1,0.02677,-0.01181,-0.01575*
1,1,0.02677,-0.01181,0.01575*
1,1,0.02677,0.01181,0.01575*
%
%ADD39ROUNDEDRECTD39*%
%ADD40C,0.05118*%
G04:AMPARAMS|DCode=41|XSize=74.02mil|YSize=129.13mil|CornerRadius=19.29mil|HoleSize=0mil|Usage=FLASHONLY|Rotation=270.000|XOffset=0mil|YOffset=0mil|HoleType=Round|Shape=RoundedRectangle|*
%AMROUNDEDRECTD41*
21,1,0.07402,0.09055,0,0,270.0*
21,1,0.03543,0.12913,0,0,270.0*
1,1,0.03858,-0.04528,-0.01772*
1,1,0.03858,-0.04528,0.01772*
1,1,0.03858,0.04528,0.01772*
1,1,0.03858,0.04528,-0.01772*
%
%ADD41ROUNDEDRECTD41*%
%ADD42O,0.08189X0.05827*%
G04:AMPARAMS|DCode=43|XSize=58.27mil|YSize=81.89mil|CornerRadius=15.35mil|HoleSize=0mil|Usage=FLASHONLY|Rotation=90.000|XOffset=0mil|YOffset=0mil|HoleType=Round|Shape=RoundedRectangle|*
%AMROUNDEDRECTD43*
21,1,0.05827,0.05118,0,0,90.0*
21,1,0.02756,0.08189,0,0,90.0*
1,1,0.03071,0.02559,0.01378*
1,1,0.03071,0.02559,-0.01378*
1,1,0.03071,-0.02559,-0.01378*
1,1,0.03071,-0.02559,0.01378*
%
%ADD43ROUNDEDRECTD43*%
%ADD60R,0.02402X0.03937*%
G36*
X66476Y21259D02*
X66495Y21257D01*
X66524Y21248D01*
X66532Y21246D01*
X66567Y21227D01*
X66582Y21215D01*
X66597Y21203D01*
X66597Y21203D01*
X67069Y20730D01*
X67094Y20700D01*
X67112Y20666D01*
X67115Y20658D01*
X67123Y20629D01*
X67125Y20610D01*
X67127Y20591D01*
X67127Y20590D01*
Y17992D01*
X67127Y17992D01*
X67125Y17973D01*
X67123Y17954D01*
X67115Y17925D01*
X67112Y17916D01*
X67094Y17882D01*
X67081Y17867D01*
X67069Y17852D01*
X67069Y17852D01*
X66597Y17380D01*
X66567Y17355D01*
X66532Y17337D01*
X66524Y17334D01*
X66495Y17326D01*
X66476Y17324D01*
X66457Y17322D01*
X66457Y17322D01*
X61575D01*
X61536Y17326D01*
X61499Y17337D01*
X61465Y17355D01*
X61435Y17380D01*
X61410Y17410D01*
X61392Y17444D01*
X61381Y17481D01*
X61377Y17520D01*
Y17795D01*
X61379Y17813D01*
X61380Y17831D01*
X61381Y17832D01*
X61381Y17834D01*
X61386Y17851D01*
X61391Y17868D01*
X61392Y17869D01*
X61392Y17871D01*
X61400Y17887D01*
X61409Y17902D01*
X61410Y17904D01*
X61410Y17905D01*
X61422Y17919D01*
X61433Y17933D01*
X61434Y17934D01*
X61435Y17935D01*
X61449Y17946D01*
X61462Y17958D01*
X62912Y18962D01*
Y19621D01*
X61462Y20625D01*
X61449Y20636D01*
X61435Y20648D01*
X61434Y20649D01*
X61433Y20650D01*
X61422Y20664D01*
X61410Y20677D01*
X61410Y20679D01*
X61409Y20680D01*
X61401Y20696D01*
X61392Y20712D01*
X61392Y20713D01*
X61391Y20715D01*
X61386Y20732D01*
X61381Y20749D01*
X61381Y20750D01*
X61380Y20752D01*
X61379Y20770D01*
X61377Y20787D01*
Y21063D01*
X61381Y21102D01*
X61392Y21139D01*
X61410Y21173D01*
X61435Y21203D01*
X61465Y21227D01*
X61499Y21246D01*
X61536Y21257D01*
X61575Y21261D01*
X66457D01*
X66457Y21261D01*
X66476Y21259D01*
D02*
G37*
G36*
X57992Y21261D02*
X60945D01*
X60984Y21257D01*
X61021Y21246D01*
X61055Y21227D01*
X61085Y21203D01*
X61109Y21173D01*
X61128Y21139D01*
X61139Y21102D01*
X61143Y21063D01*
Y20537D01*
X62593Y19533D01*
X62607Y19521D01*
X62620Y19510D01*
X62621Y19509D01*
X62622Y19508D01*
X62634Y19494D01*
X62645Y19480D01*
X62646Y19478D01*
X62647Y19477D01*
X62655Y19462D01*
X62663Y19446D01*
X62664Y19444D01*
X62664Y19443D01*
X62669Y19426D01*
X62674Y19409D01*
X62674Y19407D01*
X62675Y19406D01*
X62676Y19387D01*
X62678Y19370D01*
Y19213D01*
X62676Y19195D01*
X62675Y19177D01*
X62674Y19176D01*
X62674Y19174D01*
X62669Y19157D01*
X62664Y19140D01*
X62664Y19139D01*
X62663Y19137D01*
X62655Y19121D01*
X62647Y19105D01*
X62646Y19104D01*
X62645Y19103D01*
X62633Y19089D01*
X62622Y19075D01*
X62621Y19074D01*
X62620Y19073D01*
X62606Y19061D01*
X62593Y19050D01*
X61143Y18046D01*
Y17520D01*
X61139Y17481D01*
X61128Y17444D01*
X61109Y17410D01*
X61085Y17380D01*
X61055Y17355D01*
X61021Y17337D01*
X60984Y17326D01*
X60945Y17322D01*
X57992D01*
X57992Y17322D01*
X57954Y17326D01*
X57916Y17337D01*
X57882Y17355D01*
X57866Y17369D01*
X57852Y17380D01*
X57852Y17380D01*
X57340Y17892D01*
X57316Y17922D01*
X57298Y17956D01*
X57295Y17964D01*
X57286Y17993D01*
X57284Y18012D01*
X57283Y18032D01*
X57283Y18032D01*
Y20551D01*
X57286Y20590D01*
X57295Y20618D01*
X57298Y20627D01*
X57316Y20661D01*
X57340Y20691D01*
X57341Y20691D01*
X57852Y21203D01*
X57852Y21203D01*
X57866Y21214D01*
X57882Y21227D01*
X57916Y21246D01*
X57954Y21257D01*
X57957Y21257D01*
X57992Y21261D01*
X57992Y21261D01*
D02*
G37*
G36*
X77873Y15351D02*
X77910Y15340D01*
X77944Y15322D01*
X77961Y15308D01*
X77974Y15297D01*
X77975Y15297D01*
X78486Y14786D01*
X78511Y14756D01*
X78529Y14721D01*
X78532Y14713D01*
X78540Y14684D01*
X78542Y14665D01*
X78544Y14646D01*
X78544Y14646D01*
Y12126D01*
X78540Y12087D01*
X78532Y12059D01*
X78529Y12050D01*
X78511Y12016D01*
X78486Y11986D01*
X78486Y11986D01*
X77975Y11474D01*
X77974Y11474D01*
X77961Y11463D01*
X77944Y11450D01*
X77910Y11431D01*
X77873Y11420D01*
X77870Y11420D01*
X77835Y11416D01*
X77835Y11416D01*
X74882D01*
X74843Y11420D01*
X74806Y11431D01*
X74772Y11450D01*
X74742Y11474D01*
X74717Y11504D01*
X74699Y11539D01*
X74688Y11576D01*
X74684Y11614D01*
Y12140D01*
X73234Y13145D01*
X73220Y13156D01*
X73207Y13167D01*
X73206Y13169D01*
X73204Y13170D01*
X73193Y13183D01*
X73182Y13197D01*
X73181Y13199D01*
X73180Y13200D01*
X73172Y13216D01*
X73164Y13231D01*
X73163Y13233D01*
X73163Y13234D01*
X73158Y13252D01*
X73153Y13269D01*
X73152Y13270D01*
X73152Y13272D01*
X73150Y13290D01*
X73149Y13307D01*
Y13465D01*
X73150Y13482D01*
X73152Y13500D01*
X73152Y13501D01*
X73153Y13503D01*
X73158Y13520D01*
X73163Y13537D01*
X73163Y13539D01*
X73164Y13540D01*
X73172Y13556D01*
X73180Y13572D01*
X73181Y13573D01*
X73182Y13575D01*
X73193Y13588D01*
X73204Y13602D01*
X73206Y13603D01*
X73207Y13604D01*
X73220Y13616D01*
X73234Y13627D01*
X74684Y14631D01*
Y15157D01*
X74688Y15196D01*
X74699Y15233D01*
X74717Y15267D01*
X74742Y15297D01*
X74772Y15322D01*
X74806Y15340D01*
X74843Y15351D01*
X74882Y15355D01*
X77835D01*
X77835Y15355D01*
X77873Y15351D01*
D02*
G37*
G36*
X69370Y15355D02*
X74252D01*
X74291Y15351D01*
X74328Y15340D01*
X74362Y15322D01*
X74392Y15297D01*
X74416Y15267D01*
X74435Y15233D01*
X74446Y15196D01*
X74450Y15157D01*
Y14882D01*
X74448Y14864D01*
X74447Y14846D01*
X74446Y14845D01*
X74446Y14843D01*
X74441Y14826D01*
X74436Y14809D01*
X74435Y14808D01*
X74435Y14806D01*
X74426Y14791D01*
X74418Y14775D01*
X74417Y14773D01*
X74416Y14772D01*
X74405Y14758D01*
X74394Y14744D01*
X74393Y14743D01*
X74392Y14742D01*
X74378Y14731D01*
X74365Y14719D01*
X72914Y13715D01*
Y13056D01*
X74365Y12052D01*
X74378Y12041D01*
X74392Y12030D01*
X74393Y12028D01*
X74394Y12027D01*
X74405Y12013D01*
X74416Y12000D01*
X74417Y11998D01*
X74418Y11997D01*
X74426Y11981D01*
X74435Y11965D01*
X74435Y11964D01*
X74436Y11962D01*
X74441Y11945D01*
X74446Y11928D01*
X74446Y11927D01*
X74447Y11925D01*
X74448Y11907D01*
X74450Y11890D01*
Y11614D01*
X74446Y11576D01*
X74435Y11539D01*
X74416Y11504D01*
X74392Y11474D01*
X74362Y11450D01*
X74328Y11431D01*
X74291Y11420D01*
X74252Y11416D01*
X69370D01*
X69370Y11416D01*
X69351Y11418D01*
X69332Y11420D01*
X69303Y11429D01*
X69294Y11431D01*
X69260Y11450D01*
X69245Y11462D01*
X69230Y11474D01*
X69230Y11474D01*
X68758Y11947D01*
X68733Y11977D01*
X68715Y12011D01*
X68712Y12020D01*
X68704Y12048D01*
X68702Y12067D01*
X68700Y12087D01*
X68700Y12087D01*
Y14685D01*
X68700Y14685D01*
X68702Y14704D01*
X68704Y14724D01*
X68712Y14752D01*
X68715Y14761D01*
X68733Y14795D01*
X68745Y14810D01*
X68758Y14825D01*
X68758Y14825D01*
X69230Y15297D01*
X69260Y15322D01*
X69294Y15340D01*
X69303Y15343D01*
X69332Y15351D01*
X69351Y15353D01*
X69370Y15355D01*
X69370Y15355D01*
D02*
G37*
G36*
X77873Y7478D02*
X77910Y7466D01*
X77944Y7448D01*
X77961Y7434D01*
X77974Y7423D01*
X77975Y7423D01*
X78486Y6911D01*
X78511Y6882D01*
X78529Y6847D01*
X78532Y6839D01*
X78540Y6810D01*
X78542Y6791D01*
X78544Y6772D01*
X78544Y6772D01*
Y4252D01*
X78540Y4213D01*
X78532Y4185D01*
X78529Y4176D01*
X78511Y4142D01*
X78486Y4112D01*
X78486Y4112D01*
X77975Y3600D01*
X77974Y3600D01*
X77961Y3589D01*
X77944Y3576D01*
X77910Y3557D01*
X77873Y3546D01*
X77870Y3546D01*
X77835Y3542D01*
X77835Y3542D01*
X74882D01*
X74843Y3546D01*
X74806Y3557D01*
X74772Y3576D01*
X74742Y3600D01*
X74717Y3630D01*
X74699Y3664D01*
X74688Y3702D01*
X74684Y3740D01*
Y4266D01*
X73234Y5270D01*
X73220Y5282D01*
X73207Y5293D01*
X73206Y5294D01*
X73204Y5296D01*
X73193Y5309D01*
X73182Y5323D01*
X73181Y5325D01*
X73180Y5326D01*
X73172Y5342D01*
X73164Y5357D01*
X73163Y5359D01*
X73163Y5360D01*
X73158Y5378D01*
X73153Y5395D01*
X73152Y5396D01*
X73152Y5398D01*
X73150Y5416D01*
X73149Y5433D01*
Y5591D01*
X73150Y5608D01*
X73152Y5626D01*
X73152Y5627D01*
X73153Y5629D01*
X73158Y5646D01*
X73163Y5663D01*
X73163Y5665D01*
X73164Y5666D01*
X73172Y5682D01*
X73180Y5698D01*
X73181Y5699D01*
X73182Y5700D01*
X73193Y5714D01*
X73204Y5728D01*
X73206Y5729D01*
X73207Y5730D01*
X73220Y5742D01*
X73234Y5753D01*
X74684Y6757D01*
Y7283D01*
X74688Y7322D01*
X74699Y7359D01*
X74717Y7393D01*
X74742Y7423D01*
X74772Y7448D01*
X74806Y7466D01*
X74843Y7478D01*
X74882Y7481D01*
X77835D01*
X77835Y7481D01*
X77873Y7478D01*
D02*
G37*
G36*
X69370Y7481D02*
X74252D01*
X74291Y7478D01*
X74328Y7466D01*
X74362Y7448D01*
X74392Y7423D01*
X74416Y7393D01*
X74435Y7359D01*
X74446Y7322D01*
X74450Y7283D01*
Y7008D01*
X74448Y6990D01*
X74447Y6972D01*
X74446Y6971D01*
X74446Y6969D01*
X74441Y6952D01*
X74436Y6935D01*
X74435Y6934D01*
X74435Y6932D01*
X74426Y6917D01*
X74418Y6901D01*
X74417Y6899D01*
X74416Y6898D01*
X74405Y6884D01*
X74394Y6870D01*
X74393Y6869D01*
X74392Y6868D01*
X74378Y6857D01*
X74365Y6845D01*
X72914Y5841D01*
Y5182D01*
X74365Y4178D01*
X74378Y4167D01*
X74392Y4156D01*
X74393Y4154D01*
X74394Y4153D01*
X74405Y4139D01*
X74416Y4126D01*
X74417Y4124D01*
X74418Y4123D01*
X74426Y4107D01*
X74435Y4091D01*
X74435Y4090D01*
X74436Y4088D01*
X74441Y4071D01*
X74446Y4054D01*
X74446Y4053D01*
X74447Y4051D01*
X74448Y4033D01*
X74450Y4016D01*
Y3740D01*
X74446Y3702D01*
X74435Y3664D01*
X74416Y3630D01*
X74392Y3600D01*
X74362Y3576D01*
X74328Y3557D01*
X74291Y3546D01*
X74252Y3542D01*
X69370D01*
X69370Y3542D01*
X69351Y3544D01*
X69332Y3546D01*
X69303Y3555D01*
X69294Y3557D01*
X69260Y3576D01*
X69245Y3588D01*
X69230Y3600D01*
X69230Y3600D01*
X68758Y4073D01*
X68733Y4103D01*
X68715Y4137D01*
X68712Y4146D01*
X68704Y4174D01*
X68702Y4193D01*
X68700Y4213D01*
X68700Y4213D01*
Y6811D01*
X68700Y6811D01*
X68702Y6830D01*
X68704Y6850D01*
X68712Y6878D01*
X68715Y6887D01*
X68733Y6921D01*
X68745Y6936D01*
X68758Y6951D01*
X68758Y6951D01*
X69230Y7423D01*
X69260Y7448D01*
X69294Y7466D01*
X69303Y7469D01*
X69332Y7478D01*
X69351Y7479D01*
X69370Y7481D01*
X69370Y7481D01*
D02*
G37*
G36*
X43228Y54328D02*
X43265Y54317D01*
X43299Y54298D01*
X43315Y54285D01*
X43329Y54274D01*
X43329Y54274D01*
X43841Y53762D01*
X43865Y53732D01*
X43883Y53698D01*
X43886Y53689D01*
X43895Y53661D01*
X43897Y53641D01*
X43899Y53622D01*
X43899Y53622D01*
Y51102D01*
X43895Y51064D01*
X43886Y51035D01*
X43883Y51027D01*
X43865Y50993D01*
X43841Y50963D01*
X43841Y50962D01*
X43329Y50451D01*
X43329Y50451D01*
X43315Y50440D01*
X43299Y50426D01*
X43265Y50408D01*
X43228Y50397D01*
X43224Y50396D01*
X43189Y50393D01*
X43189Y50393D01*
X40236D01*
X40198Y50397D01*
X40161Y50408D01*
X40126Y50426D01*
X40096Y50451D01*
X40072Y50481D01*
X40053Y50515D01*
X40042Y50552D01*
X40038Y50591D01*
Y51117D01*
X38588Y52121D01*
X38575Y52132D01*
X38561Y52144D01*
X38560Y52145D01*
X38559Y52146D01*
X38548Y52160D01*
X38536Y52174D01*
X38536Y52175D01*
X38535Y52176D01*
X38526Y52192D01*
X38518Y52208D01*
X38518Y52209D01*
X38517Y52211D01*
X38512Y52228D01*
X38507Y52245D01*
X38507Y52246D01*
X38506Y52248D01*
X38505Y52266D01*
X38503Y52284D01*
Y52441D01*
X38505Y52459D01*
X38506Y52476D01*
X38507Y52478D01*
X38507Y52479D01*
X38512Y52497D01*
X38517Y52514D01*
X38518Y52515D01*
X38518Y52517D01*
X38526Y52532D01*
X38535Y52548D01*
X38536Y52549D01*
X38536Y52551D01*
X38548Y52565D01*
X38559Y52579D01*
X38560Y52579D01*
X38561Y52581D01*
X38575Y52592D01*
X38588Y52604D01*
X40038Y53608D01*
Y54134D01*
X40042Y54172D01*
X40053Y54210D01*
X40072Y54244D01*
X40096Y54274D01*
X40126Y54298D01*
X40161Y54317D01*
X40198Y54328D01*
X40236Y54332D01*
X43189D01*
X43189Y54332D01*
X43228Y54328D01*
D02*
G37*
G36*
X34725Y54332D02*
X39606D01*
X39645Y54328D01*
X39682Y54317D01*
X39716Y54298D01*
X39746Y54274D01*
X39771Y54244D01*
X39789Y54210D01*
X39800Y54172D01*
X39804Y54134D01*
Y53858D01*
X39802Y53841D01*
X39801Y53823D01*
X39801Y53821D01*
X39800Y53820D01*
X39795Y53803D01*
X39790Y53786D01*
X39790Y53784D01*
X39789Y53783D01*
X39781Y53767D01*
X39773Y53751D01*
X39772Y53750D01*
X39771Y53748D01*
X39759Y53735D01*
X39748Y53721D01*
X39747Y53720D01*
X39746Y53718D01*
X39732Y53707D01*
X39719Y53696D01*
X38269Y52692D01*
Y52033D01*
X39719Y51029D01*
X39733Y51017D01*
X39746Y51006D01*
X39747Y51005D01*
X39748Y51004D01*
X39759Y50990D01*
X39771Y50976D01*
X39772Y50975D01*
X39773Y50973D01*
X39781Y50958D01*
X39789Y50942D01*
X39790Y50940D01*
X39790Y50939D01*
X39795Y50922D01*
X39800Y50905D01*
X39801Y50903D01*
X39801Y50902D01*
X39802Y50884D01*
X39804Y50866D01*
Y50591D01*
X39800Y50552D01*
X39789Y50515D01*
X39771Y50481D01*
X39746Y50451D01*
X39716Y50426D01*
X39682Y50408D01*
X39645Y50397D01*
X39606Y50393D01*
X34725D01*
X34724Y50393D01*
X34705Y50395D01*
X34686Y50397D01*
X34657Y50405D01*
X34649Y50408D01*
X34615Y50426D01*
X34600Y50438D01*
X34585Y50451D01*
X34585Y50451D01*
X34112Y50923D01*
X34087Y50953D01*
X34069Y50987D01*
X34067Y50996D01*
X34058Y51024D01*
X34056Y51044D01*
X34054Y51063D01*
X34054Y51063D01*
Y53661D01*
X34054Y53661D01*
X34056Y53681D01*
X34058Y53700D01*
X34067Y53728D01*
X34069Y53737D01*
X34087Y53771D01*
X34100Y53786D01*
X34112Y53801D01*
X34112Y53801D01*
X34585Y54274D01*
X34615Y54298D01*
X34649Y54317D01*
X34657Y54319D01*
X34686Y54328D01*
X34705Y54330D01*
X34724Y54332D01*
X34725Y54332D01*
D02*
G37*
G36*
X60353Y37989D02*
X60391Y37978D01*
X60425Y37960D01*
X60441Y37946D01*
X60455Y37935D01*
X60455Y37935D01*
X60967Y37423D01*
X60991Y37393D01*
X61010Y37359D01*
X61012Y37350D01*
X61021Y37322D01*
X61023Y37303D01*
X61025Y37284D01*
X61025Y37283D01*
Y34764D01*
X61021Y34725D01*
X61012Y34697D01*
X61010Y34688D01*
X60991Y34654D01*
X60967Y34624D01*
X60967Y34624D01*
X60455Y34112D01*
X60455Y34112D01*
X60441Y34101D01*
X60425Y34087D01*
X60391Y34069D01*
X60353Y34058D01*
X60350Y34058D01*
X60315Y34054D01*
X60315Y34054D01*
X57362D01*
X57324Y34058D01*
X57287Y34069D01*
X57252Y34087D01*
X57222Y34112D01*
X57198Y34142D01*
X57179Y34176D01*
X57168Y34213D01*
X57164Y34252D01*
Y34778D01*
X55714Y35782D01*
X55701Y35794D01*
X55687Y35805D01*
X55686Y35806D01*
X55685Y35807D01*
X55674Y35821D01*
X55662Y35835D01*
X55661Y35836D01*
X55660Y35838D01*
X55652Y35853D01*
X55644Y35869D01*
X55644Y35871D01*
X55643Y35872D01*
X55638Y35889D01*
X55633Y35906D01*
X55633Y35908D01*
X55632Y35910D01*
X55631Y35927D01*
X55629Y35945D01*
Y36102D01*
X55631Y36120D01*
X55632Y36138D01*
X55633Y36139D01*
X55633Y36141D01*
X55638Y36158D01*
X55643Y36175D01*
X55644Y36176D01*
X55644Y36178D01*
X55652Y36194D01*
X55660Y36209D01*
X55661Y36211D01*
X55662Y36212D01*
X55674Y36226D01*
X55685Y36240D01*
X55686Y36241D01*
X55687Y36242D01*
X55701Y36254D01*
X55714Y36265D01*
X57164Y37269D01*
Y37795D01*
X57168Y37834D01*
X57179Y37871D01*
X57198Y37905D01*
X57222Y37935D01*
X57252Y37960D01*
X57287Y37978D01*
X57324Y37989D01*
X57362Y37993D01*
X60315D01*
X60315Y37993D01*
X60353Y37989D01*
D02*
G37*
G36*
X51850Y37993D02*
X56732D01*
X56771Y37989D01*
X56808Y37978D01*
X56842Y37960D01*
X56872Y37935D01*
X56897Y37905D01*
X56915Y37871D01*
X56926Y37834D01*
X56930Y37795D01*
Y37520D01*
X56928Y37502D01*
X56927Y37484D01*
X56926Y37483D01*
X56926Y37481D01*
X56921Y37464D01*
X56916Y37447D01*
X56915Y37446D01*
X56915Y37444D01*
X56907Y37428D01*
X56898Y37413D01*
X56897Y37411D01*
X56897Y37410D01*
X56885Y37396D01*
X56874Y37382D01*
X56873Y37381D01*
X56872Y37380D01*
X56858Y37369D01*
X56845Y37357D01*
X55395Y36353D01*
Y35694D01*
X56845Y34690D01*
X56858Y34679D01*
X56872Y34667D01*
X56873Y34666D01*
X56874Y34665D01*
X56885Y34651D01*
X56897Y34637D01*
X56897Y34636D01*
X56898Y34635D01*
X56907Y34619D01*
X56915Y34603D01*
X56915Y34602D01*
X56916Y34600D01*
X56921Y34583D01*
X56926Y34566D01*
X56926Y34565D01*
X56927Y34563D01*
X56928Y34545D01*
X56930Y34528D01*
Y34252D01*
X56926Y34213D01*
X56915Y34176D01*
X56897Y34142D01*
X56872Y34112D01*
X56842Y34087D01*
X56808Y34069D01*
X56771Y34058D01*
X56732Y34054D01*
X51850D01*
X51850Y34054D01*
X51831Y34056D01*
X51812Y34058D01*
X51783Y34067D01*
X51775Y34069D01*
X51740Y34087D01*
X51726Y34100D01*
X51710Y34112D01*
X51710Y34112D01*
X51238Y34585D01*
X51214Y34615D01*
X51195Y34649D01*
X51193Y34657D01*
X51184Y34686D01*
X51182Y34705D01*
X51180Y34724D01*
X51180Y34725D01*
Y37323D01*
X51180Y37323D01*
X51182Y37342D01*
X51184Y37361D01*
X51193Y37390D01*
X51195Y37398D01*
X51214Y37433D01*
X51226Y37448D01*
X51238Y37463D01*
X51238Y37463D01*
X51710Y37935D01*
X51740Y37960D01*
X51775Y37978D01*
X51783Y37981D01*
X51812Y37989D01*
X51831Y37991D01*
X51850Y37993D01*
X51850Y37993D01*
D02*
G37*
G36*
X60353Y28934D02*
X60391Y28923D01*
X60425Y28905D01*
X60441Y28891D01*
X60455Y28880D01*
X60455Y28880D01*
X60967Y28368D01*
X60991Y28338D01*
X61010Y28304D01*
X61012Y28295D01*
X61021Y28267D01*
X61023Y28248D01*
X61025Y28228D01*
X61025Y28228D01*
Y25709D01*
X61021Y25670D01*
X61012Y25642D01*
X61010Y25633D01*
X60991Y25599D01*
X60967Y25569D01*
X60967Y25569D01*
X60455Y25057D01*
X60455Y25057D01*
X60441Y25046D01*
X60425Y25032D01*
X60391Y25014D01*
X60353Y25003D01*
X60350Y25003D01*
X60315Y24999D01*
X60315Y24999D01*
X57362D01*
X57324Y25003D01*
X57287Y25014D01*
X57252Y25032D01*
X57222Y25057D01*
X57198Y25087D01*
X57179Y25121D01*
X57168Y25158D01*
X57164Y25197D01*
Y25723D01*
X55714Y26727D01*
X55701Y26739D01*
X55687Y26750D01*
X55686Y26751D01*
X55685Y26752D01*
X55674Y26766D01*
X55662Y26780D01*
X55661Y26781D01*
X55660Y26783D01*
X55652Y26798D01*
X55644Y26814D01*
X55644Y26816D01*
X55643Y26817D01*
X55638Y26834D01*
X55633Y26851D01*
X55633Y26853D01*
X55632Y26854D01*
X55631Y26872D01*
X55629Y26890D01*
Y27047D01*
X55631Y27065D01*
X55632Y27083D01*
X55633Y27084D01*
X55633Y27086D01*
X55638Y27103D01*
X55643Y27120D01*
X55644Y27121D01*
X55644Y27123D01*
X55652Y27139D01*
X55660Y27154D01*
X55661Y27156D01*
X55662Y27157D01*
X55674Y27171D01*
X55685Y27185D01*
X55686Y27186D01*
X55687Y27187D01*
X55701Y27198D01*
X55714Y27210D01*
X57164Y28214D01*
Y28740D01*
X57168Y28779D01*
X57179Y28816D01*
X57198Y28850D01*
X57222Y28880D01*
X57252Y28905D01*
X57287Y28923D01*
X57324Y28934D01*
X57362Y28938D01*
X60315D01*
X60315Y28938D01*
X60353Y28934D01*
D02*
G37*
G36*
X51850Y28938D02*
X56732D01*
X56771Y28934D01*
X56808Y28923D01*
X56842Y28905D01*
X56872Y28880D01*
X56897Y28850D01*
X56915Y28816D01*
X56926Y28779D01*
X56930Y28740D01*
Y28465D01*
X56928Y28447D01*
X56927Y28429D01*
X56926Y28428D01*
X56926Y28426D01*
X56921Y28409D01*
X56916Y28392D01*
X56915Y28390D01*
X56915Y28389D01*
X56907Y28373D01*
X56898Y28357D01*
X56897Y28356D01*
X56897Y28355D01*
X56885Y28341D01*
X56874Y28327D01*
X56873Y28326D01*
X56872Y28325D01*
X56858Y28313D01*
X56845Y28302D01*
X55395Y27298D01*
Y26639D01*
X56845Y25635D01*
X56858Y25624D01*
X56872Y25612D01*
X56873Y25611D01*
X56874Y25610D01*
X56885Y25596D01*
X56897Y25582D01*
X56897Y25581D01*
X56898Y25580D01*
X56907Y25564D01*
X56915Y25548D01*
X56915Y25547D01*
X56916Y25545D01*
X56921Y25528D01*
X56926Y25511D01*
X56926Y25509D01*
X56927Y25508D01*
X56928Y25490D01*
X56930Y25472D01*
Y25197D01*
X56926Y25158D01*
X56915Y25121D01*
X56897Y25087D01*
X56872Y25057D01*
X56842Y25032D01*
X56808Y25014D01*
X56771Y25003D01*
X56732Y24999D01*
X51850D01*
X51850Y24999D01*
X51831Y25001D01*
X51812Y25003D01*
X51783Y25012D01*
X51775Y25014D01*
X51740Y25032D01*
X51726Y25045D01*
X51710Y25057D01*
X51710Y25057D01*
X51238Y25529D01*
X51214Y25559D01*
X51195Y25594D01*
X51193Y25602D01*
X51184Y25631D01*
X51182Y25650D01*
X51180Y25669D01*
X51180Y25669D01*
Y28268D01*
X51180Y28268D01*
X51182Y28287D01*
X51184Y28306D01*
X51193Y28335D01*
X51195Y28343D01*
X51214Y28378D01*
X51226Y28393D01*
X51238Y28408D01*
X51238Y28408D01*
X51710Y28880D01*
X51740Y28905D01*
X51775Y28923D01*
X51783Y28925D01*
X51812Y28934D01*
X51831Y28936D01*
X51850Y28938D01*
X51850Y28938D01*
D02*
G37*
D35*
X12992Y34528D02*
D03*
Y24528D02*
D03*
Y14528D02*
D03*
D36*
Y44528D02*
D03*
D37*
X41732Y34528D02*
D03*
Y24528D02*
D03*
Y14528D02*
D03*
D38*
Y44528D02*
D03*
D39*
X50945Y44528D02*
D03*
X30945Y34528D02*
D03*
Y14528D02*
D03*
X50945D02*
D03*
Y44528D02*
D03*
Y14528D02*
D03*
D40*
X139764Y38386D02*
D03*
Y20669D02*
D03*
D41*
Y51968D02*
D03*
Y7087D02*
D03*
D42*
X131496Y25591D02*
D03*
Y33465D02*
D03*
Y15748D02*
D03*
D43*
Y43307D02*
D03*
D60*
X39154Y52362D02*
D03*
X73799Y5512D02*
D03*
Y13386D02*
D03*
X56279Y26969D02*
D03*
Y36024D02*
D03*
X62028Y19291D02*
D03*
M02*
