G04*
G04 #@! TF.GenerationSoftware,Altium Limited,Altium Designer,24.1.2 (44)*
G04*
G04 Layer_Color=15132400*
%FSLAX25Y25*%
%MOIN*%
G70*
G04*
G04 #@! TF.SameCoordinates,5240DE8C-081E-48C3-8EDC-D625F821AD92*
G04*
G04*
G04 #@! TF.FilePolarity,Positive*
G04*
G01*
G75*
%ADD10C,0.00787*%
%ADD11C,0.00591*%
%ADD12C,0.00394*%
%ADD13C,0.00472*%
D10*
X45472Y10039D02*
X56102D01*
Y49016D01*
X45472D02*
X56102D01*
X45472Y10039D02*
Y49016D01*
X109842Y49212D02*
X110630D01*
X109842Y52362D02*
X110630D01*
X153543Y7087D02*
X154724D01*
X153543Y51968D02*
X154724D01*
Y7087D02*
Y51968D01*
X61811Y29527D02*
Y30315D01*
X58662Y29527D02*
Y30315D01*
X64173Y8661D02*
Y50394D01*
X36614D02*
X64173D01*
X36614Y8661D02*
X64173D01*
X36614D02*
Y50394D01*
X100000Y9843D02*
Y10630D01*
X103149Y9843D02*
Y10630D01*
X85827Y7480D02*
X88977D01*
X85827D02*
Y11417D01*
X94488Y7480D02*
X97638D01*
Y11417D01*
X98228Y13386D02*
Y15748D01*
X123622Y49311D02*
X124410D01*
X123622Y52264D02*
X124410D01*
X83268Y19291D02*
Y23228D01*
X84252Y25591D02*
Y39764D01*
Y25591D02*
X109449D01*
X84252Y39764D02*
X109449D01*
Y25591D02*
Y39764D01*
X114173Y9842D02*
Y10630D01*
X111024Y9842D02*
Y10630D01*
X105511Y9843D02*
Y10630D01*
X108661Y9843D02*
Y10630D01*
X115650Y40551D02*
Y41338D01*
X112697Y40551D02*
Y41338D01*
X116929Y16142D02*
X119291D01*
X116536Y9842D02*
Y10630D01*
X119685Y9842D02*
Y10630D01*
X125394Y20866D02*
Y32677D01*
X121850Y20866D02*
Y32677D01*
Y20866D02*
X125394D01*
X121850Y32677D02*
X125394D01*
X117126Y33268D02*
X119488D01*
X127165Y35039D02*
Y38189D01*
X123228Y35039D02*
X127165D01*
Y43701D02*
Y46850D01*
X123228D02*
X127165D01*
X118898Y47441D02*
X121260D01*
X130709Y9842D02*
Y10630D01*
X127559Y9842D02*
Y10630D01*
X125197Y9842D02*
Y10630D01*
X122048Y9842D02*
Y10630D01*
X122441Y16142D02*
X124803D01*
X84646Y52264D02*
X85433D01*
X84646Y49311D02*
X85433D01*
X96456Y49311D02*
X97244D01*
X96456Y52263D02*
X97244D01*
X66732Y51575D02*
X68504D01*
X69685Y51379D02*
X74409D01*
X69685Y46260D02*
X74409D01*
X66732Y12992D02*
X68504D01*
X69685Y12796D02*
X74409D01*
X69685Y7678D02*
X74409D01*
X4724Y5118D02*
Y53937D01*
X6693D01*
X4724Y5118D02*
X6693D01*
X79134Y41339D02*
X80512D01*
Y17717D02*
Y41339D01*
X79134Y17717D02*
X80512D01*
X66732Y41339D02*
X68110D01*
X66732Y17717D02*
Y41339D01*
Y17717D02*
X68110D01*
X80315Y9842D02*
Y10630D01*
X83465Y9842D02*
Y10630D01*
D11*
X23720Y24606D02*
X25098D01*
X23720D02*
Y26587D01*
X22008Y26975D02*
X23917Y33011D01*
Y34640D01*
X25295D01*
D12*
X17717Y0D02*
Y59055D01*
D13*
X113858Y19763D02*
Y17402D01*
X115433D01*
X116220Y19763D02*
Y17402D01*
X117400D01*
X117794Y17795D01*
Y19369D01*
X117400Y19763D01*
X116220D01*
X118581Y17402D02*
X119368D01*
X118975D01*
Y19763D01*
X118581Y19369D01*
X22165Y25472D02*
Y23898D01*
X20591Y25472D01*
X20198D01*
X19804Y25078D01*
Y24291D01*
X20198Y23898D01*
X22165Y34134D02*
Y34921D01*
Y34527D01*
X19804D01*
X20198Y34134D01*
X122520Y19763D02*
Y17402D01*
X124094D01*
X124881Y19763D02*
Y17402D01*
X126062D01*
X126455Y17795D01*
Y19369D01*
X126062Y19763D01*
X124881D01*
X128817Y17402D02*
X127243D01*
X128817Y18976D01*
Y19369D01*
X128423Y19763D01*
X127636D01*
X127243Y19369D01*
X23150Y13309D02*
X22757Y12915D01*
Y12128D01*
X23150Y11734D01*
X24724D01*
X25118Y12128D01*
Y12915D01*
X24724Y13309D01*
X23937D01*
Y12521D01*
X25118Y14096D02*
X22757D01*
X25118Y15670D01*
X22757D01*
Y16457D02*
X25118D01*
Y17638D01*
X24724Y18032D01*
X23150D01*
X22757Y17638D01*
Y16457D01*
Y41221D02*
Y42008D01*
Y41614D01*
X25118D01*
Y41221D01*
Y42008D01*
Y43188D02*
X22757D01*
X25118Y44763D01*
X22757D01*
X25118Y45550D02*
X22757D01*
Y46731D01*
X23150Y47124D01*
X23937D01*
X24331Y46731D01*
Y45550D01*
X108268Y53741D02*
Y56102D01*
X109449D01*
X109843Y55708D01*
Y54921D01*
X109449Y54528D01*
X108268D01*
X109055D02*
X109843Y53741D01*
X110630Y56102D02*
X112204D01*
Y55708D01*
X110630Y54134D01*
Y53741D01*
X61417Y35827D02*
X59056D01*
Y37008D01*
X59449Y37402D01*
X60236D01*
X60630Y37008D01*
Y35827D01*
Y36615D02*
X61417Y37402D01*
Y39763D02*
Y38189D01*
X59843Y39763D01*
X59449D01*
X59056Y39370D01*
Y38582D01*
X59449Y38189D01*
X41536Y47992D02*
X40748D01*
X41142D01*
Y46024D01*
X40748Y45630D01*
X40355D01*
X39961Y46024D01*
X42323Y47598D02*
X42716Y47992D01*
X43503D01*
X43897Y47598D01*
Y47205D01*
X43503Y46811D01*
X43110D01*
X43503D01*
X43897Y46417D01*
Y46024D01*
X43503Y45630D01*
X42716D01*
X42323Y46024D01*
X105119Y2363D02*
Y4724D01*
X106299D01*
X106693Y4330D01*
Y3543D01*
X106299Y3150D01*
X105119D01*
X105906D02*
X106693Y2363D01*
X109055Y4724D02*
X108267Y4330D01*
X107480Y3543D01*
Y2756D01*
X107874Y2363D01*
X108661D01*
X109055Y2756D01*
Y3150D01*
X108661Y3543D01*
X107480D01*
X99607Y2363D02*
Y4724D01*
X100788D01*
X101181Y4330D01*
Y3543D01*
X100788Y3150D01*
X99607D01*
X100394D02*
X101181Y2363D01*
X103543Y4724D02*
X101968D01*
Y3543D01*
X102755Y3937D01*
X103149D01*
X103543Y3543D01*
Y2756D01*
X103149Y2363D01*
X102362D01*
X101968Y2756D01*
X127166Y2363D02*
Y4724D01*
X128347D01*
X128740Y4330D01*
Y3543D01*
X128347Y3150D01*
X127166D01*
X127953D02*
X128740Y2363D01*
X130708D02*
Y4724D01*
X129527Y3543D01*
X131102D01*
X64961Y6102D02*
Y3740D01*
X66142D01*
X66536Y4134D01*
Y5708D01*
X66142Y6102D01*
X64961D01*
X67323Y5708D02*
X67716Y6102D01*
X68503D01*
X68897Y5708D01*
Y5315D01*
X68503Y4921D01*
X68110D01*
X68503D01*
X68897Y4528D01*
Y4134D01*
X68503Y3740D01*
X67716D01*
X67323Y4134D01*
X70079Y55118D02*
Y52756D01*
X71260D01*
X71654Y53150D01*
Y54724D01*
X71260Y55118D01*
X70079D01*
X74015Y52756D02*
X72441D01*
X74015Y54331D01*
Y54724D01*
X73621Y55118D01*
X72834D01*
X72441Y54724D01*
X71064Y2363D02*
Y4724D01*
X72245D01*
X72638Y4330D01*
Y3543D01*
X72245Y3150D01*
X71064D01*
X73425Y4724D02*
Y2363D01*
X74606D01*
X75000Y2756D01*
Y3150D01*
X74606Y3543D01*
X73425D01*
X74606D01*
X75000Y3937D01*
Y4330D01*
X74606Y4724D01*
X73425D01*
X75787Y2363D02*
X76574D01*
X76180D01*
Y4724D01*
X75787Y4330D01*
X84646Y55708D02*
X84252Y56102D01*
X83465D01*
X83072Y55708D01*
Y54134D01*
X83465Y53741D01*
X84252D01*
X84646Y54134D01*
X87007Y53741D02*
X85433D01*
X87007Y55315D01*
Y55708D01*
X86614Y56102D01*
X85826D01*
X85433Y55708D01*
X135433Y8661D02*
X134646D01*
X135039D01*
Y6693D01*
X134646Y6300D01*
X134252D01*
X133859Y6693D01*
X136220Y6300D02*
X137007D01*
X136614D01*
Y8661D01*
X136220Y8267D01*
X129135Y37598D02*
Y35630D01*
X129528Y35237D01*
X130315D01*
X130709Y35630D01*
Y37598D01*
X133070Y35237D02*
X131496D01*
X133070Y36811D01*
Y37205D01*
X132677Y37598D01*
X131889D01*
X131496Y37205D01*
X81497Y42520D02*
X83464D01*
X83858Y42914D01*
Y43701D01*
X83464Y44094D01*
X81497D01*
X83858Y44882D02*
Y45669D01*
Y45275D01*
X81497D01*
X81890Y44882D01*
X110631Y2363D02*
Y4724D01*
X111811D01*
X112205Y4330D01*
Y3543D01*
X111811Y3150D01*
X110631D01*
X111418D02*
X112205Y2363D01*
X112992Y4330D02*
X113386Y4724D01*
X114173D01*
X114566Y4330D01*
Y3937D01*
X114173Y3543D01*
X113779D01*
X114173D01*
X114566Y3150D01*
Y2756D01*
X114173Y2363D01*
X113386D01*
X112992Y2756D01*
X80512Y2363D02*
Y4724D01*
X81693D01*
X82087Y4330D01*
Y3543D01*
X81693Y3150D01*
X80512D01*
X81300D02*
X82087Y2363D01*
X82874D02*
X83661D01*
X83267D01*
Y4724D01*
X82874Y4330D01*
X87205Y4134D02*
Y5708D01*
X86811Y6102D01*
X86024D01*
X85630Y5708D01*
Y4134D01*
X86024Y3740D01*
X86811D01*
X86418Y4528D02*
X87205Y3740D01*
X86811D02*
X87205Y4134D01*
X87992Y3740D02*
X88779D01*
X88385D01*
Y6102D01*
X87992Y5708D01*
X60040Y54527D02*
Y52166D01*
Y52953D01*
X61614Y54527D01*
X60434Y53347D01*
X61614Y52166D01*
X62401D02*
X63188D01*
X62795D01*
Y54527D01*
X62401Y54134D01*
X29331Y53937D02*
X28544D01*
X28937D01*
Y51969D01*
X28544Y51575D01*
X28150D01*
X27757Y51969D01*
X31692Y51575D02*
X30118D01*
X31692Y53149D01*
Y53543D01*
X31299Y53937D01*
X30512D01*
X30118Y53543D01*
X112599Y25394D02*
X114960D01*
Y26575D01*
X114567Y26969D01*
X112992D01*
X112599Y26575D01*
Y25394D01*
X114960Y27756D02*
Y28543D01*
Y28149D01*
X112599D01*
X112992Y27756D01*
X113386Y34842D02*
X112992Y35236D01*
X112205D01*
X111812Y34842D01*
Y33268D01*
X112205Y32874D01*
X112992D01*
X113386Y33268D01*
X114173Y34842D02*
X114567Y35236D01*
X115354D01*
X115747Y34842D01*
Y34449D01*
X115354Y34055D01*
X114960D01*
X115354D01*
X115747Y33661D01*
Y33268D01*
X115354Y32874D01*
X114567D01*
X114173Y33268D01*
X123622Y55511D02*
X123229Y55905D01*
X122441D01*
X122048Y55511D01*
Y53937D01*
X122441Y53544D01*
X123229D01*
X123622Y53937D01*
X125590Y53544D02*
Y55905D01*
X124409Y54724D01*
X125984D01*
X96850Y55708D02*
X96457Y56102D01*
X95670D01*
X95276Y55708D01*
Y54134D01*
X95670Y53741D01*
X96457D01*
X96850Y54134D01*
X97637Y53741D02*
X98425D01*
X98031D01*
Y56102D01*
X97637Y55708D01*
M02*
