G04*
G04 #@! TF.GenerationSoftware,Altium Limited,Altium Designer,24.1.2 (44)*
G04*
G04 Layer_Color=13813960*
%FSLAX25Y25*%
%MOIN*%
G70*
G04*
G04 #@! TF.SameCoordinates,5240DE8C-081E-48C3-8EDC-D625F821AD92*
G04*
G04*
G04 #@! TF.FilePolarity,Positive*
G04*
G01*
G75*
%ADD13C,0.00472*%
%ADD54C,0.00866*%
D13*
X70157Y11703D02*
X71732D01*
X70945D01*
Y14064D01*
X72913D02*
X73700D01*
X74093Y13671D01*
Y12883D01*
X73700Y12490D01*
X72913D01*
X72519Y12883D01*
Y13671D01*
X72913Y14064D01*
X77242Y14851D02*
Y12490D01*
X78422D01*
X78816Y12883D01*
Y13671D01*
X78422Y14064D01*
X77242D01*
X79997D02*
X80784D01*
X81178Y13671D01*
Y12883D01*
X80784Y12490D01*
X79997D01*
X79603Y12883D01*
Y13671D01*
X79997Y14064D01*
X81965Y12490D02*
Y13671D01*
X82358Y14064D01*
X82752Y13671D01*
X83145Y14064D01*
X83539Y13671D01*
Y12490D01*
X85507Y14064D02*
X84720D01*
X84326Y13671D01*
Y12883D01*
X84720Y12490D01*
X85507D01*
X85900Y12883D01*
Y13277D01*
X84326D01*
X86688Y12490D02*
Y14064D01*
Y13277D01*
X87081Y12883D01*
X87475Y12490D01*
X87868D01*
X92985Y12096D02*
X92591Y11703D01*
X91804D01*
X91410Y12096D01*
Y12490D01*
X91804Y12883D01*
X92591D01*
X92985Y13277D01*
Y13671D01*
X92591Y14064D01*
X91804D01*
X91410Y13671D01*
X93772Y11703D02*
X95346D01*
X94559D01*
Y14064D01*
X96133Y11703D02*
Y14064D01*
X97314D01*
X97708Y13671D01*
Y12096D01*
X97314Y11703D01*
X96133D01*
X102430D02*
X100856D01*
Y12883D01*
X101643D01*
X100856D01*
Y14064D01*
X103218D02*
Y12490D01*
X104005Y11703D01*
X104792Y12490D01*
Y14064D01*
Y12883D01*
X103218D01*
X105579Y14064D02*
Y11703D01*
X107153Y14064D01*
Y11703D01*
X111876Y12096D02*
X111483Y11703D01*
X110696D01*
X110302Y12096D01*
Y12490D01*
X110696Y12883D01*
X111483D01*
X111876Y13277D01*
Y13671D01*
X111483Y14064D01*
X110696D01*
X110302Y13671D01*
X112663Y11703D02*
Y14064D01*
Y12883D01*
X113057Y12490D01*
X113844D01*
X114238Y12883D01*
Y14064D01*
X115418D02*
X116206D01*
X116599Y13671D01*
Y12883D01*
X116206Y12490D01*
X115418D01*
X115025Y12883D01*
Y13671D01*
X115418Y14064D01*
X117386Y12490D02*
Y14064D01*
Y13277D01*
X117780Y12883D01*
X118174Y12490D01*
X118567D01*
X120141Y12096D02*
Y12490D01*
X119748D01*
X120535D01*
X120141D01*
Y13671D01*
X120535Y14064D01*
X124077Y11703D02*
Y14064D01*
X125258D01*
X125651Y13671D01*
Y13277D01*
X125258Y12883D01*
X124077D01*
X125258D01*
X125651Y12490D01*
Y12096D01*
X125258Y11703D01*
X124077D01*
X128013Y14064D02*
X126438D01*
X128013Y12490D01*
Y12096D01*
X127619Y11703D01*
X126832D01*
X126438Y12096D01*
X70157Y16457D02*
X70945D01*
X70551D01*
Y18819D01*
X70157D01*
X70945D01*
X72125D02*
Y17245D01*
X73306D01*
X73700Y17638D01*
Y18819D01*
X74487D02*
X75668D01*
X76061Y18425D01*
X75668Y18032D01*
X74880D01*
X74487Y17638D01*
X74880Y17245D01*
X76061D01*
X77242Y16851D02*
Y17245D01*
X76848D01*
X77635D01*
X77242D01*
Y18425D01*
X77635Y18819D01*
X79210Y17245D02*
X79997D01*
X80390Y17638D01*
Y18819D01*
X79210D01*
X78816Y18425D01*
X79210Y18032D01*
X80390D01*
X81178Y18819D02*
X81965D01*
X81571D01*
Y16457D01*
X81178D01*
X83145Y18819D02*
X83933D01*
X83539D01*
Y16457D01*
X83145D01*
X89049D02*
X88262D01*
X88655D01*
Y18425D01*
X88262Y18819D01*
X87868D01*
X87475Y18425D01*
X89836Y16851D02*
X90230Y16457D01*
X91017D01*
X91410Y16851D01*
Y17245D01*
X91017Y17638D01*
X90623D01*
X91017D01*
X91410Y18032D01*
Y18425D01*
X91017Y18819D01*
X90230D01*
X89836Y18425D01*
X94559Y18819D02*
Y16457D01*
X95740D01*
X96133Y16851D01*
Y17638D01*
X95740Y18032D01*
X94559D01*
X95346D02*
X96133Y18819D01*
X98101D02*
X97314D01*
X96921Y18425D01*
Y17638D01*
X97314Y17245D01*
X98101D01*
X98495Y17638D01*
Y18032D01*
X96921D01*
X99282Y18819D02*
Y17245D01*
X99676D01*
X100069Y17638D01*
Y18819D01*
Y17638D01*
X100463Y17245D01*
X100856Y17638D01*
Y18819D01*
X102037D02*
X102824D01*
X103218Y18425D01*
Y17638D01*
X102824Y17245D01*
X102037D01*
X101643Y17638D01*
Y18425D01*
X102037Y18819D01*
X104005Y17245D02*
X104792Y18819D01*
X105579Y17245D01*
X107547Y18819D02*
X106760D01*
X106366Y18425D01*
Y17638D01*
X106760Y17245D01*
X107547D01*
X107940Y17638D01*
Y18032D01*
X106366D01*
X112663Y16457D02*
X111876D01*
X112270D01*
Y18425D01*
X111876Y18819D01*
X111483D01*
X111089Y18425D01*
X115025Y18819D02*
X113451D01*
X115025Y17245D01*
Y16851D01*
X114631Y16457D01*
X113844D01*
X113451Y16851D01*
X118567Y17245D02*
X119354D01*
X119748Y17638D01*
Y18819D01*
X118567D01*
X118173Y18425D01*
X118567Y18032D01*
X119748D01*
X120535Y18819D02*
Y17245D01*
X121716D01*
X122109Y17638D01*
Y18819D01*
X124471Y16457D02*
Y18819D01*
X123290D01*
X122896Y18425D01*
Y17638D01*
X123290Y17245D01*
X124471D01*
X127619Y16457D02*
Y18819D01*
Y18032D01*
X129193Y16457D01*
X128013Y17638D01*
X129193Y18819D01*
X129981D02*
X130768D01*
X130374D01*
Y16457D01*
X129981Y16851D01*
X70157Y27057D02*
X71732D01*
X70945D01*
Y29418D01*
X72913D02*
X73700D01*
X74093Y29025D01*
Y28238D01*
X73700Y27844D01*
X72913D01*
X72519Y28238D01*
Y29025D01*
X72913Y29418D01*
X77242Y30206D02*
Y27844D01*
X78422D01*
X78816Y28238D01*
Y29025D01*
X78422Y29418D01*
X77242D01*
X79997D02*
X80784D01*
X81178Y29025D01*
Y28238D01*
X80784Y27844D01*
X79997D01*
X79603Y28238D01*
Y29025D01*
X79997Y29418D01*
X81965Y27844D02*
Y29025D01*
X82358Y29418D01*
X82752Y29025D01*
X83145Y29418D01*
X83539Y29025D01*
Y27844D01*
X85507Y29418D02*
X84720D01*
X84326Y29025D01*
Y28238D01*
X84720Y27844D01*
X85507D01*
X85900Y28238D01*
Y28631D01*
X84326D01*
X86688Y27844D02*
Y29418D01*
Y28631D01*
X87081Y28238D01*
X87475Y27844D01*
X87868D01*
X91410Y29418D02*
Y27057D01*
X92591D01*
X92985Y27450D01*
Y28238D01*
X92591Y28631D01*
X91410D01*
X93772Y27057D02*
Y29418D01*
X94559Y28631D01*
X95346Y29418D01*
Y27057D01*
X96133Y29418D02*
Y27057D01*
X96921Y27844D01*
X97708Y27057D01*
Y29418D01*
X102430Y27057D02*
X100856D01*
Y28238D01*
X101643D01*
X100856D01*
Y29418D01*
X103218D02*
Y27844D01*
X104005Y27057D01*
X104792Y27844D01*
Y29418D01*
Y28238D01*
X103218D01*
X105579Y29418D02*
Y27057D01*
X107153Y29418D01*
Y27057D01*
X111876Y27450D02*
X111483Y27057D01*
X110696D01*
X110302Y27450D01*
Y27844D01*
X110696Y28238D01*
X111483D01*
X111876Y28631D01*
Y29025D01*
X111483Y29418D01*
X110696D01*
X110302Y29025D01*
X112663Y27057D02*
Y29418D01*
Y28238D01*
X113057Y27844D01*
X113844D01*
X114238Y28238D01*
Y29418D01*
X115418D02*
X116206D01*
X116599Y29025D01*
Y28238D01*
X116206Y27844D01*
X115418D01*
X115025Y28238D01*
Y29025D01*
X115418Y29418D01*
X117386Y27844D02*
Y29418D01*
Y28631D01*
X117780Y28238D01*
X118174Y27844D01*
X118567D01*
X120141Y27450D02*
Y27844D01*
X119748D01*
X120535D01*
X120141D01*
Y29025D01*
X120535Y29418D01*
X124077Y27057D02*
Y29418D01*
X125258D01*
X125651Y29025D01*
Y28631D01*
X125258Y28238D01*
X124077D01*
X125258D01*
X125651Y27844D01*
Y27450D01*
X125258Y27057D01*
X124077D01*
X126438Y27450D02*
X126832Y27057D01*
X127619D01*
X128013Y27450D01*
Y27844D01*
X127619Y28238D01*
X127226D01*
X127619D01*
X128013Y28631D01*
Y29025D01*
X127619Y29418D01*
X126832D01*
X126438Y29025D01*
X70157Y31812D02*
X70945D01*
X70551D01*
Y34173D01*
X70157D01*
X70945D01*
X72125D02*
Y32599D01*
X73306D01*
X73700Y32992D01*
Y34173D01*
X74487D02*
X75668D01*
X76061Y33780D01*
X75668Y33386D01*
X74880D01*
X74487Y32992D01*
X74880Y32599D01*
X76061D01*
X77242Y32205D02*
Y32599D01*
X76848D01*
X77635D01*
X77242D01*
Y33780D01*
X77635Y34173D01*
X79210Y32599D02*
X79997D01*
X80390Y32992D01*
Y34173D01*
X79210D01*
X78816Y33780D01*
X79210Y33386D01*
X80390D01*
X81178Y34173D02*
X81965D01*
X81571D01*
Y31812D01*
X81178D01*
X83145Y34173D02*
X83933D01*
X83539D01*
Y31812D01*
X83145D01*
X89049D02*
X88262D01*
X88655D01*
Y33780D01*
X88262Y34173D01*
X87868D01*
X87475Y33780D01*
X89836Y32205D02*
X90230Y31812D01*
X91017D01*
X91410Y32205D01*
Y32599D01*
X91017Y32992D01*
X90623D01*
X91017D01*
X91410Y33386D01*
Y33780D01*
X91017Y34173D01*
X90230D01*
X89836Y33780D01*
X94559Y34173D02*
Y31812D01*
X95740D01*
X96133Y32205D01*
Y32992D01*
X95740Y33386D01*
X94559D01*
X95346D02*
X96133Y34173D01*
X98101D02*
X97314D01*
X96921Y33780D01*
Y32992D01*
X97314Y32599D01*
X98101D01*
X98495Y32992D01*
Y33386D01*
X96921D01*
X99282Y34173D02*
Y32599D01*
X99676D01*
X100069Y32992D01*
Y34173D01*
Y32992D01*
X100463Y32599D01*
X100856Y32992D01*
Y34173D01*
X102037D02*
X102824D01*
X103218Y33780D01*
Y32992D01*
X102824Y32599D01*
X102037D01*
X101643Y32992D01*
Y33780D01*
X102037Y34173D01*
X104005Y32599D02*
X104792Y34173D01*
X105579Y32599D01*
X107547Y34173D02*
X106760D01*
X106366Y33780D01*
Y32992D01*
X106760Y32599D01*
X107547D01*
X107940Y32992D01*
Y33386D01*
X106366D01*
X112663Y31812D02*
X111876D01*
X112270D01*
Y33780D01*
X111876Y34173D01*
X111483D01*
X111089Y33780D01*
X115025Y34173D02*
X113451D01*
X115025Y32599D01*
Y32205D01*
X114631Y31812D01*
X113844D01*
X113451Y32205D01*
X118567Y32599D02*
X119354D01*
X119748Y32992D01*
Y34173D01*
X118567D01*
X118173Y33780D01*
X118567Y33386D01*
X119748D01*
X120535Y34173D02*
Y32599D01*
X121716D01*
X122109Y32992D01*
Y34173D01*
X124471Y31812D02*
Y34173D01*
X123290D01*
X122896Y33780D01*
Y32992D01*
X123290Y32599D01*
X124471D01*
X127619Y31812D02*
Y34173D01*
Y33386D01*
X129193Y31812D01*
X128013Y32992D01*
X129193Y34173D01*
X129981D02*
X130768D01*
X130374D01*
Y31812D01*
X129981Y32205D01*
X70157Y43955D02*
X71732D01*
X70945D01*
Y46317D01*
X72913D02*
X73700D01*
X74093Y45923D01*
Y45136D01*
X73700Y44743D01*
X72913D01*
X72519Y45136D01*
Y45923D01*
X72913Y46317D01*
X77242Y47104D02*
Y44743D01*
X78423D01*
X78816Y45136D01*
Y45923D01*
X78423Y46317D01*
X77242D01*
X79997D02*
X80784D01*
X81178Y45923D01*
Y45136D01*
X80784Y44743D01*
X79997D01*
X79603Y45136D01*
Y45923D01*
X79997Y46317D01*
X81965Y44743D02*
Y45923D01*
X82358Y46317D01*
X82752Y45923D01*
X83145Y46317D01*
X83539Y45923D01*
Y44743D01*
X85507Y46317D02*
X84720D01*
X84326Y45923D01*
Y45136D01*
X84720Y44743D01*
X85507D01*
X85900Y45136D01*
Y45530D01*
X84326D01*
X86688Y44743D02*
Y46317D01*
Y45530D01*
X87081Y45136D01*
X87475Y44743D01*
X87868D01*
X91804D02*
X92591D01*
X92985Y45136D01*
Y46317D01*
X91804D01*
X91410Y45923D01*
X91804Y45530D01*
X92985D01*
X97708Y43955D02*
X96133D01*
Y45136D01*
X96921Y44743D01*
X97314D01*
X97708Y45136D01*
Y45923D01*
X97314Y46317D01*
X96527D01*
X96133Y45923D01*
X98495Y43955D02*
Y45530D01*
X99282Y46317D01*
X100069Y45530D01*
Y43955D01*
X104792Y44349D02*
X104398Y43955D01*
X103611D01*
X103218Y44349D01*
Y44743D01*
X103611Y45136D01*
X104398D01*
X104792Y45530D01*
Y45923D01*
X104398Y46317D01*
X103611D01*
X103218Y45923D01*
X107153Y44349D02*
X106760Y43955D01*
X105973D01*
X105579Y44349D01*
Y44743D01*
X105973Y45136D01*
X106760D01*
X107153Y45530D01*
Y45923D01*
X106760Y46317D01*
X105973D01*
X105579Y45923D01*
X107941Y46317D02*
Y43955D01*
X109121D01*
X109515Y44349D01*
Y45136D01*
X109121Y45530D01*
X107941D01*
X108728D02*
X109515Y46317D01*
X114238Y44349D02*
X113844Y43955D01*
X113057D01*
X112663Y44349D01*
Y44743D01*
X113057Y45136D01*
X113844D01*
X114238Y45530D01*
Y45923D01*
X113844Y46317D01*
X113057D01*
X112663Y45923D01*
X115025Y43955D02*
Y46317D01*
Y45136D01*
X115419Y44743D01*
X116206D01*
X116599Y45136D01*
Y46317D01*
X117780D02*
X118567D01*
X118961Y45923D01*
Y45136D01*
X118567Y44743D01*
X117780D01*
X117386Y45136D01*
Y45923D01*
X117780Y46317D01*
X119748Y44743D02*
Y46317D01*
Y45530D01*
X120141Y45136D01*
X120535Y44743D01*
X120929D01*
X122503Y44349D02*
Y44743D01*
X122109D01*
X122896D01*
X122503D01*
Y45923D01*
X122896Y46317D01*
X126438Y43955D02*
Y46317D01*
X127619D01*
X128013Y45923D01*
Y45530D01*
X127619Y45136D01*
X126438D01*
X127619D01*
X128013Y44743D01*
Y44349D01*
X127619Y43955D01*
X126438D01*
X128800Y46317D02*
X129587D01*
X129193D01*
Y43955D01*
X128800Y44349D01*
X70157Y51072D02*
Y48710D01*
X71338D01*
X71732Y49104D01*
Y49891D01*
X71338Y50284D01*
X70157D01*
X72519Y51072D02*
X73306D01*
X72913D01*
Y49497D01*
X72519D01*
X74487Y51072D02*
Y49497D01*
X75668D01*
X76061Y49891D01*
Y51072D01*
X80784D02*
X79210D01*
X80784Y49497D01*
Y49104D01*
X80390Y48710D01*
X79603D01*
X79210Y49104D01*
X81571Y49497D02*
X81965D01*
Y49891D01*
X81571D01*
Y49497D01*
Y50678D02*
X81965D01*
Y51072D01*
X81571D01*
Y50678D01*
X87475Y49104D02*
X87081Y48710D01*
X86294D01*
X85900Y49104D01*
Y49497D01*
X86294Y49891D01*
X87081D01*
X87475Y50284D01*
Y50678D01*
X87081Y51072D01*
X86294D01*
X85900Y50678D01*
X89836Y49104D02*
X89443Y48710D01*
X88655D01*
X88262Y49104D01*
Y49497D01*
X88655Y49891D01*
X89443D01*
X89836Y50284D01*
Y50678D01*
X89443Y51072D01*
X88655D01*
X88262Y50678D01*
X90623Y51072D02*
Y48710D01*
X91804D01*
X92198Y49104D01*
Y49891D01*
X91804Y50284D01*
X90623D01*
X91410D02*
X92198Y51072D01*
X95346Y49891D02*
X96921D01*
X96133Y49104D02*
Y50678D01*
X71732Y53071D02*
X71338Y52678D01*
X70551D01*
X70157Y53071D01*
Y54646D01*
X70551Y55039D01*
X71338D01*
X71732Y54646D01*
Y53859D01*
X70945D01*
X72519Y55039D02*
Y52678D01*
X74093Y55039D01*
Y52678D01*
X74880D02*
Y55039D01*
X76061D01*
X76455Y54646D01*
Y53071D01*
X76061Y52678D01*
X74880D01*
X77242Y53465D02*
X77635D01*
Y53859D01*
X77242D01*
Y53465D01*
Y54646D02*
X77635D01*
Y55039D01*
X77242D01*
Y54646D01*
X87868Y53071D02*
X87475Y52678D01*
X86688D01*
X86294Y53071D01*
Y53465D01*
X86688Y53859D01*
X87475D01*
X87868Y54252D01*
Y54646D01*
X87475Y55039D01*
X86688D01*
X86294Y54646D01*
X90230Y53071D02*
X89836Y52678D01*
X89049D01*
X88656Y53071D01*
Y53465D01*
X89049Y53859D01*
X89836D01*
X90230Y54252D01*
Y54646D01*
X89836Y55039D01*
X89049D01*
X88656Y54646D01*
X91017Y55039D02*
Y52678D01*
X92198D01*
X92591Y53071D01*
Y53859D01*
X92198Y54252D01*
X91017D01*
X91804D02*
X92591Y55039D01*
X95740Y53859D02*
X97314D01*
X61024Y19685D02*
Y22047D01*
X62205D01*
X62599Y21653D01*
Y21260D01*
X62205Y20866D01*
X61024D01*
X62205D01*
X62599Y20473D01*
Y20079D01*
X62205Y19685D01*
X61024D01*
X64960Y22047D02*
X63386D01*
X64960Y20473D01*
Y20079D01*
X64566Y19685D01*
X63779D01*
X63386Y20079D01*
X61024Y29134D02*
Y31496D01*
X62205D01*
X62599Y31102D01*
Y30709D01*
X62205Y30315D01*
X61024D01*
X62205D01*
X62599Y29921D01*
Y29528D01*
X62205Y29134D01*
X61024D01*
X63386Y29528D02*
X63779Y29134D01*
X64566D01*
X64960Y29528D01*
Y29921D01*
X64566Y30315D01*
X64173D01*
X64566D01*
X64960Y30709D01*
Y31102D01*
X64566Y31496D01*
X63779D01*
X63386Y31102D01*
X41536Y51182D02*
Y53543D01*
X42717D01*
X43110Y53149D01*
Y52756D01*
X42717Y52362D01*
X41536D01*
X42717D01*
X43110Y51969D01*
Y51575D01*
X42717Y51182D01*
X41536D01*
X43897Y53543D02*
X44684D01*
X44291D01*
Y51182D01*
X43897Y51575D01*
D54*
X24094Y3663D02*
Y7599D01*
X24882Y8386D01*
X26456D01*
X27243Y7599D01*
Y3663D01*
X31966Y4450D02*
X31179Y3663D01*
X29605D01*
X28817Y4450D01*
Y5237D01*
X29605Y6024D01*
X31179D01*
X31966Y6812D01*
Y7599D01*
X31179Y8386D01*
X29605D01*
X28817Y7599D01*
X33540Y3663D02*
Y8386D01*
X35902D01*
X36689Y7599D01*
Y6812D01*
X35902Y6024D01*
X33540D01*
X35902D01*
X36689Y5237D01*
Y4450D01*
X35902Y3663D01*
X33540D01*
X38263Y6024D02*
X41412D01*
X46135Y4450D02*
X45347Y3663D01*
X43773D01*
X42986Y4450D01*
Y5237D01*
X43773Y6024D01*
X45347D01*
X46135Y6812D01*
Y7599D01*
X45347Y8386D01*
X43773D01*
X42986Y7599D01*
X47709Y3663D02*
Y8386D01*
X49283Y6812D01*
X50858Y8386D01*
Y3663D01*
X52432Y6024D02*
X55580D01*
X57155Y8386D02*
Y5237D01*
X58729Y3663D01*
X60303Y5237D01*
Y8386D01*
Y6024D01*
X57155D01*
M02*
