G04*
G04 #@! TF.GenerationSoftware,Altium Limited,Altium Designer,24.1.2 (44)*
G04*
G04 Layer_Color=20142*
%FSLAX25Y25*%
%MOIN*%
G70*
G04*
G04 #@! TF.SameCoordinates,EE77DEAB-9AB2-494E-AFD2-A50B0434E7B8*
G04*
G04*
G04 #@! TF.FilePolarity,Negative*
G04*
G01*
G75*
%ADD23R,0.13782X0.03071*%
%ADD24R,0.03071X0.13782*%
%ADD25R,0.13898X0.13898*%
G04:AMPARAMS|DCode=26|XSize=14.96mil|YSize=30.71mil|CornerRadius=4.53mil|HoleSize=0mil|Usage=FLASHONLY|Rotation=270.000|XOffset=0mil|YOffset=0mil|HoleType=Round|Shape=RoundedRectangle|*
%AMROUNDEDRECTD26*
21,1,0.01496,0.02165,0,0,270.0*
21,1,0.00591,0.03071,0,0,270.0*
1,1,0.00906,-0.01083,-0.00295*
1,1,0.00906,-0.01083,0.00295*
1,1,0.00906,0.01083,0.00295*
1,1,0.00906,0.01083,-0.00295*
%
%ADD26ROUNDEDRECTD26*%
G04:AMPARAMS|DCode=27|XSize=14.96mil|YSize=30.71mil|CornerRadius=4.53mil|HoleSize=0mil|Usage=FLASHONLY|Rotation=180.000|XOffset=0mil|YOffset=0mil|HoleType=Round|Shape=RoundedRectangle|*
%AMROUNDEDRECTD27*
21,1,0.01496,0.02165,0,0,180.0*
21,1,0.00591,0.03071,0,0,180.0*
1,1,0.00906,-0.00295,0.01083*
1,1,0.00906,0.00295,0.01083*
1,1,0.00906,0.00295,-0.01083*
1,1,0.00906,-0.00295,-0.01083*
%
%ADD27ROUNDEDRECTD27*%
G04:AMPARAMS|DCode=28|XSize=38.58mil|YSize=34.65mil|CornerRadius=9.45mil|HoleSize=0mil|Usage=FLASHONLY|Rotation=90.000|XOffset=0mil|YOffset=0mil|HoleType=Round|Shape=RoundedRectangle|*
%AMROUNDEDRECTD28*
21,1,0.03858,0.01575,0,0,90.0*
21,1,0.01968,0.03465,0,0,90.0*
1,1,0.01890,0.00787,0.00984*
1,1,0.01890,0.00787,-0.00984*
1,1,0.01890,-0.00787,-0.00984*
1,1,0.01890,-0.00787,0.00984*
%
%ADD28ROUNDEDRECTD28*%
G04:AMPARAMS|DCode=29|XSize=42.52mil|YSize=34.65mil|CornerRadius=9.45mil|HoleSize=0mil|Usage=FLASHONLY|Rotation=90.000|XOffset=0mil|YOffset=0mil|HoleType=Round|Shape=RoundedRectangle|*
%AMROUNDEDRECTD29*
21,1,0.04252,0.01575,0,0,90.0*
21,1,0.02362,0.03465,0,0,90.0*
1,1,0.01890,0.00787,0.01181*
1,1,0.01890,0.00787,-0.01181*
1,1,0.01890,-0.00787,-0.01181*
1,1,0.01890,-0.00787,0.01181*
%
%ADD29ROUNDEDRECTD29*%
G04:AMPARAMS|DCode=30|XSize=34.65mil|YSize=38.58mil|CornerRadius=9.45mil|HoleSize=0mil|Usage=FLASHONLY|Rotation=0.000|XOffset=0mil|YOffset=0mil|HoleType=Round|Shape=RoundedRectangle|*
%AMROUNDEDRECTD30*
21,1,0.03465,0.01968,0,0,0.0*
21,1,0.01575,0.03858,0,0,0.0*
1,1,0.01890,0.00787,-0.00984*
1,1,0.01890,-0.00787,-0.00984*
1,1,0.01890,-0.00787,0.00984*
1,1,0.01890,0.00787,0.00984*
%
%ADD30ROUNDEDRECTD30*%
G04:AMPARAMS|DCode=31|XSize=20.87mil|YSize=26.77mil|CornerRadius=6mil|HoleSize=0mil|Usage=FLASHONLY|Rotation=270.000|XOffset=0mil|YOffset=0mil|HoleType=Round|Shape=RoundedRectangle|*
%AMROUNDEDRECTD31*
21,1,0.02087,0.01476,0,0,270.0*
21,1,0.00886,0.02677,0,0,270.0*
1,1,0.01201,-0.00738,-0.00443*
1,1,0.01201,-0.00738,0.00443*
1,1,0.01201,0.00738,0.00443*
1,1,0.01201,0.00738,-0.00443*
%
%ADD31ROUNDEDRECTD31*%
G04:AMPARAMS|DCode=32|XSize=74.02mil|YSize=66.14mil|CornerRadius=17.32mil|HoleSize=0mil|Usage=FLASHONLY|Rotation=270.000|XOffset=0mil|YOffset=0mil|HoleType=Round|Shape=RoundedRectangle|*
%AMROUNDEDRECTD32*
21,1,0.07402,0.03150,0,0,270.0*
21,1,0.03937,0.06614,0,0,270.0*
1,1,0.03465,-0.01575,-0.01968*
1,1,0.03465,-0.01575,0.01968*
1,1,0.03465,0.01575,0.01968*
1,1,0.03465,0.01575,-0.01968*
%
%ADD32ROUNDEDRECTD32*%
G04:AMPARAMS|DCode=33|XSize=34.65mil|YSize=38.58mil|CornerRadius=9.45mil|HoleSize=0mil|Usage=FLASHONLY|Rotation=90.000|XOffset=0mil|YOffset=0mil|HoleType=Round|Shape=RoundedRectangle|*
%AMROUNDEDRECTD33*
21,1,0.03465,0.01968,0,0,90.0*
21,1,0.01575,0.03858,0,0,90.0*
1,1,0.01890,0.00984,0.00787*
1,1,0.01890,0.00984,-0.00787*
1,1,0.01890,-0.00984,-0.00787*
1,1,0.01890,-0.00984,0.00787*
%
%ADD33ROUNDEDRECTD33*%
G04:AMPARAMS|DCode=34|XSize=26.77mil|YSize=42.52mil|CornerRadius=7.48mil|HoleSize=0mil|Usage=FLASHONLY|Rotation=0.000|XOffset=0mil|YOffset=0mil|HoleType=Round|Shape=RoundedRectangle|*
%AMROUNDEDRECTD34*
21,1,0.02677,0.02756,0,0,0.0*
21,1,0.01181,0.04252,0,0,0.0*
1,1,0.01496,0.00591,-0.01378*
1,1,0.01496,-0.00591,-0.01378*
1,1,0.01496,-0.00591,0.01378*
1,1,0.01496,0.00591,0.01378*
%
%ADD34ROUNDEDRECTD34*%
%ADD35O,0.08976X0.06614*%
G04:AMPARAMS|DCode=36|XSize=66.14mil|YSize=89.76mil|CornerRadius=17.32mil|HoleSize=0mil|Usage=FLASHONLY|Rotation=270.000|XOffset=0mil|YOffset=0mil|HoleType=Round|Shape=RoundedRectangle|*
%AMROUNDEDRECTD36*
21,1,0.06614,0.05512,0,0,270.0*
21,1,0.03150,0.08976,0,0,270.0*
1,1,0.03465,-0.02756,-0.01575*
1,1,0.03465,-0.02756,0.01575*
1,1,0.03465,0.02756,0.01575*
1,1,0.03465,0.02756,-0.01575*
%
%ADD36ROUNDEDRECTD36*%
%ADD37C,0.06614*%
G04:AMPARAMS|DCode=38|XSize=66.14mil|YSize=66.14mil|CornerRadius=17.32mil|HoleSize=0mil|Usage=FLASHONLY|Rotation=0.000|XOffset=0mil|YOffset=0mil|HoleType=Round|Shape=RoundedRectangle|*
%AMROUNDEDRECTD38*
21,1,0.06614,0.03150,0,0,0.0*
21,1,0.03150,0.06614,0,0,0.0*
1,1,0.03465,0.01575,-0.01575*
1,1,0.03465,-0.01575,-0.01575*
1,1,0.03465,-0.01575,0.01575*
1,1,0.03465,0.01575,0.01575*
%
%ADD38ROUNDEDRECTD38*%
G04:AMPARAMS|DCode=39|XSize=50.39mil|YSize=58.27mil|CornerRadius=13.39mil|HoleSize=0mil|Usage=FLASHONLY|Rotation=0.000|XOffset=0mil|YOffset=0mil|HoleType=Round|Shape=RoundedRectangle|*
%AMROUNDEDRECTD39*
21,1,0.05039,0.03150,0,0,0.0*
21,1,0.02362,0.05827,0,0,0.0*
1,1,0.02677,0.01181,-0.01575*
1,1,0.02677,-0.01181,-0.01575*
1,1,0.02677,-0.01181,0.01575*
1,1,0.02677,0.01181,0.01575*
%
%ADD39ROUNDEDRECTD39*%
%ADD40C,0.05118*%
G04:AMPARAMS|DCode=41|XSize=74.02mil|YSize=129.13mil|CornerRadius=19.29mil|HoleSize=0mil|Usage=FLASHONLY|Rotation=270.000|XOffset=0mil|YOffset=0mil|HoleType=Round|Shape=RoundedRectangle|*
%AMROUNDEDRECTD41*
21,1,0.07402,0.09055,0,0,270.0*
21,1,0.03543,0.12913,0,0,270.0*
1,1,0.03858,-0.04528,-0.01772*
1,1,0.03858,-0.04528,0.01772*
1,1,0.03858,0.04528,0.01772*
1,1,0.03858,0.04528,-0.01772*
%
%ADD41ROUNDEDRECTD41*%
%ADD42O,0.08189X0.05827*%
G04:AMPARAMS|DCode=43|XSize=58.27mil|YSize=81.89mil|CornerRadius=15.35mil|HoleSize=0mil|Usage=FLASHONLY|Rotation=90.000|XOffset=0mil|YOffset=0mil|HoleType=Round|Shape=RoundedRectangle|*
%AMROUNDEDRECTD43*
21,1,0.05827,0.05118,0,0,90.0*
21,1,0.02756,0.08189,0,0,90.0*
1,1,0.03071,0.02559,0.01378*
1,1,0.03071,0.02559,-0.01378*
1,1,0.03071,-0.02559,-0.01378*
1,1,0.03071,-0.02559,0.01378*
%
%ADD43ROUNDEDRECTD43*%
D23*
X96456Y39372D02*
D03*
X96457Y20471D02*
D03*
D24*
X105907Y29921D02*
D03*
X87006Y29921D02*
D03*
D25*
X96457Y29921D02*
D03*
D26*
X87008Y30906D02*
D03*
Y28937D02*
D03*
Y26968D02*
D03*
Y24999D02*
D03*
Y23030D02*
D03*
Y32875D02*
D03*
Y34844D02*
D03*
Y36812D02*
D03*
X105905Y34844D02*
D03*
Y23030D02*
D03*
Y24999D02*
D03*
Y26968D02*
D03*
Y28937D02*
D03*
Y30906D02*
D03*
Y32875D02*
D03*
Y36813D02*
D03*
D27*
X91534Y20472D02*
D03*
X93503D02*
D03*
X89565D02*
D03*
X95472D02*
D03*
X97441D02*
D03*
X99410D02*
D03*
X103348D02*
D03*
X101379D02*
D03*
X89565Y39370D02*
D03*
X91534D02*
D03*
X93503D02*
D03*
X103348D02*
D03*
X95472D02*
D03*
X97441D02*
D03*
X99410D02*
D03*
X101379D02*
D03*
D28*
X123228Y12205D02*
D03*
X116929D02*
D03*
X111024D02*
D03*
X104724D02*
D03*
X98819D02*
D03*
X92520D02*
D03*
X98819Y6693D02*
D03*
X92520D02*
D03*
X81890Y50000D02*
D03*
X75590D02*
D03*
X81890Y20079D02*
D03*
X75590D02*
D03*
X111024Y6693D02*
D03*
X104724D02*
D03*
X123228D02*
D03*
X116929D02*
D03*
D29*
X116929Y51968D02*
D03*
X110630D02*
D03*
X81890Y28346D02*
D03*
X75590D02*
D03*
X81890Y43701D02*
D03*
X75590D02*
D03*
X81890Y37008D02*
D03*
X75590D02*
D03*
X118504Y21260D02*
D03*
X112205D02*
D03*
X118504Y27559D02*
D03*
X112205D02*
D03*
X128740Y51968D02*
D03*
X122441D02*
D03*
D30*
X82874Y13780D02*
D03*
X79134Y5118D02*
D03*
X75394Y13780D02*
D03*
D31*
X68307Y50000D02*
D03*
X60039D02*
D03*
X68307Y9449D02*
D03*
X60039D02*
D03*
D32*
X64173Y40157D02*
D03*
Y18898D02*
D03*
D33*
X101969Y48819D02*
D03*
X93307Y52559D02*
D03*
Y45079D02*
D03*
D34*
X121457Y44685D02*
D03*
X117717D02*
D03*
Y34055D02*
D03*
X121457D02*
D03*
X113976Y44685D02*
D03*
Y34055D02*
D03*
D35*
X12992Y34528D02*
D03*
Y24528D02*
D03*
Y14528D02*
D03*
D36*
Y44528D02*
D03*
D37*
X41732Y34528D02*
D03*
Y24528D02*
D03*
Y14528D02*
D03*
D38*
Y44528D02*
D03*
D39*
X50945Y44528D02*
D03*
X30945Y34528D02*
D03*
Y14528D02*
D03*
X50945D02*
D03*
Y44528D02*
D03*
Y14528D02*
D03*
D40*
X139764Y38386D02*
D03*
Y20669D02*
D03*
D41*
Y51968D02*
D03*
Y7087D02*
D03*
D42*
X131496Y25591D02*
D03*
Y33465D02*
D03*
Y15748D02*
D03*
D43*
Y43307D02*
D03*
M02*
