G04*
G04 #@! TF.GenerationSoftware,Altium Limited,Altium Designer,24.1.2 (44)*
G04*
G04 Layer_Color=20142*
%FSLAX25Y25*%
%MOIN*%
G70*
G04*
G04 #@! TF.SameCoordinates,91A06C09-3FF3-49E1-B81E-27C0F3F2092E*
G04*
G04*
G04 #@! TF.FilePolarity,Negative*
G04*
G01*
G75*
%ADD36R,0.24803X0.05118*%
%ADD37C,0.07874*%
G04:AMPARAMS|DCode=38|XSize=38.58mil|YSize=34.65mil|CornerRadius=9.45mil|HoleSize=0mil|Usage=FLASHONLY|Rotation=270.000|XOffset=0mil|YOffset=0mil|HoleType=Round|Shape=RoundedRectangle|*
%AMROUNDEDRECTD38*
21,1,0.03858,0.01575,0,0,270.0*
21,1,0.01968,0.03465,0,0,270.0*
1,1,0.01890,-0.00787,-0.00984*
1,1,0.01890,-0.00787,0.00984*
1,1,0.01890,0.00787,0.00984*
1,1,0.01890,0.00787,-0.00984*
%
%ADD38ROUNDEDRECTD38*%
G04:AMPARAMS|DCode=39|XSize=38.58mil|YSize=34.65mil|CornerRadius=9.45mil|HoleSize=0mil|Usage=FLASHONLY|Rotation=0.000|XOffset=0mil|YOffset=0mil|HoleType=Round|Shape=RoundedRectangle|*
%AMROUNDEDRECTD39*
21,1,0.03858,0.01575,0,0,0.0*
21,1,0.01968,0.03465,0,0,0.0*
1,1,0.01890,0.00984,-0.00787*
1,1,0.01890,-0.00984,-0.00787*
1,1,0.01890,-0.00984,0.00787*
1,1,0.01890,0.00984,0.00787*
%
%ADD39ROUNDEDRECTD39*%
G04:AMPARAMS|DCode=40|XSize=34.65mil|YSize=38.58mil|CornerRadius=9.45mil|HoleSize=0mil|Usage=FLASHONLY|Rotation=0.000|XOffset=0mil|YOffset=0mil|HoleType=Round|Shape=RoundedRectangle|*
%AMROUNDEDRECTD40*
21,1,0.03465,0.01968,0,0,0.0*
21,1,0.01575,0.03858,0,0,0.0*
1,1,0.01890,0.00787,-0.00984*
1,1,0.01890,-0.00787,-0.00984*
1,1,0.01890,-0.00787,0.00984*
1,1,0.01890,0.00787,0.00984*
%
%ADD40ROUNDEDRECTD40*%
G04:AMPARAMS|DCode=41|XSize=42.52mil|YSize=34.65mil|CornerRadius=9.45mil|HoleSize=0mil|Usage=FLASHONLY|Rotation=90.000|XOffset=0mil|YOffset=0mil|HoleType=Round|Shape=RoundedRectangle|*
%AMROUNDEDRECTD41*
21,1,0.04252,0.01575,0,0,90.0*
21,1,0.02362,0.03465,0,0,90.0*
1,1,0.01890,0.00787,0.01181*
1,1,0.01890,0.00787,-0.01181*
1,1,0.01890,-0.00787,-0.01181*
1,1,0.01890,-0.00787,0.01181*
%
%ADD41ROUNDEDRECTD41*%
G04:AMPARAMS|DCode=42|XSize=18.9mil|YSize=62.21mil|CornerRadius=5.51mil|HoleSize=0mil|Usage=FLASHONLY|Rotation=180.000|XOffset=0mil|YOffset=0mil|HoleType=Round|Shape=RoundedRectangle|*
%AMROUNDEDRECTD42*
21,1,0.01890,0.05118,0,0,180.0*
21,1,0.00787,0.06221,0,0,180.0*
1,1,0.01102,-0.00394,0.02559*
1,1,0.01102,0.00394,0.02559*
1,1,0.01102,0.00394,-0.02559*
1,1,0.01102,-0.00394,-0.02559*
%
%ADD42ROUNDEDRECTD42*%
G04:AMPARAMS|DCode=43|XSize=42.52mil|YSize=34.65mil|CornerRadius=9.45mil|HoleSize=0mil|Usage=FLASHONLY|Rotation=0.000|XOffset=0mil|YOffset=0mil|HoleType=Round|Shape=RoundedRectangle|*
%AMROUNDEDRECTD43*
21,1,0.04252,0.01575,0,0,0.0*
21,1,0.02362,0.03465,0,0,0.0*
1,1,0.01890,0.01181,-0.00787*
1,1,0.01890,-0.01181,-0.00787*
1,1,0.01890,-0.01181,0.00787*
1,1,0.01890,0.01181,0.00787*
%
%ADD43ROUNDEDRECTD43*%
G04:AMPARAMS|DCode=44|XSize=26.77mil|YSize=42.52mil|CornerRadius=7.48mil|HoleSize=0mil|Usage=FLASHONLY|Rotation=90.000|XOffset=0mil|YOffset=0mil|HoleType=Round|Shape=RoundedRectangle|*
%AMROUNDEDRECTD44*
21,1,0.02677,0.02756,0,0,90.0*
21,1,0.01181,0.04252,0,0,90.0*
1,1,0.01496,0.01378,0.00591*
1,1,0.01496,0.01378,-0.00591*
1,1,0.01496,-0.01378,-0.00591*
1,1,0.01496,-0.01378,0.00591*
%
%ADD44ROUNDEDRECTD44*%
G04:AMPARAMS|DCode=45|XSize=34.65mil|YSize=38.58mil|CornerRadius=9.45mil|HoleSize=0mil|Usage=FLASHONLY|Rotation=90.000|XOffset=0mil|YOffset=0mil|HoleType=Round|Shape=RoundedRectangle|*
%AMROUNDEDRECTD45*
21,1,0.03465,0.01968,0,0,90.0*
21,1,0.01575,0.03858,0,0,90.0*
1,1,0.01890,0.00984,0.00787*
1,1,0.01890,0.00984,-0.00787*
1,1,0.01890,-0.00984,-0.00787*
1,1,0.01890,-0.00984,0.00787*
%
%ADD45ROUNDEDRECTD45*%
G04:AMPARAMS|DCode=46|XSize=34.65mil|YSize=30.71mil|CornerRadius=8.47mil|HoleSize=0mil|Usage=FLASHONLY|Rotation=90.000|XOffset=0mil|YOffset=0mil|HoleType=Round|Shape=RoundedRectangle|*
%AMROUNDEDRECTD46*
21,1,0.03465,0.01378,0,0,90.0*
21,1,0.01772,0.03071,0,0,90.0*
1,1,0.01693,0.00689,0.00886*
1,1,0.01693,0.00689,-0.00886*
1,1,0.01693,-0.00689,-0.00886*
1,1,0.01693,-0.00689,0.00886*
%
%ADD46ROUNDEDRECTD46*%
G04:AMPARAMS|DCode=47|XSize=113.39mil|YSize=88.19mil|CornerRadius=22.84mil|HoleSize=0mil|Usage=FLASHONLY|Rotation=270.000|XOffset=0mil|YOffset=0mil|HoleType=Round|Shape=RoundedRectangle|*
%AMROUNDEDRECTD47*
21,1,0.11339,0.04252,0,0,270.0*
21,1,0.06772,0.08819,0,0,270.0*
1,1,0.04567,-0.02126,-0.03386*
1,1,0.04567,-0.02126,0.03386*
1,1,0.04567,0.02126,0.03386*
1,1,0.04567,0.02126,-0.03386*
%
%ADD47ROUNDEDRECTD47*%
%ADD48C,0.08661*%
G04:AMPARAMS|DCode=49|XSize=74.02mil|YSize=129.13mil|CornerRadius=19.29mil|HoleSize=0mil|Usage=FLASHONLY|Rotation=270.000|XOffset=0mil|YOffset=0mil|HoleType=Round|Shape=RoundedRectangle|*
%AMROUNDEDRECTD49*
21,1,0.07402,0.09055,0,0,270.0*
21,1,0.03543,0.12913,0,0,270.0*
1,1,0.03858,-0.04528,-0.01772*
1,1,0.03858,-0.04528,0.01772*
1,1,0.03858,0.04528,0.01772*
1,1,0.03858,0.04528,-0.01772*
%
%ADD49ROUNDEDRECTD49*%
%ADD50O,0.08189X0.05827*%
G04:AMPARAMS|DCode=51|XSize=58.27mil|YSize=81.89mil|CornerRadius=15.35mil|HoleSize=0mil|Usage=FLASHONLY|Rotation=90.000|XOffset=0mil|YOffset=0mil|HoleType=Round|Shape=RoundedRectangle|*
%AMROUNDEDRECTD51*
21,1,0.05827,0.05118,0,0,90.0*
21,1,0.02756,0.08189,0,0,90.0*
1,1,0.03071,0.02559,0.01378*
1,1,0.03071,0.02559,-0.01378*
1,1,0.03071,-0.02559,-0.01378*
1,1,0.03071,-0.02559,0.01378*
%
%ADD51ROUNDEDRECTD51*%
%ADD52C,0.05118*%
%ADD53O,0.08189X0.06614*%
G04:AMPARAMS|DCode=54|XSize=66.14mil|YSize=81.89mil|CornerRadius=17.32mil|HoleSize=0mil|Usage=FLASHONLY|Rotation=270.000|XOffset=0mil|YOffset=0mil|HoleType=Round|Shape=RoundedRectangle|*
%AMROUNDEDRECTD54*
21,1,0.06614,0.04724,0,0,270.0*
21,1,0.03150,0.08189,0,0,270.0*
1,1,0.03465,-0.02362,-0.01575*
1,1,0.03465,-0.02362,0.01575*
1,1,0.03465,0.02362,0.01575*
1,1,0.03465,0.02362,-0.01575*
%
%ADD54ROUNDEDRECTD54*%
G04:AMPARAMS|DCode=55|XSize=50.39mil|YSize=58.27mil|CornerRadius=13.39mil|HoleSize=0mil|Usage=FLASHONLY|Rotation=0.000|XOffset=0mil|YOffset=0mil|HoleType=Round|Shape=RoundedRectangle|*
%AMROUNDEDRECTD55*
21,1,0.05039,0.03150,0,0,0.0*
21,1,0.02362,0.05827,0,0,0.0*
1,1,0.02677,0.01181,-0.01575*
1,1,0.02677,-0.01181,-0.01575*
1,1,0.02677,-0.01181,0.01575*
1,1,0.02677,0.01181,0.01575*
%
%ADD55ROUNDEDRECTD55*%
D36*
X96850Y63779D02*
D03*
Y40945D02*
D03*
X262205Y63779D02*
D03*
Y40945D02*
D03*
X96850Y122835D02*
D03*
Y100000D02*
D03*
X262205Y122835D02*
D03*
Y100000D02*
D03*
X96850Y181890D02*
D03*
Y159055D02*
D03*
X262205Y181890D02*
D03*
Y159055D02*
D03*
X96850Y240945D02*
D03*
Y218110D02*
D03*
X262205Y240945D02*
D03*
Y218110D02*
D03*
X96850Y300000D02*
D03*
Y277166D02*
D03*
X262205Y300000D02*
D03*
Y277166D02*
D03*
D37*
X39370Y319488D02*
D03*
X283465D02*
D03*
Y15157D02*
D03*
X39370D02*
D03*
X149213Y49213D02*
D03*
X12205Y72441D02*
D03*
X314567Y49213D02*
D03*
X177559Y72441D02*
D03*
X149213Y108268D02*
D03*
X12205Y131496D02*
D03*
X314567Y108268D02*
D03*
X177559Y131496D02*
D03*
X149213Y167323D02*
D03*
X12205Y190551D02*
D03*
X314567Y167323D02*
D03*
X177559Y190551D02*
D03*
X149213Y226378D02*
D03*
X12205Y249606D02*
D03*
X314567Y226378D02*
D03*
X177559Y249606D02*
D03*
X149213Y285433D02*
D03*
X12205Y308662D02*
D03*
X314567Y285433D02*
D03*
X177559Y308662D02*
D03*
D38*
X113386Y70473D02*
D03*
X107087D02*
D03*
X278740D02*
D03*
X272441D02*
D03*
X113386Y129528D02*
D03*
X107087D02*
D03*
X278740D02*
D03*
X272441D02*
D03*
X113386Y188583D02*
D03*
X107087D02*
D03*
X278740D02*
D03*
X272441D02*
D03*
X113386Y247638D02*
D03*
X107087D02*
D03*
X278740D02*
D03*
X272441D02*
D03*
X113386Y306693D02*
D03*
X107087D02*
D03*
X278740D02*
D03*
X272441D02*
D03*
D39*
X60236Y52756D02*
D03*
Y46457D02*
D03*
X101575Y26772D02*
D03*
Y33071D02*
D03*
X112599D02*
D03*
Y26772D02*
D03*
X107087D02*
D03*
Y33071D02*
D03*
X118110Y26772D02*
D03*
Y33071D02*
D03*
X129134D02*
D03*
Y26772D02*
D03*
X123622Y33071D02*
D03*
Y26772D02*
D03*
X81890D02*
D03*
Y33071D02*
D03*
X225591Y52756D02*
D03*
Y46457D02*
D03*
X266929Y26772D02*
D03*
Y33071D02*
D03*
X277953D02*
D03*
Y26772D02*
D03*
X272441D02*
D03*
Y33071D02*
D03*
X283465Y26772D02*
D03*
Y33071D02*
D03*
X294488D02*
D03*
Y26772D02*
D03*
X288976Y33071D02*
D03*
Y26772D02*
D03*
X247244D02*
D03*
Y33071D02*
D03*
X60236Y111811D02*
D03*
Y105512D02*
D03*
X101575Y85827D02*
D03*
Y92126D02*
D03*
X112599D02*
D03*
Y85827D02*
D03*
X107087D02*
D03*
Y92126D02*
D03*
X118110Y85827D02*
D03*
Y92126D02*
D03*
X129134D02*
D03*
Y85827D02*
D03*
X123622Y92126D02*
D03*
Y85827D02*
D03*
X81890D02*
D03*
Y92126D02*
D03*
X225591Y111811D02*
D03*
Y105512D02*
D03*
X266929Y85827D02*
D03*
Y92126D02*
D03*
X277953D02*
D03*
Y85827D02*
D03*
X272441D02*
D03*
Y92126D02*
D03*
X283465Y85827D02*
D03*
Y92126D02*
D03*
X294488D02*
D03*
Y85827D02*
D03*
X288976Y92126D02*
D03*
Y85827D02*
D03*
X247244D02*
D03*
Y92126D02*
D03*
X60236Y170866D02*
D03*
Y164567D02*
D03*
X101575Y144882D02*
D03*
Y151181D02*
D03*
X112599D02*
D03*
Y144882D02*
D03*
X107087D02*
D03*
Y151181D02*
D03*
X118110Y144882D02*
D03*
Y151181D02*
D03*
X129134D02*
D03*
Y144882D02*
D03*
X123622Y151181D02*
D03*
Y144882D02*
D03*
X81890D02*
D03*
Y151181D02*
D03*
X225591Y170866D02*
D03*
Y164567D02*
D03*
X266929Y144882D02*
D03*
Y151181D02*
D03*
X277953D02*
D03*
Y144882D02*
D03*
X272441D02*
D03*
Y151181D02*
D03*
X283465Y144882D02*
D03*
Y151181D02*
D03*
X294488D02*
D03*
Y144882D02*
D03*
X288976Y151181D02*
D03*
Y144882D02*
D03*
X247244D02*
D03*
Y151181D02*
D03*
X60236Y229921D02*
D03*
Y223622D02*
D03*
X101575Y203937D02*
D03*
Y210236D02*
D03*
X112599D02*
D03*
Y203937D02*
D03*
X107087D02*
D03*
Y210236D02*
D03*
X118110Y203937D02*
D03*
Y210236D02*
D03*
X129134D02*
D03*
Y203937D02*
D03*
X123622Y210236D02*
D03*
Y203937D02*
D03*
X81890D02*
D03*
Y210236D02*
D03*
X225591Y229921D02*
D03*
Y223622D02*
D03*
X266929Y203937D02*
D03*
Y210236D02*
D03*
X277953D02*
D03*
Y203937D02*
D03*
X272441D02*
D03*
Y210236D02*
D03*
X283465Y203937D02*
D03*
Y210236D02*
D03*
X294488D02*
D03*
Y203937D02*
D03*
X288976Y210236D02*
D03*
Y203937D02*
D03*
X247244D02*
D03*
Y210236D02*
D03*
X60236Y288977D02*
D03*
Y282677D02*
D03*
X101575Y262992D02*
D03*
Y269291D02*
D03*
X112599D02*
D03*
Y262992D02*
D03*
X107087D02*
D03*
Y269291D02*
D03*
X118110Y262992D02*
D03*
Y269291D02*
D03*
X129134D02*
D03*
Y262992D02*
D03*
X123622Y269291D02*
D03*
Y262992D02*
D03*
X81890D02*
D03*
Y269291D02*
D03*
X225591Y288977D02*
D03*
Y282677D02*
D03*
X266929Y262992D02*
D03*
Y269291D02*
D03*
X277953D02*
D03*
Y262992D02*
D03*
X272441D02*
D03*
Y269291D02*
D03*
X283465Y262992D02*
D03*
Y269291D02*
D03*
X294488D02*
D03*
Y262992D02*
D03*
X288976Y269291D02*
D03*
Y262992D02*
D03*
X247244D02*
D03*
Y269291D02*
D03*
D40*
X87992Y34252D02*
D03*
X91732Y25591D02*
D03*
X95473Y34252D02*
D03*
X253347D02*
D03*
X257087Y25591D02*
D03*
X260827Y34252D02*
D03*
X87992Y93307D02*
D03*
X91732Y84646D02*
D03*
X95473Y93307D02*
D03*
X253347D02*
D03*
X257087Y84646D02*
D03*
X260827Y93307D02*
D03*
X87992Y152362D02*
D03*
X91732Y143701D02*
D03*
X95473Y152362D02*
D03*
X253347D02*
D03*
X257087Y143701D02*
D03*
X260827Y152362D02*
D03*
X87992Y211418D02*
D03*
X91732Y202756D02*
D03*
X95473Y211418D02*
D03*
X253347D02*
D03*
X257087Y202756D02*
D03*
X260827Y211418D02*
D03*
X87992Y270473D02*
D03*
X91732Y261811D02*
D03*
X95473Y270473D02*
D03*
X253347D02*
D03*
X257087Y261811D02*
D03*
X260827Y270473D02*
D03*
D41*
X120866Y70473D02*
D03*
X127165D02*
D03*
X88189D02*
D03*
X81890D02*
D03*
X93701D02*
D03*
X100000D02*
D03*
X286221D02*
D03*
X292520D02*
D03*
X253543D02*
D03*
X247244D02*
D03*
X259055D02*
D03*
X265354D02*
D03*
X120866Y129528D02*
D03*
X127165D02*
D03*
X88189D02*
D03*
X81890D02*
D03*
X93701D02*
D03*
X100000D02*
D03*
X286221D02*
D03*
X292520D02*
D03*
X253543D02*
D03*
X247244D02*
D03*
X259055D02*
D03*
X265354D02*
D03*
X120866Y188583D02*
D03*
X127165D02*
D03*
X88189D02*
D03*
X81890D02*
D03*
X93701D02*
D03*
X100000D02*
D03*
X286221D02*
D03*
X292520D02*
D03*
X253543D02*
D03*
X247244D02*
D03*
X259055D02*
D03*
X265354D02*
D03*
X120866Y247638D02*
D03*
X127165D02*
D03*
X88189D02*
D03*
X81890D02*
D03*
X93701D02*
D03*
X100000D02*
D03*
X286221D02*
D03*
X292520D02*
D03*
X253543D02*
D03*
X247244D02*
D03*
X259055D02*
D03*
X265354D02*
D03*
X120866Y306693D02*
D03*
X127165D02*
D03*
X88189D02*
D03*
X81890D02*
D03*
X93701D02*
D03*
X100000D02*
D03*
X286221D02*
D03*
X292520D02*
D03*
X253543D02*
D03*
X247244D02*
D03*
X259055D02*
D03*
X265354D02*
D03*
D42*
X85335Y40945D02*
D03*
X87894D02*
D03*
X85335Y63779D02*
D03*
X87894D02*
D03*
X98130Y40945D02*
D03*
X100689D02*
D03*
X90453D02*
D03*
X95571D02*
D03*
X93012D02*
D03*
X105807D02*
D03*
X108366D02*
D03*
X103248D02*
D03*
X90453Y63779D02*
D03*
X95571D02*
D03*
X93012D02*
D03*
X105807D02*
D03*
X108366D02*
D03*
X98130D02*
D03*
X103248D02*
D03*
X100689D02*
D03*
X250689Y40945D02*
D03*
X253248D02*
D03*
X250689Y63779D02*
D03*
X253248D02*
D03*
X263484Y40945D02*
D03*
X266043D02*
D03*
X255807D02*
D03*
X260925D02*
D03*
X258366D02*
D03*
X271162D02*
D03*
X273721D02*
D03*
X268602D02*
D03*
X255807Y63779D02*
D03*
X260925D02*
D03*
X258366D02*
D03*
X271162D02*
D03*
X273721D02*
D03*
X263484D02*
D03*
X268602D02*
D03*
X266043D02*
D03*
X85335Y100000D02*
D03*
X87894D02*
D03*
X85335Y122835D02*
D03*
X87894D02*
D03*
X98130Y100000D02*
D03*
X100689D02*
D03*
X90453D02*
D03*
X95571D02*
D03*
X93012D02*
D03*
X105807D02*
D03*
X108366D02*
D03*
X103248D02*
D03*
X90453Y122835D02*
D03*
X95571D02*
D03*
X93012D02*
D03*
X105807D02*
D03*
X108366D02*
D03*
X98130D02*
D03*
X103248D02*
D03*
X100689D02*
D03*
X250689Y100000D02*
D03*
X253248D02*
D03*
X250689Y122835D02*
D03*
X253248D02*
D03*
X263484Y100000D02*
D03*
X266043D02*
D03*
X255807D02*
D03*
X260925D02*
D03*
X258366D02*
D03*
X271162D02*
D03*
X273721D02*
D03*
X268602D02*
D03*
X255807Y122835D02*
D03*
X260925D02*
D03*
X258366D02*
D03*
X271162D02*
D03*
X273721D02*
D03*
X263484D02*
D03*
X268602D02*
D03*
X266043D02*
D03*
X85335Y159055D02*
D03*
X87894D02*
D03*
X85335Y181890D02*
D03*
X87894D02*
D03*
X98130Y159055D02*
D03*
X100689D02*
D03*
X90453D02*
D03*
X95571D02*
D03*
X93012D02*
D03*
X105807D02*
D03*
X108366D02*
D03*
X103248D02*
D03*
X90453Y181890D02*
D03*
X95571D02*
D03*
X93012D02*
D03*
X105807D02*
D03*
X108366D02*
D03*
X98130D02*
D03*
X103248D02*
D03*
X100689D02*
D03*
X250689Y159055D02*
D03*
X253248D02*
D03*
X250689Y181890D02*
D03*
X253248D02*
D03*
X263484Y159055D02*
D03*
X266043D02*
D03*
X255807D02*
D03*
X260925D02*
D03*
X258366D02*
D03*
X271162D02*
D03*
X273721D02*
D03*
X268602D02*
D03*
X255807Y181890D02*
D03*
X260925D02*
D03*
X258366D02*
D03*
X271162D02*
D03*
X273721D02*
D03*
X263484D02*
D03*
X268602D02*
D03*
X266043D02*
D03*
X85335Y218110D02*
D03*
X87894D02*
D03*
X85335Y240945D02*
D03*
X87894D02*
D03*
X98130Y218110D02*
D03*
X100689D02*
D03*
X90453D02*
D03*
X95571D02*
D03*
X93012D02*
D03*
X105807D02*
D03*
X108366D02*
D03*
X103248D02*
D03*
X90453Y240945D02*
D03*
X95571D02*
D03*
X93012D02*
D03*
X105807D02*
D03*
X108366D02*
D03*
X98130D02*
D03*
X103248D02*
D03*
X100689D02*
D03*
X250689Y218110D02*
D03*
X253248D02*
D03*
X250689Y240945D02*
D03*
X253248D02*
D03*
X263484Y218110D02*
D03*
X266043D02*
D03*
X255807D02*
D03*
X260925D02*
D03*
X258366D02*
D03*
X271162D02*
D03*
X273721D02*
D03*
X268602D02*
D03*
X255807Y240945D02*
D03*
X260925D02*
D03*
X258366D02*
D03*
X271162D02*
D03*
X273721D02*
D03*
X263484D02*
D03*
X268602D02*
D03*
X266043D02*
D03*
X85335Y277166D02*
D03*
X87894D02*
D03*
X85335Y300000D02*
D03*
X87894D02*
D03*
X98130Y277166D02*
D03*
X100689D02*
D03*
X90453D02*
D03*
X95571D02*
D03*
X93012D02*
D03*
X105807D02*
D03*
X108366D02*
D03*
X103248D02*
D03*
X90453Y300000D02*
D03*
X95571D02*
D03*
X93012D02*
D03*
X105807D02*
D03*
X108366D02*
D03*
X98130D02*
D03*
X103248D02*
D03*
X100689D02*
D03*
X250689Y277166D02*
D03*
X253248D02*
D03*
X250689Y300000D02*
D03*
X253248D02*
D03*
X263484Y277166D02*
D03*
X266043D02*
D03*
X255807D02*
D03*
X260925D02*
D03*
X258366D02*
D03*
X271162D02*
D03*
X273721D02*
D03*
X268602D02*
D03*
X255807Y300000D02*
D03*
X260925D02*
D03*
X258366D02*
D03*
X271162D02*
D03*
X273721D02*
D03*
X263484D02*
D03*
X268602D02*
D03*
X266043D02*
D03*
D43*
X114173Y57480D02*
D03*
Y63779D02*
D03*
X279528Y57480D02*
D03*
Y63779D02*
D03*
X114173Y116535D02*
D03*
Y122835D02*
D03*
X279528Y116535D02*
D03*
Y122835D02*
D03*
X114173Y175591D02*
D03*
Y181890D02*
D03*
X279528Y175591D02*
D03*
Y181890D02*
D03*
X114173Y234646D02*
D03*
Y240945D02*
D03*
X279528Y234646D02*
D03*
Y240945D02*
D03*
X114173Y293701D02*
D03*
Y300000D02*
D03*
X279528Y293701D02*
D03*
Y300000D02*
D03*
D44*
X128937Y46457D02*
D03*
Y50197D02*
D03*
Y42717D02*
D03*
X118307D02*
D03*
Y46457D02*
D03*
Y50197D02*
D03*
X294291Y46457D02*
D03*
Y50197D02*
D03*
Y42717D02*
D03*
X283662D02*
D03*
Y46457D02*
D03*
Y50197D02*
D03*
X128937Y105512D02*
D03*
Y109252D02*
D03*
Y101772D02*
D03*
X118307D02*
D03*
Y105512D02*
D03*
Y109252D02*
D03*
X294291Y105512D02*
D03*
Y109252D02*
D03*
Y101772D02*
D03*
X283662D02*
D03*
Y105512D02*
D03*
Y109252D02*
D03*
X128937Y164567D02*
D03*
Y168307D02*
D03*
Y160827D02*
D03*
X118307D02*
D03*
Y164567D02*
D03*
Y168307D02*
D03*
X294291Y164567D02*
D03*
Y168307D02*
D03*
Y160827D02*
D03*
X283662D02*
D03*
Y164567D02*
D03*
Y168307D02*
D03*
X128937Y223622D02*
D03*
Y227362D02*
D03*
Y219882D02*
D03*
X118307D02*
D03*
Y223622D02*
D03*
Y227362D02*
D03*
X294291Y223622D02*
D03*
Y227362D02*
D03*
Y219882D02*
D03*
X283662D02*
D03*
Y223622D02*
D03*
Y227362D02*
D03*
X128937Y282677D02*
D03*
Y286417D02*
D03*
Y278937D02*
D03*
X118307D02*
D03*
Y282677D02*
D03*
Y286417D02*
D03*
X294291Y282677D02*
D03*
Y286417D02*
D03*
Y278937D02*
D03*
X283662D02*
D03*
Y282677D02*
D03*
Y286417D02*
D03*
D45*
X128740Y60630D02*
D03*
X120079Y56890D02*
D03*
Y64370D02*
D03*
X294094Y60630D02*
D03*
X285433Y56890D02*
D03*
Y64370D02*
D03*
X128740Y119685D02*
D03*
X120079Y115945D02*
D03*
Y123425D02*
D03*
X294094Y119685D02*
D03*
X285433Y115945D02*
D03*
Y123425D02*
D03*
X128740Y178740D02*
D03*
X120079Y175000D02*
D03*
Y182481D02*
D03*
X294094Y178740D02*
D03*
X285433Y175000D02*
D03*
Y182481D02*
D03*
X128740Y237795D02*
D03*
X120079Y234055D02*
D03*
Y241536D02*
D03*
X294094Y237795D02*
D03*
X285433Y234055D02*
D03*
Y241536D02*
D03*
X128740Y296851D02*
D03*
X120079Y293110D02*
D03*
Y300591D02*
D03*
X294094Y296851D02*
D03*
X285433Y293110D02*
D03*
Y300591D02*
D03*
D46*
X76378Y68504D02*
D03*
X67717D02*
D03*
X76378Y29921D02*
D03*
X67717D02*
D03*
X241732Y68504D02*
D03*
X233071D02*
D03*
X241732Y29921D02*
D03*
X233071D02*
D03*
X76378Y127559D02*
D03*
X67717D02*
D03*
X76378Y88976D02*
D03*
X67717D02*
D03*
X241732Y127559D02*
D03*
X233071D02*
D03*
X241732Y88976D02*
D03*
X233071D02*
D03*
X76378Y186614D02*
D03*
X67717D02*
D03*
X76378Y148032D02*
D03*
X67717D02*
D03*
X241732Y186614D02*
D03*
X233071D02*
D03*
X241732Y148032D02*
D03*
X233071D02*
D03*
X76378Y245669D02*
D03*
X67717D02*
D03*
X76378Y207087D02*
D03*
X67717D02*
D03*
X241732Y245669D02*
D03*
X233071D02*
D03*
X241732Y207087D02*
D03*
X233071D02*
D03*
X76378Y304725D02*
D03*
X67717D02*
D03*
X76378Y266142D02*
D03*
X67717D02*
D03*
X241732Y304725D02*
D03*
X233071D02*
D03*
X241732Y266142D02*
D03*
X233071D02*
D03*
D47*
X73622Y58701D02*
D03*
Y39724D02*
D03*
X238976Y58701D02*
D03*
Y39724D02*
D03*
X73622Y117756D02*
D03*
Y98780D02*
D03*
X238976Y117756D02*
D03*
Y98780D02*
D03*
X73622Y176811D02*
D03*
Y157835D02*
D03*
X238976Y176811D02*
D03*
Y157835D02*
D03*
X73622Y235866D02*
D03*
Y216890D02*
D03*
X238976Y235866D02*
D03*
Y216890D02*
D03*
X73622Y294921D02*
D03*
Y275945D02*
D03*
X238976Y294921D02*
D03*
Y275945D02*
D03*
D48*
X11811Y324803D02*
D03*
X311024Y9842D02*
D03*
Y324803D02*
D03*
X11811Y9843D02*
D03*
D49*
X145669Y71654D02*
D03*
Y26772D02*
D03*
X311024Y71654D02*
D03*
Y26772D02*
D03*
X145669Y130709D02*
D03*
Y85827D02*
D03*
X311024Y130709D02*
D03*
Y85827D02*
D03*
X145669Y189764D02*
D03*
Y144882D02*
D03*
X311024Y189764D02*
D03*
Y144882D02*
D03*
X145669Y248819D02*
D03*
Y203937D02*
D03*
X311024Y248819D02*
D03*
Y203937D02*
D03*
X145669Y307874D02*
D03*
Y262992D02*
D03*
X311024Y307874D02*
D03*
Y262992D02*
D03*
D50*
X137402Y35433D02*
D03*
Y53150D02*
D03*
Y45276D02*
D03*
X302756Y35433D02*
D03*
Y53150D02*
D03*
Y45276D02*
D03*
X137402Y94488D02*
D03*
Y112205D02*
D03*
Y104331D02*
D03*
X302756Y94488D02*
D03*
Y112205D02*
D03*
Y104331D02*
D03*
X137402Y153543D02*
D03*
Y171260D02*
D03*
Y163386D02*
D03*
X302756Y153543D02*
D03*
Y171260D02*
D03*
Y163386D02*
D03*
X137402Y212598D02*
D03*
Y230315D02*
D03*
Y222441D02*
D03*
X302756Y212598D02*
D03*
Y230315D02*
D03*
Y222441D02*
D03*
X137402Y271654D02*
D03*
Y289370D02*
D03*
Y281496D02*
D03*
X302756Y271654D02*
D03*
Y289370D02*
D03*
Y281496D02*
D03*
D51*
X137402Y62992D02*
D03*
X302756D02*
D03*
X137402Y122047D02*
D03*
X302756D02*
D03*
X137402Y181102D02*
D03*
X302756D02*
D03*
X137402Y240158D02*
D03*
X302756D02*
D03*
X137402Y299213D02*
D03*
X302756D02*
D03*
D52*
X145669Y40354D02*
D03*
Y58071D02*
D03*
X311024Y40354D02*
D03*
Y58071D02*
D03*
X145669Y99410D02*
D03*
Y117126D02*
D03*
X311024Y99410D02*
D03*
Y117126D02*
D03*
X145669Y158465D02*
D03*
Y176181D02*
D03*
X311024Y158465D02*
D03*
Y176181D02*
D03*
X145669Y217520D02*
D03*
Y235236D02*
D03*
X311024Y217520D02*
D03*
Y235236D02*
D03*
X145669Y276575D02*
D03*
Y294291D02*
D03*
X311024Y276575D02*
D03*
Y294291D02*
D03*
D53*
X50787Y44213D02*
D03*
Y34213D02*
D03*
Y54213D02*
D03*
X30315Y44291D02*
D03*
Y34449D02*
D03*
Y54134D02*
D03*
X216142Y44213D02*
D03*
Y34213D02*
D03*
Y54213D02*
D03*
X195669Y44291D02*
D03*
Y34449D02*
D03*
Y54134D02*
D03*
X50787Y103268D02*
D03*
Y93268D02*
D03*
Y113268D02*
D03*
X30315Y103347D02*
D03*
Y93504D02*
D03*
Y113189D02*
D03*
X216142Y103268D02*
D03*
Y93268D02*
D03*
Y113268D02*
D03*
X195669Y103347D02*
D03*
Y93504D02*
D03*
Y113189D02*
D03*
X50787Y162323D02*
D03*
Y152323D02*
D03*
Y172323D02*
D03*
X30315Y162402D02*
D03*
Y152559D02*
D03*
Y172244D02*
D03*
X216142Y162323D02*
D03*
Y152323D02*
D03*
Y172323D02*
D03*
X195669Y162402D02*
D03*
Y152559D02*
D03*
Y172244D02*
D03*
X50787Y221378D02*
D03*
Y211378D02*
D03*
Y231378D02*
D03*
X30315Y221457D02*
D03*
Y211614D02*
D03*
Y231299D02*
D03*
X216142Y221378D02*
D03*
Y211378D02*
D03*
Y231378D02*
D03*
X195669Y221457D02*
D03*
Y211614D02*
D03*
Y231299D02*
D03*
X50787Y280433D02*
D03*
Y270433D02*
D03*
Y290433D02*
D03*
X30315Y280512D02*
D03*
Y270669D02*
D03*
Y290354D02*
D03*
X216142Y280433D02*
D03*
Y270433D02*
D03*
Y290433D02*
D03*
X195669Y280512D02*
D03*
Y270669D02*
D03*
Y290354D02*
D03*
D54*
X50787Y64213D02*
D03*
X30315Y63976D02*
D03*
X216142Y64213D02*
D03*
X195669Y63976D02*
D03*
X50787Y123268D02*
D03*
X30315Y123031D02*
D03*
X216142Y123268D02*
D03*
X195669Y123031D02*
D03*
X50787Y182323D02*
D03*
X30315Y182087D02*
D03*
X216142Y182323D02*
D03*
X195669Y182087D02*
D03*
X50787Y241378D02*
D03*
X30315Y241142D02*
D03*
X216142Y241378D02*
D03*
X195669Y241142D02*
D03*
X50787Y300433D02*
D03*
X30315Y300197D02*
D03*
X216142Y300433D02*
D03*
X195669Y300197D02*
D03*
D55*
X60394Y64213D02*
D03*
X40394Y54213D02*
D03*
Y34213D02*
D03*
X60394D02*
D03*
X225748Y64213D02*
D03*
X205748Y54213D02*
D03*
Y34213D02*
D03*
X225748D02*
D03*
X60394Y123268D02*
D03*
X40394Y113268D02*
D03*
Y93268D02*
D03*
X60394D02*
D03*
X225748Y123268D02*
D03*
X205748Y113268D02*
D03*
Y93268D02*
D03*
X225748D02*
D03*
X60394Y182323D02*
D03*
X40394Y172323D02*
D03*
Y152323D02*
D03*
X60394D02*
D03*
X225748Y182323D02*
D03*
X205748Y172323D02*
D03*
Y152323D02*
D03*
X225748D02*
D03*
X60394Y241378D02*
D03*
X40394Y231378D02*
D03*
Y211378D02*
D03*
X60394D02*
D03*
X225748Y241378D02*
D03*
X205748Y231378D02*
D03*
Y211378D02*
D03*
X225748D02*
D03*
X60394Y300433D02*
D03*
X40394Y290433D02*
D03*
Y270433D02*
D03*
X60394D02*
D03*
X225748Y300433D02*
D03*
X205748Y290433D02*
D03*
Y270433D02*
D03*
X225748D02*
D03*
M02*
