M48
;Layer_Color=6321
;FILE_FORMAT=2:5
INCH,TZ
;TYPE=PLATED
T01F00S00C0.01181
T02F00S00C0.02756
T03F00S00C0.03937
;TYPE=NON_PLATED
T05F00S00C0.04331
%
T01
X59842Y13976
X72835Y17717
X69882Y48228
X54724Y48819
X93307Y50787
X104331Y47047
X108071Y50787
X113779Y44685
X121063Y50787
X104921Y27756
X96260Y16732
X93110
X100000Y10236
X111024
X81496Y9646
Y14567
T02
X30945Y14528
Y34528
X50945Y44528
Y14528
T03
X12992Y14528
Y24528
Y34528
Y44528
X41732Y44528
Y34528
Y24528
Y14528
X127559Y15748
Y25591
Y33465
Y43307
T05
X135827Y20669
Y38386
M30
