M48
;Layer_Color=6321
;FILE_FORMAT=2:5
INCH,TZ
;TYPE=PLATED
T01F00S00C0.01181
T02F00S00C0.02756
T03F00S00C0.03937
;TYPE=NON_PLATED
T05F00S00C0.04331
%
T01
X69291Y14567
X66142Y48819
X81693Y48228
X105118Y50787
X116142Y47047
X119882Y50787
X125591Y44685
X132874Y50787
X116732Y27756
X108071Y16732
X104921
X111811Y10236
X122835
X93307Y9646
Y14567
X84646Y17717
T02
X40394Y14528
Y34528
X60394Y44528
Y14528
T03
X30315Y14764
Y24606
Y34449
Y44291
X50787Y44528
Y34528
Y24528
Y14528
X139370Y15748
Y25591
Y33465
Y43307
T05
X147638Y20669
Y38386
M30
