G04*
G04 #@! TF.GenerationSoftware,Altium Limited,Altium Designer,24.1.2 (44)*
G04*
G04 Layer_Physical_Order=2*
G04 Layer_Color=11436288*
%FSLAX25Y25*%
%MOIN*%
G70*
G04*
G04 #@! TF.SameCoordinates,F92D160F-36B7-4296-8853-D53E9937D76D*
G04*
G04*
G04 #@! TF.FilePolarity,Positive*
G04*
G01*
G75*
%ADD10C,0.00787*%
%ADD43C,0.01575*%
%ADD45O,0.08661X0.06299*%
G04:AMPARAMS|DCode=46|XSize=62.99mil|YSize=86.61mil|CornerRadius=15.75mil|HoleSize=0mil|Usage=FLASHONLY|Rotation=270.000|XOffset=0mil|YOffset=0mil|HoleType=Round|Shape=RoundedRectangle|*
%AMROUNDEDRECTD46*
21,1,0.06299,0.05512,0,0,270.0*
21,1,0.03150,0.08661,0,0,270.0*
1,1,0.03150,-0.02756,-0.01575*
1,1,0.03150,-0.02756,0.01575*
1,1,0.03150,0.02756,0.01575*
1,1,0.03150,0.02756,-0.01575*
%
%ADD46ROUNDEDRECTD46*%
G04:AMPARAMS|DCode=47|XSize=47.24mil|YSize=55.12mil|CornerRadius=11.81mil|HoleSize=0mil|Usage=FLASHONLY|Rotation=0.000|XOffset=0mil|YOffset=0mil|HoleType=Round|Shape=RoundedRectangle|*
%AMROUNDEDRECTD47*
21,1,0.04724,0.03150,0,0,0.0*
21,1,0.02362,0.05512,0,0,0.0*
1,1,0.02362,0.01181,-0.01575*
1,1,0.02362,-0.01181,-0.01575*
1,1,0.02362,-0.01181,0.01575*
1,1,0.02362,0.01181,0.01575*
%
%ADD47ROUNDEDRECTD47*%
%ADD48C,0.06299*%
G04:AMPARAMS|DCode=49|XSize=62.99mil|YSize=62.99mil|CornerRadius=15.75mil|HoleSize=0mil|Usage=FLASHONLY|Rotation=0.000|XOffset=0mil|YOffset=0mil|HoleType=Round|Shape=RoundedRectangle|*
%AMROUNDEDRECTD49*
21,1,0.06299,0.03150,0,0,0.0*
21,1,0.03150,0.06299,0,0,0.0*
1,1,0.03150,0.01575,-0.01575*
1,1,0.03150,-0.01575,-0.01575*
1,1,0.03150,-0.01575,0.01575*
1,1,0.03150,0.01575,0.01575*
%
%ADD49ROUNDEDRECTD49*%
G04:AMPARAMS|DCode=50|XSize=55.12mil|YSize=78.74mil|CornerRadius=13.78mil|HoleSize=0mil|Usage=FLASHONLY|Rotation=90.000|XOffset=0mil|YOffset=0mil|HoleType=Round|Shape=RoundedRectangle|*
%AMROUNDEDRECTD50*
21,1,0.05512,0.05118,0,0,90.0*
21,1,0.02756,0.07874,0,0,90.0*
1,1,0.02756,0.02559,0.01378*
1,1,0.02756,0.02559,-0.01378*
1,1,0.02756,-0.02559,-0.01378*
1,1,0.02756,-0.02559,0.01378*
%
%ADD50ROUNDEDRECTD50*%
%ADD51O,0.07874X0.05512*%
G04:AMPARAMS|DCode=52|XSize=70.87mil|YSize=125.98mil|CornerRadius=17.72mil|HoleSize=0mil|Usage=FLASHONLY|Rotation=90.000|XOffset=0mil|YOffset=0mil|HoleType=Round|Shape=RoundedRectangle|*
%AMROUNDEDRECTD52*
21,1,0.07087,0.09055,0,0,90.0*
21,1,0.03543,0.12598,0,0,90.0*
1,1,0.03543,0.04528,0.01772*
1,1,0.03543,0.04528,-0.01772*
1,1,0.03543,-0.04528,-0.01772*
1,1,0.03543,-0.04528,0.01772*
%
%ADD52ROUNDEDRECTD52*%
%ADD53C,0.01968*%
%AMCUSTOMSHAPE54*
4,1,12,-0.01575,-0.01299,-0.01102,-0.01772,0.02165,-0.01772,0.03780,-0.01772,0.03780,-0.01496,0.02244,-0.00433,0.02244,0.00433,0.03780,0.01496,0.03780,0.01772,0.02165,0.01772,-0.01102,0.01772,-0.01575,0.01299,-0.01575,-0.01299,0.0*%
%ADD54CUSTOMSHAPE54*%

%AMCUSTOMSHAPE55*
4,1,10,-0.01850,0.01142,-0.03386,0.00079,-0.03386,-0.00079,-0.01850,-0.01142,-0.01850,-0.01772,0.01102,-0.01772,0.01614,-0.01260,0.01614,0.01260,0.01102,0.01772,-0.01850,0.01772,-0.01850,0.01142,0.0*%
%ADD55CUSTOMSHAPE55*%

%AMCUSTOMSHAPE56*
4,1,12,0.01575,0.01299,0.01102,0.01772,-0.02165,0.01772,-0.03780,0.01772,-0.03780,0.01496,-0.02244,0.00433,-0.02244,-0.00433,-0.03780,-0.01496,-0.03780,-0.01772,-0.02165,-0.01772,0.01102,-0.01772,0.01575,-0.01299,0.01575,0.01299,0.0*%
%ADD56CUSTOMSHAPE56*%

%AMCUSTOMSHAPE57*
4,1,10,0.01850,-0.01142,0.03386,-0.00079,0.03386,0.00079,0.01850,0.01142,0.01850,0.01772,-0.01102,0.01772,-0.01614,0.01260,-0.01614,-0.01260,-0.01102,-0.01772,0.01850,-0.01772,0.01850,-0.01142,0.0*%
%ADD57CUSTOMSHAPE57*%

G36*
X144064Y1606D02*
X1606Y1606D01*
Y57450D01*
X144064Y57450D01*
Y1606D01*
D02*
G37*
%LPC*%
G36*
X119353Y55909D02*
X52743D01*
X52537Y55895D01*
X52334Y55855D01*
X52139Y55789D01*
X51954Y55698D01*
X51782Y55583D01*
X51627Y55447D01*
X50252Y54072D01*
X44350D01*
X44260Y54181D01*
X43749Y54693D01*
X43629Y54792D01*
X43492Y54865D01*
X43343Y54910D01*
X43189Y54925D01*
X40236D01*
X40082Y54910D01*
X39933Y54865D01*
X39921Y54858D01*
X39909Y54865D01*
X39761Y54910D01*
X39606Y54925D01*
X34724D01*
X34570Y54910D01*
X34422Y54865D01*
X34285Y54792D01*
X34165Y54693D01*
X33692Y54221D01*
X33594Y54101D01*
X33521Y53964D01*
X33476Y53816D01*
X33461Y53661D01*
Y53547D01*
X32677D01*
X32492Y53532D01*
X32311Y53489D01*
X32139Y53418D01*
X31981Y53321D01*
X31839Y53200D01*
X30107Y51468D01*
X29986Y51326D01*
X29889Y51168D01*
X29818Y50996D01*
X29775Y50815D01*
X29760Y50630D01*
Y38074D01*
X29543Y38062D01*
X29325Y38025D01*
X29113Y37963D01*
X28908Y37879D01*
X28715Y37772D01*
X28534Y37644D01*
X28370Y37497D01*
X28222Y37332D01*
X28094Y37151D01*
X27987Y36958D01*
X27903Y36753D01*
X27842Y36541D01*
X27805Y36323D01*
X27792Y36102D01*
Y32953D01*
X27805Y32732D01*
X27842Y32514D01*
X27903Y32302D01*
X27987Y32097D01*
X28094Y31904D01*
X28222Y31723D01*
X28370Y31559D01*
X28534Y31411D01*
X28715Y31283D01*
X28908Y31176D01*
X29113Y31092D01*
X29335Y30528D01*
X29341Y30229D01*
X22784Y23672D01*
X22664Y23531D01*
X22566Y23372D01*
X22495Y23201D01*
X22452Y23020D01*
X22437Y22835D01*
Y9252D01*
X22452Y9067D01*
X22495Y8886D01*
X22566Y8714D01*
X22664Y8556D01*
X22784Y8414D01*
X27312Y3887D01*
X27453Y3766D01*
X27612Y3669D01*
X27784Y3598D01*
X27964Y3554D01*
X28150Y3540D01*
X66339D01*
X66524Y3554D01*
X66705Y3598D01*
X66876Y3669D01*
X67035Y3766D01*
X67176Y3887D01*
X67617Y4327D01*
X68540D01*
Y4213D01*
X68555Y4058D01*
X68600Y3910D01*
X68673Y3773D01*
X68771Y3653D01*
X69244Y3181D01*
X69364Y3082D01*
X69500Y3009D01*
X69649Y2964D01*
X69803Y2949D01*
X74685D01*
X74839Y2964D01*
X74988Y3009D01*
X75000Y3016D01*
X75012Y3009D01*
X75161Y2964D01*
X75315Y2949D01*
X78268D01*
X78422Y2964D01*
X78570Y3009D01*
X78707Y3082D01*
X78827Y3181D01*
X79339Y3692D01*
X79437Y3812D01*
X79510Y3949D01*
X79555Y4098D01*
X79571Y4252D01*
X80327Y4327D01*
X92323D01*
X92508Y4342D01*
X92689Y4385D01*
X92861Y4456D01*
X93019Y4553D01*
X93161Y4674D01*
X98082Y9595D01*
X98203Y9737D01*
X98300Y9895D01*
X98371Y10067D01*
X98414Y10248D01*
X98429Y10433D01*
Y15748D01*
X98414Y15933D01*
X98371Y16114D01*
X98300Y16286D01*
X98203Y16444D01*
X98082Y16586D01*
X98032Y16636D01*
Y16848D01*
X98001Y17079D01*
X97941Y17303D01*
X97852Y17517D01*
X97736Y17719D01*
X97595Y17903D01*
X97430Y18067D01*
X97246Y18209D01*
X97045Y18325D01*
X96831Y18414D01*
X96606Y18474D01*
X96376Y18504D01*
X96144D01*
X95913Y18474D01*
X95689Y18414D01*
X95475Y18325D01*
X95274Y18209D01*
X95208Y18158D01*
X95073Y18063D01*
X94685Y17964D01*
X94297Y18063D01*
X94162Y18158D01*
X94097Y18209D01*
X93896Y18325D01*
X93681Y18414D01*
X93457Y18474D01*
X93226Y18504D01*
X92994D01*
X92764Y18474D01*
X92540Y18414D01*
X92325Y18325D01*
X92124Y18209D01*
X91940Y18067D01*
X91775Y17903D01*
X91634Y17719D01*
X91518Y17517D01*
X91429Y17303D01*
X91369Y17079D01*
X91339Y16848D01*
Y16636D01*
X91091Y16389D01*
X90971Y16248D01*
X90873Y16089D01*
X90802Y15917D01*
X90759Y15736D01*
X90744Y15551D01*
Y12996D01*
X79531D01*
Y13071D01*
X79516Y13225D01*
X79471Y13374D01*
X79398Y13510D01*
X79300Y13630D01*
X78788Y14142D01*
X78668Y14241D01*
X78531Y14314D01*
X78383Y14359D01*
X78228Y14374D01*
X75276D01*
X75121Y14359D01*
X74973Y14314D01*
X74961Y14307D01*
X74949Y14314D01*
X74800Y14359D01*
X74646Y14374D01*
X69764D01*
X69609Y14359D01*
X69461Y14314D01*
X69324Y14241D01*
X69204Y14142D01*
X68732Y13670D01*
X68634Y13550D01*
X68560Y13413D01*
X68515Y13265D01*
X68500Y13110D01*
Y12996D01*
X65158D01*
X64972Y12981D01*
X64791Y12938D01*
X64620Y12867D01*
X64461Y12769D01*
X64320Y12649D01*
X61320Y9649D01*
X33168D01*
X32582Y10235D01*
X32577Y10494D01*
X32777Y11092D01*
X32981Y11176D01*
X33175Y11283D01*
X33355Y11411D01*
X33520Y11559D01*
X33667Y11723D01*
X33795Y11904D01*
X33902Y12097D01*
X33987Y12302D01*
X34048Y12514D01*
X34085Y12732D01*
X34098Y12953D01*
Y16102D01*
X34085Y16323D01*
X34048Y16541D01*
X33987Y16754D01*
X33902Y16958D01*
X33795Y17151D01*
X33667Y17332D01*
X33520Y17496D01*
X33355Y17644D01*
X33175Y17772D01*
X32981Y17879D01*
X32777Y17963D01*
X32565Y18024D01*
X32347Y18062D01*
X32126Y18074D01*
X29764D01*
X29543Y18062D01*
X29325Y18024D01*
X29113Y17963D01*
X28908Y17879D01*
X28715Y17772D01*
X28534Y17644D01*
X28370Y17496D01*
X28222Y17332D01*
X28094Y17151D01*
X27987Y16958D01*
X27903Y16754D01*
X27842Y16541D01*
X27805Y16323D01*
X27792Y16102D01*
Y12953D01*
X27805Y12732D01*
X27842Y12514D01*
X27903Y12302D01*
X27987Y12097D01*
X28094Y11904D01*
X28222Y11723D01*
X28370Y11559D01*
X28534Y11411D01*
X28715Y11283D01*
X28908Y11176D01*
X29113Y11092D01*
X29325Y11031D01*
X29543Y10994D01*
X29760Y10981D01*
Y10197D01*
X29775Y10012D01*
X29818Y9831D01*
X29889Y9659D01*
X29986Y9500D01*
X30107Y9359D01*
X31839Y7627D01*
X31981Y7506D01*
X32139Y7409D01*
X32311Y7338D01*
X32492Y7294D01*
X32677Y7280D01*
X61811D01*
X61996Y7294D01*
X62177Y7338D01*
X62349Y7409D01*
X62507Y7506D01*
X62649Y7627D01*
X65648Y10626D01*
X68500D01*
Y10512D01*
X68515Y10357D01*
X68560Y10209D01*
X68634Y10072D01*
X68732Y9952D01*
X69204Y9480D01*
X69324Y9381D01*
X69461Y9308D01*
X69609Y9263D01*
X69764Y9248D01*
X74646D01*
X74800Y9263D01*
X74949Y9308D01*
X74961Y9315D01*
X74973Y9308D01*
X75121Y9263D01*
X75276Y9248D01*
X78228D01*
X78383Y9263D01*
X78531Y9308D01*
X78668Y9381D01*
X78788Y9480D01*
X79300Y9992D01*
X79398Y10112D01*
X79471Y10248D01*
X79516Y10397D01*
X79531Y10551D01*
X80288Y10626D01*
X91468D01*
X91653Y10641D01*
X91834Y10684D01*
X92006Y10755D01*
X92164Y10853D01*
X92306Y10973D01*
X92767Y11434D01*
X92888Y11576D01*
X92985Y11734D01*
X93056Y11906D01*
X93099Y12087D01*
X93114Y12272D01*
Y14961D01*
X93226D01*
X93457Y14991D01*
X93681Y15051D01*
X93896Y15140D01*
X94097Y15256D01*
X94162Y15306D01*
X94297Y15401D01*
X94685Y15500D01*
X95073Y15401D01*
X95208Y15306D01*
X95274Y15256D01*
X95475Y15140D01*
X95689Y15051D01*
X95913Y14991D01*
X96059Y14972D01*
Y10924D01*
X91832Y6697D01*
X79571D01*
Y6772D01*
X79555Y6926D01*
X79510Y7074D01*
X79437Y7211D01*
X79339Y7331D01*
X78827Y7843D01*
X78707Y7941D01*
X78570Y8014D01*
X78422Y8060D01*
X78268Y8075D01*
X75315D01*
X75161Y8060D01*
X75012Y8014D01*
X75000Y8008D01*
X74988Y8014D01*
X74839Y8060D01*
X74685Y8075D01*
X69803D01*
X69649Y8060D01*
X69500Y8014D01*
X69364Y7941D01*
X69244Y7843D01*
X68771Y7371D01*
X68673Y7251D01*
X68600Y7114D01*
X68555Y6965D01*
X68540Y6811D01*
Y6697D01*
X67126D01*
X66941Y6682D01*
X66760Y6639D01*
X66588Y6567D01*
X66430Y6470D01*
X66288Y6350D01*
X65848Y5909D01*
X28640D01*
X24807Y9743D01*
Y22344D01*
X31783Y29320D01*
X31903Y29461D01*
X32000Y29620D01*
X32072Y29791D01*
X32115Y29972D01*
X32130Y30158D01*
Y30981D01*
X32347Y30994D01*
X32565Y31031D01*
X32777Y31092D01*
X32981Y31176D01*
X33175Y31283D01*
X33355Y31411D01*
X33520Y31559D01*
X33667Y31723D01*
X33795Y31904D01*
X33902Y32097D01*
X33987Y32302D01*
X34048Y32514D01*
X34085Y32732D01*
X34098Y32953D01*
Y36102D01*
X34085Y36323D01*
X34048Y36541D01*
X33987Y36753D01*
X33902Y36958D01*
X33795Y37151D01*
X33667Y37332D01*
X33520Y37497D01*
X33355Y37644D01*
X33175Y37772D01*
X32981Y37879D01*
X32777Y37963D01*
X32565Y38025D01*
X32347Y38062D01*
X32130Y38074D01*
Y50139D01*
X32728Y50738D01*
X33021Y50746D01*
X33487Y50646D01*
X33654Y50550D01*
X33692Y50503D01*
X34165Y50031D01*
X34285Y49933D01*
X34422Y49860D01*
X34570Y49815D01*
X34724Y49799D01*
X39606D01*
X39761Y49815D01*
X39909Y49860D01*
X39921Y49866D01*
X39933Y49860D01*
X40082Y49815D01*
X40236Y49799D01*
X43189D01*
X43343Y49815D01*
X43492Y49860D01*
X43629Y49933D01*
X43748Y50031D01*
X44260Y50543D01*
X44359Y50663D01*
X44432Y50800D01*
X44467Y50915D01*
X49327D01*
Y48025D01*
X49325Y48024D01*
X49113Y47963D01*
X48908Y47879D01*
X48715Y47772D01*
X48535Y47644D01*
X48370Y47497D01*
X48222Y47332D01*
X48094Y47151D01*
X47987Y46958D01*
X47903Y46753D01*
X47842Y46541D01*
X47805Y46323D01*
X47792Y46102D01*
Y42953D01*
X47805Y42732D01*
X47842Y42514D01*
X47903Y42302D01*
X47987Y42097D01*
X48094Y41904D01*
X48222Y41723D01*
X48370Y41559D01*
X48535Y41411D01*
X48715Y41283D01*
X48908Y41176D01*
X49113Y41092D01*
X49325Y41031D01*
X49543Y40994D01*
X49764Y40981D01*
X52126D01*
X52347Y40994D01*
X52565Y41031D01*
X52777Y41092D01*
X52981Y41176D01*
X53175Y41283D01*
X53355Y41411D01*
X53520Y41559D01*
X53667Y41723D01*
X53795Y41904D01*
X53902Y42097D01*
X53987Y42302D01*
X54048Y42514D01*
X54085Y42732D01*
X54098Y42953D01*
Y46102D01*
X54092Y46199D01*
X54478Y46435D01*
X54642Y46473D01*
X55115Y46107D01*
Y43110D01*
X55129Y42925D01*
X55172Y42744D01*
X55244Y42572D01*
X55341Y42414D01*
X55462Y42272D01*
X60466Y37268D01*
X60274Y36478D01*
X60208Y36412D01*
X60118Y36421D01*
X59606D01*
Y34449D01*
X61421D01*
Y35118D01*
X61412Y35208D01*
X61478Y35274D01*
X62268Y35466D01*
X63579Y34155D01*
Y24016D01*
X63594Y23830D01*
X63637Y23650D01*
X63708Y23478D01*
X63805Y23319D01*
X63926Y23178D01*
X66037Y21067D01*
X65895Y20279D01*
X63543D01*
X63389Y20264D01*
X63240Y20219D01*
X63228Y20213D01*
X63216Y20219D01*
X63068Y20264D01*
X62913Y20279D01*
X61181D01*
X61104Y20316D01*
X60943Y20458D01*
X60592Y20996D01*
X60584Y21067D01*
X60594Y21220D01*
Y22403D01*
X60678Y22472D01*
X61189Y22984D01*
X61288Y23104D01*
X61361Y23241D01*
X61406Y23389D01*
X61421Y23543D01*
Y26063D01*
X61406Y26217D01*
X61361Y26366D01*
X61288Y26503D01*
X61189Y26623D01*
X60678Y27134D01*
X60558Y27233D01*
X60421Y27306D01*
X60273Y27351D01*
X60118Y27366D01*
X57165D01*
X57011Y27351D01*
X56863Y27306D01*
X56850Y27299D01*
X56838Y27306D01*
X56690Y27351D01*
X56535Y27366D01*
X55121D01*
Y31295D01*
X56535D01*
X56690Y31311D01*
X56838Y31356D01*
X56850Y31362D01*
X56863Y31356D01*
X57011Y31311D01*
X57165Y31295D01*
X58425D01*
Y33858D01*
Y36421D01*
X57165D01*
X57011Y36406D01*
X56863Y36361D01*
X56850Y36354D01*
X56838Y36361D01*
X56690Y36406D01*
X56535Y36421D01*
X51653D01*
X51499Y36406D01*
X51351Y36361D01*
X51214Y36288D01*
X51094Y36189D01*
X50622Y35717D01*
X50594Y35683D01*
X50287Y35706D01*
X49806Y35927D01*
Y38032D01*
X49793Y38238D01*
X49753Y38441D01*
X49686Y38636D01*
X49595Y38821D01*
X49480Y38993D01*
X49344Y39148D01*
X45666Y42827D01*
X45673Y42953D01*
Y46103D01*
X45658Y46368D01*
X45614Y46630D01*
X45540Y46884D01*
X45439Y47129D01*
X45310Y47362D01*
X45157Y47578D01*
X44980Y47776D01*
X44782Y47953D01*
X44566Y48106D01*
X44334Y48235D01*
X44089Y48336D01*
X43834Y48410D01*
X43572Y48454D01*
X43307Y48469D01*
X40157D01*
X39893Y48454D01*
X39631Y48410D01*
X39376Y48336D01*
X39131Y48235D01*
X38899Y48106D01*
X38682Y47953D01*
X38484Y47776D01*
X38308Y47578D01*
X38154Y47362D01*
X38026Y47129D01*
X37924Y46884D01*
X37851Y46630D01*
X37806Y46368D01*
X37792Y46103D01*
Y42953D01*
X37806Y42689D01*
X37851Y42427D01*
X37924Y42172D01*
X38026Y41927D01*
X38154Y41695D01*
X38308Y41478D01*
X38484Y41280D01*
X38682Y41104D01*
X38899Y40950D01*
X39131Y40822D01*
X39376Y40720D01*
X39631Y40647D01*
X39893Y40602D01*
X40157Y40587D01*
X43307D01*
X43434Y40595D01*
X46650Y37378D01*
Y34843D01*
X46664Y34637D01*
X46704Y34434D01*
X46770Y34239D01*
X46862Y34053D01*
X46976Y33882D01*
X47112Y33727D01*
X48097Y32742D01*
X48252Y32606D01*
X48423Y32491D01*
X48609Y32400D01*
X48804Y32334D01*
X49007Y32294D01*
X49213Y32280D01*
X50443D01*
X50450Y32256D01*
X50523Y32120D01*
X50622Y32000D01*
X51094Y31527D01*
X51214Y31429D01*
X51351Y31356D01*
X51499Y31311D01*
X51653Y31295D01*
X51965D01*
Y27366D01*
X51653D01*
X51499Y27351D01*
X51351Y27306D01*
X51214Y27233D01*
X51094Y27134D01*
X50622Y26662D01*
X50523Y26542D01*
X50450Y26405D01*
X50405Y26257D01*
X50390Y26102D01*
Y23504D01*
X50405Y23350D01*
X50450Y23201D01*
X50523Y23064D01*
X50622Y22944D01*
X51094Y22472D01*
X51214Y22374D01*
X51351Y22300D01*
X51499Y22255D01*
X51653Y22240D01*
X56535D01*
X56847Y21847D01*
X56885Y21322D01*
X56364Y20801D01*
X56228Y20646D01*
X56114Y20474D01*
X56022Y20289D01*
X55956Y20094D01*
X55916Y19891D01*
X55902Y19685D01*
Y15555D01*
X54098D01*
Y16102D01*
X54085Y16323D01*
X54048Y16541D01*
X53987Y16754D01*
X53902Y16958D01*
X53795Y17151D01*
X53667Y17332D01*
X53520Y17496D01*
X53355Y17644D01*
X53175Y17772D01*
X52981Y17879D01*
X52777Y17963D01*
X52565Y18024D01*
X52347Y18062D01*
X52126Y18074D01*
X49764D01*
X49543Y18062D01*
X49325Y18024D01*
X49113Y17963D01*
X48908Y17879D01*
X48715Y17772D01*
X48535Y17644D01*
X48370Y17496D01*
X48222Y17332D01*
X48094Y17151D01*
X47987Y16958D01*
X47903Y16754D01*
X47842Y16541D01*
X47805Y16323D01*
X47792Y16102D01*
Y12953D01*
X47805Y12732D01*
X47842Y12514D01*
X47903Y12302D01*
X47987Y12097D01*
X48094Y11904D01*
X48222Y11723D01*
X48370Y11559D01*
X48535Y11411D01*
X48715Y11283D01*
X48908Y11176D01*
X49113Y11092D01*
X49325Y11031D01*
X49543Y10994D01*
X49764Y10981D01*
X52126D01*
X52347Y10994D01*
X52565Y11031D01*
X52777Y11092D01*
X52981Y11176D01*
X53175Y11283D01*
X53355Y11411D01*
X53520Y11559D01*
X53667Y11723D01*
X53795Y11904D01*
X53902Y12097D01*
X53987Y12302D01*
X54015Y12398D01*
X59033D01*
X59057Y12384D01*
X59272Y12295D01*
X59496Y12235D01*
X59726Y12205D01*
X59959D01*
X60189Y12235D01*
X60413Y12295D01*
X60628Y12384D01*
X60829Y12500D01*
X61013Y12641D01*
X61177Y12806D01*
X61319Y12990D01*
X61435Y13191D01*
X61524Y13406D01*
X61584Y13630D01*
X61614Y13860D01*
Y14093D01*
X61584Y14323D01*
X61572Y14366D01*
X61849Y14907D01*
X62023Y15099D01*
X62117Y15154D01*
X62913D01*
X63068Y15169D01*
X63216Y15214D01*
X63228Y15220D01*
X63240Y15214D01*
X63389Y15169D01*
X63543Y15154D01*
X68425D01*
X68580Y15169D01*
X68728Y15214D01*
X68865Y15287D01*
X68985Y15385D01*
X69457Y15858D01*
X69555Y15978D01*
X69629Y16115D01*
X69674Y16263D01*
X69689Y16417D01*
Y16532D01*
X71514D01*
X71664Y16382D01*
X71848Y16240D01*
X72049Y16124D01*
X72264Y16035D01*
X72488Y15975D01*
X72719Y15945D01*
X72951D01*
X73181Y15975D01*
X73405Y16035D01*
X73620Y16124D01*
X73821Y16240D01*
X74005Y16382D01*
X74169Y16546D01*
X74311Y16730D01*
X74427Y16931D01*
X74516Y17146D01*
X74576Y17370D01*
X74606Y17600D01*
Y17833D01*
X74576Y18063D01*
X74516Y18287D01*
X74427Y18502D01*
X74311Y18703D01*
X74169Y18887D01*
X74005Y19051D01*
X73821Y19193D01*
X73620Y19309D01*
X73405Y19398D01*
X73181Y19458D01*
X72951Y19488D01*
X72719D01*
X72488Y19458D01*
X72264Y19398D01*
X72049Y19309D01*
X71848Y19193D01*
X71664Y19051D01*
X71514Y18901D01*
X69689D01*
Y19016D01*
X69674Y19170D01*
X69629Y19319D01*
X69555Y19455D01*
X69457Y19575D01*
X68985Y20048D01*
X68865Y20146D01*
X68728Y20219D01*
X68580Y20264D01*
X68508Y20271D01*
Y21457D01*
X68493Y21642D01*
X68450Y21823D01*
X68379Y21995D01*
X68281Y22153D01*
X68161Y22294D01*
X65948Y24507D01*
Y34646D01*
X65934Y34831D01*
X65891Y35012D01*
X65819Y35184D01*
X65722Y35342D01*
X65601Y35483D01*
X57484Y43601D01*
Y47244D01*
X57469Y47429D01*
X57426Y47610D01*
X57355Y47782D01*
X57258Y47940D01*
X57137Y48082D01*
X56496Y48723D01*
Y48935D01*
X56466Y49165D01*
X56406Y49390D01*
X56317Y49604D01*
X56201Y49805D01*
X56059Y49990D01*
X55895Y50154D01*
X55711Y50295D01*
X55510Y50411D01*
X55295Y50500D01*
X55071Y50560D01*
X54840Y50591D01*
X54608D01*
X54378Y50560D01*
X54154Y50500D01*
X53939Y50411D01*
X53738Y50295D01*
X53554Y50154D01*
X53390Y49990D01*
X53271Y49835D01*
X53182Y49827D01*
X52484Y50056D01*
Y51840D01*
X53396Y52753D01*
X118699D01*
X119485Y51967D01*
Y51597D01*
X119471Y51573D01*
X119382Y51358D01*
X119322Y51134D01*
X119291Y50903D01*
Y50671D01*
X119322Y50441D01*
X119382Y50217D01*
X119471Y50002D01*
X119587Y49801D01*
X119728Y49617D01*
X119892Y49453D01*
X120077Y49311D01*
X120278Y49195D01*
X120492Y49106D01*
X120717Y49046D01*
X120947Y49016D01*
X121179D01*
X121409Y49046D01*
X121634Y49106D01*
X121848Y49195D01*
X122049Y49311D01*
X122234Y49453D01*
X122398Y49617D01*
X122539Y49801D01*
X122655Y50002D01*
X122744Y50217D01*
X122804Y50441D01*
X122835Y50671D01*
Y50903D01*
X122804Y51134D01*
X122744Y51358D01*
X122655Y51573D01*
X122641Y51597D01*
Y52621D01*
X122628Y52827D01*
X122587Y53029D01*
X122521Y53225D01*
X122430Y53410D01*
X122315Y53582D01*
X122179Y53737D01*
X120469Y55447D01*
X120314Y55583D01*
X120142Y55698D01*
X119957Y55789D01*
X119762Y55855D01*
X119559Y55895D01*
X119353Y55909D01*
D02*
G37*
G36*
X140354Y56302D02*
X131299D01*
X131048Y56290D01*
X130799Y56253D01*
X130555Y56192D01*
X130319Y56107D01*
X130091Y56000D01*
X129876Y55870D01*
X129674Y55721D01*
X129488Y55552D01*
X129319Y55366D01*
X129169Y55164D01*
X129040Y54948D01*
X128932Y54721D01*
X128847Y54484D01*
X128786Y54240D01*
X128749Y53991D01*
X128737Y53740D01*
Y50197D01*
X128749Y49946D01*
X128786Y49697D01*
X128847Y49453D01*
X128932Y49216D01*
X129040Y48989D01*
X129169Y48773D01*
X129319Y48571D01*
X129488Y48385D01*
X129674Y48216D01*
X129876Y48066D01*
X130091Y47937D01*
X130319Y47830D01*
X130555Y47745D01*
X130799Y47684D01*
X131048Y47647D01*
X131299Y47635D01*
X140354D01*
X140605Y47647D01*
X140854Y47684D01*
X141098Y47745D01*
X141335Y47830D01*
X141562Y47937D01*
X141778Y48066D01*
X141980Y48216D01*
X142166Y48385D01*
X142335Y48571D01*
X142485Y48773D01*
X142614Y48989D01*
X142721Y49216D01*
X142806Y49453D01*
X142867Y49697D01*
X142904Y49946D01*
X142917Y50197D01*
Y53740D01*
X142904Y53991D01*
X142867Y54240D01*
X142806Y54484D01*
X142721Y54721D01*
X142614Y54948D01*
X142485Y55164D01*
X142335Y55366D01*
X142166Y55552D01*
X141980Y55721D01*
X141778Y55870D01*
X141562Y56000D01*
X141335Y56107D01*
X141098Y56192D01*
X140854Y56253D01*
X140605Y56290D01*
X140354Y56302D01*
D02*
G37*
G36*
X15748Y48468D02*
X10236D01*
X9971Y48453D01*
X9710Y48409D01*
X9455Y48335D01*
X9210Y48234D01*
X8978Y48106D01*
X8761Y47952D01*
X8563Y47775D01*
X8387Y47578D01*
X8233Y47361D01*
X8105Y47129D01*
X8003Y46884D01*
X7930Y46629D01*
X7885Y46367D01*
X7870Y46102D01*
Y42953D01*
X7885Y42688D01*
X7930Y42426D01*
X8003Y42171D01*
X8105Y41926D01*
X8233Y41694D01*
X8387Y41478D01*
X8563Y41280D01*
X8761Y41103D01*
X8978Y40949D01*
X9210Y40821D01*
X9455Y40720D01*
X9710Y40646D01*
X9971Y40602D01*
X10236Y40587D01*
X15748D01*
X16013Y40602D01*
X16274Y40646D01*
X16529Y40720D01*
X16775Y40821D01*
X17007Y40949D01*
X17223Y41103D01*
X17421Y41280D01*
X17598Y41478D01*
X17751Y41694D01*
X17880Y41926D01*
X17981Y42171D01*
X18055Y42426D01*
X18099Y42688D01*
X18114Y42953D01*
Y46102D01*
X18099Y46367D01*
X18055Y46629D01*
X17981Y46884D01*
X17880Y47129D01*
X17751Y47361D01*
X17598Y47578D01*
X17421Y47775D01*
X17223Y47952D01*
X17007Y48106D01*
X16775Y48234D01*
X16529Y48335D01*
X16274Y48409D01*
X16013Y48453D01*
X15748Y48468D01*
D02*
G37*
G36*
X130118Y46854D02*
X125000D01*
X124757Y46840D01*
X124517Y46799D01*
X124284Y46732D01*
X124059Y46639D01*
X123846Y46521D01*
X123648Y46381D01*
X123467Y46219D01*
X123304Y46037D01*
X123164Y45839D01*
X123046Y45626D01*
X122953Y45401D01*
X122886Y45168D01*
X122845Y44928D01*
X122831Y44685D01*
Y41929D01*
X122845Y41686D01*
X122886Y41447D01*
X122953Y41213D01*
X123046Y40988D01*
X123164Y40775D01*
X123304Y40577D01*
X123467Y40396D01*
X123648Y40233D01*
X123846Y40093D01*
X124059Y39975D01*
X124284Y39882D01*
X124517Y39815D01*
X124757Y39774D01*
X125000Y39760D01*
X130118D01*
X130361Y39774D01*
X130601Y39815D01*
X130834Y39882D01*
X131059Y39975D01*
X131272Y40093D01*
X131470Y40233D01*
X131652Y40396D01*
X131814Y40577D01*
X131955Y40775D01*
X132072Y40988D01*
X132165Y41213D01*
X132232Y41447D01*
X132273Y41686D01*
X132287Y41929D01*
Y44685D01*
X132273Y44928D01*
X132232Y45168D01*
X132165Y45401D01*
X132072Y45626D01*
X131955Y45839D01*
X131814Y46037D01*
X131652Y46219D01*
X131470Y46381D01*
X131272Y46521D01*
X131059Y46639D01*
X130834Y46732D01*
X130601Y46799D01*
X130361Y46840D01*
X130118Y46854D01*
D02*
G37*
G36*
X135972Y41339D02*
X135682D01*
X135393Y41310D01*
X135108Y41254D01*
X134831Y41169D01*
X134563Y41058D01*
X134307Y40922D01*
X134066Y40760D01*
X133841Y40576D01*
X133636Y40371D01*
X133452Y40147D01*
X133291Y39906D01*
X133154Y39650D01*
X133043Y39382D01*
X132959Y39104D01*
X132903Y38820D01*
X132874Y38531D01*
Y38241D01*
X132903Y37952D01*
X132959Y37668D01*
X133043Y37390D01*
X133154Y37122D01*
X133291Y36866D01*
X133452Y36625D01*
X133636Y36400D01*
X133841Y36195D01*
X134066Y36011D01*
X134307Y35850D01*
X134563Y35713D01*
X134831Y35602D01*
X135108Y35518D01*
X135393Y35462D01*
X135682Y35433D01*
X135972D01*
X136261Y35462D01*
X136545Y35518D01*
X136823Y35602D01*
X137091Y35713D01*
X137347Y35850D01*
X137588Y36011D01*
X137812Y36195D01*
X138017Y36400D01*
X138201Y36625D01*
X138363Y36866D01*
X138499Y37122D01*
X138610Y37390D01*
X138695Y37668D01*
X138751Y37952D01*
X138779Y38241D01*
Y38531D01*
X138751Y38820D01*
X138695Y39104D01*
X138610Y39382D01*
X138499Y39650D01*
X138363Y39906D01*
X138201Y40147D01*
X138017Y40371D01*
X137812Y40576D01*
X137588Y40760D01*
X137347Y40922D01*
X137091Y41058D01*
X136823Y41169D01*
X136545Y41254D01*
X136261Y41310D01*
X135972Y41339D01*
D02*
G37*
G36*
X61421Y33268D02*
X59606D01*
Y31295D01*
X60118D01*
X60273Y31311D01*
X60421Y31356D01*
X60558Y31429D01*
X60678Y31527D01*
X61189Y32039D01*
X61288Y32159D01*
X61361Y32296D01*
X61406Y32444D01*
X61421Y32598D01*
Y33268D01*
D02*
G37*
G36*
X41904Y38465D02*
X41560D01*
X41218Y38435D01*
X40879Y38375D01*
X40547Y38287D01*
X40224Y38169D01*
X39913Y38024D01*
X39615Y37852D01*
X39333Y37655D01*
X39070Y37434D01*
X38827Y37190D01*
X38606Y36927D01*
X38409Y36646D01*
X38237Y36348D01*
X38091Y36036D01*
X37974Y35713D01*
X37885Y35381D01*
X37825Y35043D01*
X37795Y34700D01*
Y34356D01*
X37825Y34014D01*
X37885Y33675D01*
X37974Y33343D01*
X38091Y33020D01*
X38237Y32709D01*
X38409Y32411D01*
X38606Y32129D01*
X38827Y31866D01*
X39070Y31623D01*
X39333Y31402D01*
X39615Y31205D01*
X39913Y31033D01*
X40224Y30887D01*
X40547Y30770D01*
X40879Y30681D01*
X41218Y30621D01*
X41560Y30591D01*
X41904D01*
X42247Y30621D01*
X42585Y30681D01*
X42917Y30770D01*
X43240Y30887D01*
X43552Y31033D01*
X43850Y31205D01*
X44131Y31402D01*
X44395Y31623D01*
X44638Y31866D01*
X44859Y32129D01*
X45056Y32411D01*
X45228Y32709D01*
X45373Y33020D01*
X45491Y33343D01*
X45580Y33675D01*
X45639Y34014D01*
X45669Y34356D01*
Y34700D01*
X45639Y35043D01*
X45580Y35381D01*
X45491Y35713D01*
X45373Y36036D01*
X45228Y36348D01*
X45056Y36646D01*
X44859Y36927D01*
X44638Y37190D01*
X44395Y37434D01*
X44131Y37655D01*
X43850Y37852D01*
X43552Y38024D01*
X43240Y38169D01*
X42917Y38287D01*
X42585Y38375D01*
X42247Y38435D01*
X41904Y38465D01*
D02*
G37*
G36*
X14173Y38468D02*
X11811D01*
X11468Y38453D01*
X11127Y38408D01*
X10791Y38334D01*
X10463Y38231D01*
X10146Y38099D01*
X9841Y37940D01*
X9551Y37756D01*
X9278Y37546D01*
X9025Y37314D01*
X8792Y37061D01*
X8583Y36788D01*
X8398Y36498D01*
X8240Y36193D01*
X8108Y35875D01*
X8004Y35548D01*
X7930Y35212D01*
X7885Y34871D01*
X7870Y34528D01*
X7885Y34184D01*
X7930Y33843D01*
X8004Y33508D01*
X8108Y33180D01*
X8240Y32862D01*
X8398Y32557D01*
X8583Y32267D01*
X8792Y31995D01*
X9025Y31741D01*
X9278Y31509D01*
X9551Y31299D01*
X9841Y31115D01*
X10146Y30956D01*
X10463Y30825D01*
X10791Y30721D01*
X11127Y30647D01*
X11468Y30602D01*
X11811Y30587D01*
X14173D01*
X14517Y30602D01*
X14857Y30647D01*
X15193Y30721D01*
X15521Y30825D01*
X15839Y30956D01*
X16144Y31115D01*
X16433Y31299D01*
X16706Y31509D01*
X16960Y31741D01*
X17192Y31995D01*
X17401Y32267D01*
X17586Y32557D01*
X17745Y32862D01*
X17876Y33180D01*
X17980Y33508D01*
X18054Y33843D01*
X18099Y34184D01*
X18114Y34528D01*
X18099Y34871D01*
X18054Y35212D01*
X17980Y35548D01*
X17876Y35875D01*
X17745Y36193D01*
X17586Y36498D01*
X17401Y36788D01*
X17192Y37061D01*
X16960Y37314D01*
X16706Y37546D01*
X16433Y37756D01*
X16144Y37940D01*
X15839Y38099D01*
X15521Y38231D01*
X15193Y38334D01*
X14857Y38408D01*
X14517Y38453D01*
X14173Y38468D01*
D02*
G37*
G36*
X128740Y37011D02*
X126378D01*
X126069Y36998D01*
X125762Y36957D01*
X125460Y36890D01*
X125165Y36797D01*
X124879Y36679D01*
X124605Y36536D01*
X124344Y36370D01*
X124098Y36182D01*
X123870Y35972D01*
X123661Y35744D01*
X123473Y35499D01*
X123306Y35238D01*
X123164Y34964D01*
X123045Y34678D01*
X122952Y34383D01*
X122885Y34080D01*
X122845Y33774D01*
X122831Y33465D01*
X122845Y33156D01*
X122885Y32849D01*
X122952Y32547D01*
X123045Y32252D01*
X123164Y31966D01*
X123306Y31691D01*
X123473Y31430D01*
X123661Y31185D01*
X123870Y30957D01*
X124098Y30748D01*
X124344Y30559D01*
X124605Y30393D01*
X124879Y30250D01*
X125165Y30132D01*
X125460Y30039D01*
X125762Y29972D01*
X126069Y29931D01*
X126292Y29922D01*
Y29133D01*
X126069Y29124D01*
X125762Y29083D01*
X125460Y29016D01*
X125165Y28923D01*
X124879Y28805D01*
X124605Y28662D01*
X124344Y28496D01*
X124098Y28308D01*
X123870Y28098D01*
X123661Y27870D01*
X123473Y27625D01*
X123306Y27364D01*
X123164Y27089D01*
X123045Y26804D01*
X122952Y26509D01*
X122885Y26206D01*
X122845Y25900D01*
X122831Y25591D01*
X122845Y25281D01*
X122885Y24975D01*
X122952Y24673D01*
X123045Y24377D01*
X123164Y24092D01*
X123306Y23817D01*
X123473Y23556D01*
X123661Y23311D01*
X123870Y23083D01*
X124098Y22874D01*
X124344Y22685D01*
X124605Y22519D01*
X124879Y22376D01*
X125165Y22258D01*
X125460Y22165D01*
X125762Y22098D01*
X126069Y22057D01*
X126378Y22044D01*
X128740D01*
X129049Y22057D01*
X129356Y22098D01*
X129658Y22165D01*
X129953Y22258D01*
X130239Y22376D01*
X130514Y22519D01*
X130774Y22685D01*
X131020Y22874D01*
X131248Y23083D01*
X131457Y23311D01*
X131645Y23556D01*
X131812Y23817D01*
X131955Y24092D01*
X132073Y24377D01*
X132166Y24673D01*
X132233Y24975D01*
X132273Y25281D01*
X132287Y25591D01*
X132273Y25900D01*
X132233Y26206D01*
X132166Y26509D01*
X132073Y26804D01*
X131955Y27089D01*
X131812Y27364D01*
X131645Y27625D01*
X131457Y27870D01*
X131248Y28098D01*
X131020Y28308D01*
X130774Y28496D01*
X130514Y28662D01*
X130239Y28805D01*
X129953Y28923D01*
X129658Y29016D01*
X129356Y29083D01*
X129049Y29124D01*
X128826Y29133D01*
Y29922D01*
X129049Y29931D01*
X129356Y29972D01*
X129658Y30039D01*
X129953Y30132D01*
X130239Y30250D01*
X130514Y30393D01*
X130774Y30559D01*
X131020Y30748D01*
X131248Y30957D01*
X131457Y31185D01*
X131645Y31430D01*
X131812Y31691D01*
X131955Y31966D01*
X132073Y32252D01*
X132166Y32547D01*
X132233Y32849D01*
X132273Y33156D01*
X132287Y33465D01*
X132273Y33774D01*
X132233Y34080D01*
X132166Y34383D01*
X132073Y34678D01*
X131955Y34964D01*
X131812Y35238D01*
X131645Y35499D01*
X131457Y35744D01*
X131248Y35972D01*
X131020Y36182D01*
X130774Y36370D01*
X130514Y36536D01*
X130239Y36679D01*
X129953Y36797D01*
X129658Y36890D01*
X129356Y36957D01*
X129049Y36998D01*
X128740Y37011D01*
D02*
G37*
G36*
X41904Y28465D02*
X41560D01*
X41218Y28435D01*
X40879Y28376D01*
X40547Y28287D01*
X40224Y28169D01*
X39913Y28024D01*
X39615Y27852D01*
X39333Y27655D01*
X39070Y27434D01*
X38827Y27191D01*
X38606Y26927D01*
X38409Y26646D01*
X38237Y26348D01*
X38091Y26036D01*
X37974Y25713D01*
X37885Y25381D01*
X37825Y25043D01*
X37795Y24700D01*
Y24356D01*
X37825Y24014D01*
X37885Y23675D01*
X37974Y23343D01*
X38091Y23020D01*
X38237Y22709D01*
X38409Y22411D01*
X38606Y22129D01*
X38827Y21866D01*
X39070Y21623D01*
X39333Y21402D01*
X39615Y21205D01*
X39913Y21033D01*
X40224Y20887D01*
X40547Y20770D01*
X40879Y20681D01*
X41218Y20621D01*
X41560Y20591D01*
X41904D01*
X42247Y20621D01*
X42585Y20681D01*
X42917Y20770D01*
X43240Y20887D01*
X43552Y21033D01*
X43850Y21205D01*
X44131Y21402D01*
X44395Y21623D01*
X44638Y21866D01*
X44859Y22129D01*
X45056Y22411D01*
X45228Y22709D01*
X45373Y23020D01*
X45491Y23343D01*
X45580Y23675D01*
X45639Y24014D01*
X45669Y24356D01*
Y24700D01*
X45639Y25043D01*
X45580Y25381D01*
X45491Y25713D01*
X45373Y26036D01*
X45228Y26348D01*
X45056Y26646D01*
X44859Y26927D01*
X44638Y27191D01*
X44395Y27434D01*
X44131Y27655D01*
X43850Y27852D01*
X43552Y28024D01*
X43240Y28169D01*
X42917Y28287D01*
X42585Y28376D01*
X42247Y28435D01*
X41904Y28465D01*
D02*
G37*
G36*
X14173Y28468D02*
X11811D01*
X11468Y28453D01*
X11127Y28408D01*
X10791Y28334D01*
X10463Y28231D01*
X10146Y28099D01*
X9841Y27940D01*
X9551Y27756D01*
X9278Y27546D01*
X9025Y27314D01*
X8792Y27061D01*
X8583Y26788D01*
X8398Y26498D01*
X8240Y26193D01*
X8108Y25875D01*
X8004Y25548D01*
X7930Y25212D01*
X7885Y24871D01*
X7870Y24528D01*
X7885Y24184D01*
X7930Y23843D01*
X8004Y23508D01*
X8108Y23180D01*
X8240Y22862D01*
X8398Y22557D01*
X8583Y22267D01*
X8792Y21994D01*
X9025Y21741D01*
X9278Y21509D01*
X9551Y21299D01*
X9841Y21115D01*
X10146Y20956D01*
X10463Y20824D01*
X10791Y20721D01*
X11127Y20647D01*
X11468Y20602D01*
X11811Y20587D01*
X14173D01*
X14517Y20602D01*
X14857Y20647D01*
X15193Y20721D01*
X15521Y20824D01*
X15839Y20956D01*
X16144Y21115D01*
X16433Y21299D01*
X16706Y21509D01*
X16960Y21741D01*
X17192Y21994D01*
X17401Y22267D01*
X17586Y22557D01*
X17745Y22862D01*
X17876Y23180D01*
X17980Y23508D01*
X18054Y23843D01*
X18099Y24184D01*
X18114Y24528D01*
X18099Y24871D01*
X18054Y25212D01*
X17980Y25548D01*
X17876Y25875D01*
X17745Y26193D01*
X17586Y26498D01*
X17401Y26788D01*
X17192Y27061D01*
X16960Y27314D01*
X16706Y27546D01*
X16433Y27756D01*
X16144Y27940D01*
X15839Y28099D01*
X15521Y28231D01*
X15193Y28334D01*
X14857Y28408D01*
X14517Y28453D01*
X14173Y28468D01*
D02*
G37*
G36*
X135972Y23622D02*
X135682D01*
X135393Y23594D01*
X135108Y23537D01*
X134831Y23453D01*
X134563Y23342D01*
X134307Y23205D01*
X134066Y23044D01*
X133841Y22860D01*
X133636Y22655D01*
X133452Y22430D01*
X133291Y22189D01*
X133154Y21933D01*
X133043Y21665D01*
X132959Y21388D01*
X132903Y21103D01*
X132874Y20814D01*
Y20524D01*
X132903Y20235D01*
X132959Y19951D01*
X133043Y19673D01*
X133154Y19405D01*
X133291Y19149D01*
X133452Y18908D01*
X133636Y18684D01*
X133841Y18479D01*
X134066Y18295D01*
X134307Y18134D01*
X134563Y17997D01*
X134831Y17886D01*
X135108Y17802D01*
X135393Y17745D01*
X135682Y17717D01*
X135972D01*
X136261Y17745D01*
X136545Y17802D01*
X136823Y17886D01*
X137091Y17997D01*
X137347Y18134D01*
X137588Y18295D01*
X137812Y18479D01*
X138017Y18684D01*
X138201Y18908D01*
X138363Y19149D01*
X138499Y19405D01*
X138610Y19673D01*
X138695Y19951D01*
X138751Y20235D01*
X138779Y20524D01*
Y20814D01*
X138751Y21103D01*
X138695Y21388D01*
X138610Y21665D01*
X138499Y21933D01*
X138363Y22189D01*
X138201Y22430D01*
X138017Y22655D01*
X137812Y22860D01*
X137588Y23044D01*
X137347Y23205D01*
X137091Y23342D01*
X136823Y23453D01*
X136545Y23537D01*
X136261Y23594D01*
X135972Y23622D01*
D02*
G37*
G36*
X128740Y19295D02*
X128346D01*
Y16535D01*
X132195D01*
X132166Y16666D01*
X132073Y16961D01*
X131955Y17247D01*
X131812Y17521D01*
X131645Y17782D01*
X131457Y18028D01*
X131248Y18256D01*
X131020Y18465D01*
X130774Y18653D01*
X130514Y18820D01*
X130239Y18962D01*
X129953Y19081D01*
X129658Y19174D01*
X129356Y19241D01*
X129049Y19281D01*
X128740Y19295D01*
D02*
G37*
G36*
X126772D02*
X126378D01*
X126069Y19281D01*
X125762Y19241D01*
X125460Y19174D01*
X125165Y19081D01*
X124879Y18962D01*
X124605Y18820D01*
X124344Y18653D01*
X124098Y18465D01*
X123870Y18256D01*
X123661Y18028D01*
X123473Y17782D01*
X123306Y17521D01*
X123164Y17247D01*
X123045Y16961D01*
X122952Y16666D01*
X122923Y16535D01*
X126772D01*
Y19295D01*
D02*
G37*
G36*
X14173Y18468D02*
X13780D01*
Y15315D01*
X18031D01*
X17980Y15548D01*
X17876Y15875D01*
X17745Y16193D01*
X17586Y16498D01*
X17401Y16788D01*
X17192Y17061D01*
X16960Y17314D01*
X16706Y17546D01*
X16433Y17756D01*
X16144Y17940D01*
X15839Y18099D01*
X15521Y18231D01*
X15193Y18334D01*
X14857Y18408D01*
X14517Y18453D01*
X14173Y18468D01*
D02*
G37*
G36*
X12205D02*
X11811D01*
X11468Y18453D01*
X11127Y18408D01*
X10791Y18334D01*
X10463Y18231D01*
X10146Y18099D01*
X9841Y17940D01*
X9551Y17756D01*
X9278Y17546D01*
X9025Y17314D01*
X8792Y17061D01*
X8583Y16788D01*
X8398Y16498D01*
X8240Y16193D01*
X8108Y15875D01*
X8004Y15548D01*
X7953Y15315D01*
X12205D01*
Y18468D01*
D02*
G37*
G36*
X132195Y14961D02*
X128346D01*
Y12201D01*
X128740D01*
X129049Y12215D01*
X129356Y12255D01*
X129658Y12322D01*
X129953Y12415D01*
X130239Y12534D01*
X130514Y12676D01*
X130774Y12843D01*
X131020Y13031D01*
X131248Y13240D01*
X131457Y13468D01*
X131645Y13714D01*
X131812Y13975D01*
X131955Y14249D01*
X132073Y14535D01*
X132166Y14830D01*
X132195Y14961D01*
D02*
G37*
G36*
X126772D02*
X122923D01*
X122952Y14830D01*
X123045Y14535D01*
X123164Y14249D01*
X123306Y13975D01*
X123473Y13714D01*
X123661Y13468D01*
X123870Y13240D01*
X124098Y13031D01*
X124344Y12843D01*
X124605Y12676D01*
X124879Y12534D01*
X125165Y12415D01*
X125460Y12322D01*
X125762Y12255D01*
X126069Y12215D01*
X126378Y12201D01*
X126772D01*
Y14961D01*
D02*
G37*
G36*
X41904Y18465D02*
X41560D01*
X41218Y18435D01*
X40879Y18375D01*
X40547Y18287D01*
X40224Y18169D01*
X39913Y18024D01*
X39615Y17852D01*
X39333Y17655D01*
X39070Y17434D01*
X38827Y17190D01*
X38606Y16927D01*
X38409Y16646D01*
X38237Y16348D01*
X38091Y16036D01*
X37974Y15713D01*
X37885Y15381D01*
X37825Y15043D01*
X37795Y14700D01*
Y14356D01*
X37825Y14014D01*
X37885Y13675D01*
X37974Y13343D01*
X38091Y13020D01*
X38237Y12709D01*
X38409Y12411D01*
X38606Y12129D01*
X38827Y11866D01*
X39070Y11623D01*
X39333Y11402D01*
X39615Y11205D01*
X39913Y11033D01*
X40224Y10887D01*
X40547Y10770D01*
X40879Y10681D01*
X41218Y10621D01*
X41560Y10591D01*
X41904D01*
X42247Y10621D01*
X42585Y10681D01*
X42917Y10770D01*
X43240Y10887D01*
X43552Y11033D01*
X43850Y11205D01*
X44131Y11402D01*
X44395Y11623D01*
X44638Y11866D01*
X44859Y12129D01*
X45056Y12411D01*
X45228Y12709D01*
X45373Y13020D01*
X45491Y13343D01*
X45580Y13675D01*
X45639Y14014D01*
X45669Y14356D01*
Y14700D01*
X45639Y15043D01*
X45580Y15381D01*
X45491Y15713D01*
X45373Y16036D01*
X45228Y16348D01*
X45056Y16646D01*
X44859Y16927D01*
X44638Y17190D01*
X44395Y17434D01*
X44131Y17655D01*
X43850Y17852D01*
X43552Y18024D01*
X43240Y18169D01*
X42917Y18287D01*
X42585Y18375D01*
X42247Y18435D01*
X41904Y18465D01*
D02*
G37*
G36*
X18031Y13740D02*
X13780D01*
Y10587D01*
X14173D01*
X14517Y10602D01*
X14857Y10647D01*
X15193Y10721D01*
X15521Y10825D01*
X15839Y10956D01*
X16144Y11115D01*
X16433Y11299D01*
X16706Y11509D01*
X16960Y11741D01*
X17192Y11994D01*
X17401Y12267D01*
X17586Y12557D01*
X17745Y12862D01*
X17876Y13180D01*
X17980Y13508D01*
X18031Y13740D01*
D02*
G37*
G36*
X12205D02*
X7953D01*
X8004Y13508D01*
X8108Y13180D01*
X8240Y12862D01*
X8398Y12557D01*
X8583Y12267D01*
X8792Y11994D01*
X9025Y11741D01*
X9278Y11509D01*
X9551Y11299D01*
X9841Y11115D01*
X10146Y10956D01*
X10463Y10825D01*
X10791Y10721D01*
X11127Y10647D01*
X11468Y10602D01*
X11811Y10587D01*
X12205D01*
Y13740D01*
D02*
G37*
G36*
X140354Y11420D02*
X131299D01*
X131048Y11408D01*
X130799Y11371D01*
X130555Y11310D01*
X130319Y11225D01*
X130091Y11118D01*
X129876Y10989D01*
X129674Y10839D01*
X129488Y10670D01*
X129319Y10484D01*
X129169Y10282D01*
X129040Y10066D01*
X128932Y9839D01*
X128847Y9602D01*
X128786Y9358D01*
X128749Y9109D01*
X128737Y8858D01*
Y5315D01*
X128749Y5064D01*
X128786Y4815D01*
X128847Y4571D01*
X128932Y4335D01*
X129040Y4107D01*
X129169Y3892D01*
X129319Y3690D01*
X129488Y3503D01*
X129674Y3334D01*
X129876Y3185D01*
X130091Y3055D01*
X130319Y2948D01*
X130555Y2863D01*
X130799Y2802D01*
X131048Y2765D01*
X131299Y2753D01*
X140354D01*
X140605Y2765D01*
X140854Y2802D01*
X141098Y2863D01*
X141335Y2948D01*
X141562Y3055D01*
X141778Y3185D01*
X141980Y3334D01*
X142166Y3503D01*
X142335Y3690D01*
X142485Y3892D01*
X142614Y4107D01*
X142721Y4335D01*
X142806Y4571D01*
X142867Y4815D01*
X142904Y5064D01*
X142917Y5315D01*
Y8858D01*
X142904Y9109D01*
X142867Y9358D01*
X142806Y9602D01*
X142721Y9839D01*
X142614Y10066D01*
X142485Y10282D01*
X142335Y10484D01*
X142166Y10670D01*
X141980Y10839D01*
X141778Y10989D01*
X141562Y11118D01*
X141335Y11225D01*
X141098Y11310D01*
X140854Y11371D01*
X140605Y11408D01*
X140354Y11420D01*
D02*
G37*
%LPD*%
D10*
X64764Y24016D02*
X67323Y21457D01*
X64764Y24016D02*
Y34646D01*
X56299Y43110D02*
X64764Y34646D01*
X67323Y17717D02*
Y21457D01*
X56299Y43110D02*
Y47244D01*
X54724Y48819D02*
X56299Y47244D01*
X30945Y50630D02*
X32677Y52362D01*
X35827D01*
X30945Y34528D02*
Y50630D01*
X28150Y4724D02*
X66339D01*
X23622Y9252D02*
Y22835D01*
Y9252D02*
X28150Y4724D01*
X23622Y22835D02*
X30945Y30158D01*
X66339Y4724D02*
X67126Y5512D01*
X70906D01*
X32677Y8465D02*
X61811D01*
X65158Y11811D02*
X70866D01*
X61811Y8465D02*
X65158Y11811D01*
X30945Y10197D02*
X32677Y8465D01*
X30945Y10197D02*
Y14528D01*
Y30158D02*
Y34528D01*
X67323Y17717D02*
X72835D01*
X57677D02*
X61063D01*
X91468Y11811D02*
X91929Y12272D01*
Y15551D01*
X77126Y11811D02*
X91468D01*
X96260Y16732D02*
X97244Y15748D01*
Y10433D02*
Y15748D01*
X92323Y5512D02*
X97244Y10433D01*
X91929Y15551D02*
X93110Y16732D01*
X77165Y5512D02*
X92323D01*
D43*
X48228Y34843D02*
Y38032D01*
X41732Y44528D02*
X48228Y38032D01*
Y34843D02*
X49213Y33858D01*
X51575D01*
X57480Y17913D02*
Y19685D01*
X59016Y21220D01*
Y24803D01*
X52756Y33858D02*
X53543Y33071D01*
X52756Y24803D02*
X53543Y25591D01*
Y33071D01*
X50906Y44267D02*
Y52494D01*
X52743Y54331D02*
X119353D01*
X42087Y52362D02*
X42218Y52494D01*
X50906D01*
X52743Y54331D01*
X51496Y13976D02*
X59842D01*
X50945Y14528D02*
X51496Y13976D01*
X57480Y14528D02*
Y17913D01*
X57677Y17717D01*
X119353Y54331D02*
X121063Y52621D01*
Y50787D02*
Y52621D01*
D45*
X12992Y14528D02*
D03*
Y34528D02*
D03*
Y24528D02*
D03*
D46*
Y44528D02*
D03*
D47*
X50945Y14528D02*
D03*
X30945D02*
D03*
Y34528D02*
D03*
X50945Y44528D02*
D03*
Y14528D02*
D03*
Y44528D02*
D03*
D48*
X41732Y34528D02*
D03*
Y24528D02*
D03*
Y14528D02*
D03*
D49*
Y44528D02*
D03*
D50*
X127559Y43307D02*
D03*
D51*
Y25591D02*
D03*
Y33465D02*
D03*
Y15748D02*
D03*
D52*
X135827Y7087D02*
D03*
Y51968D02*
D03*
D53*
X54724Y48819D02*
D03*
X59842Y13976D02*
D03*
X81496Y9646D02*
D03*
X104921Y27756D02*
D03*
X81496Y14567D02*
D03*
X69882Y48228D02*
D03*
X72835Y17717D02*
D03*
X100000Y10236D02*
D03*
X96260Y16732D02*
D03*
X93110D02*
D03*
X113779Y44685D02*
D03*
X121063Y50787D02*
D03*
X108071D02*
D03*
X104331Y47047D02*
D03*
X111024Y10236D02*
D03*
X93307Y50787D02*
D03*
D54*
X70906Y5512D02*
D03*
X70866Y11811D02*
D03*
X52756Y33858D02*
D03*
Y24803D02*
D03*
X35827Y52362D02*
D03*
D55*
X77165Y5512D02*
D03*
X77126Y11811D02*
D03*
X59016Y33858D02*
D03*
Y24803D02*
D03*
X42087Y52362D02*
D03*
D56*
X67323Y17717D02*
D03*
D57*
X61063D02*
D03*
M02*
