G04*
G04 #@! TF.GenerationSoftware,Altium Limited,Altium Designer,24.1.2 (44)*
G04*
G04 Layer_Color=16711680*
%FSLAX25Y25*%
%MOIN*%
G70*
G04*
G04 #@! TF.SameCoordinates,BDA9EC6A-9AC3-4E12-91BF-0EC6BD0774E5*
G04*
G04*
G04 #@! TF.FilePolarity,Positive*
G04*
G01*
G75*
%ADD10C,0.00787*%
%ADD60C,0.00394*%
D10*
X17717Y62598D02*
Y136614D01*
Y0D02*
Y59055D01*
X20515Y71259D02*
Y69685D01*
X21302Y68898D01*
X24450D01*
X25238Y69685D01*
Y71259D01*
X24450Y72046D01*
X21302D01*
X20515Y71259D01*
X25238Y73620D02*
X20515D01*
Y75982D01*
X21302Y76769D01*
X22876D01*
X23663Y75982D01*
Y73620D01*
X20515Y78343D02*
Y81492D01*
Y79918D01*
X25238D01*
X20515Y83066D02*
Y84641D01*
Y83853D01*
X25238D01*
Y83066D01*
Y84641D01*
X20515Y89363D02*
Y87789D01*
X21302Y87002D01*
X24450D01*
X25238Y87789D01*
Y89363D01*
X24450Y90151D01*
X21302D01*
X20515Y89363D01*
X25238Y91725D02*
X20515D01*
X25238Y94873D01*
X20515D01*
X25238Y96448D02*
X22089D01*
X20515Y98022D01*
X22089Y99596D01*
X25238D01*
X22876D01*
Y96448D01*
X20515Y101171D02*
X25238D01*
Y104319D01*
X20515Y110616D02*
X25238D01*
Y112978D01*
X24450Y113765D01*
X23663D01*
X22876Y112978D01*
Y110616D01*
Y112978D01*
X22089Y113765D01*
X21302D01*
X20515Y112978D01*
Y110616D01*
X25238Y115339D02*
X20515D01*
Y117701D01*
X21302Y118488D01*
X22876D01*
X23663Y117701D01*
Y115339D01*
Y116914D02*
X25238Y118488D01*
X20515Y123211D02*
Y120062D01*
X25238D01*
Y123211D01*
X22876Y120062D02*
Y121636D01*
X25238Y124785D02*
X22089D01*
X20515Y126359D01*
X22089Y127934D01*
X25238D01*
X22876D01*
Y124785D01*
X20515Y129508D02*
X25238D01*
X23663D01*
X20515Y132657D01*
X22876Y130295D01*
X25238Y132657D01*
X10672Y69291D02*
X13821D01*
X15395Y70866D01*
X13821Y72440D01*
X10672D01*
X13034Y74014D02*
Y77163D01*
X11459Y81886D02*
X10672Y81099D01*
Y79524D01*
X11459Y78737D01*
X12246D01*
X13034Y79524D01*
Y81099D01*
X13821Y81886D01*
X14608D01*
X15395Y81099D01*
Y79524D01*
X14608Y78737D01*
X11459Y86609D02*
X10672Y85821D01*
Y84247D01*
X11459Y83460D01*
X14608D01*
X15395Y84247D01*
Y85821D01*
X14608Y86609D01*
X10672Y90544D02*
Y88970D01*
X11459Y88183D01*
X14608D01*
X15395Y88970D01*
Y90544D01*
X14608Y91331D01*
X11459D01*
X10672Y90544D01*
X15395Y92906D02*
X10672D01*
Y95267D01*
X11459Y96054D01*
X13034D01*
X13821Y95267D01*
Y92906D01*
Y94480D02*
X15395Y96054D01*
X10672Y100777D02*
Y97629D01*
X15395D01*
Y100777D01*
X13034Y97629D02*
Y99203D01*
D60*
X157480Y0D02*
Y59055D01*
X0Y0D02*
Y59055D01*
Y0D02*
X157480D01*
X0Y59055D02*
X157480D01*
M02*
