G04*
G04 #@! TF.GenerationSoftware,Altium Limited,Altium Designer,24.1.2 (44)*
G04*
G04 Layer_Physical_Order=1*
G04 Layer_Color=25308*
%FSLAX25Y25*%
%MOIN*%
G70*
G04*
G04 #@! TF.SameCoordinates,BDA9EC6A-9AC3-4E12-91BF-0EC6BD0774E5*
G04*
G04*
G04 #@! TF.FilePolarity,Positive*
G04*
G01*
G75*
%ADD10C,0.00787*%
G04:AMPARAMS|DCode=13|XSize=70.87mil|YSize=62.99mil|CornerRadius=15.75mil|HoleSize=0mil|Usage=FLASHONLY|Rotation=270.000|XOffset=0mil|YOffset=0mil|HoleType=Round|Shape=RoundedRectangle|*
%AMROUNDEDRECTD13*
21,1,0.07087,0.03150,0,0,270.0*
21,1,0.03937,0.06299,0,0,270.0*
1,1,0.03150,-0.01575,-0.01968*
1,1,0.03150,-0.01575,0.01968*
1,1,0.03150,0.01575,0.01968*
1,1,0.03150,0.01575,-0.01968*
%
%ADD13ROUNDEDRECTD13*%
G04:AMPARAMS|DCode=14|XSize=31.5mil|YSize=35.43mil|CornerRadius=7.87mil|HoleSize=0mil|Usage=FLASHONLY|Rotation=0.000|XOffset=0mil|YOffset=0mil|HoleType=Round|Shape=RoundedRectangle|*
%AMROUNDEDRECTD14*
21,1,0.03150,0.01968,0,0,0.0*
21,1,0.01575,0.03543,0,0,0.0*
1,1,0.01575,0.00787,-0.00984*
1,1,0.01575,-0.00787,-0.00984*
1,1,0.01575,-0.00787,0.00984*
1,1,0.01575,0.00787,0.00984*
%
%ADD14ROUNDEDRECTD14*%
G04:AMPARAMS|DCode=15|XSize=15.75mil|YSize=59.06mil|CornerRadius=3.94mil|HoleSize=0mil|Usage=FLASHONLY|Rotation=180.000|XOffset=0mil|YOffset=0mil|HoleType=Round|Shape=RoundedRectangle|*
%AMROUNDEDRECTD15*
21,1,0.01575,0.05118,0,0,180.0*
21,1,0.00787,0.05906,0,0,180.0*
1,1,0.00787,-0.00394,0.02559*
1,1,0.00787,0.00394,0.02559*
1,1,0.00787,0.00394,-0.02559*
1,1,0.00787,-0.00394,-0.02559*
%
%ADD15ROUNDEDRECTD15*%
G04:AMPARAMS|DCode=16|XSize=35.43mil|YSize=31.5mil|CornerRadius=7.87mil|HoleSize=0mil|Usage=FLASHONLY|Rotation=270.000|XOffset=0mil|YOffset=0mil|HoleType=Round|Shape=RoundedRectangle|*
%AMROUNDEDRECTD16*
21,1,0.03543,0.01575,0,0,270.0*
21,1,0.01968,0.03150,0,0,270.0*
1,1,0.01575,-0.00787,-0.00984*
1,1,0.01575,-0.00787,0.00984*
1,1,0.01575,0.00787,0.00984*
1,1,0.01575,0.00787,-0.00984*
%
%ADD16ROUNDEDRECTD16*%
G04:AMPARAMS|DCode=17|XSize=35.43mil|YSize=31.5mil|CornerRadius=7.87mil|HoleSize=0mil|Usage=FLASHONLY|Rotation=180.000|XOffset=0mil|YOffset=0mil|HoleType=Round|Shape=RoundedRectangle|*
%AMROUNDEDRECTD17*
21,1,0.03543,0.01575,0,0,180.0*
21,1,0.01968,0.03150,0,0,180.0*
1,1,0.01575,-0.00984,0.00787*
1,1,0.01575,0.00984,0.00787*
1,1,0.01575,0.00984,-0.00787*
1,1,0.01575,-0.00984,-0.00787*
%
%ADD17ROUNDEDRECTD17*%
G04:AMPARAMS|DCode=18|XSize=39.37mil|YSize=31.5mil|CornerRadius=7.87mil|HoleSize=0mil|Usage=FLASHONLY|Rotation=90.000|XOffset=0mil|YOffset=0mil|HoleType=Round|Shape=RoundedRectangle|*
%AMROUNDEDRECTD18*
21,1,0.03937,0.01575,0,0,90.0*
21,1,0.02362,0.03150,0,0,90.0*
1,1,0.01575,0.00787,0.01181*
1,1,0.01575,0.00787,-0.01181*
1,1,0.01575,-0.00787,-0.01181*
1,1,0.01575,-0.00787,0.01181*
%
%ADD18ROUNDEDRECTD18*%
G04:AMPARAMS|DCode=19|XSize=39.37mil|YSize=31.5mil|CornerRadius=7.87mil|HoleSize=0mil|Usage=FLASHONLY|Rotation=0.000|XOffset=0mil|YOffset=0mil|HoleType=Round|Shape=RoundedRectangle|*
%AMROUNDEDRECTD19*
21,1,0.03937,0.01575,0,0,0.0*
21,1,0.02362,0.03150,0,0,0.0*
1,1,0.01575,0.01181,-0.00787*
1,1,0.01575,-0.01181,-0.00787*
1,1,0.01575,-0.01181,0.00787*
1,1,0.01575,0.01181,0.00787*
%
%ADD19ROUNDEDRECTD19*%
G04:AMPARAMS|DCode=20|XSize=23.62mil|YSize=39.37mil|CornerRadius=5.91mil|HoleSize=0mil|Usage=FLASHONLY|Rotation=90.000|XOffset=0mil|YOffset=0mil|HoleType=Round|Shape=RoundedRectangle|*
%AMROUNDEDRECTD20*
21,1,0.02362,0.02756,0,0,90.0*
21,1,0.01181,0.03937,0,0,90.0*
1,1,0.01181,0.01378,0.00591*
1,1,0.01181,0.01378,-0.00591*
1,1,0.01181,-0.01378,-0.00591*
1,1,0.01181,-0.01378,0.00591*
%
%ADD20ROUNDEDRECTD20*%
G04:AMPARAMS|DCode=21|XSize=31.5mil|YSize=35.43mil|CornerRadius=7.87mil|HoleSize=0mil|Usage=FLASHONLY|Rotation=90.000|XOffset=0mil|YOffset=0mil|HoleType=Round|Shape=RoundedRectangle|*
%AMROUNDEDRECTD21*
21,1,0.03150,0.01968,0,0,90.0*
21,1,0.01575,0.03543,0,0,90.0*
1,1,0.01575,0.00984,0.00787*
1,1,0.01575,0.00984,-0.00787*
1,1,0.01575,-0.00984,-0.00787*
1,1,0.01575,-0.00984,0.00787*
%
%ADD21ROUNDEDRECTD21*%
G04:AMPARAMS|DCode=22|XSize=31.5mil|YSize=27.56mil|CornerRadius=6.89mil|HoleSize=0mil|Usage=FLASHONLY|Rotation=90.000|XOffset=0mil|YOffset=0mil|HoleType=Round|Shape=RoundedRectangle|*
%AMROUNDEDRECTD22*
21,1,0.03150,0.01378,0,0,90.0*
21,1,0.01772,0.02756,0,0,90.0*
1,1,0.01378,0.00689,0.00886*
1,1,0.01378,0.00689,-0.00886*
1,1,0.01378,-0.00689,-0.00886*
1,1,0.01378,-0.00689,0.00886*
%
%ADD22ROUNDEDRECTD22*%
%ADD43C,0.01575*%
%ADD44C,0.01181*%
%ADD45C,0.06299*%
G04:AMPARAMS|DCode=46|XSize=62.99mil|YSize=62.99mil|CornerRadius=15.75mil|HoleSize=0mil|Usage=FLASHONLY|Rotation=0.000|XOffset=0mil|YOffset=0mil|HoleType=Round|Shape=RoundedRectangle|*
%AMROUNDEDRECTD46*
21,1,0.06299,0.03150,0,0,0.0*
21,1,0.03150,0.06299,0,0,0.0*
1,1,0.03150,0.01575,-0.01575*
1,1,0.03150,-0.01575,-0.01575*
1,1,0.03150,-0.01575,0.01575*
1,1,0.03150,0.01575,0.01575*
%
%ADD46ROUNDEDRECTD46*%
G04:AMPARAMS|DCode=47|XSize=47.24mil|YSize=55.12mil|CornerRadius=11.81mil|HoleSize=0mil|Usage=FLASHONLY|Rotation=0.000|XOffset=0mil|YOffset=0mil|HoleType=Round|Shape=RoundedRectangle|*
%AMROUNDEDRECTD47*
21,1,0.04724,0.03150,0,0,0.0*
21,1,0.02362,0.05512,0,0,0.0*
1,1,0.02362,0.01181,-0.01575*
1,1,0.02362,-0.01181,-0.01575*
1,1,0.02362,-0.01181,0.01575*
1,1,0.02362,0.01181,0.01575*
%
%ADD47ROUNDEDRECTD47*%
G04:AMPARAMS|DCode=48|XSize=55.12mil|YSize=78.74mil|CornerRadius=13.78mil|HoleSize=0mil|Usage=FLASHONLY|Rotation=90.000|XOffset=0mil|YOffset=0mil|HoleType=Round|Shape=RoundedRectangle|*
%AMROUNDEDRECTD48*
21,1,0.05512,0.05118,0,0,90.0*
21,1,0.02756,0.07874,0,0,90.0*
1,1,0.02756,0.02559,0.01378*
1,1,0.02756,0.02559,-0.01378*
1,1,0.02756,-0.02559,-0.01378*
1,1,0.02756,-0.02559,0.01378*
%
%ADD48ROUNDEDRECTD48*%
%ADD49O,0.07874X0.05512*%
G04:AMPARAMS|DCode=50|XSize=70.87mil|YSize=125.98mil|CornerRadius=17.72mil|HoleSize=0mil|Usage=FLASHONLY|Rotation=90.000|XOffset=0mil|YOffset=0mil|HoleType=Round|Shape=RoundedRectangle|*
%AMROUNDEDRECTD50*
21,1,0.07087,0.09055,0,0,90.0*
21,1,0.03543,0.12598,0,0,90.0*
1,1,0.03543,0.04528,0.01772*
1,1,0.03543,0.04528,-0.01772*
1,1,0.03543,-0.04528,-0.01772*
1,1,0.03543,-0.04528,0.01772*
%
%ADD50ROUNDEDRECTD50*%
%ADD51O,0.07874X0.06299*%
G04:AMPARAMS|DCode=52|XSize=62.99mil|YSize=78.74mil|CornerRadius=15.75mil|HoleSize=0mil|Usage=FLASHONLY|Rotation=270.000|XOffset=0mil|YOffset=0mil|HoleType=Round|Shape=RoundedRectangle|*
%AMROUNDEDRECTD52*
21,1,0.06299,0.04724,0,0,270.0*
21,1,0.03150,0.07874,0,0,270.0*
1,1,0.03150,-0.02362,-0.01575*
1,1,0.03150,-0.02362,0.01575*
1,1,0.03150,0.02362,0.01575*
1,1,0.03150,0.02362,-0.01575*
%
%ADD52ROUNDEDRECTD52*%
%ADD53C,0.01968*%
D10*
X99410Y25984D02*
X100098Y25295D01*
X71457Y34055D02*
X79528Y25984D01*
X99410D01*
X100098Y21260D02*
Y25295D01*
X71457Y43504D02*
X75197Y47244D01*
X75658Y48819D02*
X78347D01*
X75197Y48358D02*
X75658Y48819D01*
X75197Y47244D02*
Y48358D01*
X71457Y34055D02*
Y43504D01*
X73228Y47638D02*
Y52362D01*
X69095Y43504D02*
X73228Y47638D01*
Y52362D02*
X75394Y54528D01*
X69095Y20669D02*
Y43504D01*
X109055Y50787D02*
Y53543D01*
X108071Y54528D02*
X109055Y53543D01*
X75394Y54528D02*
X108071D01*
X115354Y50787D02*
X119882D01*
X83858Y15551D02*
X84646Y16339D01*
X83858Y13386D02*
Y15551D01*
X84646Y16339D02*
Y17717D01*
X69095Y20669D02*
X70866Y18898D01*
X87779Y48228D02*
X90158Y50607D01*
X86221Y48228D02*
X87779D01*
X90158Y50607D02*
Y50787D01*
X83268Y41339D02*
Y45276D01*
X86221Y48228D01*
X82087Y40157D02*
X83268Y41339D01*
X75984Y40157D02*
X82087D01*
X70866Y18898D02*
X75984D01*
X77165Y20079D02*
X83661D01*
X84842Y21260D01*
X87303D01*
X75984Y18898D02*
X77165Y20079D01*
X44882Y30315D02*
X50669Y24528D01*
X97441Y10039D02*
X100394Y7087D01*
X97441Y10039D02*
Y14567D01*
X100394Y7087D02*
X103543D01*
X109843Y10236D02*
X111811D01*
X109055Y9449D02*
X109843Y10236D01*
X109055Y7087D02*
Y9449D01*
X30315Y44291D02*
X39961D01*
X44882Y30315D02*
Y39370D01*
X39961Y44291D02*
X44882Y39370D01*
X30315Y44291D02*
Y48819D01*
X32087Y50591D01*
X64370D01*
X50669Y24528D02*
X50787D01*
X64370Y50591D02*
X66142Y48819D01*
X69685D01*
X50787Y14528D02*
X60394D01*
X60630Y14764D01*
X107776Y17544D02*
Y21260D01*
X105113Y16924D02*
Y21156D01*
X113681Y40945D02*
X124606D01*
X112795Y41831D02*
X113681Y40945D01*
X124606D02*
X126378Y39173D01*
X110335Y44094D02*
X112334D01*
X112795Y43633D01*
Y41831D02*
Y43633D01*
X105113Y21156D02*
X105217Y21260D01*
X104921Y16732D02*
X105113Y16924D01*
X107845Y16958D02*
X108071Y16732D01*
X107845Y16958D02*
Y17475D01*
X107776Y17544D02*
X107845Y17475D01*
X102756Y14173D02*
Y21161D01*
Y14173D02*
X103543Y13386D01*
X102657Y21260D02*
X102756Y21161D01*
X113976Y16732D02*
X114567Y16142D01*
X110335Y17194D02*
Y21260D01*
X110796Y16732D02*
X113976D01*
X110335Y17194D02*
X110796Y16732D01*
X114567Y13386D02*
Y16142D01*
X131102Y13386D02*
Y17126D01*
X124213Y24016D02*
Y34055D01*
Y24016D02*
X131102Y17126D01*
X124213Y34055D02*
X126378Y36220D01*
Y39173D01*
X103543Y13386D02*
X109055D01*
X72835Y7087D02*
X83858D01*
X69685Y10236D02*
X72835Y7087D01*
X125591D02*
X131102D01*
X114567D02*
X120079D01*
X122835Y10236D02*
X125129D01*
X120540D02*
X122835D01*
X125591Y10697D02*
Y13386D01*
X125129Y10236D02*
X125591Y10697D01*
X120079D02*
X120540Y10236D01*
X120079Y10697D02*
Y13386D01*
D13*
X75984Y40157D02*
D03*
Y18898D02*
D03*
D14*
X97441Y14567D02*
D03*
X93701Y5906D02*
D03*
X89961Y14567D02*
D03*
D15*
X102657Y44094D02*
D03*
X105217D02*
D03*
X100098D02*
D03*
X110335D02*
D03*
X107776D02*
D03*
X94980D02*
D03*
X97539D02*
D03*
X92421D02*
D03*
X105217Y21260D02*
D03*
X110335D02*
D03*
X107776D02*
D03*
X94980D02*
D03*
X97539D02*
D03*
X92421D02*
D03*
X102657D02*
D03*
X100098D02*
D03*
X89862Y44094D02*
D03*
X87303D02*
D03*
X89862Y21260D02*
D03*
X87303D02*
D03*
D16*
X115354Y50787D02*
D03*
X109055D02*
D03*
D17*
X103543Y7087D02*
D03*
Y13386D02*
D03*
X114567D02*
D03*
Y7087D02*
D03*
X109055D02*
D03*
Y13386D02*
D03*
X120079Y7087D02*
D03*
Y13386D02*
D03*
X131102D02*
D03*
Y7087D02*
D03*
X125591Y13386D02*
D03*
Y7087D02*
D03*
X83858D02*
D03*
Y13386D02*
D03*
D18*
X122835Y50787D02*
D03*
X129134D02*
D03*
X90158D02*
D03*
X83858D02*
D03*
X95669D02*
D03*
X101969D02*
D03*
D19*
X116142Y37795D02*
D03*
Y44094D02*
D03*
D20*
X130905Y26772D02*
D03*
Y30512D02*
D03*
Y23031D02*
D03*
X120276D02*
D03*
Y26772D02*
D03*
Y30512D02*
D03*
D21*
X130709Y40945D02*
D03*
X122047Y37205D02*
D03*
Y44685D02*
D03*
D22*
X78347Y48819D02*
D03*
X69685D02*
D03*
X78347Y10236D02*
D03*
X69685D02*
D03*
D43*
X30315Y34528D02*
X40394D01*
X93307Y9646D02*
Y14567D01*
X92421Y40098D02*
Y44094D01*
Y40098D02*
X92638Y39882D01*
Y32165D02*
Y39882D01*
X94980Y40098D02*
Y44094D01*
X94764Y33046D02*
Y39882D01*
X94980Y40098D01*
X94764Y33046D02*
X97298Y30512D01*
X96417Y28386D02*
X112362D01*
X92638Y32165D02*
X96417Y28386D01*
X97298Y30512D02*
X120276D01*
X117717Y23031D02*
X120276D01*
X112362Y28386D02*
X117717Y23031D01*
X117717Y26772D02*
X120276D01*
X116732Y27756D02*
X117717Y26772D01*
X89961Y14567D02*
X93307D01*
X93307Y14567D01*
X81693Y48228D02*
X83858Y50394D01*
Y50787D01*
X132874D02*
X135827D01*
X129134D02*
X132874D01*
X138386Y44291D02*
Y48228D01*
X135827Y50787D02*
X138386Y48228D01*
Y44291D02*
X139370Y43307D01*
X69291Y14567D02*
X71063D01*
X75454Y10176D01*
X77756D01*
X86597Y10253D02*
X90945Y5906D01*
X78363Y10253D02*
X86597D01*
X77833D02*
X78330D01*
X77756Y10176D02*
X77833Y10253D01*
X119488Y44685D02*
X122047D01*
X116142Y44094D02*
X118898D01*
X119488Y44685D01*
X116142Y37795D02*
X118898D01*
X99606D02*
X116142D01*
X118898D02*
X119488Y37205D01*
X122047D01*
X65945Y11159D02*
X66867Y10236D01*
X64528Y44528D02*
X65945Y43110D01*
X66867Y10236D02*
X69685D01*
X65945Y11159D02*
Y43110D01*
X60394Y44528D02*
X64528D01*
X60394Y35787D02*
Y44528D01*
X50787Y34528D02*
X59134D01*
X60394Y35787D01*
X90945Y5906D02*
X93701D01*
X125591Y44685D02*
X125591Y44685D01*
X122047Y44685D02*
X125591D01*
X122047Y44685D02*
X122047Y44685D01*
X97539Y39862D02*
X99606Y37795D01*
X127694Y26772D02*
X130554D01*
X126772Y27694D02*
X127694Y26772D01*
X126772Y32874D02*
X130709Y36811D01*
X126772Y27694D02*
Y32874D01*
X130709Y36811D02*
Y40945D01*
Y45276D01*
X97539Y39862D02*
Y44094D01*
Y48917D01*
X101969Y50787D02*
X105118D01*
X100098Y44094D02*
Y48917D01*
X116142Y43898D02*
Y44094D01*
X122047Y44685D02*
Y47244D01*
X122835Y48031D01*
Y50787D01*
X90158D02*
X95669D01*
X100098Y48917D02*
X101969Y50787D01*
X95669D02*
X97539Y48917D01*
X129134Y46850D02*
Y50787D01*
Y46850D02*
X130709Y45276D01*
X119882Y50787D02*
X122835D01*
X116142Y44094D02*
Y47047D01*
X40394Y14528D02*
Y21417D01*
X37205Y24606D02*
X40394Y21417D01*
X30315Y24606D02*
X37205D01*
D44*
X137402Y33465D02*
X139370D01*
X130905Y30512D02*
X134449D01*
X137402Y33465D01*
X134252Y23031D02*
X135982Y24762D01*
X138541D01*
X130905Y23031D02*
X134252D01*
X138541Y24762D02*
X139370Y25591D01*
D45*
X50787Y14528D02*
D03*
Y24528D02*
D03*
Y34528D02*
D03*
D46*
Y44528D02*
D03*
D47*
X60394D02*
D03*
X40394Y34528D02*
D03*
Y14528D02*
D03*
X60394D02*
D03*
Y44528D02*
D03*
Y14528D02*
D03*
D48*
X139370Y43307D02*
D03*
D49*
Y25591D02*
D03*
Y33465D02*
D03*
Y15748D02*
D03*
D50*
X147638Y7087D02*
D03*
Y51968D02*
D03*
D51*
X30315Y24606D02*
D03*
Y14764D02*
D03*
Y34449D02*
D03*
D52*
Y44291D02*
D03*
D53*
X93307Y9646D02*
D03*
X116732Y27756D02*
D03*
X93307Y14567D02*
D03*
X81693Y48228D02*
D03*
X84646Y17717D02*
D03*
X69291Y14567D02*
D03*
X111811Y10236D02*
D03*
X66142Y48819D02*
D03*
X108071Y16732D02*
D03*
X104921D02*
D03*
X125591Y44685D02*
D03*
X132874Y50787D02*
D03*
X119882D02*
D03*
X116142Y47047D02*
D03*
X122835Y10236D02*
D03*
X105118Y50787D02*
D03*
M02*
