G04*
G04 #@! TF.GenerationSoftware,Altium Limited,Altium Designer,24.1.2 (44)*
G04*
G04 Layer_Color=8150272*
%FSLAX25Y25*%
%MOIN*%
G70*
G04*
G04 #@! TF.SameCoordinates,F92D160F-36B7-4296-8853-D53E9937D76D*
G04*
G04*
G04 #@! TF.FilePolarity,Negative*
G04*
G01*
G75*
%ADD34O,0.08976X0.06614*%
G04:AMPARAMS|DCode=35|XSize=66.14mil|YSize=89.76mil|CornerRadius=17.32mil|HoleSize=0mil|Usage=FLASHONLY|Rotation=270.000|XOffset=0mil|YOffset=0mil|HoleType=Round|Shape=RoundedRectangle|*
%AMROUNDEDRECTD35*
21,1,0.06614,0.05512,0,0,270.0*
21,1,0.03150,0.08976,0,0,270.0*
1,1,0.03465,-0.02756,-0.01575*
1,1,0.03465,-0.02756,0.01575*
1,1,0.03465,0.02756,0.01575*
1,1,0.03465,0.02756,-0.01575*
%
%ADD35ROUNDEDRECTD35*%
G04:AMPARAMS|DCode=36|XSize=50.39mil|YSize=58.27mil|CornerRadius=13.39mil|HoleSize=0mil|Usage=FLASHONLY|Rotation=0.000|XOffset=0mil|YOffset=0mil|HoleType=Round|Shape=RoundedRectangle|*
%AMROUNDEDRECTD36*
21,1,0.05039,0.03150,0,0,0.0*
21,1,0.02362,0.05827,0,0,0.0*
1,1,0.02677,0.01181,-0.01575*
1,1,0.02677,-0.01181,-0.01575*
1,1,0.02677,-0.01181,0.01575*
1,1,0.02677,0.01181,0.01575*
%
%ADD36ROUNDEDRECTD36*%
%ADD37C,0.06614*%
G04:AMPARAMS|DCode=38|XSize=66.14mil|YSize=66.14mil|CornerRadius=17.32mil|HoleSize=0mil|Usage=FLASHONLY|Rotation=0.000|XOffset=0mil|YOffset=0mil|HoleType=Round|Shape=RoundedRectangle|*
%AMROUNDEDRECTD38*
21,1,0.06614,0.03150,0,0,0.0*
21,1,0.03150,0.06614,0,0,0.0*
1,1,0.03465,0.01575,-0.01575*
1,1,0.03465,-0.01575,-0.01575*
1,1,0.03465,-0.01575,0.01575*
1,1,0.03465,0.01575,0.01575*
%
%ADD38ROUNDEDRECTD38*%
%ADD39C,0.05118*%
G04:AMPARAMS|DCode=40|XSize=58.27mil|YSize=81.89mil|CornerRadius=15.35mil|HoleSize=0mil|Usage=FLASHONLY|Rotation=90.000|XOffset=0mil|YOffset=0mil|HoleType=Round|Shape=RoundedRectangle|*
%AMROUNDEDRECTD40*
21,1,0.05827,0.05118,0,0,90.0*
21,1,0.02756,0.08189,0,0,90.0*
1,1,0.03071,0.02559,0.01378*
1,1,0.03071,0.02559,-0.01378*
1,1,0.03071,-0.02559,-0.01378*
1,1,0.03071,-0.02559,0.01378*
%
%ADD40ROUNDEDRECTD40*%
%ADD41O,0.08189X0.05827*%
G04:AMPARAMS|DCode=42|XSize=74.02mil|YSize=129.13mil|CornerRadius=19.29mil|HoleSize=0mil|Usage=FLASHONLY|Rotation=90.000|XOffset=0mil|YOffset=0mil|HoleType=Round|Shape=RoundedRectangle|*
%AMROUNDEDRECTD42*
21,1,0.07402,0.09055,0,0,90.0*
21,1,0.03543,0.12913,0,0,90.0*
1,1,0.03858,0.04528,0.01772*
1,1,0.03858,0.04528,-0.01772*
1,1,0.03858,-0.04528,-0.01772*
1,1,0.03858,-0.04528,0.01772*
%
%ADD42ROUNDEDRECTD42*%
%ADD58R,0.02402X0.03937*%
G36*
X68445Y19684D02*
X68464Y19682D01*
X68492Y19673D01*
X68501Y19671D01*
X68535Y19653D01*
X68550Y19640D01*
X68565Y19628D01*
X68565Y19628D01*
X69037Y19156D01*
X69062Y19126D01*
X69080Y19091D01*
X69083Y19083D01*
X69092Y19054D01*
X69094Y19035D01*
X69095Y19016D01*
X69095Y19016D01*
Y16417D01*
X69095Y16417D01*
X69094Y16398D01*
X69092Y16379D01*
X69083Y16350D01*
X69080Y16342D01*
X69062Y16307D01*
X69050Y16292D01*
X69037Y16277D01*
X69037Y16277D01*
X68565Y15805D01*
X68535Y15780D01*
X68501Y15762D01*
X68492Y15759D01*
X68464Y15751D01*
X68445Y15749D01*
X68425Y15747D01*
X68425Y15747D01*
X63543D01*
X63505Y15751D01*
X63468Y15762D01*
X63433Y15780D01*
X63403Y15805D01*
X63379Y15835D01*
X63361Y15869D01*
X63349Y15906D01*
X63345Y15945D01*
Y16220D01*
X63347Y16238D01*
X63349Y16256D01*
X63349Y16258D01*
X63349Y16259D01*
X63354Y16276D01*
X63359Y16293D01*
X63360Y16295D01*
X63361Y16296D01*
X63369Y16312D01*
X63377Y16328D01*
X63378Y16329D01*
X63379Y16330D01*
X63390Y16344D01*
X63401Y16358D01*
X63402Y16359D01*
X63403Y16360D01*
X63417Y16372D01*
X63431Y16383D01*
X64881Y17387D01*
Y18046D01*
X63431Y19050D01*
X63417Y19061D01*
X63403Y19073D01*
X63402Y19074D01*
X63401Y19075D01*
X63390Y19089D01*
X63379Y19103D01*
X63378Y19104D01*
X63377Y19105D01*
X63369Y19121D01*
X63361Y19137D01*
X63360Y19139D01*
X63359Y19140D01*
X63354Y19157D01*
X63349Y19174D01*
X63349Y19176D01*
X63349Y19177D01*
X63347Y19195D01*
X63345Y19213D01*
Y19488D01*
X63349Y19527D01*
X63361Y19564D01*
X63379Y19598D01*
X63403Y19628D01*
X63433Y19653D01*
X63468Y19671D01*
X63505Y19682D01*
X63543Y19686D01*
X68425D01*
X68425Y19686D01*
X68445Y19684D01*
D02*
G37*
G36*
X59961Y19686D02*
X62913D01*
X62952Y19682D01*
X62989Y19671D01*
X63023Y19653D01*
X63053Y19628D01*
X63078Y19598D01*
X63096Y19564D01*
X63107Y19527D01*
X63111Y19488D01*
Y18962D01*
X64561Y17958D01*
X64575Y17946D01*
X64589Y17935D01*
X64590Y17934D01*
X64591Y17933D01*
X64602Y17919D01*
X64613Y17905D01*
X64614Y17904D01*
X64615Y17902D01*
X64623Y17887D01*
X64632Y17871D01*
X64632Y17869D01*
X64633Y17868D01*
X64638Y17851D01*
X64643Y17834D01*
X64643Y17832D01*
X64643Y17831D01*
X64645Y17813D01*
X64647Y17795D01*
Y17638D01*
X64645Y17620D01*
X64643Y17602D01*
X64643Y17601D01*
X64643Y17599D01*
X64638Y17582D01*
X64633Y17565D01*
X64632Y17564D01*
X64632Y17562D01*
X64623Y17547D01*
X64615Y17531D01*
X64614Y17529D01*
X64613Y17528D01*
X64602Y17514D01*
X64591Y17500D01*
X64590Y17499D01*
X64589Y17498D01*
X64575Y17487D01*
X64561Y17475D01*
X63111Y16471D01*
Y15945D01*
X63107Y15906D01*
X63096Y15869D01*
X63078Y15835D01*
X63053Y15805D01*
X63023Y15780D01*
X62989Y15762D01*
X62952Y15751D01*
X62913Y15747D01*
X59961D01*
X59961Y15747D01*
X59922Y15751D01*
X59885Y15762D01*
X59851Y15780D01*
X59834Y15794D01*
X59821Y15805D01*
X59821Y15805D01*
X59309Y16317D01*
X59284Y16347D01*
X59266Y16381D01*
X59263Y16390D01*
X59255Y16418D01*
X59253Y16437D01*
X59251Y16457D01*
X59251Y16457D01*
Y18976D01*
X59255Y19015D01*
X59263Y19043D01*
X59266Y19052D01*
X59284Y19086D01*
X59309Y19116D01*
X59309Y19116D01*
X59821Y19628D01*
X59821Y19628D01*
X59834Y19639D01*
X59851Y19653D01*
X59885Y19671D01*
X59922Y19682D01*
X59926Y19682D01*
X59961Y19686D01*
X59961Y19686D01*
D02*
G37*
G36*
X78267Y13777D02*
X78304Y13765D01*
X78338Y13747D01*
X78355Y13734D01*
X78368Y13723D01*
X78368Y13723D01*
X78880Y13211D01*
X78905Y13181D01*
X78923Y13147D01*
X78926Y13138D01*
X78934Y13110D01*
X78936Y13090D01*
X78938Y13071D01*
X78938Y13071D01*
Y10551D01*
X78934Y10513D01*
X78926Y10484D01*
X78923Y10475D01*
X78905Y10441D01*
X78880Y10411D01*
X78880Y10411D01*
X78368Y9900D01*
X78368Y9900D01*
X78355Y9888D01*
X78338Y9875D01*
X78304Y9857D01*
X78267Y9845D01*
X78263Y9845D01*
X78228Y9842D01*
X78228Y9842D01*
X75276D01*
X75237Y9845D01*
X75200Y9857D01*
X75166Y9875D01*
X75136Y9900D01*
X75111Y9929D01*
X75093Y9964D01*
X75082Y10001D01*
X75078Y10039D01*
Y10566D01*
X73628Y11570D01*
X73614Y11581D01*
X73600Y11592D01*
X73599Y11594D01*
X73598Y11595D01*
X73587Y11609D01*
X73576Y11622D01*
X73575Y11624D01*
X73574Y11625D01*
X73566Y11641D01*
X73557Y11657D01*
X73557Y11658D01*
X73556Y11660D01*
X73551Y11677D01*
X73546Y11694D01*
X73546Y11695D01*
X73545Y11697D01*
X73544Y11715D01*
X73542Y11732D01*
Y11890D01*
X73544Y11908D01*
X73546Y11925D01*
X73546Y11927D01*
X73546Y11928D01*
X73551Y11945D01*
X73556Y11962D01*
X73557Y11964D01*
X73557Y11965D01*
X73566Y11981D01*
X73574Y11997D01*
X73575Y11998D01*
X73576Y12000D01*
X73587Y12014D01*
X73598Y12027D01*
X73599Y12028D01*
X73600Y12030D01*
X73614Y12041D01*
X73628Y12052D01*
X75078Y13056D01*
Y13583D01*
X75082Y13621D01*
X75093Y13658D01*
X75111Y13693D01*
X75136Y13723D01*
X75166Y13747D01*
X75200Y13765D01*
X75237Y13777D01*
X75276Y13780D01*
X78228D01*
X78228Y13780D01*
X78267Y13777D01*
D02*
G37*
G36*
X69764Y13780D02*
X74646D01*
X74684Y13777D01*
X74721Y13765D01*
X74756Y13747D01*
X74786Y13723D01*
X74810Y13693D01*
X74828Y13658D01*
X74840Y13621D01*
X74844Y13583D01*
Y13307D01*
X74842Y13289D01*
X74840Y13272D01*
X74840Y13270D01*
X74840Y13269D01*
X74835Y13251D01*
X74830Y13234D01*
X74829Y13233D01*
X74828Y13231D01*
X74820Y13216D01*
X74812Y13200D01*
X74811Y13199D01*
X74810Y13197D01*
X74799Y13183D01*
X74788Y13170D01*
X74787Y13169D01*
X74786Y13167D01*
X74772Y13156D01*
X74758Y13145D01*
X73308Y12140D01*
Y11482D01*
X74758Y10478D01*
X74772Y10466D01*
X74786Y10455D01*
X74787Y10454D01*
X74788Y10452D01*
X74799Y10439D01*
X74810Y10425D01*
X74811Y10423D01*
X74812Y10422D01*
X74820Y10406D01*
X74828Y10391D01*
X74829Y10389D01*
X74830Y10388D01*
X74835Y10370D01*
X74840Y10353D01*
X74840Y10352D01*
X74840Y10350D01*
X74842Y10332D01*
X74844Y10315D01*
Y10039D01*
X74840Y10001D01*
X74828Y9964D01*
X74810Y9929D01*
X74786Y9900D01*
X74756Y9875D01*
X74721Y9857D01*
X74684Y9845D01*
X74646Y9842D01*
X69764D01*
X69764Y9842D01*
X69744Y9843D01*
X69725Y9845D01*
X69697Y9854D01*
X69688Y9857D01*
X69654Y9875D01*
X69639Y9887D01*
X69624Y9900D01*
X69624Y9900D01*
X69152Y10372D01*
X69127Y10402D01*
X69109Y10436D01*
X69106Y10445D01*
X69097Y10473D01*
X69095Y10492D01*
X69094Y10512D01*
X69094Y10512D01*
Y13110D01*
X69094Y13110D01*
X69095Y13129D01*
X69097Y13149D01*
X69106Y13177D01*
X69109Y13186D01*
X69127Y13220D01*
X69139Y13235D01*
X69152Y13250D01*
X69152Y13250D01*
X69624Y13723D01*
X69654Y13747D01*
X69688Y13765D01*
X69697Y13768D01*
X69725Y13777D01*
X69744Y13779D01*
X69764Y13780D01*
X69764Y13780D01*
D02*
G37*
G36*
X78306Y7478D02*
X78343Y7466D01*
X78378Y7448D01*
X78394Y7434D01*
X78408Y7423D01*
X78408Y7423D01*
X78919Y6911D01*
X78944Y6882D01*
X78962Y6847D01*
X78965Y6839D01*
X78974Y6810D01*
X78975Y6791D01*
X78977Y6772D01*
X78977Y6772D01*
Y4252D01*
X78974Y4213D01*
X78965Y4185D01*
X78962Y4176D01*
X78944Y4142D01*
X78919Y4112D01*
X78919Y4112D01*
X78408Y3600D01*
X78408Y3600D01*
X78394Y3589D01*
X78378Y3576D01*
X78343Y3557D01*
X78306Y3546D01*
X78303Y3546D01*
X78268Y3542D01*
X78268Y3542D01*
X75315D01*
X75276Y3546D01*
X75239Y3557D01*
X75205Y3576D01*
X75175Y3600D01*
X75151Y3630D01*
X75132Y3664D01*
X75121Y3702D01*
X75117Y3740D01*
Y4266D01*
X73667Y5270D01*
X73653Y5282D01*
X73640Y5293D01*
X73639Y5294D01*
X73637Y5296D01*
X73626Y5309D01*
X73615Y5323D01*
X73614Y5325D01*
X73613Y5326D01*
X73605Y5342D01*
X73597Y5357D01*
X73596Y5359D01*
X73596Y5360D01*
X73591Y5378D01*
X73585Y5395D01*
X73585Y5396D01*
X73585Y5398D01*
X73584Y5416D01*
X73582Y5433D01*
Y5591D01*
X73584Y5608D01*
X73585Y5626D01*
X73585Y5627D01*
X73585Y5629D01*
X73591Y5646D01*
X73596Y5663D01*
X73596Y5665D01*
X73597Y5666D01*
X73605Y5682D01*
X73613Y5698D01*
X73614Y5699D01*
X73615Y5700D01*
X73626Y5714D01*
X73637Y5728D01*
X73639Y5729D01*
X73640Y5730D01*
X73654Y5742D01*
X73667Y5753D01*
X75117Y6757D01*
Y7283D01*
X75121Y7322D01*
X75132Y7359D01*
X75151Y7393D01*
X75175Y7423D01*
X75205Y7448D01*
X75239Y7466D01*
X75276Y7478D01*
X75315Y7481D01*
X78268D01*
X78268Y7481D01*
X78306Y7478D01*
D02*
G37*
G36*
X69803Y7481D02*
X74685D01*
X74724Y7478D01*
X74761Y7466D01*
X74795Y7448D01*
X74825Y7423D01*
X74849Y7393D01*
X74868Y7359D01*
X74879Y7322D01*
X74883Y7283D01*
Y7008D01*
X74881Y6990D01*
X74880Y6972D01*
X74879Y6971D01*
X74879Y6969D01*
X74874Y6952D01*
X74869Y6935D01*
X74868Y6934D01*
X74868Y6932D01*
X74859Y6917D01*
X74851Y6901D01*
X74850Y6899D01*
X74849Y6898D01*
X74838Y6884D01*
X74827Y6870D01*
X74826Y6869D01*
X74825Y6868D01*
X74811Y6857D01*
X74798Y6845D01*
X73347Y5841D01*
Y5182D01*
X74798Y4178D01*
X74811Y4167D01*
X74825Y4156D01*
X74826Y4154D01*
X74827Y4153D01*
X74838Y4139D01*
X74849Y4126D01*
X74850Y4124D01*
X74851Y4123D01*
X74859Y4107D01*
X74868Y4091D01*
X74868Y4090D01*
X74869Y4088D01*
X74874Y4071D01*
X74879Y4054D01*
X74879Y4053D01*
X74880Y4051D01*
X74881Y4033D01*
X74883Y4016D01*
Y3740D01*
X74879Y3702D01*
X74868Y3664D01*
X74849Y3630D01*
X74825Y3600D01*
X74795Y3576D01*
X74761Y3557D01*
X74724Y3546D01*
X74685Y3542D01*
X69803D01*
X69803Y3542D01*
X69784Y3544D01*
X69765Y3546D01*
X69736Y3555D01*
X69727Y3557D01*
X69693Y3576D01*
X69678Y3588D01*
X69663Y3600D01*
X69663Y3600D01*
X69191Y4073D01*
X69166Y4103D01*
X69148Y4137D01*
X69145Y4146D01*
X69137Y4174D01*
X69135Y4193D01*
X69133Y4213D01*
X69133Y4213D01*
Y6811D01*
X69133Y6811D01*
X69135Y6830D01*
X69137Y6850D01*
X69145Y6878D01*
X69148Y6887D01*
X69166Y6921D01*
X69178Y6936D01*
X69191Y6951D01*
X69191Y6951D01*
X69663Y7423D01*
X69693Y7448D01*
X69727Y7466D01*
X69736Y7469D01*
X69765Y7478D01*
X69784Y7479D01*
X69803Y7481D01*
X69803Y7481D01*
D02*
G37*
G36*
X43228Y54328D02*
X43265Y54317D01*
X43299Y54298D01*
X43315Y54285D01*
X43329Y54274D01*
X43329Y54274D01*
X43841Y53762D01*
X43865Y53732D01*
X43883Y53698D01*
X43886Y53689D01*
X43895Y53661D01*
X43897Y53641D01*
X43899Y53622D01*
X43899Y53622D01*
Y51102D01*
X43895Y51064D01*
X43886Y51035D01*
X43883Y51027D01*
X43865Y50993D01*
X43841Y50963D01*
X43841Y50962D01*
X43329Y50451D01*
X43329Y50451D01*
X43315Y50440D01*
X43299Y50426D01*
X43265Y50408D01*
X43228Y50397D01*
X43224Y50396D01*
X43189Y50393D01*
X43189Y50393D01*
X40236D01*
X40198Y50397D01*
X40161Y50408D01*
X40126Y50426D01*
X40096Y50451D01*
X40072Y50481D01*
X40053Y50515D01*
X40042Y50552D01*
X40038Y50591D01*
Y51117D01*
X38588Y52121D01*
X38575Y52132D01*
X38561Y52144D01*
X38560Y52145D01*
X38559Y52146D01*
X38548Y52160D01*
X38536Y52174D01*
X38536Y52175D01*
X38535Y52176D01*
X38526Y52192D01*
X38518Y52208D01*
X38518Y52209D01*
X38517Y52211D01*
X38512Y52228D01*
X38507Y52245D01*
X38507Y52246D01*
X38506Y52248D01*
X38505Y52266D01*
X38503Y52284D01*
Y52441D01*
X38505Y52459D01*
X38506Y52476D01*
X38507Y52478D01*
X38507Y52479D01*
X38512Y52497D01*
X38517Y52514D01*
X38518Y52515D01*
X38518Y52517D01*
X38526Y52532D01*
X38535Y52548D01*
X38536Y52549D01*
X38536Y52551D01*
X38548Y52565D01*
X38559Y52579D01*
X38560Y52579D01*
X38561Y52581D01*
X38575Y52592D01*
X38588Y52604D01*
X40038Y53608D01*
Y54134D01*
X40042Y54172D01*
X40053Y54210D01*
X40072Y54244D01*
X40096Y54274D01*
X40126Y54298D01*
X40161Y54317D01*
X40198Y54328D01*
X40236Y54332D01*
X43189D01*
X43189Y54332D01*
X43228Y54328D01*
D02*
G37*
G36*
X34725Y54332D02*
X39606D01*
X39645Y54328D01*
X39682Y54317D01*
X39716Y54298D01*
X39746Y54274D01*
X39771Y54244D01*
X39789Y54210D01*
X39800Y54172D01*
X39804Y54134D01*
Y53858D01*
X39802Y53841D01*
X39801Y53823D01*
X39801Y53821D01*
X39800Y53820D01*
X39795Y53803D01*
X39790Y53786D01*
X39790Y53784D01*
X39789Y53783D01*
X39781Y53767D01*
X39773Y53751D01*
X39772Y53750D01*
X39771Y53748D01*
X39759Y53735D01*
X39748Y53721D01*
X39747Y53720D01*
X39746Y53718D01*
X39732Y53707D01*
X39719Y53696D01*
X38269Y52692D01*
Y52033D01*
X39719Y51029D01*
X39733Y51017D01*
X39746Y51006D01*
X39747Y51005D01*
X39748Y51004D01*
X39759Y50990D01*
X39771Y50976D01*
X39772Y50975D01*
X39773Y50973D01*
X39781Y50958D01*
X39789Y50942D01*
X39790Y50940D01*
X39790Y50939D01*
X39795Y50922D01*
X39800Y50905D01*
X39801Y50903D01*
X39801Y50902D01*
X39802Y50884D01*
X39804Y50866D01*
Y50591D01*
X39800Y50552D01*
X39789Y50515D01*
X39771Y50481D01*
X39746Y50451D01*
X39716Y50426D01*
X39682Y50408D01*
X39645Y50397D01*
X39606Y50393D01*
X34725D01*
X34724Y50393D01*
X34705Y50395D01*
X34686Y50397D01*
X34657Y50405D01*
X34649Y50408D01*
X34615Y50426D01*
X34600Y50438D01*
X34585Y50451D01*
X34585Y50451D01*
X34112Y50923D01*
X34087Y50953D01*
X34069Y50987D01*
X34067Y50996D01*
X34058Y51024D01*
X34056Y51044D01*
X34054Y51063D01*
X34054Y51063D01*
Y53661D01*
X34054Y53661D01*
X34056Y53681D01*
X34058Y53700D01*
X34067Y53728D01*
X34069Y53737D01*
X34087Y53771D01*
X34100Y53786D01*
X34112Y53801D01*
X34112Y53801D01*
X34585Y54274D01*
X34615Y54298D01*
X34649Y54317D01*
X34657Y54319D01*
X34686Y54328D01*
X34705Y54330D01*
X34724Y54332D01*
X34725Y54332D01*
D02*
G37*
G36*
X60157Y35824D02*
X60194Y35813D01*
X60228Y35794D01*
X60245Y35781D01*
X60258Y35770D01*
X60258Y35770D01*
X60770Y35258D01*
X60794Y35228D01*
X60813Y35194D01*
X60815Y35185D01*
X60824Y35157D01*
X60826Y35137D01*
X60828Y35118D01*
X60828Y35118D01*
Y32598D01*
X60824Y32560D01*
X60815Y32531D01*
X60813Y32523D01*
X60794Y32489D01*
X60770Y32459D01*
X60770Y32458D01*
X60258Y31947D01*
X60258Y31947D01*
X60245Y31936D01*
X60228Y31922D01*
X60194Y31904D01*
X60157Y31893D01*
X60153Y31892D01*
X60118Y31889D01*
X60118Y31889D01*
X57165D01*
X57127Y31893D01*
X57090Y31904D01*
X57055Y31922D01*
X57025Y31947D01*
X57001Y31977D01*
X56983Y32011D01*
X56971Y32048D01*
X56968Y32087D01*
Y32613D01*
X55517Y33617D01*
X55504Y33628D01*
X55490Y33640D01*
X55489Y33641D01*
X55488Y33642D01*
X55477Y33656D01*
X55466Y33670D01*
X55465Y33671D01*
X55464Y33672D01*
X55456Y33688D01*
X55447Y33704D01*
X55447Y33705D01*
X55446Y33707D01*
X55441Y33724D01*
X55436Y33741D01*
X55436Y33742D01*
X55435Y33744D01*
X55434Y33762D01*
X55432Y33779D01*
Y33937D01*
X55434Y33955D01*
X55435Y33972D01*
X55436Y33974D01*
X55436Y33976D01*
X55441Y33993D01*
X55446Y34010D01*
X55447Y34011D01*
X55447Y34013D01*
X55455Y34028D01*
X55464Y34044D01*
X55465Y34045D01*
X55466Y34047D01*
X55477Y34061D01*
X55488Y34075D01*
X55489Y34076D01*
X55490Y34077D01*
X55504Y34088D01*
X55517Y34100D01*
X56968Y35104D01*
Y35630D01*
X56971Y35669D01*
X56983Y35706D01*
X57001Y35740D01*
X57025Y35770D01*
X57055Y35794D01*
X57090Y35813D01*
X57127Y35824D01*
X57165Y35828D01*
X60118D01*
X60118Y35828D01*
X60157Y35824D01*
D02*
G37*
G36*
X51654Y35828D02*
X56535D01*
X56574Y35824D01*
X56611Y35813D01*
X56645Y35794D01*
X56675Y35770D01*
X56700Y35740D01*
X56718Y35706D01*
X56729Y35669D01*
X56733Y35630D01*
Y35354D01*
X56731Y35337D01*
X56730Y35319D01*
X56730Y35317D01*
X56729Y35316D01*
X56724Y35299D01*
X56719Y35282D01*
X56719Y35280D01*
X56718Y35279D01*
X56710Y35263D01*
X56702Y35247D01*
X56701Y35246D01*
X56700Y35244D01*
X56689Y35231D01*
X56678Y35217D01*
X56676Y35216D01*
X56675Y35214D01*
X56661Y35203D01*
X56648Y35192D01*
X55198Y34188D01*
Y33529D01*
X56648Y32525D01*
X56662Y32513D01*
X56675Y32502D01*
X56676Y32501D01*
X56678Y32500D01*
X56689Y32486D01*
X56700Y32472D01*
X56701Y32471D01*
X56702Y32469D01*
X56710Y32454D01*
X56718Y32438D01*
X56719Y32436D01*
X56719Y32435D01*
X56724Y32418D01*
X56729Y32401D01*
X56730Y32399D01*
X56730Y32398D01*
X56731Y32380D01*
X56733Y32362D01*
Y32087D01*
X56729Y32048D01*
X56718Y32011D01*
X56700Y31977D01*
X56675Y31947D01*
X56645Y31922D01*
X56611Y31904D01*
X56574Y31893D01*
X56535Y31889D01*
X51654D01*
X51653Y31889D01*
X51634Y31891D01*
X51615Y31893D01*
X51587Y31901D01*
X51578Y31904D01*
X51544Y31922D01*
X51529Y31934D01*
X51514Y31947D01*
X51514Y31947D01*
X51041Y32419D01*
X51017Y32449D01*
X50998Y32483D01*
X50996Y32492D01*
X50987Y32520D01*
X50985Y32540D01*
X50983Y32559D01*
X50983Y32559D01*
Y35157D01*
X50983Y35157D01*
X50985Y35177D01*
X50987Y35196D01*
X50996Y35225D01*
X50998Y35233D01*
X51017Y35267D01*
X51029Y35282D01*
X51041Y35297D01*
X51041Y35297D01*
X51514Y35770D01*
X51544Y35794D01*
X51578Y35813D01*
X51587Y35815D01*
X51615Y35824D01*
X51634Y35826D01*
X51653Y35828D01*
X51654Y35828D01*
D02*
G37*
G36*
X60157Y26769D02*
X60194Y26757D01*
X60228Y26739D01*
X60245Y26726D01*
X60258Y26715D01*
X60258Y26715D01*
X60770Y26203D01*
X60794Y26173D01*
X60813Y26139D01*
X60815Y26130D01*
X60824Y26102D01*
X60826Y26082D01*
X60828Y26063D01*
X60828Y26063D01*
Y23543D01*
X60824Y23505D01*
X60815Y23476D01*
X60813Y23468D01*
X60794Y23433D01*
X60770Y23403D01*
X60770Y23403D01*
X60258Y22892D01*
X60258Y22892D01*
X60245Y22881D01*
X60228Y22867D01*
X60194Y22849D01*
X60157Y22838D01*
X60153Y22837D01*
X60118Y22834D01*
X60118Y22834D01*
X57165D01*
X57127Y22838D01*
X57090Y22849D01*
X57055Y22867D01*
X57025Y22892D01*
X57001Y22922D01*
X56983Y22956D01*
X56971Y22993D01*
X56968Y23031D01*
Y23558D01*
X55517Y24562D01*
X55504Y24573D01*
X55490Y24585D01*
X55489Y24586D01*
X55488Y24587D01*
X55477Y24601D01*
X55466Y24614D01*
X55465Y24616D01*
X55464Y24617D01*
X55456Y24633D01*
X55447Y24649D01*
X55447Y24650D01*
X55446Y24652D01*
X55441Y24669D01*
X55436Y24686D01*
X55436Y24687D01*
X55435Y24689D01*
X55434Y24707D01*
X55432Y24724D01*
Y24882D01*
X55434Y24900D01*
X55435Y24917D01*
X55436Y24919D01*
X55436Y24920D01*
X55441Y24938D01*
X55446Y24955D01*
X55447Y24956D01*
X55447Y24958D01*
X55455Y24973D01*
X55464Y24989D01*
X55465Y24990D01*
X55466Y24992D01*
X55477Y25006D01*
X55488Y25019D01*
X55489Y25021D01*
X55490Y25022D01*
X55504Y25033D01*
X55517Y25045D01*
X56968Y26048D01*
Y26575D01*
X56971Y26613D01*
X56983Y26651D01*
X57001Y26685D01*
X57025Y26715D01*
X57055Y26739D01*
X57090Y26757D01*
X57127Y26769D01*
X57165Y26773D01*
X60118D01*
X60118Y26773D01*
X60157Y26769D01*
D02*
G37*
G36*
X51654Y26773D02*
X56535D01*
X56574Y26769D01*
X56611Y26757D01*
X56645Y26739D01*
X56675Y26715D01*
X56700Y26685D01*
X56718Y26651D01*
X56729Y26613D01*
X56733Y26575D01*
Y26299D01*
X56731Y26281D01*
X56730Y26264D01*
X56730Y26262D01*
X56729Y26261D01*
X56724Y26244D01*
X56719Y26226D01*
X56719Y26225D01*
X56718Y26223D01*
X56710Y26208D01*
X56702Y26192D01*
X56701Y26191D01*
X56700Y26189D01*
X56689Y26175D01*
X56678Y26162D01*
X56676Y26161D01*
X56675Y26159D01*
X56661Y26148D01*
X56648Y26137D01*
X55198Y25133D01*
Y24474D01*
X56648Y23470D01*
X56662Y23458D01*
X56675Y23447D01*
X56676Y23446D01*
X56678Y23445D01*
X56689Y23431D01*
X56700Y23417D01*
X56701Y23415D01*
X56702Y23414D01*
X56710Y23399D01*
X56718Y23383D01*
X56719Y23381D01*
X56719Y23380D01*
X56724Y23363D01*
X56729Y23346D01*
X56730Y23344D01*
X56730Y23343D01*
X56731Y23325D01*
X56733Y23307D01*
Y23031D01*
X56729Y22993D01*
X56718Y22956D01*
X56700Y22922D01*
X56675Y22892D01*
X56645Y22867D01*
X56611Y22849D01*
X56574Y22838D01*
X56535Y22834D01*
X51654D01*
X51653Y22834D01*
X51634Y22836D01*
X51615Y22838D01*
X51587Y22846D01*
X51578Y22849D01*
X51544Y22867D01*
X51529Y22879D01*
X51514Y22892D01*
X51514Y22892D01*
X51041Y23364D01*
X51017Y23394D01*
X50998Y23428D01*
X50996Y23437D01*
X50987Y23465D01*
X50985Y23485D01*
X50983Y23504D01*
X50983Y23504D01*
Y26102D01*
X50983Y26102D01*
X50985Y26122D01*
X50987Y26141D01*
X50996Y26169D01*
X50998Y26178D01*
X51017Y26212D01*
X51029Y26227D01*
X51041Y26242D01*
X51041Y26242D01*
X51514Y26715D01*
X51544Y26739D01*
X51578Y26757D01*
X51587Y26760D01*
X51615Y26769D01*
X51634Y26771D01*
X51653Y26773D01*
X51654Y26773D01*
D02*
G37*
D34*
X12992Y14528D02*
D03*
Y34528D02*
D03*
Y24528D02*
D03*
D35*
Y44528D02*
D03*
D36*
X50945Y14528D02*
D03*
X30945D02*
D03*
Y34528D02*
D03*
X50945Y44528D02*
D03*
Y14528D02*
D03*
Y44528D02*
D03*
D37*
X41732Y34528D02*
D03*
Y24528D02*
D03*
Y14528D02*
D03*
D38*
Y44528D02*
D03*
D39*
X135827Y38386D02*
D03*
Y20669D02*
D03*
D40*
X127559Y43307D02*
D03*
D41*
Y25591D02*
D03*
Y33465D02*
D03*
Y15748D02*
D03*
D42*
X135827Y7087D02*
D03*
Y51968D02*
D03*
D58*
X74232Y5512D02*
D03*
X74193Y11811D02*
D03*
X63996Y17717D02*
D03*
X56083Y33858D02*
D03*
Y24803D02*
D03*
X39154Y52362D02*
D03*
M02*
