M48
;Layer_Color=6321
;FILE_FORMAT=2:5
INCH,TZ
;TYPE=PLATED
T01F00S00C0.01181
T02F00S00C0.02756
T03F00S00C0.03937
;TYPE=NON_PLATED
T05F00S00C0.04331
%
T01
X73425Y10236
X90945Y14567
X107087Y10039
X120866Y10236
X121850Y26772
X120079Y41535
X117913Y50787
X110433
X103150
X114173Y47047
X130905Y50787
X84842
T02
X40394Y14528
Y34528
X60394Y44528
Y14528
T03
X30315Y14764
Y24606
Y34449
Y44291
X50787Y44528
Y34528
Y24528
Y14528
X137402Y15748
Y25591
Y33465
Y43307
T05
X145669Y20669
Y38386
M30
