M48
;Layer_Color=6321
;FILE_FORMAT=2:5
INCH,TZ
;TYPE=PLATED
T01F00S00C0.01181
T02F00S00C0.02756
T03F00S00C0.03937
;TYPE=NON_PLATED
T05F00S00C0.04331
%
T01
X57284Y14567
X71260Y17323
Y9449
X72441Y28346
X65354Y24606
X81890Y24016
X86417Y17354
X89567Y16929
X92520Y15354
X96457Y24803
X91339Y29921
X101575
X109252Y27559
X115354Y24409
X116929Y3347
X104724
X96457Y35039
X89567Y45079
X89764Y50591
X81890Y53347
X77953Y40354
X101969Y53347
X107283Y51968
X118898Y48425
X128740Y55709
T02
X30945Y14528
Y34528
X50945Y44528
Y14528
T03
X12992Y14528
Y24528
Y34528
Y44528
X41732Y44528
Y34528
Y24528
Y14528
X131496Y15748
Y25591
Y33465
Y43307
T05
X139764Y20669
Y38386
M30
