G04*
G04 #@! TF.GenerationSoftware,Altium Limited,Altium Designer,24.1.2 (44)*
G04*
G04 Layer_Color=8150272*
%FSLAX25Y25*%
%MOIN*%
G70*
G04*
G04 #@! TF.SameCoordinates,91A06C09-3FF3-49E1-B81E-27C0F3F2092E*
G04*
G04*
G04 #@! TF.FilePolarity,Negative*
G04*
G01*
G75*
%ADD48C,0.08661*%
G04:AMPARAMS|DCode=49|XSize=74.02mil|YSize=129.13mil|CornerRadius=19.29mil|HoleSize=0mil|Usage=FLASHONLY|Rotation=270.000|XOffset=0mil|YOffset=0mil|HoleType=Round|Shape=RoundedRectangle|*
%AMROUNDEDRECTD49*
21,1,0.07402,0.09055,0,0,270.0*
21,1,0.03543,0.12913,0,0,270.0*
1,1,0.03858,-0.04528,-0.01772*
1,1,0.03858,-0.04528,0.01772*
1,1,0.03858,0.04528,0.01772*
1,1,0.03858,0.04528,-0.01772*
%
%ADD49ROUNDEDRECTD49*%
%ADD50O,0.08189X0.05827*%
G04:AMPARAMS|DCode=51|XSize=58.27mil|YSize=81.89mil|CornerRadius=15.35mil|HoleSize=0mil|Usage=FLASHONLY|Rotation=90.000|XOffset=0mil|YOffset=0mil|HoleType=Round|Shape=RoundedRectangle|*
%AMROUNDEDRECTD51*
21,1,0.05827,0.05118,0,0,90.0*
21,1,0.02756,0.08189,0,0,90.0*
1,1,0.03071,0.02559,0.01378*
1,1,0.03071,0.02559,-0.01378*
1,1,0.03071,-0.02559,-0.01378*
1,1,0.03071,-0.02559,0.01378*
%
%ADD51ROUNDEDRECTD51*%
%ADD52C,0.05118*%
%ADD53O,0.08189X0.06614*%
G04:AMPARAMS|DCode=54|XSize=66.14mil|YSize=81.89mil|CornerRadius=17.32mil|HoleSize=0mil|Usage=FLASHONLY|Rotation=270.000|XOffset=0mil|YOffset=0mil|HoleType=Round|Shape=RoundedRectangle|*
%AMROUNDEDRECTD54*
21,1,0.06614,0.04724,0,0,270.0*
21,1,0.03150,0.08189,0,0,270.0*
1,1,0.03465,-0.02362,-0.01575*
1,1,0.03465,-0.02362,0.01575*
1,1,0.03465,0.02362,0.01575*
1,1,0.03465,0.02362,-0.01575*
%
%ADD54ROUNDEDRECTD54*%
G04:AMPARAMS|DCode=55|XSize=50.39mil|YSize=58.27mil|CornerRadius=13.39mil|HoleSize=0mil|Usage=FLASHONLY|Rotation=0.000|XOffset=0mil|YOffset=0mil|HoleType=Round|Shape=RoundedRectangle|*
%AMROUNDEDRECTD55*
21,1,0.05039,0.03150,0,0,0.0*
21,1,0.02362,0.05827,0,0,0.0*
1,1,0.02677,0.01181,-0.01575*
1,1,0.02677,-0.01181,-0.01575*
1,1,0.02677,-0.01181,0.01575*
1,1,0.02677,0.01181,0.01575*
%
%ADD55ROUNDEDRECTD55*%
%ADD56R,0.02402X0.03937*%
G36*
X220393Y310233D02*
X220430Y310222D01*
X220464Y310204D01*
X220481Y310190D01*
X220494Y310179D01*
X220494Y310179D01*
X221006Y309667D01*
X221031Y309638D01*
X221049Y309603D01*
X221052Y309595D01*
X221060Y309566D01*
X221062Y309547D01*
X221064Y309528D01*
X221064Y309528D01*
Y307008D01*
X221060Y306969D01*
X221052Y306941D01*
X221049Y306932D01*
X221031Y306898D01*
X221006Y306868D01*
X221006Y306868D01*
X220494Y306356D01*
X220494Y306356D01*
X220481Y306345D01*
X220464Y306332D01*
X220430Y306313D01*
X220393Y306302D01*
X220390Y306302D01*
X220354Y306298D01*
X220354Y306298D01*
X217402D01*
X217363Y306302D01*
X217326Y306313D01*
X217292Y306332D01*
X217262Y306356D01*
X217237Y306386D01*
X217219Y306420D01*
X217208Y306458D01*
X217204Y306496D01*
Y307022D01*
X215754Y308027D01*
X215740Y308038D01*
X215726Y308049D01*
X215725Y308050D01*
X215724Y308051D01*
X215713Y308065D01*
X215702Y308079D01*
X215701Y308081D01*
X215700Y308082D01*
X215692Y308098D01*
X215684Y308113D01*
X215683Y308115D01*
X215682Y308116D01*
X215677Y308134D01*
X215672Y308151D01*
X215672Y308152D01*
X215672Y308154D01*
X215670Y308172D01*
X215668Y308189D01*
Y308347D01*
X215670Y308364D01*
X215672Y308382D01*
X215672Y308383D01*
X215672Y308385D01*
X215677Y308402D01*
X215682Y308419D01*
X215683Y308421D01*
X215684Y308422D01*
X215692Y308438D01*
X215700Y308454D01*
X215701Y308455D01*
X215702Y308456D01*
X215713Y308470D01*
X215724Y308484D01*
X215725Y308485D01*
X215726Y308486D01*
X215740Y308498D01*
X215754Y308509D01*
X217204Y309513D01*
Y310039D01*
X217208Y310078D01*
X217219Y310115D01*
X217237Y310149D01*
X217262Y310179D01*
X217292Y310204D01*
X217326Y310222D01*
X217363Y310233D01*
X217402Y310237D01*
X220354D01*
X220354Y310237D01*
X220393Y310233D01*
D02*
G37*
G36*
X211890Y310237D02*
X216772D01*
X216810Y310233D01*
X216847Y310222D01*
X216882Y310204D01*
X216912Y310179D01*
X216936Y310149D01*
X216954Y310115D01*
X216966Y310078D01*
X216969Y310039D01*
Y309764D01*
X216968Y309746D01*
X216966Y309729D01*
X216966Y309727D01*
X216966Y309725D01*
X216961Y309708D01*
X216956Y309691D01*
X216955Y309690D01*
X216954Y309688D01*
X216946Y309673D01*
X216938Y309657D01*
X216937Y309655D01*
X216936Y309654D01*
X216925Y309640D01*
X216914Y309626D01*
X216913Y309625D01*
X216912Y309624D01*
X216898Y309613D01*
X216884Y309601D01*
X215434Y308597D01*
Y307938D01*
X216884Y306934D01*
X216898Y306923D01*
X216912Y306912D01*
X216913Y306910D01*
X216914Y306909D01*
X216925Y306895D01*
X216936Y306882D01*
X216937Y306880D01*
X216938Y306879D01*
X216946Y306863D01*
X216954Y306847D01*
X216955Y306846D01*
X216956Y306844D01*
X216961Y306827D01*
X216966Y306810D01*
X216966Y306809D01*
X216966Y306807D01*
X216968Y306789D01*
X216969Y306772D01*
Y306496D01*
X216966Y306458D01*
X216954Y306420D01*
X216936Y306386D01*
X216912Y306356D01*
X216882Y306332D01*
X216847Y306313D01*
X216810Y306302D01*
X216772Y306298D01*
X211890D01*
X211890Y306298D01*
X211871Y306300D01*
X211851Y306302D01*
X211823Y306311D01*
X211814Y306313D01*
X211780Y306332D01*
X211765Y306344D01*
X211750Y306356D01*
X211750Y306356D01*
X211278Y306829D01*
X211253Y306859D01*
X211235Y306893D01*
X211232Y306902D01*
X211223Y306930D01*
X211222Y306949D01*
X211220Y306969D01*
X211220Y306969D01*
Y309567D01*
X211220Y309567D01*
X211222Y309586D01*
X211223Y309606D01*
X211232Y309634D01*
X211235Y309643D01*
X211253Y309677D01*
X211265Y309692D01*
X211278Y309707D01*
X211278Y309707D01*
X211750Y310179D01*
X211780Y310204D01*
X211814Y310222D01*
X211823Y310225D01*
X211851Y310233D01*
X211871Y310235D01*
X211890Y310237D01*
X211890Y310237D01*
D02*
G37*
G36*
X55039Y310233D02*
X55076Y310222D01*
X55110Y310204D01*
X55126Y310190D01*
X55140Y310179D01*
X55140Y310179D01*
X55652Y309667D01*
X55676Y309638D01*
X55695Y309603D01*
X55697Y309595D01*
X55706Y309566D01*
X55708Y309547D01*
X55710Y309528D01*
X55710Y309528D01*
Y307008D01*
X55706Y306969D01*
X55697Y306941D01*
X55695Y306932D01*
X55676Y306898D01*
X55652Y306868D01*
X55652Y306868D01*
X55140Y306356D01*
X55140Y306356D01*
X55126Y306345D01*
X55110Y306332D01*
X55076Y306313D01*
X55039Y306302D01*
X55035Y306302D01*
X55000Y306298D01*
X55000Y306298D01*
X52047D01*
X52009Y306302D01*
X51972Y306313D01*
X51937Y306332D01*
X51907Y306356D01*
X51883Y306386D01*
X51864Y306420D01*
X51853Y306458D01*
X51850Y306496D01*
Y307022D01*
X50399Y308027D01*
X50386Y308038D01*
X50372Y308049D01*
X50371Y308050D01*
X50370Y308051D01*
X50359Y308065D01*
X50347Y308079D01*
X50347Y308081D01*
X50346Y308082D01*
X50337Y308098D01*
X50329Y308113D01*
X50329Y308115D01*
X50328Y308116D01*
X50323Y308134D01*
X50318Y308151D01*
X50318Y308152D01*
X50317Y308154D01*
X50316Y308172D01*
X50314Y308189D01*
Y308347D01*
X50316Y308364D01*
X50317Y308382D01*
X50318Y308383D01*
X50318Y308385D01*
X50323Y308402D01*
X50328Y308419D01*
X50329Y308421D01*
X50329Y308422D01*
X50337Y308438D01*
X50346Y308454D01*
X50347Y308455D01*
X50347Y308456D01*
X50359Y308470D01*
X50370Y308484D01*
X50371Y308485D01*
X50372Y308486D01*
X50386Y308498D01*
X50399Y308509D01*
X51850Y309513D01*
Y310039D01*
X51853Y310078D01*
X51864Y310115D01*
X51883Y310149D01*
X51907Y310179D01*
X51937Y310204D01*
X51972Y310222D01*
X52009Y310233D01*
X52047Y310237D01*
X55000D01*
X55000Y310237D01*
X55039Y310233D01*
D02*
G37*
G36*
X46536Y310237D02*
X51417D01*
X51456Y310233D01*
X51493Y310222D01*
X51527Y310204D01*
X51557Y310179D01*
X51582Y310149D01*
X51600Y310115D01*
X51611Y310078D01*
X51615Y310039D01*
Y309764D01*
X51613Y309746D01*
X51612Y309729D01*
X51612Y309727D01*
X51611Y309725D01*
X51606Y309708D01*
X51601Y309691D01*
X51601Y309690D01*
X51600Y309688D01*
X51592Y309673D01*
X51584Y309657D01*
X51583Y309655D01*
X51582Y309654D01*
X51570Y309640D01*
X51560Y309626D01*
X51558Y309625D01*
X51557Y309624D01*
X51543Y309613D01*
X51530Y309601D01*
X50080Y308597D01*
Y307938D01*
X51530Y306934D01*
X51543Y306923D01*
X51557Y306912D01*
X51558Y306910D01*
X51560Y306909D01*
X51570Y306895D01*
X51582Y306882D01*
X51583Y306880D01*
X51584Y306879D01*
X51592Y306863D01*
X51600Y306847D01*
X51601Y306846D01*
X51601Y306844D01*
X51606Y306827D01*
X51611Y306810D01*
X51612Y306809D01*
X51612Y306807D01*
X51613Y306789D01*
X51615Y306772D01*
Y306496D01*
X51611Y306458D01*
X51600Y306420D01*
X51582Y306386D01*
X51557Y306356D01*
X51527Y306332D01*
X51493Y306313D01*
X51456Y306302D01*
X51417Y306298D01*
X46536D01*
X46536Y306298D01*
X46516Y306300D01*
X46497Y306302D01*
X46468Y306311D01*
X46460Y306313D01*
X46426Y306332D01*
X46411Y306344D01*
X46396Y306356D01*
X46395Y306356D01*
X45923Y306829D01*
X45899Y306859D01*
X45880Y306893D01*
X45878Y306902D01*
X45869Y306930D01*
X45867Y306949D01*
X45865Y306969D01*
X45865Y306969D01*
Y309567D01*
X45865Y309567D01*
X45867Y309586D01*
X45869Y309606D01*
X45878Y309634D01*
X45880Y309643D01*
X45899Y309677D01*
X45911Y309692D01*
X45923Y309707D01*
X45923Y309707D01*
X46396Y310179D01*
X46426Y310204D01*
X46460Y310222D01*
X46468Y310225D01*
X46497Y310233D01*
X46516Y310235D01*
X46536Y310237D01*
X46536Y310237D01*
D02*
G37*
G36*
X232401Y292123D02*
X232438Y292112D01*
X232472Y292094D01*
X232489Y292080D01*
X232502Y292069D01*
X232502Y292069D01*
X233014Y291557D01*
X233038Y291527D01*
X233057Y291493D01*
X233059Y291484D01*
X233068Y291456D01*
X233070Y291437D01*
X233072Y291417D01*
X233072Y291417D01*
Y288898D01*
X233068Y288859D01*
X233059Y288831D01*
X233057Y288822D01*
X233038Y288788D01*
X233014Y288758D01*
X233014Y288758D01*
X232502Y288246D01*
X232502Y288246D01*
X232489Y288235D01*
X232472Y288222D01*
X232438Y288203D01*
X232401Y288192D01*
X232397Y288192D01*
X232362Y288188D01*
X232362Y288188D01*
X229410D01*
X229371Y288192D01*
X229334Y288203D01*
X229300Y288222D01*
X229270Y288246D01*
X229245Y288276D01*
X229227Y288310D01*
X229216Y288347D01*
X229212Y288386D01*
Y288912D01*
X227762Y289916D01*
X227748Y289928D01*
X227734Y289939D01*
X227733Y289940D01*
X227732Y289941D01*
X227721Y289955D01*
X227710Y289969D01*
X227709Y289970D01*
X227708Y289972D01*
X227700Y289987D01*
X227691Y290003D01*
X227691Y290005D01*
X227690Y290006D01*
X227685Y290023D01*
X227680Y290040D01*
X227680Y290042D01*
X227679Y290043D01*
X227678Y290061D01*
X227676Y290079D01*
Y290236D01*
X227678Y290254D01*
X227679Y290272D01*
X227680Y290273D01*
X227680Y290275D01*
X227685Y290292D01*
X227690Y290309D01*
X227691Y290310D01*
X227691Y290312D01*
X227700Y290328D01*
X227708Y290343D01*
X227709Y290345D01*
X227710Y290346D01*
X227721Y290360D01*
X227732Y290374D01*
X227733Y290375D01*
X227734Y290376D01*
X227748Y290388D01*
X227762Y290399D01*
X229212Y291403D01*
Y291929D01*
X229216Y291968D01*
X229227Y292005D01*
X229245Y292039D01*
X229270Y292069D01*
X229300Y292094D01*
X229334Y292112D01*
X229371Y292123D01*
X229410Y292127D01*
X232362D01*
X232362Y292127D01*
X232401Y292123D01*
D02*
G37*
G36*
X223898Y292127D02*
X228780D01*
X228818Y292123D01*
X228855Y292112D01*
X228889Y292094D01*
X228920Y292069D01*
X228944Y292039D01*
X228962Y292005D01*
X228974Y291968D01*
X228977Y291929D01*
Y291654D01*
X228976Y291636D01*
X228974Y291618D01*
X228974Y291617D01*
X228974Y291615D01*
X228968Y291598D01*
X228963Y291581D01*
X228963Y291580D01*
X228962Y291578D01*
X228954Y291562D01*
X228946Y291547D01*
X228945Y291545D01*
X228944Y291544D01*
X228933Y291530D01*
X228922Y291516D01*
X228921Y291515D01*
X228920Y291514D01*
X228906Y291502D01*
X228892Y291491D01*
X227442Y290487D01*
Y289828D01*
X228892Y288824D01*
X228906Y288813D01*
X228920Y288801D01*
X228921Y288800D01*
X228922Y288799D01*
X228933Y288785D01*
X228944Y288771D01*
X228945Y288770D01*
X228946Y288769D01*
X228954Y288753D01*
X228962Y288737D01*
X228963Y288736D01*
X228963Y288734D01*
X228969Y288717D01*
X228974Y288700D01*
X228974Y288699D01*
X228974Y288697D01*
X228976Y288679D01*
X228977Y288662D01*
Y288386D01*
X228974Y288347D01*
X228962Y288310D01*
X228944Y288276D01*
X228920Y288246D01*
X228889Y288222D01*
X228855Y288203D01*
X228818Y288192D01*
X228780Y288188D01*
X223898D01*
X223898Y288188D01*
X223878Y288190D01*
X223859Y288192D01*
X223831Y288201D01*
X223822Y288203D01*
X223788Y288222D01*
X223773Y288234D01*
X223758Y288246D01*
X223758Y288246D01*
X223285Y288719D01*
X223261Y288749D01*
X223242Y288783D01*
X223240Y288791D01*
X223231Y288820D01*
X223229Y288839D01*
X223227Y288858D01*
X223228Y288859D01*
Y291457D01*
X223227Y291457D01*
X223229Y291476D01*
X223231Y291495D01*
X223240Y291524D01*
X223242Y291532D01*
X223261Y291567D01*
X223273Y291582D01*
X223285Y291597D01*
X223285Y291597D01*
X223758Y292069D01*
X223788Y292094D01*
X223822Y292112D01*
X223831Y292115D01*
X223859Y292123D01*
X223878Y292125D01*
X223898Y292127D01*
X223898Y292127D01*
D02*
G37*
G36*
X67046Y292123D02*
X67084Y292112D01*
X67118Y292094D01*
X67134Y292080D01*
X67148Y292069D01*
X67148Y292069D01*
X67660Y291557D01*
X67684Y291527D01*
X67703Y291493D01*
X67705Y291484D01*
X67714Y291456D01*
X67716Y291437D01*
X67717Y291417D01*
X67717Y291417D01*
Y288898D01*
X67714Y288859D01*
X67705Y288831D01*
X67703Y288822D01*
X67684Y288788D01*
X67660Y288758D01*
X67659Y288758D01*
X67148Y288246D01*
X67148Y288246D01*
X67134Y288235D01*
X67118Y288222D01*
X67084Y288203D01*
X67046Y288192D01*
X67043Y288192D01*
X67008Y288188D01*
X67008Y288188D01*
X64055D01*
X64017Y288192D01*
X63980Y288203D01*
X63945Y288222D01*
X63915Y288246D01*
X63891Y288276D01*
X63872Y288310D01*
X63861Y288347D01*
X63857Y288386D01*
Y288912D01*
X62407Y289916D01*
X62393Y289928D01*
X62380Y289939D01*
X62379Y289940D01*
X62378Y289941D01*
X62366Y289955D01*
X62355Y289969D01*
X62354Y289970D01*
X62353Y289972D01*
X62345Y289987D01*
X62337Y290003D01*
X62336Y290005D01*
X62336Y290006D01*
X62331Y290023D01*
X62326Y290040D01*
X62326Y290042D01*
X62325Y290043D01*
X62324Y290061D01*
X62322Y290079D01*
Y290236D01*
X62324Y290254D01*
X62325Y290272D01*
X62326Y290273D01*
X62326Y290275D01*
X62331Y290292D01*
X62336Y290309D01*
X62336Y290310D01*
X62337Y290312D01*
X62345Y290328D01*
X62353Y290343D01*
X62354Y290345D01*
X62355Y290346D01*
X62367Y290360D01*
X62378Y290374D01*
X62379Y290375D01*
X62380Y290376D01*
X62394Y290388D01*
X62407Y290399D01*
X63857Y291403D01*
Y291929D01*
X63861Y291968D01*
X63872Y292005D01*
X63891Y292039D01*
X63915Y292069D01*
X63945Y292094D01*
X63980Y292112D01*
X64017Y292123D01*
X64055Y292127D01*
X67008D01*
X67008Y292127D01*
X67046Y292123D01*
D02*
G37*
G36*
X58543Y292127D02*
X63425D01*
X63464Y292123D01*
X63501Y292112D01*
X63535Y292094D01*
X63565Y292069D01*
X63590Y292039D01*
X63608Y292005D01*
X63619Y291968D01*
X63623Y291929D01*
Y291654D01*
X63621Y291636D01*
X63620Y291618D01*
X63619Y291617D01*
X63619Y291615D01*
X63614Y291598D01*
X63609Y291581D01*
X63608Y291580D01*
X63608Y291578D01*
X63600Y291562D01*
X63591Y291547D01*
X63590Y291545D01*
X63590Y291544D01*
X63578Y291530D01*
X63567Y291516D01*
X63566Y291515D01*
X63565Y291514D01*
X63551Y291502D01*
X63538Y291491D01*
X62088Y290487D01*
Y289828D01*
X63538Y288824D01*
X63551Y288813D01*
X63565Y288801D01*
X63566Y288800D01*
X63567Y288799D01*
X63578Y288785D01*
X63590Y288771D01*
X63591Y288770D01*
X63591Y288769D01*
X63600Y288753D01*
X63608Y288737D01*
X63608Y288736D01*
X63609Y288734D01*
X63614Y288717D01*
X63619Y288700D01*
X63619Y288699D01*
X63620Y288697D01*
X63621Y288679D01*
X63623Y288662D01*
Y288386D01*
X63619Y288347D01*
X63608Y288310D01*
X63590Y288276D01*
X63565Y288246D01*
X63535Y288222D01*
X63501Y288203D01*
X63464Y288192D01*
X63425Y288188D01*
X58543D01*
X58543Y288188D01*
X58524Y288190D01*
X58505Y288192D01*
X58476Y288201D01*
X58468Y288203D01*
X58434Y288222D01*
X58419Y288234D01*
X58403Y288246D01*
X58403Y288246D01*
X57931Y288719D01*
X57906Y288749D01*
X57888Y288783D01*
X57885Y288791D01*
X57877Y288820D01*
X57875Y288839D01*
X57873Y288858D01*
X57873Y288859D01*
Y291457D01*
X57873Y291457D01*
X57875Y291476D01*
X57877Y291495D01*
X57885Y291524D01*
X57888Y291532D01*
X57906Y291567D01*
X57919Y291582D01*
X57931Y291597D01*
X57931Y291597D01*
X58403Y292069D01*
X58434Y292094D01*
X58468Y292112D01*
X58476Y292115D01*
X58505Y292123D01*
X58524Y292125D01*
X58543Y292127D01*
X58543Y292127D01*
D02*
G37*
G36*
X232401Y282674D02*
X232438Y282663D01*
X232472Y282645D01*
X232489Y282631D01*
X232502Y282620D01*
X232502Y282620D01*
X233014Y282108D01*
X233038Y282079D01*
X233057Y282044D01*
X233059Y282036D01*
X233068Y282007D01*
X233070Y281988D01*
X233072Y281969D01*
X233072Y281968D01*
Y279449D01*
X233068Y279410D01*
X233059Y279382D01*
X233057Y279373D01*
X233038Y279339D01*
X233014Y279309D01*
X233014Y279309D01*
X232502Y278797D01*
X232502Y278797D01*
X232489Y278786D01*
X232472Y278773D01*
X232438Y278754D01*
X232401Y278743D01*
X232397Y278743D01*
X232362Y278739D01*
X232362Y278739D01*
X229410D01*
X229371Y278743D01*
X229334Y278754D01*
X229300Y278773D01*
X229270Y278797D01*
X229245Y278827D01*
X229227Y278861D01*
X229216Y278899D01*
X229212Y278937D01*
Y279463D01*
X227762Y280467D01*
X227748Y280479D01*
X227734Y280490D01*
X227733Y280491D01*
X227732Y280492D01*
X227721Y280506D01*
X227710Y280520D01*
X227709Y280522D01*
X227708Y280523D01*
X227700Y280539D01*
X227691Y280554D01*
X227691Y280556D01*
X227690Y280557D01*
X227685Y280575D01*
X227680Y280591D01*
X227680Y280593D01*
X227679Y280595D01*
X227678Y280613D01*
X227676Y280630D01*
Y280787D01*
X227678Y280805D01*
X227679Y280823D01*
X227680Y280824D01*
X227680Y280826D01*
X227685Y280843D01*
X227690Y280860D01*
X227691Y280862D01*
X227691Y280863D01*
X227700Y280879D01*
X227708Y280895D01*
X227709Y280896D01*
X227710Y280897D01*
X227721Y280911D01*
X227732Y280925D01*
X227733Y280926D01*
X227734Y280927D01*
X227748Y280939D01*
X227762Y280950D01*
X229212Y281954D01*
Y282480D01*
X229216Y282519D01*
X229227Y282556D01*
X229245Y282590D01*
X229270Y282620D01*
X229300Y282645D01*
X229334Y282663D01*
X229371Y282674D01*
X229410Y282678D01*
X232362D01*
X232362Y282678D01*
X232401Y282674D01*
D02*
G37*
G36*
X223898Y282678D02*
X228780D01*
X228818Y282674D01*
X228855Y282663D01*
X228889Y282645D01*
X228920Y282620D01*
X228944Y282590D01*
X228962Y282556D01*
X228974Y282519D01*
X228977Y282480D01*
Y282205D01*
X228976Y282187D01*
X228974Y282169D01*
X228974Y282168D01*
X228974Y282166D01*
X228968Y282149D01*
X228963Y282132D01*
X228963Y282131D01*
X228962Y282129D01*
X228954Y282114D01*
X228946Y282098D01*
X228945Y282096D01*
X228944Y282095D01*
X228933Y282081D01*
X228922Y282067D01*
X228921Y282066D01*
X228920Y282065D01*
X228906Y282054D01*
X228892Y282042D01*
X227442Y281038D01*
Y280379D01*
X228892Y279375D01*
X228906Y279364D01*
X228920Y279353D01*
X228921Y279351D01*
X228922Y279350D01*
X228933Y279336D01*
X228944Y279323D01*
X228945Y279321D01*
X228946Y279320D01*
X228954Y279304D01*
X228962Y279288D01*
X228963Y279287D01*
X228963Y279285D01*
X228969Y279268D01*
X228974Y279251D01*
X228974Y279250D01*
X228974Y279248D01*
X228976Y279230D01*
X228977Y279213D01*
Y278937D01*
X228974Y278899D01*
X228962Y278861D01*
X228944Y278827D01*
X228920Y278797D01*
X228889Y278773D01*
X228855Y278754D01*
X228818Y278743D01*
X228780Y278739D01*
X223898D01*
X223898Y278739D01*
X223878Y278741D01*
X223859Y278743D01*
X223831Y278752D01*
X223822Y278754D01*
X223788Y278773D01*
X223773Y278785D01*
X223758Y278797D01*
X223758Y278797D01*
X223285Y279270D01*
X223261Y279300D01*
X223242Y279334D01*
X223240Y279343D01*
X223231Y279371D01*
X223229Y279390D01*
X223227Y279410D01*
X223228Y279410D01*
Y282008D01*
X223227Y282008D01*
X223229Y282027D01*
X223231Y282047D01*
X223240Y282075D01*
X223242Y282084D01*
X223261Y282118D01*
X223273Y282133D01*
X223285Y282148D01*
X223285Y282148D01*
X223758Y282620D01*
X223788Y282645D01*
X223822Y282663D01*
X223831Y282666D01*
X223859Y282674D01*
X223878Y282676D01*
X223898Y282678D01*
X223898Y282678D01*
D02*
G37*
G36*
X67046Y282674D02*
X67084Y282663D01*
X67118Y282645D01*
X67134Y282631D01*
X67148Y282620D01*
X67148Y282620D01*
X67660Y282108D01*
X67684Y282079D01*
X67703Y282044D01*
X67705Y282036D01*
X67714Y282007D01*
X67716Y281988D01*
X67717Y281969D01*
X67717Y281968D01*
Y279449D01*
X67714Y279410D01*
X67705Y279382D01*
X67703Y279373D01*
X67684Y279339D01*
X67660Y279309D01*
X67659Y279309D01*
X67148Y278797D01*
X67148Y278797D01*
X67134Y278786D01*
X67118Y278773D01*
X67084Y278754D01*
X67046Y278743D01*
X67043Y278743D01*
X67008Y278739D01*
X67008Y278739D01*
X64055D01*
X64017Y278743D01*
X63980Y278754D01*
X63945Y278773D01*
X63915Y278797D01*
X63891Y278827D01*
X63872Y278861D01*
X63861Y278899D01*
X63857Y278937D01*
Y279463D01*
X62407Y280467D01*
X62393Y280479D01*
X62380Y280490D01*
X62379Y280491D01*
X62378Y280492D01*
X62366Y280506D01*
X62355Y280520D01*
X62354Y280522D01*
X62353Y280523D01*
X62345Y280539D01*
X62337Y280554D01*
X62336Y280556D01*
X62336Y280557D01*
X62331Y280575D01*
X62326Y280591D01*
X62326Y280593D01*
X62325Y280595D01*
X62324Y280613D01*
X62322Y280630D01*
Y280787D01*
X62324Y280805D01*
X62325Y280823D01*
X62326Y280824D01*
X62326Y280826D01*
X62331Y280843D01*
X62336Y280860D01*
X62336Y280862D01*
X62337Y280863D01*
X62345Y280879D01*
X62353Y280895D01*
X62354Y280896D01*
X62355Y280897D01*
X62367Y280911D01*
X62378Y280925D01*
X62379Y280926D01*
X62380Y280927D01*
X62394Y280939D01*
X62407Y280950D01*
X63857Y281954D01*
Y282480D01*
X63861Y282519D01*
X63872Y282556D01*
X63891Y282590D01*
X63915Y282620D01*
X63945Y282645D01*
X63980Y282663D01*
X64017Y282674D01*
X64055Y282678D01*
X67008D01*
X67008Y282678D01*
X67046Y282674D01*
D02*
G37*
G36*
X58543Y282678D02*
X63425D01*
X63464Y282674D01*
X63501Y282663D01*
X63535Y282645D01*
X63565Y282620D01*
X63590Y282590D01*
X63608Y282556D01*
X63619Y282519D01*
X63623Y282480D01*
Y282205D01*
X63621Y282187D01*
X63620Y282169D01*
X63619Y282168D01*
X63619Y282166D01*
X63614Y282149D01*
X63609Y282132D01*
X63608Y282131D01*
X63608Y282129D01*
X63600Y282114D01*
X63591Y282098D01*
X63590Y282096D01*
X63590Y282095D01*
X63578Y282081D01*
X63567Y282067D01*
X63566Y282066D01*
X63565Y282065D01*
X63551Y282054D01*
X63538Y282042D01*
X62088Y281038D01*
Y280379D01*
X63538Y279375D01*
X63551Y279364D01*
X63565Y279353D01*
X63566Y279351D01*
X63567Y279350D01*
X63578Y279336D01*
X63590Y279323D01*
X63591Y279321D01*
X63591Y279320D01*
X63600Y279304D01*
X63608Y279288D01*
X63608Y279287D01*
X63609Y279285D01*
X63614Y279268D01*
X63619Y279251D01*
X63619Y279250D01*
X63620Y279248D01*
X63621Y279230D01*
X63623Y279213D01*
Y278937D01*
X63619Y278899D01*
X63608Y278861D01*
X63590Y278827D01*
X63565Y278797D01*
X63535Y278773D01*
X63501Y278754D01*
X63464Y278743D01*
X63425Y278739D01*
X58543D01*
X58543Y278739D01*
X58524Y278741D01*
X58505Y278743D01*
X58476Y278752D01*
X58468Y278754D01*
X58434Y278773D01*
X58419Y278785D01*
X58403Y278797D01*
X58403Y278797D01*
X57931Y279270D01*
X57906Y279300D01*
X57888Y279334D01*
X57885Y279343D01*
X57877Y279371D01*
X57875Y279390D01*
X57873Y279410D01*
X57873Y279410D01*
Y282008D01*
X57873Y282008D01*
X57875Y282027D01*
X57877Y282047D01*
X57885Y282075D01*
X57888Y282084D01*
X57906Y282118D01*
X57919Y282133D01*
X57931Y282148D01*
X57931Y282148D01*
X58403Y282620D01*
X58434Y282645D01*
X58468Y282663D01*
X58476Y282666D01*
X58505Y282674D01*
X58524Y282676D01*
X58543Y282678D01*
X58543Y282678D01*
D02*
G37*
G36*
X220393Y251178D02*
X220430Y251167D01*
X220464Y251149D01*
X220481Y251135D01*
X220494Y251124D01*
X220494Y251124D01*
X221006Y250612D01*
X221031Y250582D01*
X221049Y250548D01*
X221052Y250540D01*
X221060Y250511D01*
X221062Y250492D01*
X221064Y250472D01*
X221064Y250472D01*
Y247953D01*
X221060Y247914D01*
X221052Y247886D01*
X221049Y247877D01*
X221031Y247843D01*
X221006Y247813D01*
X221006Y247813D01*
X220494Y247301D01*
X220494Y247301D01*
X220481Y247290D01*
X220464Y247277D01*
X220430Y247258D01*
X220393Y247247D01*
X220390Y247247D01*
X220354Y247243D01*
X220354Y247243D01*
X217402D01*
X217363Y247247D01*
X217326Y247258D01*
X217292Y247277D01*
X217262Y247301D01*
X217237Y247331D01*
X217219Y247365D01*
X217208Y247402D01*
X217204Y247441D01*
Y247967D01*
X215754Y248971D01*
X215740Y248983D01*
X215726Y248994D01*
X215725Y248995D01*
X215724Y248996D01*
X215713Y249010D01*
X215702Y249024D01*
X215701Y249026D01*
X215700Y249027D01*
X215692Y249043D01*
X215684Y249058D01*
X215683Y249060D01*
X215682Y249061D01*
X215677Y249078D01*
X215672Y249095D01*
X215672Y249097D01*
X215672Y249099D01*
X215670Y249116D01*
X215668Y249134D01*
Y249291D01*
X215670Y249309D01*
X215672Y249327D01*
X215672Y249328D01*
X215672Y249330D01*
X215677Y249347D01*
X215682Y249364D01*
X215683Y249365D01*
X215684Y249367D01*
X215692Y249383D01*
X215700Y249399D01*
X215701Y249400D01*
X215702Y249401D01*
X215713Y249415D01*
X215724Y249429D01*
X215725Y249430D01*
X215726Y249431D01*
X215740Y249443D01*
X215754Y249454D01*
X217204Y250458D01*
Y250984D01*
X217208Y251023D01*
X217219Y251060D01*
X217237Y251094D01*
X217262Y251124D01*
X217292Y251149D01*
X217326Y251167D01*
X217363Y251178D01*
X217402Y251182D01*
X220354D01*
X220354Y251182D01*
X220393Y251178D01*
D02*
G37*
G36*
X211890Y251182D02*
X216772D01*
X216810Y251178D01*
X216847Y251167D01*
X216882Y251149D01*
X216912Y251124D01*
X216936Y251094D01*
X216954Y251060D01*
X216966Y251023D01*
X216969Y250984D01*
Y250709D01*
X216968Y250691D01*
X216966Y250673D01*
X216966Y250672D01*
X216966Y250670D01*
X216961Y250653D01*
X216956Y250636D01*
X216955Y250635D01*
X216954Y250633D01*
X216946Y250618D01*
X216938Y250602D01*
X216937Y250600D01*
X216936Y250599D01*
X216925Y250585D01*
X216914Y250571D01*
X216913Y250570D01*
X216912Y250569D01*
X216898Y250557D01*
X216884Y250546D01*
X215434Y249542D01*
Y248883D01*
X216884Y247879D01*
X216898Y247868D01*
X216912Y247856D01*
X216913Y247855D01*
X216914Y247854D01*
X216925Y247840D01*
X216936Y247827D01*
X216937Y247825D01*
X216938Y247824D01*
X216946Y247808D01*
X216954Y247792D01*
X216955Y247791D01*
X216956Y247789D01*
X216961Y247772D01*
X216966Y247755D01*
X216966Y247754D01*
X216966Y247752D01*
X216968Y247734D01*
X216969Y247717D01*
Y247441D01*
X216966Y247402D01*
X216954Y247365D01*
X216936Y247331D01*
X216912Y247301D01*
X216882Y247277D01*
X216847Y247258D01*
X216810Y247247D01*
X216772Y247243D01*
X211890D01*
X211890Y247243D01*
X211871Y247245D01*
X211851Y247247D01*
X211823Y247256D01*
X211814Y247258D01*
X211780Y247277D01*
X211765Y247289D01*
X211750Y247301D01*
X211750Y247301D01*
X211278Y247774D01*
X211253Y247804D01*
X211235Y247838D01*
X211232Y247846D01*
X211223Y247875D01*
X211222Y247894D01*
X211220Y247914D01*
X211220Y247914D01*
Y250512D01*
X211220Y250512D01*
X211222Y250531D01*
X211223Y250551D01*
X211232Y250579D01*
X211235Y250588D01*
X211253Y250622D01*
X211265Y250637D01*
X211278Y250652D01*
X211278Y250652D01*
X211750Y251124D01*
X211780Y251149D01*
X211814Y251167D01*
X211823Y251170D01*
X211851Y251178D01*
X211871Y251180D01*
X211890Y251182D01*
X211890Y251182D01*
D02*
G37*
G36*
X55039Y251178D02*
X55076Y251167D01*
X55110Y251149D01*
X55126Y251135D01*
X55140Y251124D01*
X55140Y251124D01*
X55652Y250612D01*
X55676Y250582D01*
X55695Y250548D01*
X55697Y250540D01*
X55706Y250511D01*
X55708Y250492D01*
X55710Y250472D01*
X55710Y250472D01*
Y247953D01*
X55706Y247914D01*
X55697Y247886D01*
X55695Y247877D01*
X55676Y247843D01*
X55652Y247813D01*
X55652Y247813D01*
X55140Y247301D01*
X55140Y247301D01*
X55126Y247290D01*
X55110Y247277D01*
X55076Y247258D01*
X55039Y247247D01*
X55035Y247247D01*
X55000Y247243D01*
X55000Y247243D01*
X52047D01*
X52009Y247247D01*
X51972Y247258D01*
X51937Y247277D01*
X51907Y247301D01*
X51883Y247331D01*
X51864Y247365D01*
X51853Y247402D01*
X51850Y247441D01*
Y247967D01*
X50399Y248971D01*
X50386Y248983D01*
X50372Y248994D01*
X50371Y248995D01*
X50370Y248996D01*
X50359Y249010D01*
X50347Y249024D01*
X50347Y249026D01*
X50346Y249027D01*
X50337Y249043D01*
X50329Y249058D01*
X50329Y249060D01*
X50328Y249061D01*
X50323Y249078D01*
X50318Y249095D01*
X50318Y249097D01*
X50317Y249099D01*
X50316Y249116D01*
X50314Y249134D01*
Y249291D01*
X50316Y249309D01*
X50317Y249327D01*
X50318Y249328D01*
X50318Y249330D01*
X50323Y249347D01*
X50328Y249364D01*
X50329Y249365D01*
X50329Y249367D01*
X50337Y249383D01*
X50346Y249399D01*
X50347Y249400D01*
X50347Y249401D01*
X50359Y249415D01*
X50370Y249429D01*
X50371Y249430D01*
X50372Y249431D01*
X50386Y249443D01*
X50399Y249454D01*
X51850Y250458D01*
Y250984D01*
X51853Y251023D01*
X51864Y251060D01*
X51883Y251094D01*
X51907Y251124D01*
X51937Y251149D01*
X51972Y251167D01*
X52009Y251178D01*
X52047Y251182D01*
X55000D01*
X55000Y251182D01*
X55039Y251178D01*
D02*
G37*
G36*
X46536Y251182D02*
X51417D01*
X51456Y251178D01*
X51493Y251167D01*
X51527Y251149D01*
X51557Y251124D01*
X51582Y251094D01*
X51600Y251060D01*
X51611Y251023D01*
X51615Y250984D01*
Y250709D01*
X51613Y250691D01*
X51612Y250673D01*
X51612Y250672D01*
X51611Y250670D01*
X51606Y250653D01*
X51601Y250636D01*
X51601Y250635D01*
X51600Y250633D01*
X51592Y250618D01*
X51584Y250602D01*
X51583Y250600D01*
X51582Y250599D01*
X51570Y250585D01*
X51560Y250571D01*
X51558Y250570D01*
X51557Y250569D01*
X51543Y250557D01*
X51530Y250546D01*
X50080Y249542D01*
Y248883D01*
X51530Y247879D01*
X51543Y247868D01*
X51557Y247856D01*
X51558Y247855D01*
X51560Y247854D01*
X51570Y247840D01*
X51582Y247827D01*
X51583Y247825D01*
X51584Y247824D01*
X51592Y247808D01*
X51600Y247792D01*
X51601Y247791D01*
X51601Y247789D01*
X51606Y247772D01*
X51611Y247755D01*
X51612Y247754D01*
X51612Y247752D01*
X51613Y247734D01*
X51615Y247717D01*
Y247441D01*
X51611Y247402D01*
X51600Y247365D01*
X51582Y247331D01*
X51557Y247301D01*
X51527Y247277D01*
X51493Y247258D01*
X51456Y247247D01*
X51417Y247243D01*
X46536D01*
X46536Y247243D01*
X46516Y247245D01*
X46497Y247247D01*
X46468Y247256D01*
X46460Y247258D01*
X46426Y247277D01*
X46411Y247289D01*
X46396Y247301D01*
X46395Y247301D01*
X45923Y247774D01*
X45899Y247804D01*
X45880Y247838D01*
X45878Y247846D01*
X45869Y247875D01*
X45867Y247894D01*
X45865Y247914D01*
X45865Y247914D01*
Y250512D01*
X45865Y250512D01*
X45867Y250531D01*
X45869Y250551D01*
X45878Y250579D01*
X45880Y250588D01*
X45899Y250622D01*
X45911Y250637D01*
X45923Y250652D01*
X45923Y250652D01*
X46396Y251124D01*
X46426Y251149D01*
X46460Y251167D01*
X46468Y251170D01*
X46497Y251178D01*
X46516Y251180D01*
X46536Y251182D01*
X46536Y251182D01*
D02*
G37*
G36*
X232401Y233068D02*
X232438Y233057D01*
X232472Y233039D01*
X232489Y233025D01*
X232502Y233014D01*
X232502Y233014D01*
X233014Y232502D01*
X233038Y232472D01*
X233057Y232438D01*
X233059Y232429D01*
X233068Y232401D01*
X233070Y232382D01*
X233072Y232362D01*
X233072Y232362D01*
Y229843D01*
X233068Y229804D01*
X233059Y229776D01*
X233057Y229767D01*
X233038Y229733D01*
X233014Y229703D01*
X233014Y229703D01*
X232502Y229191D01*
X232502Y229191D01*
X232489Y229180D01*
X232472Y229166D01*
X232438Y229148D01*
X232401Y229137D01*
X232397Y229136D01*
X232362Y229133D01*
X232362Y229133D01*
X229410D01*
X229371Y229137D01*
X229334Y229148D01*
X229300Y229166D01*
X229270Y229191D01*
X229245Y229221D01*
X229227Y229255D01*
X229216Y229292D01*
X229212Y229331D01*
Y229857D01*
X227762Y230861D01*
X227748Y230873D01*
X227734Y230884D01*
X227733Y230885D01*
X227732Y230886D01*
X227721Y230900D01*
X227710Y230914D01*
X227709Y230915D01*
X227708Y230917D01*
X227700Y230932D01*
X227691Y230948D01*
X227691Y230950D01*
X227690Y230951D01*
X227685Y230968D01*
X227680Y230985D01*
X227680Y230987D01*
X227679Y230988D01*
X227678Y231006D01*
X227676Y231024D01*
Y231181D01*
X227678Y231199D01*
X227679Y231217D01*
X227680Y231218D01*
X227680Y231220D01*
X227685Y231237D01*
X227690Y231254D01*
X227691Y231255D01*
X227691Y231257D01*
X227700Y231273D01*
X227708Y231288D01*
X227709Y231290D01*
X227710Y231291D01*
X227721Y231305D01*
X227732Y231319D01*
X227733Y231320D01*
X227734Y231321D01*
X227748Y231332D01*
X227762Y231344D01*
X229212Y232348D01*
Y232874D01*
X229216Y232913D01*
X229227Y232950D01*
X229245Y232984D01*
X229270Y233014D01*
X229300Y233039D01*
X229334Y233057D01*
X229371Y233068D01*
X229410Y233072D01*
X232362D01*
X232362Y233072D01*
X232401Y233068D01*
D02*
G37*
G36*
X223898Y233072D02*
X228780D01*
X228818Y233068D01*
X228855Y233057D01*
X228889Y233039D01*
X228920Y233014D01*
X228944Y232984D01*
X228962Y232950D01*
X228974Y232913D01*
X228977Y232874D01*
Y232598D01*
X228976Y232581D01*
X228974Y232563D01*
X228974Y232561D01*
X228974Y232560D01*
X228968Y232543D01*
X228963Y232526D01*
X228963Y232524D01*
X228962Y232523D01*
X228954Y232507D01*
X228946Y232491D01*
X228945Y232490D01*
X228944Y232489D01*
X228933Y232475D01*
X228922Y232461D01*
X228921Y232460D01*
X228920Y232459D01*
X228906Y232447D01*
X228892Y232436D01*
X227442Y231432D01*
Y230773D01*
X228892Y229769D01*
X228906Y229757D01*
X228920Y229746D01*
X228921Y229745D01*
X228922Y229744D01*
X228933Y229730D01*
X228944Y229716D01*
X228945Y229715D01*
X228946Y229714D01*
X228954Y229698D01*
X228962Y229682D01*
X228963Y229680D01*
X228963Y229679D01*
X228969Y229662D01*
X228974Y229645D01*
X228974Y229643D01*
X228974Y229642D01*
X228976Y229624D01*
X228977Y229606D01*
Y229331D01*
X228974Y229292D01*
X228962Y229255D01*
X228944Y229221D01*
X228920Y229191D01*
X228889Y229166D01*
X228855Y229148D01*
X228818Y229137D01*
X228780Y229133D01*
X223898D01*
X223898Y229133D01*
X223878Y229135D01*
X223859Y229137D01*
X223831Y229145D01*
X223822Y229148D01*
X223788Y229166D01*
X223773Y229179D01*
X223758Y229191D01*
X223758Y229191D01*
X223285Y229663D01*
X223261Y229693D01*
X223242Y229728D01*
X223240Y229736D01*
X223231Y229765D01*
X223229Y229784D01*
X223227Y229803D01*
X223228Y229803D01*
Y232402D01*
X223227Y232402D01*
X223229Y232421D01*
X223231Y232440D01*
X223240Y232469D01*
X223242Y232477D01*
X223261Y232511D01*
X223273Y232526D01*
X223285Y232541D01*
X223285Y232542D01*
X223758Y233014D01*
X223788Y233039D01*
X223822Y233057D01*
X223831Y233060D01*
X223859Y233068D01*
X223878Y233070D01*
X223898Y233072D01*
X223898Y233072D01*
D02*
G37*
G36*
X67046Y233068D02*
X67084Y233057D01*
X67118Y233039D01*
X67134Y233025D01*
X67148Y233014D01*
X67148Y233014D01*
X67660Y232502D01*
X67684Y232472D01*
X67703Y232438D01*
X67705Y232429D01*
X67714Y232401D01*
X67716Y232382D01*
X67717Y232362D01*
X67717Y232362D01*
Y229843D01*
X67714Y229804D01*
X67705Y229776D01*
X67703Y229767D01*
X67684Y229733D01*
X67660Y229703D01*
X67659Y229703D01*
X67148Y229191D01*
X67148Y229191D01*
X67134Y229180D01*
X67118Y229166D01*
X67084Y229148D01*
X67046Y229137D01*
X67043Y229136D01*
X67008Y229133D01*
X67008Y229133D01*
X64055D01*
X64017Y229137D01*
X63980Y229148D01*
X63945Y229166D01*
X63915Y229191D01*
X63891Y229221D01*
X63872Y229255D01*
X63861Y229292D01*
X63857Y229331D01*
Y229857D01*
X62407Y230861D01*
X62393Y230873D01*
X62380Y230884D01*
X62379Y230885D01*
X62378Y230886D01*
X62366Y230900D01*
X62355Y230914D01*
X62354Y230915D01*
X62353Y230917D01*
X62345Y230932D01*
X62337Y230948D01*
X62336Y230950D01*
X62336Y230951D01*
X62331Y230968D01*
X62326Y230985D01*
X62326Y230987D01*
X62325Y230988D01*
X62324Y231006D01*
X62322Y231024D01*
Y231181D01*
X62324Y231199D01*
X62325Y231217D01*
X62326Y231218D01*
X62326Y231220D01*
X62331Y231237D01*
X62336Y231254D01*
X62336Y231255D01*
X62337Y231257D01*
X62345Y231273D01*
X62353Y231288D01*
X62354Y231290D01*
X62355Y231291D01*
X62367Y231305D01*
X62378Y231319D01*
X62379Y231320D01*
X62380Y231321D01*
X62394Y231332D01*
X62407Y231344D01*
X63857Y232348D01*
Y232874D01*
X63861Y232913D01*
X63872Y232950D01*
X63891Y232984D01*
X63915Y233014D01*
X63945Y233039D01*
X63980Y233057D01*
X64017Y233068D01*
X64055Y233072D01*
X67008D01*
X67008Y233072D01*
X67046Y233068D01*
D02*
G37*
G36*
X58543Y233072D02*
X63425D01*
X63464Y233068D01*
X63501Y233057D01*
X63535Y233039D01*
X63565Y233014D01*
X63590Y232984D01*
X63608Y232950D01*
X63619Y232913D01*
X63623Y232874D01*
Y232598D01*
X63621Y232581D01*
X63620Y232563D01*
X63619Y232561D01*
X63619Y232560D01*
X63614Y232543D01*
X63609Y232526D01*
X63608Y232524D01*
X63608Y232523D01*
X63600Y232507D01*
X63591Y232491D01*
X63590Y232490D01*
X63590Y232489D01*
X63578Y232475D01*
X63567Y232461D01*
X63566Y232460D01*
X63565Y232459D01*
X63551Y232447D01*
X63538Y232436D01*
X62088Y231432D01*
Y230773D01*
X63538Y229769D01*
X63551Y229757D01*
X63565Y229746D01*
X63566Y229745D01*
X63567Y229744D01*
X63578Y229730D01*
X63590Y229716D01*
X63591Y229715D01*
X63591Y229714D01*
X63600Y229698D01*
X63608Y229682D01*
X63608Y229680D01*
X63609Y229679D01*
X63614Y229662D01*
X63619Y229645D01*
X63619Y229643D01*
X63620Y229642D01*
X63621Y229624D01*
X63623Y229606D01*
Y229331D01*
X63619Y229292D01*
X63608Y229255D01*
X63590Y229221D01*
X63565Y229191D01*
X63535Y229166D01*
X63501Y229148D01*
X63464Y229137D01*
X63425Y229133D01*
X58543D01*
X58543Y229133D01*
X58524Y229135D01*
X58505Y229137D01*
X58476Y229145D01*
X58468Y229148D01*
X58434Y229166D01*
X58419Y229179D01*
X58403Y229191D01*
X58403Y229191D01*
X57931Y229663D01*
X57906Y229693D01*
X57888Y229728D01*
X57885Y229736D01*
X57877Y229765D01*
X57875Y229784D01*
X57873Y229803D01*
X57873Y229803D01*
Y232402D01*
X57873Y232402D01*
X57875Y232421D01*
X57877Y232440D01*
X57885Y232469D01*
X57888Y232477D01*
X57906Y232511D01*
X57919Y232526D01*
X57931Y232541D01*
X57931Y232542D01*
X58403Y233014D01*
X58434Y233039D01*
X58468Y233057D01*
X58476Y233060D01*
X58505Y233068D01*
X58524Y233070D01*
X58543Y233072D01*
X58543Y233072D01*
D02*
G37*
G36*
X232401Y223619D02*
X232438Y223608D01*
X232472Y223590D01*
X232489Y223576D01*
X232502Y223565D01*
X232502Y223565D01*
X233014Y223053D01*
X233038Y223023D01*
X233057Y222989D01*
X233059Y222980D01*
X233068Y222952D01*
X233070Y222933D01*
X233072Y222914D01*
X233072Y222913D01*
Y220394D01*
X233068Y220355D01*
X233059Y220327D01*
X233057Y220318D01*
X233038Y220284D01*
X233014Y220254D01*
X233014Y220254D01*
X232502Y219742D01*
X232502Y219742D01*
X232489Y219731D01*
X232472Y219718D01*
X232438Y219699D01*
X232401Y219688D01*
X232397Y219688D01*
X232362Y219684D01*
X232362Y219684D01*
X229410D01*
X229371Y219688D01*
X229334Y219699D01*
X229300Y219718D01*
X229270Y219742D01*
X229245Y219772D01*
X229227Y219806D01*
X229216Y219843D01*
X229212Y219882D01*
Y220408D01*
X227762Y221412D01*
X227748Y221424D01*
X227734Y221435D01*
X227733Y221436D01*
X227732Y221437D01*
X227721Y221451D01*
X227710Y221465D01*
X227709Y221466D01*
X227708Y221468D01*
X227700Y221483D01*
X227691Y221499D01*
X227691Y221501D01*
X227690Y221502D01*
X227685Y221519D01*
X227680Y221536D01*
X227680Y221538D01*
X227679Y221539D01*
X227678Y221557D01*
X227676Y221575D01*
Y221732D01*
X227678Y221750D01*
X227679Y221768D01*
X227680Y221769D01*
X227680Y221771D01*
X227685Y221788D01*
X227690Y221805D01*
X227691Y221807D01*
X227691Y221808D01*
X227700Y221824D01*
X227708Y221839D01*
X227709Y221841D01*
X227710Y221842D01*
X227721Y221856D01*
X227732Y221870D01*
X227733Y221871D01*
X227734Y221872D01*
X227748Y221884D01*
X227762Y221895D01*
X229212Y222899D01*
Y223425D01*
X229216Y223464D01*
X229227Y223501D01*
X229245Y223535D01*
X229270Y223565D01*
X229300Y223590D01*
X229334Y223608D01*
X229371Y223619D01*
X229410Y223623D01*
X232362D01*
X232362Y223623D01*
X232401Y223619D01*
D02*
G37*
G36*
X223898Y223623D02*
X228780D01*
X228818Y223619D01*
X228855Y223608D01*
X228889Y223590D01*
X228920Y223565D01*
X228944Y223535D01*
X228962Y223501D01*
X228974Y223464D01*
X228977Y223425D01*
Y223150D01*
X228976Y223132D01*
X228974Y223114D01*
X228974Y223113D01*
X228974Y223111D01*
X228968Y223094D01*
X228963Y223077D01*
X228963Y223076D01*
X228962Y223074D01*
X228954Y223058D01*
X228946Y223042D01*
X228945Y223041D01*
X228944Y223040D01*
X228933Y223026D01*
X228922Y223012D01*
X228921Y223011D01*
X228920Y223010D01*
X228906Y222998D01*
X228892Y222987D01*
X227442Y221983D01*
Y221324D01*
X228892Y220320D01*
X228906Y220309D01*
X228920Y220297D01*
X228921Y220296D01*
X228922Y220295D01*
X228933Y220281D01*
X228944Y220268D01*
X228945Y220266D01*
X228946Y220265D01*
X228954Y220249D01*
X228962Y220233D01*
X228963Y220232D01*
X228963Y220230D01*
X228969Y220213D01*
X228974Y220196D01*
X228974Y220195D01*
X228974Y220193D01*
X228976Y220175D01*
X228977Y220158D01*
Y219882D01*
X228974Y219843D01*
X228962Y219806D01*
X228944Y219772D01*
X228920Y219742D01*
X228889Y219718D01*
X228855Y219699D01*
X228818Y219688D01*
X228780Y219684D01*
X223898D01*
X223898Y219684D01*
X223878Y219686D01*
X223859Y219688D01*
X223831Y219697D01*
X223822Y219699D01*
X223788Y219718D01*
X223773Y219730D01*
X223758Y219742D01*
X223758Y219742D01*
X223285Y220215D01*
X223261Y220245D01*
X223242Y220279D01*
X223240Y220287D01*
X223231Y220316D01*
X223229Y220335D01*
X223227Y220354D01*
X223228Y220355D01*
Y222953D01*
X223227Y222953D01*
X223229Y222972D01*
X223231Y222991D01*
X223240Y223020D01*
X223242Y223028D01*
X223261Y223063D01*
X223273Y223078D01*
X223285Y223093D01*
X223285Y223093D01*
X223758Y223565D01*
X223788Y223590D01*
X223822Y223608D01*
X223831Y223611D01*
X223859Y223619D01*
X223878Y223621D01*
X223898Y223623D01*
X223898Y223623D01*
D02*
G37*
G36*
X67046Y223619D02*
X67084Y223608D01*
X67118Y223590D01*
X67134Y223576D01*
X67148Y223565D01*
X67148Y223565D01*
X67660Y223053D01*
X67684Y223023D01*
X67703Y222989D01*
X67705Y222980D01*
X67714Y222952D01*
X67716Y222933D01*
X67717Y222914D01*
X67717Y222913D01*
Y220394D01*
X67714Y220355D01*
X67705Y220327D01*
X67703Y220318D01*
X67684Y220284D01*
X67660Y220254D01*
X67659Y220254D01*
X67148Y219742D01*
X67148Y219742D01*
X67134Y219731D01*
X67118Y219718D01*
X67084Y219699D01*
X67046Y219688D01*
X67043Y219688D01*
X67008Y219684D01*
X67008Y219684D01*
X64055D01*
X64017Y219688D01*
X63980Y219699D01*
X63945Y219718D01*
X63915Y219742D01*
X63891Y219772D01*
X63872Y219806D01*
X63861Y219843D01*
X63857Y219882D01*
Y220408D01*
X62407Y221412D01*
X62393Y221424D01*
X62380Y221435D01*
X62379Y221436D01*
X62378Y221437D01*
X62366Y221451D01*
X62355Y221465D01*
X62354Y221466D01*
X62353Y221468D01*
X62345Y221483D01*
X62337Y221499D01*
X62336Y221501D01*
X62336Y221502D01*
X62331Y221519D01*
X62326Y221536D01*
X62326Y221538D01*
X62325Y221539D01*
X62324Y221557D01*
X62322Y221575D01*
Y221732D01*
X62324Y221750D01*
X62325Y221768D01*
X62326Y221769D01*
X62326Y221771D01*
X62331Y221788D01*
X62336Y221805D01*
X62336Y221807D01*
X62337Y221808D01*
X62345Y221824D01*
X62353Y221839D01*
X62354Y221841D01*
X62355Y221842D01*
X62367Y221856D01*
X62378Y221870D01*
X62379Y221871D01*
X62380Y221872D01*
X62394Y221884D01*
X62407Y221895D01*
X63857Y222899D01*
Y223425D01*
X63861Y223464D01*
X63872Y223501D01*
X63891Y223535D01*
X63915Y223565D01*
X63945Y223590D01*
X63980Y223608D01*
X64017Y223619D01*
X64055Y223623D01*
X67008D01*
X67008Y223623D01*
X67046Y223619D01*
D02*
G37*
G36*
X58543Y223623D02*
X63425D01*
X63464Y223619D01*
X63501Y223608D01*
X63535Y223590D01*
X63565Y223565D01*
X63590Y223535D01*
X63608Y223501D01*
X63619Y223464D01*
X63623Y223425D01*
Y223150D01*
X63621Y223132D01*
X63620Y223114D01*
X63619Y223113D01*
X63619Y223111D01*
X63614Y223094D01*
X63609Y223077D01*
X63608Y223076D01*
X63608Y223074D01*
X63600Y223058D01*
X63591Y223042D01*
X63590Y223041D01*
X63590Y223040D01*
X63578Y223026D01*
X63567Y223012D01*
X63566Y223011D01*
X63565Y223010D01*
X63551Y222998D01*
X63538Y222987D01*
X62088Y221983D01*
Y221324D01*
X63538Y220320D01*
X63551Y220309D01*
X63565Y220297D01*
X63566Y220296D01*
X63567Y220295D01*
X63578Y220281D01*
X63590Y220268D01*
X63591Y220266D01*
X63591Y220265D01*
X63600Y220249D01*
X63608Y220233D01*
X63608Y220232D01*
X63609Y220230D01*
X63614Y220213D01*
X63619Y220196D01*
X63619Y220195D01*
X63620Y220193D01*
X63621Y220175D01*
X63623Y220158D01*
Y219882D01*
X63619Y219843D01*
X63608Y219806D01*
X63590Y219772D01*
X63565Y219742D01*
X63535Y219718D01*
X63501Y219699D01*
X63464Y219688D01*
X63425Y219684D01*
X58543D01*
X58543Y219684D01*
X58524Y219686D01*
X58505Y219688D01*
X58476Y219697D01*
X58468Y219699D01*
X58434Y219718D01*
X58419Y219730D01*
X58403Y219742D01*
X58403Y219742D01*
X57931Y220215D01*
X57906Y220245D01*
X57888Y220279D01*
X57885Y220287D01*
X57877Y220316D01*
X57875Y220335D01*
X57873Y220354D01*
X57873Y220355D01*
Y222953D01*
X57873Y222953D01*
X57875Y222972D01*
X57877Y222991D01*
X57885Y223020D01*
X57888Y223028D01*
X57906Y223063D01*
X57919Y223078D01*
X57931Y223093D01*
X57931Y223093D01*
X58403Y223565D01*
X58434Y223590D01*
X58468Y223608D01*
X58476Y223611D01*
X58505Y223619D01*
X58524Y223621D01*
X58543Y223623D01*
X58543Y223623D01*
D02*
G37*
G36*
X220393Y192123D02*
X220430Y192112D01*
X220464Y192094D01*
X220481Y192080D01*
X220494Y192069D01*
X220494Y192069D01*
X221006Y191557D01*
X221031Y191527D01*
X221049Y191493D01*
X221052Y191484D01*
X221060Y191456D01*
X221062Y191437D01*
X221064Y191417D01*
X221064Y191417D01*
Y188898D01*
X221060Y188859D01*
X221052Y188831D01*
X221049Y188822D01*
X221031Y188788D01*
X221006Y188758D01*
X221006Y188758D01*
X220494Y188246D01*
X220494Y188246D01*
X220481Y188235D01*
X220464Y188221D01*
X220430Y188203D01*
X220393Y188192D01*
X220390Y188192D01*
X220354Y188188D01*
X220354Y188188D01*
X217402D01*
X217363Y188192D01*
X217326Y188203D01*
X217292Y188221D01*
X217262Y188246D01*
X217237Y188276D01*
X217219Y188310D01*
X217208Y188347D01*
X217204Y188386D01*
Y188912D01*
X215754Y189916D01*
X215740Y189928D01*
X215726Y189939D01*
X215725Y189940D01*
X215724Y189941D01*
X215713Y189955D01*
X215702Y189969D01*
X215701Y189970D01*
X215700Y189972D01*
X215692Y189987D01*
X215684Y190003D01*
X215683Y190005D01*
X215682Y190006D01*
X215677Y190023D01*
X215672Y190040D01*
X215672Y190042D01*
X215672Y190043D01*
X215670Y190061D01*
X215668Y190079D01*
Y190236D01*
X215670Y190254D01*
X215672Y190272D01*
X215672Y190273D01*
X215672Y190275D01*
X215677Y190292D01*
X215682Y190309D01*
X215683Y190310D01*
X215684Y190312D01*
X215692Y190328D01*
X215700Y190343D01*
X215701Y190345D01*
X215702Y190346D01*
X215713Y190360D01*
X215724Y190374D01*
X215725Y190375D01*
X215726Y190376D01*
X215740Y190387D01*
X215754Y190399D01*
X217204Y191403D01*
Y191929D01*
X217208Y191968D01*
X217219Y192005D01*
X217237Y192039D01*
X217262Y192069D01*
X217292Y192094D01*
X217326Y192112D01*
X217363Y192123D01*
X217402Y192127D01*
X220354D01*
X220354Y192127D01*
X220393Y192123D01*
D02*
G37*
G36*
X211890Y192127D02*
X216772D01*
X216810Y192123D01*
X216847Y192112D01*
X216882Y192094D01*
X216912Y192069D01*
X216936Y192039D01*
X216954Y192005D01*
X216966Y191968D01*
X216969Y191929D01*
Y191654D01*
X216968Y191636D01*
X216966Y191618D01*
X216966Y191617D01*
X216966Y191615D01*
X216961Y191598D01*
X216956Y191581D01*
X216955Y191579D01*
X216954Y191578D01*
X216946Y191562D01*
X216938Y191546D01*
X216937Y191545D01*
X216936Y191544D01*
X216925Y191530D01*
X216914Y191516D01*
X216913Y191515D01*
X216912Y191514D01*
X216898Y191502D01*
X216884Y191491D01*
X215434Y190487D01*
Y189828D01*
X216884Y188824D01*
X216898Y188813D01*
X216912Y188801D01*
X216913Y188800D01*
X216914Y188799D01*
X216925Y188785D01*
X216936Y188771D01*
X216937Y188770D01*
X216938Y188769D01*
X216946Y188753D01*
X216954Y188737D01*
X216955Y188736D01*
X216956Y188734D01*
X216961Y188717D01*
X216966Y188700D01*
X216966Y188698D01*
X216966Y188697D01*
X216968Y188679D01*
X216969Y188662D01*
Y188386D01*
X216966Y188347D01*
X216954Y188310D01*
X216936Y188276D01*
X216912Y188246D01*
X216882Y188221D01*
X216847Y188203D01*
X216810Y188192D01*
X216772Y188188D01*
X211890D01*
X211890Y188188D01*
X211871Y188190D01*
X211851Y188192D01*
X211823Y188200D01*
X211814Y188203D01*
X211780Y188221D01*
X211765Y188234D01*
X211750Y188246D01*
X211750Y188246D01*
X211278Y188718D01*
X211253Y188749D01*
X211235Y188783D01*
X211232Y188791D01*
X211223Y188820D01*
X211222Y188839D01*
X211220Y188858D01*
X211220Y188858D01*
Y191457D01*
X211220Y191457D01*
X211222Y191476D01*
X211223Y191495D01*
X211232Y191524D01*
X211235Y191532D01*
X211253Y191567D01*
X211265Y191582D01*
X211278Y191597D01*
X211278Y191597D01*
X211750Y192069D01*
X211780Y192094D01*
X211814Y192112D01*
X211823Y192115D01*
X211851Y192123D01*
X211871Y192125D01*
X211890Y192127D01*
X211890Y192127D01*
D02*
G37*
G36*
X55039Y192123D02*
X55076Y192112D01*
X55110Y192094D01*
X55126Y192080D01*
X55140Y192069D01*
X55140Y192069D01*
X55652Y191557D01*
X55676Y191527D01*
X55695Y191493D01*
X55697Y191484D01*
X55706Y191456D01*
X55708Y191437D01*
X55710Y191417D01*
X55710Y191417D01*
Y188898D01*
X55706Y188859D01*
X55697Y188831D01*
X55695Y188822D01*
X55676Y188788D01*
X55652Y188758D01*
X55652Y188758D01*
X55140Y188246D01*
X55140Y188246D01*
X55126Y188235D01*
X55110Y188221D01*
X55076Y188203D01*
X55039Y188192D01*
X55035Y188192D01*
X55000Y188188D01*
X55000Y188188D01*
X52047D01*
X52009Y188192D01*
X51972Y188203D01*
X51937Y188221D01*
X51907Y188246D01*
X51883Y188276D01*
X51864Y188310D01*
X51853Y188347D01*
X51850Y188386D01*
Y188912D01*
X50399Y189916D01*
X50386Y189928D01*
X50372Y189939D01*
X50371Y189940D01*
X50370Y189941D01*
X50359Y189955D01*
X50347Y189969D01*
X50347Y189970D01*
X50346Y189972D01*
X50337Y189987D01*
X50329Y190003D01*
X50329Y190005D01*
X50328Y190006D01*
X50323Y190023D01*
X50318Y190040D01*
X50318Y190042D01*
X50317Y190043D01*
X50316Y190061D01*
X50314Y190079D01*
Y190236D01*
X50316Y190254D01*
X50317Y190272D01*
X50318Y190273D01*
X50318Y190275D01*
X50323Y190292D01*
X50328Y190309D01*
X50329Y190310D01*
X50329Y190312D01*
X50337Y190328D01*
X50346Y190343D01*
X50347Y190345D01*
X50347Y190346D01*
X50359Y190360D01*
X50370Y190374D01*
X50371Y190375D01*
X50372Y190376D01*
X50386Y190387D01*
X50399Y190399D01*
X51850Y191403D01*
Y191929D01*
X51853Y191968D01*
X51864Y192005D01*
X51883Y192039D01*
X51907Y192069D01*
X51937Y192094D01*
X51972Y192112D01*
X52009Y192123D01*
X52047Y192127D01*
X55000D01*
X55000Y192127D01*
X55039Y192123D01*
D02*
G37*
G36*
X46536Y192127D02*
X51417D01*
X51456Y192123D01*
X51493Y192112D01*
X51527Y192094D01*
X51557Y192069D01*
X51582Y192039D01*
X51600Y192005D01*
X51611Y191968D01*
X51615Y191929D01*
Y191654D01*
X51613Y191636D01*
X51612Y191618D01*
X51612Y191617D01*
X51611Y191615D01*
X51606Y191598D01*
X51601Y191581D01*
X51601Y191579D01*
X51600Y191578D01*
X51592Y191562D01*
X51584Y191546D01*
X51583Y191545D01*
X51582Y191544D01*
X51570Y191530D01*
X51560Y191516D01*
X51558Y191515D01*
X51557Y191514D01*
X51543Y191502D01*
X51530Y191491D01*
X50080Y190487D01*
Y189828D01*
X51530Y188824D01*
X51543Y188813D01*
X51557Y188801D01*
X51558Y188800D01*
X51560Y188799D01*
X51570Y188785D01*
X51582Y188771D01*
X51583Y188770D01*
X51584Y188769D01*
X51592Y188753D01*
X51600Y188737D01*
X51601Y188736D01*
X51601Y188734D01*
X51606Y188717D01*
X51611Y188700D01*
X51612Y188698D01*
X51612Y188697D01*
X51613Y188679D01*
X51615Y188662D01*
Y188386D01*
X51611Y188347D01*
X51600Y188310D01*
X51582Y188276D01*
X51557Y188246D01*
X51527Y188221D01*
X51493Y188203D01*
X51456Y188192D01*
X51417Y188188D01*
X46536D01*
X46536Y188188D01*
X46516Y188190D01*
X46497Y188192D01*
X46468Y188200D01*
X46460Y188203D01*
X46426Y188221D01*
X46411Y188234D01*
X46396Y188246D01*
X46395Y188246D01*
X45923Y188718D01*
X45899Y188749D01*
X45880Y188783D01*
X45878Y188791D01*
X45869Y188820D01*
X45867Y188839D01*
X45865Y188858D01*
X45865Y188858D01*
Y191457D01*
X45865Y191457D01*
X45867Y191476D01*
X45869Y191495D01*
X45878Y191524D01*
X45880Y191532D01*
X45899Y191567D01*
X45911Y191582D01*
X45923Y191597D01*
X45923Y191597D01*
X46396Y192069D01*
X46426Y192094D01*
X46460Y192112D01*
X46468Y192115D01*
X46497Y192123D01*
X46516Y192125D01*
X46536Y192127D01*
X46536Y192127D01*
D02*
G37*
G36*
X232401Y174013D02*
X232438Y174002D01*
X232472Y173983D01*
X232489Y173970D01*
X232502Y173959D01*
X232502Y173959D01*
X233014Y173447D01*
X233038Y173417D01*
X233057Y173383D01*
X233059Y173374D01*
X233068Y173346D01*
X233070Y173327D01*
X233072Y173307D01*
X233072Y173307D01*
Y170788D01*
X233068Y170749D01*
X233059Y170720D01*
X233057Y170712D01*
X233038Y170678D01*
X233014Y170648D01*
X233014Y170648D01*
X232502Y170136D01*
X232502Y170136D01*
X232489Y170125D01*
X232472Y170111D01*
X232438Y170093D01*
X232401Y170082D01*
X232397Y170081D01*
X232362Y170078D01*
X232362Y170078D01*
X229410D01*
X229371Y170082D01*
X229334Y170093D01*
X229300Y170111D01*
X229270Y170136D01*
X229245Y170166D01*
X229227Y170200D01*
X229216Y170237D01*
X229212Y170276D01*
Y170802D01*
X227762Y171806D01*
X227748Y171818D01*
X227734Y171829D01*
X227733Y171830D01*
X227732Y171831D01*
X227721Y171845D01*
X227710Y171859D01*
X227709Y171860D01*
X227708Y171861D01*
X227700Y171877D01*
X227691Y171893D01*
X227691Y171895D01*
X227690Y171896D01*
X227685Y171913D01*
X227680Y171930D01*
X227680Y171932D01*
X227679Y171933D01*
X227678Y171951D01*
X227676Y171969D01*
Y172126D01*
X227678Y172144D01*
X227679Y172161D01*
X227680Y172163D01*
X227680Y172165D01*
X227685Y172182D01*
X227690Y172199D01*
X227691Y172200D01*
X227691Y172202D01*
X227700Y172217D01*
X227708Y172233D01*
X227709Y172234D01*
X227710Y172236D01*
X227721Y172250D01*
X227732Y172264D01*
X227733Y172265D01*
X227734Y172266D01*
X227748Y172277D01*
X227762Y172289D01*
X229212Y173293D01*
Y173819D01*
X229216Y173858D01*
X229227Y173895D01*
X229245Y173929D01*
X229270Y173959D01*
X229300Y173983D01*
X229334Y174002D01*
X229371Y174013D01*
X229410Y174017D01*
X232362D01*
X232362Y174017D01*
X232401Y174013D01*
D02*
G37*
G36*
X223898Y174017D02*
X228780D01*
X228818Y174013D01*
X228855Y174002D01*
X228889Y173983D01*
X228920Y173959D01*
X228944Y173929D01*
X228962Y173895D01*
X228974Y173857D01*
X228977Y173819D01*
Y173543D01*
X228976Y173526D01*
X228974Y173508D01*
X228974Y173506D01*
X228974Y173505D01*
X228968Y173488D01*
X228963Y173471D01*
X228963Y173469D01*
X228962Y173468D01*
X228954Y173452D01*
X228946Y173436D01*
X228945Y173435D01*
X228944Y173433D01*
X228933Y173420D01*
X228922Y173406D01*
X228921Y173405D01*
X228920Y173404D01*
X228906Y173392D01*
X228892Y173381D01*
X227442Y172377D01*
Y171718D01*
X228892Y170714D01*
X228906Y170702D01*
X228920Y170691D01*
X228921Y170690D01*
X228922Y170689D01*
X228933Y170675D01*
X228944Y170661D01*
X228945Y170660D01*
X228946Y170658D01*
X228954Y170643D01*
X228962Y170627D01*
X228963Y170625D01*
X228963Y170624D01*
X228969Y170607D01*
X228974Y170590D01*
X228974Y170588D01*
X228974Y170587D01*
X228976Y170569D01*
X228977Y170551D01*
Y170276D01*
X228974Y170237D01*
X228962Y170200D01*
X228944Y170166D01*
X228920Y170136D01*
X228889Y170111D01*
X228855Y170093D01*
X228818Y170082D01*
X228780Y170078D01*
X223898D01*
X223898Y170078D01*
X223878Y170080D01*
X223859Y170082D01*
X223831Y170090D01*
X223822Y170093D01*
X223788Y170111D01*
X223773Y170124D01*
X223758Y170136D01*
X223758Y170136D01*
X223285Y170608D01*
X223261Y170638D01*
X223242Y170672D01*
X223240Y170681D01*
X223231Y170710D01*
X223229Y170729D01*
X223227Y170748D01*
X223228Y170748D01*
Y173346D01*
X223227Y173346D01*
X223229Y173366D01*
X223231Y173385D01*
X223240Y173414D01*
X223242Y173422D01*
X223261Y173456D01*
X223273Y173471D01*
X223285Y173486D01*
X223285Y173486D01*
X223758Y173959D01*
X223788Y173983D01*
X223822Y174002D01*
X223831Y174004D01*
X223859Y174013D01*
X223878Y174015D01*
X223898Y174017D01*
X223898Y174017D01*
D02*
G37*
G36*
X67046Y174013D02*
X67084Y174002D01*
X67118Y173983D01*
X67134Y173970D01*
X67148Y173959D01*
X67148Y173959D01*
X67660Y173447D01*
X67684Y173417D01*
X67703Y173383D01*
X67705Y173374D01*
X67714Y173346D01*
X67716Y173327D01*
X67717Y173307D01*
X67717Y173307D01*
Y170788D01*
X67714Y170749D01*
X67705Y170720D01*
X67703Y170712D01*
X67684Y170678D01*
X67660Y170648D01*
X67659Y170648D01*
X67148Y170136D01*
X67148Y170136D01*
X67134Y170125D01*
X67118Y170111D01*
X67084Y170093D01*
X67046Y170082D01*
X67043Y170081D01*
X67008Y170078D01*
X67008Y170078D01*
X64055D01*
X64017Y170082D01*
X63980Y170093D01*
X63945Y170111D01*
X63915Y170136D01*
X63891Y170166D01*
X63872Y170200D01*
X63861Y170237D01*
X63857Y170276D01*
Y170802D01*
X62407Y171806D01*
X62393Y171818D01*
X62380Y171829D01*
X62379Y171830D01*
X62378Y171831D01*
X62366Y171845D01*
X62355Y171859D01*
X62354Y171860D01*
X62353Y171861D01*
X62345Y171877D01*
X62337Y171893D01*
X62336Y171895D01*
X62336Y171896D01*
X62331Y171913D01*
X62326Y171930D01*
X62326Y171932D01*
X62325Y171933D01*
X62324Y171951D01*
X62322Y171969D01*
Y172126D01*
X62324Y172144D01*
X62325Y172161D01*
X62326Y172163D01*
X62326Y172165D01*
X62331Y172182D01*
X62336Y172199D01*
X62336Y172200D01*
X62337Y172202D01*
X62345Y172217D01*
X62353Y172233D01*
X62354Y172234D01*
X62355Y172236D01*
X62367Y172250D01*
X62378Y172264D01*
X62379Y172265D01*
X62380Y172266D01*
X62394Y172277D01*
X62407Y172289D01*
X63857Y173293D01*
Y173819D01*
X63861Y173858D01*
X63872Y173895D01*
X63891Y173929D01*
X63915Y173959D01*
X63945Y173983D01*
X63980Y174002D01*
X64017Y174013D01*
X64055Y174017D01*
X67008D01*
X67008Y174017D01*
X67046Y174013D01*
D02*
G37*
G36*
X58543Y174017D02*
X63425D01*
X63464Y174013D01*
X63501Y174002D01*
X63535Y173983D01*
X63565Y173959D01*
X63590Y173929D01*
X63608Y173895D01*
X63619Y173857D01*
X63623Y173819D01*
Y173543D01*
X63621Y173526D01*
X63620Y173508D01*
X63619Y173506D01*
X63619Y173505D01*
X63614Y173488D01*
X63609Y173471D01*
X63608Y173469D01*
X63608Y173468D01*
X63600Y173452D01*
X63591Y173436D01*
X63590Y173435D01*
X63590Y173433D01*
X63578Y173420D01*
X63567Y173406D01*
X63566Y173405D01*
X63565Y173404D01*
X63551Y173392D01*
X63538Y173381D01*
X62088Y172377D01*
Y171718D01*
X63538Y170714D01*
X63551Y170702D01*
X63565Y170691D01*
X63566Y170690D01*
X63567Y170689D01*
X63578Y170675D01*
X63590Y170661D01*
X63591Y170660D01*
X63591Y170658D01*
X63600Y170643D01*
X63608Y170627D01*
X63608Y170625D01*
X63609Y170624D01*
X63614Y170607D01*
X63619Y170590D01*
X63619Y170588D01*
X63620Y170587D01*
X63621Y170569D01*
X63623Y170551D01*
Y170276D01*
X63619Y170237D01*
X63608Y170200D01*
X63590Y170166D01*
X63565Y170136D01*
X63535Y170111D01*
X63501Y170093D01*
X63464Y170082D01*
X63425Y170078D01*
X58543D01*
X58543Y170078D01*
X58524Y170080D01*
X58505Y170082D01*
X58476Y170090D01*
X58468Y170093D01*
X58434Y170111D01*
X58419Y170124D01*
X58403Y170136D01*
X58403Y170136D01*
X57931Y170608D01*
X57906Y170638D01*
X57888Y170672D01*
X57885Y170681D01*
X57877Y170710D01*
X57875Y170729D01*
X57873Y170748D01*
X57873Y170748D01*
Y173346D01*
X57873Y173346D01*
X57875Y173366D01*
X57877Y173385D01*
X57885Y173414D01*
X57888Y173422D01*
X57906Y173456D01*
X57919Y173471D01*
X57931Y173486D01*
X57931Y173486D01*
X58403Y173959D01*
X58434Y173983D01*
X58468Y174002D01*
X58476Y174004D01*
X58505Y174013D01*
X58524Y174015D01*
X58543Y174017D01*
X58543Y174017D01*
D02*
G37*
G36*
X232401Y164564D02*
X232438Y164553D01*
X232472Y164535D01*
X232489Y164521D01*
X232502Y164510D01*
X232502Y164510D01*
X233014Y163998D01*
X233038Y163968D01*
X233057Y163934D01*
X233059Y163925D01*
X233068Y163897D01*
X233070Y163878D01*
X233072Y163858D01*
X233072Y163858D01*
Y161339D01*
X233068Y161300D01*
X233059Y161272D01*
X233057Y161263D01*
X233038Y161229D01*
X233014Y161199D01*
X233014Y161199D01*
X232502Y160687D01*
X232502Y160687D01*
X232489Y160676D01*
X232472Y160662D01*
X232438Y160644D01*
X232401Y160633D01*
X232397Y160633D01*
X232362Y160629D01*
X232362Y160629D01*
X229410D01*
X229371Y160633D01*
X229334Y160644D01*
X229300Y160662D01*
X229270Y160687D01*
X229245Y160717D01*
X229227Y160751D01*
X229216Y160788D01*
X229212Y160827D01*
Y161353D01*
X227762Y162357D01*
X227748Y162369D01*
X227734Y162380D01*
X227733Y162381D01*
X227732Y162382D01*
X227721Y162396D01*
X227710Y162410D01*
X227709Y162411D01*
X227708Y162413D01*
X227700Y162428D01*
X227691Y162444D01*
X227691Y162446D01*
X227690Y162447D01*
X227685Y162464D01*
X227680Y162481D01*
X227680Y162483D01*
X227679Y162484D01*
X227678Y162502D01*
X227676Y162520D01*
Y162677D01*
X227678Y162695D01*
X227679Y162713D01*
X227680Y162714D01*
X227680Y162716D01*
X227685Y162733D01*
X227690Y162750D01*
X227691Y162751D01*
X227691Y162753D01*
X227700Y162768D01*
X227708Y162784D01*
X227709Y162786D01*
X227710Y162787D01*
X227721Y162801D01*
X227732Y162815D01*
X227733Y162816D01*
X227734Y162817D01*
X227748Y162828D01*
X227762Y162840D01*
X229212Y163844D01*
Y164370D01*
X229216Y164409D01*
X229227Y164446D01*
X229245Y164480D01*
X229270Y164510D01*
X229300Y164535D01*
X229334Y164553D01*
X229371Y164564D01*
X229410Y164568D01*
X232362D01*
X232362Y164568D01*
X232401Y164564D01*
D02*
G37*
G36*
X223898Y164568D02*
X228780D01*
X228818Y164564D01*
X228855Y164553D01*
X228889Y164535D01*
X228920Y164510D01*
X228944Y164480D01*
X228962Y164446D01*
X228974Y164409D01*
X228977Y164370D01*
Y164095D01*
X228976Y164077D01*
X228974Y164059D01*
X228974Y164058D01*
X228974Y164056D01*
X228968Y164039D01*
X228963Y164022D01*
X228963Y164020D01*
X228962Y164019D01*
X228954Y164003D01*
X228946Y163987D01*
X228945Y163986D01*
X228944Y163985D01*
X228933Y163971D01*
X228922Y163957D01*
X228921Y163956D01*
X228920Y163955D01*
X228906Y163943D01*
X228892Y163932D01*
X227442Y162928D01*
Y162269D01*
X228892Y161265D01*
X228906Y161253D01*
X228920Y161242D01*
X228921Y161241D01*
X228922Y161240D01*
X228933Y161226D01*
X228944Y161212D01*
X228945Y161211D01*
X228946Y161210D01*
X228954Y161194D01*
X228962Y161178D01*
X228963Y161177D01*
X228963Y161175D01*
X228969Y161158D01*
X228974Y161141D01*
X228974Y161139D01*
X228974Y161138D01*
X228976Y161120D01*
X228977Y161102D01*
Y160827D01*
X228974Y160788D01*
X228962Y160751D01*
X228944Y160717D01*
X228920Y160687D01*
X228889Y160662D01*
X228855Y160644D01*
X228818Y160633D01*
X228780Y160629D01*
X223898D01*
X223898Y160629D01*
X223878Y160631D01*
X223859Y160633D01*
X223831Y160642D01*
X223822Y160644D01*
X223788Y160662D01*
X223773Y160675D01*
X223758Y160687D01*
X223758Y160687D01*
X223285Y161159D01*
X223261Y161189D01*
X223242Y161224D01*
X223240Y161232D01*
X223231Y161261D01*
X223229Y161280D01*
X223227Y161299D01*
X223228Y161299D01*
Y163898D01*
X223227Y163898D01*
X223229Y163917D01*
X223231Y163936D01*
X223240Y163965D01*
X223242Y163973D01*
X223261Y164008D01*
X223273Y164023D01*
X223285Y164038D01*
X223285Y164038D01*
X223758Y164510D01*
X223788Y164535D01*
X223822Y164553D01*
X223831Y164556D01*
X223859Y164564D01*
X223878Y164566D01*
X223898Y164568D01*
X223898Y164568D01*
D02*
G37*
G36*
X67046Y164564D02*
X67084Y164553D01*
X67118Y164535D01*
X67134Y164521D01*
X67148Y164510D01*
X67148Y164510D01*
X67660Y163998D01*
X67684Y163968D01*
X67703Y163934D01*
X67705Y163925D01*
X67714Y163897D01*
X67716Y163878D01*
X67717Y163858D01*
X67717Y163858D01*
Y161339D01*
X67714Y161300D01*
X67705Y161272D01*
X67703Y161263D01*
X67684Y161229D01*
X67660Y161199D01*
X67659Y161199D01*
X67148Y160687D01*
X67148Y160687D01*
X67134Y160676D01*
X67118Y160662D01*
X67084Y160644D01*
X67046Y160633D01*
X67043Y160633D01*
X67008Y160629D01*
X67008Y160629D01*
X64055D01*
X64017Y160633D01*
X63980Y160644D01*
X63945Y160662D01*
X63915Y160687D01*
X63891Y160717D01*
X63872Y160751D01*
X63861Y160788D01*
X63857Y160827D01*
Y161353D01*
X62407Y162357D01*
X62393Y162369D01*
X62380Y162380D01*
X62379Y162381D01*
X62378Y162382D01*
X62366Y162396D01*
X62355Y162410D01*
X62354Y162411D01*
X62353Y162413D01*
X62345Y162428D01*
X62337Y162444D01*
X62336Y162446D01*
X62336Y162447D01*
X62331Y162464D01*
X62326Y162481D01*
X62326Y162483D01*
X62325Y162484D01*
X62324Y162502D01*
X62322Y162520D01*
Y162677D01*
X62324Y162695D01*
X62325Y162713D01*
X62326Y162714D01*
X62326Y162716D01*
X62331Y162733D01*
X62336Y162750D01*
X62336Y162751D01*
X62337Y162753D01*
X62345Y162768D01*
X62353Y162784D01*
X62354Y162786D01*
X62355Y162787D01*
X62367Y162801D01*
X62378Y162815D01*
X62379Y162816D01*
X62380Y162817D01*
X62394Y162828D01*
X62407Y162840D01*
X63857Y163844D01*
Y164370D01*
X63861Y164409D01*
X63872Y164446D01*
X63891Y164480D01*
X63915Y164510D01*
X63945Y164535D01*
X63980Y164553D01*
X64017Y164564D01*
X64055Y164568D01*
X67008D01*
X67008Y164568D01*
X67046Y164564D01*
D02*
G37*
G36*
X58543Y164568D02*
X63425D01*
X63464Y164564D01*
X63501Y164553D01*
X63535Y164535D01*
X63565Y164510D01*
X63590Y164480D01*
X63608Y164446D01*
X63619Y164409D01*
X63623Y164370D01*
Y164095D01*
X63621Y164077D01*
X63620Y164059D01*
X63619Y164058D01*
X63619Y164056D01*
X63614Y164039D01*
X63609Y164022D01*
X63608Y164020D01*
X63608Y164019D01*
X63600Y164003D01*
X63591Y163987D01*
X63590Y163986D01*
X63590Y163985D01*
X63578Y163971D01*
X63567Y163957D01*
X63566Y163956D01*
X63565Y163955D01*
X63551Y163943D01*
X63538Y163932D01*
X62088Y162928D01*
Y162269D01*
X63538Y161265D01*
X63551Y161253D01*
X63565Y161242D01*
X63566Y161241D01*
X63567Y161240D01*
X63578Y161226D01*
X63590Y161212D01*
X63591Y161211D01*
X63591Y161210D01*
X63600Y161194D01*
X63608Y161178D01*
X63608Y161177D01*
X63609Y161175D01*
X63614Y161158D01*
X63619Y161141D01*
X63619Y161139D01*
X63620Y161138D01*
X63621Y161120D01*
X63623Y161102D01*
Y160827D01*
X63619Y160788D01*
X63608Y160751D01*
X63590Y160717D01*
X63565Y160687D01*
X63535Y160662D01*
X63501Y160644D01*
X63464Y160633D01*
X63425Y160629D01*
X58543D01*
X58543Y160629D01*
X58524Y160631D01*
X58505Y160633D01*
X58476Y160642D01*
X58468Y160644D01*
X58434Y160662D01*
X58419Y160675D01*
X58403Y160687D01*
X58403Y160687D01*
X57931Y161159D01*
X57906Y161189D01*
X57888Y161224D01*
X57885Y161232D01*
X57877Y161261D01*
X57875Y161280D01*
X57873Y161299D01*
X57873Y161299D01*
Y163898D01*
X57873Y163898D01*
X57875Y163917D01*
X57877Y163936D01*
X57885Y163965D01*
X57888Y163973D01*
X57906Y164008D01*
X57919Y164023D01*
X57931Y164038D01*
X57931Y164038D01*
X58403Y164510D01*
X58434Y164535D01*
X58468Y164553D01*
X58476Y164556D01*
X58505Y164564D01*
X58524Y164566D01*
X58543Y164568D01*
X58543Y164568D01*
D02*
G37*
G36*
X220393Y133068D02*
X220430Y133057D01*
X220464Y133038D01*
X220481Y133025D01*
X220494Y133014D01*
X220494Y133014D01*
X221006Y132502D01*
X221031Y132472D01*
X221049Y132438D01*
X221052Y132429D01*
X221060Y132401D01*
X221062Y132381D01*
X221064Y132362D01*
X221064Y132362D01*
Y129843D01*
X221060Y129804D01*
X221052Y129776D01*
X221049Y129767D01*
X221031Y129733D01*
X221006Y129703D01*
X221006Y129703D01*
X220494Y129191D01*
X220494Y129191D01*
X220481Y129180D01*
X220464Y129166D01*
X220430Y129148D01*
X220393Y129137D01*
X220390Y129136D01*
X220354Y129133D01*
X220354Y129133D01*
X217402D01*
X217363Y129137D01*
X217326Y129148D01*
X217292Y129166D01*
X217262Y129191D01*
X217237Y129221D01*
X217219Y129255D01*
X217208Y129292D01*
X217204Y129331D01*
Y129857D01*
X215754Y130861D01*
X215740Y130873D01*
X215726Y130884D01*
X215725Y130885D01*
X215724Y130886D01*
X215713Y130900D01*
X215702Y130914D01*
X215701Y130915D01*
X215700Y130917D01*
X215692Y130932D01*
X215684Y130948D01*
X215683Y130949D01*
X215682Y130951D01*
X215677Y130968D01*
X215672Y130985D01*
X215672Y130987D01*
X215672Y130988D01*
X215670Y131006D01*
X215668Y131024D01*
Y131181D01*
X215670Y131199D01*
X215672Y131217D01*
X215672Y131218D01*
X215672Y131220D01*
X215677Y131237D01*
X215682Y131254D01*
X215683Y131255D01*
X215684Y131257D01*
X215692Y131272D01*
X215700Y131288D01*
X215701Y131290D01*
X215702Y131291D01*
X215713Y131305D01*
X215724Y131319D01*
X215725Y131320D01*
X215726Y131321D01*
X215740Y131332D01*
X215754Y131344D01*
X217204Y132348D01*
Y132874D01*
X217208Y132913D01*
X217219Y132950D01*
X217237Y132984D01*
X217262Y133014D01*
X217292Y133038D01*
X217326Y133057D01*
X217363Y133068D01*
X217402Y133072D01*
X220354D01*
X220354Y133072D01*
X220393Y133068D01*
D02*
G37*
G36*
X211890Y133072D02*
X216772D01*
X216810Y133068D01*
X216847Y133057D01*
X216882Y133038D01*
X216912Y133014D01*
X216936Y132984D01*
X216954Y132950D01*
X216966Y132913D01*
X216969Y132874D01*
Y132598D01*
X216968Y132581D01*
X216966Y132563D01*
X216966Y132562D01*
X216966Y132560D01*
X216961Y132543D01*
X216956Y132526D01*
X216955Y132524D01*
X216954Y132523D01*
X216946Y132507D01*
X216938Y132491D01*
X216937Y132490D01*
X216936Y132489D01*
X216925Y132475D01*
X216914Y132461D01*
X216913Y132460D01*
X216912Y132459D01*
X216898Y132447D01*
X216884Y132436D01*
X215434Y131432D01*
Y130773D01*
X216884Y129769D01*
X216898Y129757D01*
X216912Y129746D01*
X216913Y129745D01*
X216914Y129744D01*
X216925Y129730D01*
X216936Y129716D01*
X216937Y129715D01*
X216938Y129713D01*
X216946Y129698D01*
X216954Y129682D01*
X216955Y129680D01*
X216956Y129679D01*
X216961Y129662D01*
X216966Y129645D01*
X216966Y129643D01*
X216966Y129642D01*
X216968Y129624D01*
X216969Y129606D01*
Y129331D01*
X216966Y129292D01*
X216954Y129255D01*
X216936Y129221D01*
X216912Y129191D01*
X216882Y129166D01*
X216847Y129148D01*
X216810Y129137D01*
X216772Y129133D01*
X211890D01*
X211890Y129133D01*
X211871Y129135D01*
X211851Y129137D01*
X211823Y129145D01*
X211814Y129148D01*
X211780Y129166D01*
X211765Y129179D01*
X211750Y129191D01*
X211750Y129191D01*
X211278Y129663D01*
X211253Y129693D01*
X211235Y129727D01*
X211232Y129736D01*
X211223Y129765D01*
X211222Y129784D01*
X211220Y129803D01*
X211220Y129803D01*
Y132402D01*
X211220Y132402D01*
X211222Y132421D01*
X211223Y132440D01*
X211232Y132469D01*
X211235Y132477D01*
X211253Y132511D01*
X211265Y132527D01*
X211278Y132542D01*
X211278Y132542D01*
X211750Y133014D01*
X211780Y133038D01*
X211814Y133057D01*
X211823Y133059D01*
X211851Y133068D01*
X211871Y133070D01*
X211890Y133072D01*
X211890Y133072D01*
D02*
G37*
G36*
X55039Y133068D02*
X55076Y133057D01*
X55110Y133038D01*
X55126Y133025D01*
X55140Y133014D01*
X55140Y133014D01*
X55652Y132502D01*
X55676Y132472D01*
X55695Y132438D01*
X55697Y132429D01*
X55706Y132401D01*
X55708Y132381D01*
X55710Y132362D01*
X55710Y132362D01*
Y129843D01*
X55706Y129804D01*
X55697Y129776D01*
X55695Y129767D01*
X55676Y129733D01*
X55652Y129703D01*
X55652Y129703D01*
X55140Y129191D01*
X55140Y129191D01*
X55126Y129180D01*
X55110Y129166D01*
X55076Y129148D01*
X55039Y129137D01*
X55035Y129136D01*
X55000Y129133D01*
X55000Y129133D01*
X52047D01*
X52009Y129137D01*
X51972Y129148D01*
X51937Y129166D01*
X51907Y129191D01*
X51883Y129221D01*
X51864Y129255D01*
X51853Y129292D01*
X51850Y129331D01*
Y129857D01*
X50399Y130861D01*
X50386Y130873D01*
X50372Y130884D01*
X50371Y130885D01*
X50370Y130886D01*
X50359Y130900D01*
X50347Y130914D01*
X50347Y130915D01*
X50346Y130917D01*
X50337Y130932D01*
X50329Y130948D01*
X50329Y130949D01*
X50328Y130951D01*
X50323Y130968D01*
X50318Y130985D01*
X50318Y130987D01*
X50317Y130988D01*
X50316Y131006D01*
X50314Y131024D01*
Y131181D01*
X50316Y131199D01*
X50317Y131217D01*
X50318Y131218D01*
X50318Y131220D01*
X50323Y131237D01*
X50328Y131254D01*
X50329Y131255D01*
X50329Y131257D01*
X50337Y131272D01*
X50346Y131288D01*
X50347Y131290D01*
X50347Y131291D01*
X50359Y131305D01*
X50370Y131319D01*
X50371Y131320D01*
X50372Y131321D01*
X50386Y131332D01*
X50399Y131344D01*
X51850Y132348D01*
Y132874D01*
X51853Y132913D01*
X51864Y132950D01*
X51883Y132984D01*
X51907Y133014D01*
X51937Y133038D01*
X51972Y133057D01*
X52009Y133068D01*
X52047Y133072D01*
X55000D01*
X55000Y133072D01*
X55039Y133068D01*
D02*
G37*
G36*
X46536Y133072D02*
X51417D01*
X51456Y133068D01*
X51493Y133057D01*
X51527Y133038D01*
X51557Y133014D01*
X51582Y132984D01*
X51600Y132950D01*
X51611Y132913D01*
X51615Y132874D01*
Y132598D01*
X51613Y132581D01*
X51612Y132563D01*
X51612Y132562D01*
X51611Y132560D01*
X51606Y132543D01*
X51601Y132526D01*
X51601Y132524D01*
X51600Y132523D01*
X51592Y132507D01*
X51584Y132491D01*
X51583Y132490D01*
X51582Y132489D01*
X51570Y132475D01*
X51560Y132461D01*
X51558Y132460D01*
X51557Y132459D01*
X51543Y132447D01*
X51530Y132436D01*
X50080Y131432D01*
Y130773D01*
X51530Y129769D01*
X51543Y129757D01*
X51557Y129746D01*
X51558Y129745D01*
X51560Y129744D01*
X51570Y129730D01*
X51582Y129716D01*
X51583Y129715D01*
X51584Y129713D01*
X51592Y129698D01*
X51600Y129682D01*
X51601Y129680D01*
X51601Y129679D01*
X51606Y129662D01*
X51611Y129645D01*
X51612Y129643D01*
X51612Y129642D01*
X51613Y129624D01*
X51615Y129606D01*
Y129331D01*
X51611Y129292D01*
X51600Y129255D01*
X51582Y129221D01*
X51557Y129191D01*
X51527Y129166D01*
X51493Y129148D01*
X51456Y129137D01*
X51417Y129133D01*
X46536D01*
X46536Y129133D01*
X46516Y129135D01*
X46497Y129137D01*
X46468Y129145D01*
X46460Y129148D01*
X46426Y129166D01*
X46411Y129179D01*
X46396Y129191D01*
X46395Y129191D01*
X45923Y129663D01*
X45899Y129693D01*
X45880Y129727D01*
X45878Y129736D01*
X45869Y129765D01*
X45867Y129784D01*
X45865Y129803D01*
X45865Y129803D01*
Y132402D01*
X45865Y132402D01*
X45867Y132421D01*
X45869Y132440D01*
X45878Y132469D01*
X45880Y132477D01*
X45899Y132511D01*
X45911Y132527D01*
X45923Y132542D01*
X45923Y132542D01*
X46396Y133014D01*
X46426Y133038D01*
X46460Y133057D01*
X46468Y133059D01*
X46497Y133068D01*
X46516Y133070D01*
X46536Y133072D01*
X46536Y133072D01*
D02*
G37*
G36*
X232401Y114958D02*
X232438Y114947D01*
X232472Y114928D01*
X232489Y114915D01*
X232502Y114904D01*
X232502Y114904D01*
X233014Y114392D01*
X233038Y114362D01*
X233057Y114328D01*
X233059Y114319D01*
X233068Y114291D01*
X233070Y114271D01*
X233072Y114252D01*
X233072Y114252D01*
Y111732D01*
X233068Y111694D01*
X233059Y111665D01*
X233057Y111657D01*
X233038Y111622D01*
X233014Y111592D01*
X233014Y111592D01*
X232502Y111081D01*
X232502Y111081D01*
X232489Y111070D01*
X232472Y111056D01*
X232438Y111038D01*
X232401Y111027D01*
X232397Y111026D01*
X232362Y111023D01*
X232362Y111023D01*
X229410D01*
X229371Y111027D01*
X229334Y111038D01*
X229300Y111056D01*
X229270Y111081D01*
X229245Y111111D01*
X229227Y111145D01*
X229216Y111182D01*
X229212Y111221D01*
Y111747D01*
X227762Y112751D01*
X227748Y112762D01*
X227734Y112774D01*
X227733Y112775D01*
X227732Y112776D01*
X227721Y112790D01*
X227710Y112803D01*
X227709Y112805D01*
X227708Y112806D01*
X227700Y112822D01*
X227691Y112838D01*
X227691Y112839D01*
X227690Y112841D01*
X227685Y112858D01*
X227680Y112875D01*
X227680Y112876D01*
X227679Y112878D01*
X227678Y112896D01*
X227676Y112913D01*
Y113071D01*
X227678Y113089D01*
X227679Y113106D01*
X227680Y113108D01*
X227680Y113110D01*
X227685Y113127D01*
X227690Y113144D01*
X227691Y113145D01*
X227691Y113147D01*
X227700Y113162D01*
X227708Y113178D01*
X227709Y113179D01*
X227710Y113181D01*
X227721Y113195D01*
X227732Y113208D01*
X227733Y113209D01*
X227734Y113211D01*
X227748Y113222D01*
X227762Y113233D01*
X229212Y114237D01*
Y114764D01*
X229216Y114802D01*
X229227Y114839D01*
X229245Y114874D01*
X229270Y114904D01*
X229300Y114928D01*
X229334Y114947D01*
X229371Y114958D01*
X229410Y114962D01*
X232362D01*
X232362Y114962D01*
X232401Y114958D01*
D02*
G37*
G36*
X223898Y114962D02*
X228780D01*
X228818Y114958D01*
X228855Y114947D01*
X228889Y114928D01*
X228920Y114904D01*
X228944Y114874D01*
X228962Y114839D01*
X228974Y114802D01*
X228977Y114764D01*
Y114488D01*
X228976Y114471D01*
X228974Y114453D01*
X228974Y114451D01*
X228974Y114450D01*
X228968Y114433D01*
X228963Y114416D01*
X228963Y114414D01*
X228962Y114412D01*
X228954Y114397D01*
X228946Y114381D01*
X228945Y114380D01*
X228944Y114378D01*
X228933Y114365D01*
X228922Y114351D01*
X228921Y114350D01*
X228920Y114348D01*
X228906Y114337D01*
X228892Y114326D01*
X227442Y113322D01*
Y112663D01*
X228892Y111659D01*
X228906Y111647D01*
X228920Y111636D01*
X228921Y111635D01*
X228922Y111634D01*
X228933Y111620D01*
X228944Y111606D01*
X228945Y111604D01*
X228946Y111603D01*
X228954Y111588D01*
X228962Y111572D01*
X228963Y111570D01*
X228963Y111569D01*
X228969Y111552D01*
X228974Y111535D01*
X228974Y111533D01*
X228974Y111531D01*
X228976Y111514D01*
X228977Y111496D01*
Y111221D01*
X228974Y111182D01*
X228962Y111145D01*
X228944Y111111D01*
X228920Y111081D01*
X228889Y111056D01*
X228855Y111038D01*
X228818Y111027D01*
X228780Y111023D01*
X223898D01*
X223898Y111023D01*
X223878Y111025D01*
X223859Y111027D01*
X223831Y111035D01*
X223822Y111038D01*
X223788Y111056D01*
X223773Y111068D01*
X223758Y111081D01*
X223758Y111081D01*
X223285Y111553D01*
X223261Y111583D01*
X223242Y111617D01*
X223240Y111626D01*
X223231Y111654D01*
X223229Y111674D01*
X223227Y111693D01*
X223228Y111693D01*
Y114291D01*
X223227Y114291D01*
X223229Y114311D01*
X223231Y114330D01*
X223240Y114358D01*
X223242Y114367D01*
X223261Y114401D01*
X223273Y114416D01*
X223285Y114431D01*
X223285Y114431D01*
X223758Y114904D01*
X223788Y114928D01*
X223822Y114947D01*
X223831Y114949D01*
X223859Y114958D01*
X223878Y114960D01*
X223898Y114962D01*
X223898Y114962D01*
D02*
G37*
G36*
X67046Y114958D02*
X67084Y114947D01*
X67118Y114928D01*
X67134Y114915D01*
X67148Y114904D01*
X67148Y114904D01*
X67660Y114392D01*
X67684Y114362D01*
X67703Y114328D01*
X67705Y114319D01*
X67714Y114291D01*
X67716Y114271D01*
X67717Y114252D01*
X67717Y114252D01*
Y111732D01*
X67714Y111694D01*
X67705Y111665D01*
X67703Y111657D01*
X67684Y111622D01*
X67660Y111592D01*
X67659Y111592D01*
X67148Y111081D01*
X67148Y111081D01*
X67134Y111070D01*
X67118Y111056D01*
X67084Y111038D01*
X67046Y111027D01*
X67043Y111026D01*
X67008Y111023D01*
X67008Y111023D01*
X64055D01*
X64017Y111027D01*
X63980Y111038D01*
X63945Y111056D01*
X63915Y111081D01*
X63891Y111111D01*
X63872Y111145D01*
X63861Y111182D01*
X63857Y111221D01*
Y111747D01*
X62407Y112751D01*
X62393Y112762D01*
X62380Y112774D01*
X62379Y112775D01*
X62378Y112776D01*
X62366Y112790D01*
X62355Y112803D01*
X62354Y112805D01*
X62353Y112806D01*
X62345Y112822D01*
X62337Y112838D01*
X62336Y112839D01*
X62336Y112841D01*
X62331Y112858D01*
X62326Y112875D01*
X62326Y112876D01*
X62325Y112878D01*
X62324Y112896D01*
X62322Y112913D01*
Y113071D01*
X62324Y113089D01*
X62325Y113106D01*
X62326Y113108D01*
X62326Y113110D01*
X62331Y113127D01*
X62336Y113144D01*
X62336Y113145D01*
X62337Y113147D01*
X62345Y113162D01*
X62353Y113178D01*
X62354Y113179D01*
X62355Y113181D01*
X62367Y113195D01*
X62378Y113208D01*
X62379Y113209D01*
X62380Y113211D01*
X62394Y113222D01*
X62407Y113233D01*
X63857Y114237D01*
Y114764D01*
X63861Y114802D01*
X63872Y114839D01*
X63891Y114874D01*
X63915Y114904D01*
X63945Y114928D01*
X63980Y114947D01*
X64017Y114958D01*
X64055Y114962D01*
X67008D01*
X67008Y114962D01*
X67046Y114958D01*
D02*
G37*
G36*
X58543Y114962D02*
X63425D01*
X63464Y114958D01*
X63501Y114947D01*
X63535Y114928D01*
X63565Y114904D01*
X63590Y114874D01*
X63608Y114839D01*
X63619Y114802D01*
X63623Y114764D01*
Y114488D01*
X63621Y114471D01*
X63620Y114453D01*
X63619Y114451D01*
X63619Y114450D01*
X63614Y114433D01*
X63609Y114416D01*
X63608Y114414D01*
X63608Y114412D01*
X63600Y114397D01*
X63591Y114381D01*
X63590Y114380D01*
X63590Y114378D01*
X63578Y114365D01*
X63567Y114351D01*
X63566Y114350D01*
X63565Y114348D01*
X63551Y114337D01*
X63538Y114326D01*
X62088Y113322D01*
Y112663D01*
X63538Y111659D01*
X63551Y111647D01*
X63565Y111636D01*
X63566Y111635D01*
X63567Y111634D01*
X63578Y111620D01*
X63590Y111606D01*
X63591Y111604D01*
X63591Y111603D01*
X63600Y111588D01*
X63608Y111572D01*
X63608Y111570D01*
X63609Y111569D01*
X63614Y111552D01*
X63619Y111535D01*
X63619Y111533D01*
X63620Y111531D01*
X63621Y111514D01*
X63623Y111496D01*
Y111221D01*
X63619Y111182D01*
X63608Y111145D01*
X63590Y111111D01*
X63565Y111081D01*
X63535Y111056D01*
X63501Y111038D01*
X63464Y111027D01*
X63425Y111023D01*
X58543D01*
X58543Y111023D01*
X58524Y111025D01*
X58505Y111027D01*
X58476Y111035D01*
X58468Y111038D01*
X58434Y111056D01*
X58419Y111068D01*
X58403Y111081D01*
X58403Y111081D01*
X57931Y111553D01*
X57906Y111583D01*
X57888Y111617D01*
X57885Y111626D01*
X57877Y111654D01*
X57875Y111674D01*
X57873Y111693D01*
X57873Y111693D01*
Y114291D01*
X57873Y114291D01*
X57875Y114311D01*
X57877Y114330D01*
X57885Y114358D01*
X57888Y114367D01*
X57906Y114401D01*
X57919Y114416D01*
X57931Y114431D01*
X57931Y114431D01*
X58403Y114904D01*
X58434Y114928D01*
X58468Y114947D01*
X58476Y114949D01*
X58505Y114958D01*
X58524Y114960D01*
X58543Y114962D01*
X58543Y114962D01*
D02*
G37*
G36*
X232401Y105509D02*
X232438Y105498D01*
X232472Y105480D01*
X232489Y105466D01*
X232502Y105455D01*
X232502Y105455D01*
X233014Y104943D01*
X233038Y104913D01*
X233057Y104879D01*
X233059Y104870D01*
X233068Y104842D01*
X233070Y104823D01*
X233072Y104803D01*
X233072Y104803D01*
Y102284D01*
X233068Y102245D01*
X233059Y102216D01*
X233057Y102208D01*
X233038Y102174D01*
X233014Y102144D01*
X233014Y102144D01*
X232502Y101632D01*
X232502Y101632D01*
X232489Y101621D01*
X232472Y101607D01*
X232438Y101589D01*
X232401Y101578D01*
X232397Y101577D01*
X232362Y101574D01*
X232362Y101574D01*
X229410D01*
X229371Y101578D01*
X229334Y101589D01*
X229300Y101607D01*
X229270Y101632D01*
X229245Y101662D01*
X229227Y101696D01*
X229216Y101733D01*
X229212Y101772D01*
Y102298D01*
X227762Y103302D01*
X227748Y103314D01*
X227734Y103325D01*
X227733Y103326D01*
X227732Y103327D01*
X227721Y103341D01*
X227710Y103355D01*
X227709Y103356D01*
X227708Y103357D01*
X227700Y103373D01*
X227691Y103389D01*
X227691Y103391D01*
X227690Y103392D01*
X227685Y103409D01*
X227680Y103426D01*
X227680Y103428D01*
X227679Y103429D01*
X227678Y103447D01*
X227676Y103465D01*
Y103622D01*
X227678Y103640D01*
X227679Y103657D01*
X227680Y103659D01*
X227680Y103661D01*
X227685Y103678D01*
X227690Y103695D01*
X227691Y103696D01*
X227691Y103698D01*
X227700Y103713D01*
X227708Y103729D01*
X227709Y103731D01*
X227710Y103732D01*
X227721Y103746D01*
X227732Y103760D01*
X227733Y103761D01*
X227734Y103762D01*
X227748Y103773D01*
X227762Y103785D01*
X229212Y104789D01*
Y105315D01*
X229216Y105354D01*
X229227Y105391D01*
X229245Y105425D01*
X229270Y105455D01*
X229300Y105480D01*
X229334Y105498D01*
X229371Y105509D01*
X229410Y105513D01*
X232362D01*
X232362Y105513D01*
X232401Y105509D01*
D02*
G37*
G36*
X223898Y105513D02*
X228780D01*
X228818Y105509D01*
X228855Y105498D01*
X228889Y105480D01*
X228920Y105455D01*
X228944Y105425D01*
X228962Y105391D01*
X228974Y105354D01*
X228977Y105315D01*
Y105039D01*
X228976Y105022D01*
X228974Y105004D01*
X228974Y105002D01*
X228974Y105001D01*
X228968Y104984D01*
X228963Y104967D01*
X228963Y104965D01*
X228962Y104964D01*
X228954Y104948D01*
X228946Y104932D01*
X228945Y104931D01*
X228944Y104929D01*
X228933Y104916D01*
X228922Y104902D01*
X228921Y104901D01*
X228920Y104900D01*
X228906Y104888D01*
X228892Y104877D01*
X227442Y103873D01*
Y103214D01*
X228892Y102210D01*
X228906Y102198D01*
X228920Y102187D01*
X228921Y102186D01*
X228922Y102185D01*
X228933Y102171D01*
X228944Y102157D01*
X228945Y102156D01*
X228946Y102154D01*
X228954Y102139D01*
X228962Y102123D01*
X228963Y102121D01*
X228963Y102120D01*
X228969Y102103D01*
X228974Y102086D01*
X228974Y102084D01*
X228974Y102083D01*
X228976Y102065D01*
X228977Y102047D01*
Y101772D01*
X228974Y101733D01*
X228962Y101696D01*
X228944Y101662D01*
X228920Y101632D01*
X228889Y101607D01*
X228855Y101589D01*
X228818Y101578D01*
X228780Y101574D01*
X223898D01*
X223898Y101574D01*
X223878Y101576D01*
X223859Y101578D01*
X223831Y101586D01*
X223822Y101589D01*
X223788Y101607D01*
X223773Y101620D01*
X223758Y101632D01*
X223758Y101632D01*
X223285Y102104D01*
X223261Y102134D01*
X223242Y102168D01*
X223240Y102177D01*
X223231Y102206D01*
X223229Y102225D01*
X223227Y102244D01*
X223228Y102244D01*
Y104842D01*
X223227Y104843D01*
X223229Y104862D01*
X223231Y104881D01*
X223240Y104910D01*
X223242Y104918D01*
X223261Y104952D01*
X223273Y104967D01*
X223285Y104982D01*
X223285Y104982D01*
X223758Y105455D01*
X223788Y105480D01*
X223822Y105498D01*
X223831Y105500D01*
X223859Y105509D01*
X223878Y105511D01*
X223898Y105513D01*
X223898Y105513D01*
D02*
G37*
G36*
X67046Y105509D02*
X67084Y105498D01*
X67118Y105480D01*
X67134Y105466D01*
X67148Y105455D01*
X67148Y105455D01*
X67660Y104943D01*
X67684Y104913D01*
X67703Y104879D01*
X67705Y104870D01*
X67714Y104842D01*
X67716Y104823D01*
X67717Y104803D01*
X67717Y104803D01*
Y102284D01*
X67714Y102245D01*
X67705Y102216D01*
X67703Y102208D01*
X67684Y102174D01*
X67660Y102144D01*
X67659Y102144D01*
X67148Y101632D01*
X67148Y101632D01*
X67134Y101621D01*
X67118Y101607D01*
X67084Y101589D01*
X67046Y101578D01*
X67043Y101577D01*
X67008Y101574D01*
X67008Y101574D01*
X64055D01*
X64017Y101578D01*
X63980Y101589D01*
X63945Y101607D01*
X63915Y101632D01*
X63891Y101662D01*
X63872Y101696D01*
X63861Y101733D01*
X63857Y101772D01*
Y102298D01*
X62407Y103302D01*
X62393Y103314D01*
X62380Y103325D01*
X62379Y103326D01*
X62378Y103327D01*
X62366Y103341D01*
X62355Y103355D01*
X62354Y103356D01*
X62353Y103357D01*
X62345Y103373D01*
X62337Y103389D01*
X62336Y103391D01*
X62336Y103392D01*
X62331Y103409D01*
X62326Y103426D01*
X62326Y103428D01*
X62325Y103429D01*
X62324Y103447D01*
X62322Y103465D01*
Y103622D01*
X62324Y103640D01*
X62325Y103657D01*
X62326Y103659D01*
X62326Y103661D01*
X62331Y103678D01*
X62336Y103695D01*
X62336Y103696D01*
X62337Y103698D01*
X62345Y103713D01*
X62353Y103729D01*
X62354Y103731D01*
X62355Y103732D01*
X62367Y103746D01*
X62378Y103760D01*
X62379Y103761D01*
X62380Y103762D01*
X62394Y103773D01*
X62407Y103785D01*
X63857Y104789D01*
Y105315D01*
X63861Y105354D01*
X63872Y105391D01*
X63891Y105425D01*
X63915Y105455D01*
X63945Y105480D01*
X63980Y105498D01*
X64017Y105509D01*
X64055Y105513D01*
X67008D01*
X67008Y105513D01*
X67046Y105509D01*
D02*
G37*
G36*
X58543Y105513D02*
X63425D01*
X63464Y105509D01*
X63501Y105498D01*
X63535Y105480D01*
X63565Y105455D01*
X63590Y105425D01*
X63608Y105391D01*
X63619Y105354D01*
X63623Y105315D01*
Y105039D01*
X63621Y105022D01*
X63620Y105004D01*
X63619Y105002D01*
X63619Y105001D01*
X63614Y104984D01*
X63609Y104967D01*
X63608Y104965D01*
X63608Y104964D01*
X63600Y104948D01*
X63591Y104932D01*
X63590Y104931D01*
X63590Y104929D01*
X63578Y104916D01*
X63567Y104902D01*
X63566Y104901D01*
X63565Y104900D01*
X63551Y104888D01*
X63538Y104877D01*
X62088Y103873D01*
Y103214D01*
X63538Y102210D01*
X63551Y102198D01*
X63565Y102187D01*
X63566Y102186D01*
X63567Y102185D01*
X63578Y102171D01*
X63590Y102157D01*
X63591Y102156D01*
X63591Y102154D01*
X63600Y102139D01*
X63608Y102123D01*
X63608Y102121D01*
X63609Y102120D01*
X63614Y102103D01*
X63619Y102086D01*
X63619Y102084D01*
X63620Y102083D01*
X63621Y102065D01*
X63623Y102047D01*
Y101772D01*
X63619Y101733D01*
X63608Y101696D01*
X63590Y101662D01*
X63565Y101632D01*
X63535Y101607D01*
X63501Y101589D01*
X63464Y101578D01*
X63425Y101574D01*
X58543D01*
X58543Y101574D01*
X58524Y101576D01*
X58505Y101578D01*
X58476Y101586D01*
X58468Y101589D01*
X58434Y101607D01*
X58419Y101620D01*
X58403Y101632D01*
X58403Y101632D01*
X57931Y102104D01*
X57906Y102134D01*
X57888Y102168D01*
X57885Y102177D01*
X57877Y102206D01*
X57875Y102225D01*
X57873Y102244D01*
X57873Y102244D01*
Y104842D01*
X57873Y104843D01*
X57875Y104862D01*
X57877Y104881D01*
X57885Y104910D01*
X57888Y104918D01*
X57906Y104952D01*
X57919Y104967D01*
X57931Y104982D01*
X57931Y104982D01*
X58403Y105455D01*
X58434Y105480D01*
X58468Y105498D01*
X58476Y105500D01*
X58505Y105509D01*
X58524Y105511D01*
X58543Y105513D01*
X58543Y105513D01*
D02*
G37*
G36*
X220393Y74013D02*
X220430Y74002D01*
X220464Y73983D01*
X220481Y73970D01*
X220494Y73959D01*
X220494Y73959D01*
X221006Y73447D01*
X221031Y73417D01*
X221049Y73383D01*
X221052Y73374D01*
X221060Y73346D01*
X221062Y73326D01*
X221064Y73307D01*
X221064Y73307D01*
Y70787D01*
X221060Y70749D01*
X221052Y70720D01*
X221049Y70712D01*
X221031Y70678D01*
X221006Y70648D01*
X221006Y70648D01*
X220494Y70136D01*
X220494Y70136D01*
X220481Y70125D01*
X220464Y70111D01*
X220430Y70093D01*
X220393Y70082D01*
X220390Y70081D01*
X220354Y70078D01*
X220354Y70078D01*
X217402D01*
X217363Y70082D01*
X217326Y70093D01*
X217292Y70111D01*
X217262Y70136D01*
X217237Y70166D01*
X217219Y70200D01*
X217208Y70237D01*
X217204Y70276D01*
Y70802D01*
X215754Y71806D01*
X215740Y71817D01*
X215726Y71829D01*
X215725Y71830D01*
X215724Y71831D01*
X215713Y71845D01*
X215702Y71859D01*
X215701Y71860D01*
X215700Y71861D01*
X215692Y71877D01*
X215684Y71893D01*
X215683Y71894D01*
X215682Y71896D01*
X215677Y71913D01*
X215672Y71930D01*
X215672Y71931D01*
X215672Y71933D01*
X215670Y71951D01*
X215668Y71969D01*
Y72126D01*
X215670Y72144D01*
X215672Y72161D01*
X215672Y72163D01*
X215672Y72165D01*
X215677Y72182D01*
X215682Y72199D01*
X215683Y72200D01*
X215684Y72202D01*
X215692Y72217D01*
X215700Y72233D01*
X215701Y72234D01*
X215702Y72236D01*
X215713Y72250D01*
X215724Y72263D01*
X215725Y72265D01*
X215726Y72266D01*
X215740Y72277D01*
X215754Y72289D01*
X217204Y73293D01*
Y73819D01*
X217208Y73857D01*
X217219Y73895D01*
X217237Y73929D01*
X217262Y73959D01*
X217292Y73983D01*
X217326Y74002D01*
X217363Y74013D01*
X217402Y74017D01*
X220354D01*
X220354Y74017D01*
X220393Y74013D01*
D02*
G37*
G36*
X211890Y74017D02*
X216772D01*
X216810Y74013D01*
X216847Y74002D01*
X216882Y73983D01*
X216912Y73959D01*
X216936Y73929D01*
X216954Y73895D01*
X216966Y73857D01*
X216969Y73819D01*
Y73543D01*
X216968Y73526D01*
X216966Y73508D01*
X216966Y73506D01*
X216966Y73505D01*
X216961Y73488D01*
X216956Y73471D01*
X216955Y73469D01*
X216954Y73468D01*
X216946Y73452D01*
X216938Y73436D01*
X216937Y73435D01*
X216936Y73433D01*
X216925Y73420D01*
X216914Y73406D01*
X216913Y73405D01*
X216912Y73403D01*
X216898Y73392D01*
X216884Y73381D01*
X215434Y72377D01*
Y71718D01*
X216884Y70714D01*
X216898Y70702D01*
X216912Y70691D01*
X216913Y70690D01*
X216914Y70689D01*
X216925Y70675D01*
X216936Y70661D01*
X216937Y70660D01*
X216938Y70658D01*
X216946Y70643D01*
X216954Y70627D01*
X216955Y70625D01*
X216956Y70624D01*
X216961Y70607D01*
X216966Y70590D01*
X216966Y70588D01*
X216966Y70587D01*
X216968Y70569D01*
X216969Y70551D01*
Y70276D01*
X216966Y70237D01*
X216954Y70200D01*
X216936Y70166D01*
X216912Y70136D01*
X216882Y70111D01*
X216847Y70093D01*
X216810Y70082D01*
X216772Y70078D01*
X211890D01*
X211890Y70078D01*
X211871Y70080D01*
X211851Y70082D01*
X211823Y70090D01*
X211814Y70093D01*
X211780Y70111D01*
X211765Y70123D01*
X211750Y70136D01*
X211750Y70136D01*
X211278Y70608D01*
X211253Y70638D01*
X211235Y70672D01*
X211232Y70681D01*
X211223Y70710D01*
X211222Y70729D01*
X211220Y70748D01*
X211220Y70748D01*
Y73346D01*
X211220Y73347D01*
X211222Y73366D01*
X211223Y73385D01*
X211232Y73413D01*
X211235Y73422D01*
X211253Y73456D01*
X211265Y73471D01*
X211278Y73486D01*
X211278Y73486D01*
X211750Y73959D01*
X211780Y73983D01*
X211814Y74002D01*
X211823Y74004D01*
X211851Y74013D01*
X211871Y74015D01*
X211890Y74017D01*
X211890Y74017D01*
D02*
G37*
G36*
X55039Y74013D02*
X55076Y74002D01*
X55110Y73983D01*
X55126Y73970D01*
X55140Y73959D01*
X55140Y73959D01*
X55652Y73447D01*
X55676Y73417D01*
X55695Y73383D01*
X55697Y73374D01*
X55706Y73346D01*
X55708Y73326D01*
X55710Y73307D01*
X55710Y73307D01*
Y70787D01*
X55706Y70749D01*
X55697Y70720D01*
X55695Y70712D01*
X55676Y70678D01*
X55652Y70648D01*
X55652Y70648D01*
X55140Y70136D01*
X55140Y70136D01*
X55126Y70125D01*
X55110Y70111D01*
X55076Y70093D01*
X55039Y70082D01*
X55035Y70081D01*
X55000Y70078D01*
X55000Y70078D01*
X52047D01*
X52009Y70082D01*
X51972Y70093D01*
X51937Y70111D01*
X51907Y70136D01*
X51883Y70166D01*
X51864Y70200D01*
X51853Y70237D01*
X51850Y70276D01*
Y70802D01*
X50399Y71806D01*
X50386Y71817D01*
X50372Y71829D01*
X50371Y71830D01*
X50370Y71831D01*
X50359Y71845D01*
X50347Y71859D01*
X50347Y71860D01*
X50346Y71861D01*
X50337Y71877D01*
X50329Y71893D01*
X50329Y71894D01*
X50328Y71896D01*
X50323Y71913D01*
X50318Y71930D01*
X50318Y71931D01*
X50317Y71933D01*
X50316Y71951D01*
X50314Y71969D01*
Y72126D01*
X50316Y72144D01*
X50317Y72161D01*
X50318Y72163D01*
X50318Y72165D01*
X50323Y72182D01*
X50328Y72199D01*
X50329Y72200D01*
X50329Y72202D01*
X50337Y72217D01*
X50346Y72233D01*
X50347Y72234D01*
X50347Y72236D01*
X50359Y72250D01*
X50370Y72263D01*
X50371Y72265D01*
X50372Y72266D01*
X50386Y72277D01*
X50399Y72289D01*
X51850Y73293D01*
Y73819D01*
X51853Y73857D01*
X51864Y73895D01*
X51883Y73929D01*
X51907Y73959D01*
X51937Y73983D01*
X51972Y74002D01*
X52009Y74013D01*
X52047Y74017D01*
X55000D01*
X55000Y74017D01*
X55039Y74013D01*
D02*
G37*
G36*
X46536Y74017D02*
X51417D01*
X51456Y74013D01*
X51493Y74002D01*
X51527Y73983D01*
X51557Y73959D01*
X51582Y73929D01*
X51600Y73895D01*
X51611Y73857D01*
X51615Y73819D01*
Y73543D01*
X51613Y73526D01*
X51612Y73508D01*
X51612Y73506D01*
X51611Y73505D01*
X51606Y73488D01*
X51601Y73471D01*
X51601Y73469D01*
X51600Y73468D01*
X51592Y73452D01*
X51584Y73436D01*
X51583Y73435D01*
X51582Y73433D01*
X51570Y73420D01*
X51560Y73406D01*
X51558Y73405D01*
X51557Y73403D01*
X51543Y73392D01*
X51530Y73381D01*
X50080Y72377D01*
Y71718D01*
X51530Y70714D01*
X51543Y70702D01*
X51557Y70691D01*
X51558Y70690D01*
X51560Y70689D01*
X51570Y70675D01*
X51582Y70661D01*
X51583Y70660D01*
X51584Y70658D01*
X51592Y70643D01*
X51600Y70627D01*
X51601Y70625D01*
X51601Y70624D01*
X51606Y70607D01*
X51611Y70590D01*
X51612Y70588D01*
X51612Y70587D01*
X51613Y70569D01*
X51615Y70551D01*
Y70276D01*
X51611Y70237D01*
X51600Y70200D01*
X51582Y70166D01*
X51557Y70136D01*
X51527Y70111D01*
X51493Y70093D01*
X51456Y70082D01*
X51417Y70078D01*
X46536D01*
X46536Y70078D01*
X46516Y70080D01*
X46497Y70082D01*
X46468Y70090D01*
X46460Y70093D01*
X46426Y70111D01*
X46411Y70123D01*
X46396Y70136D01*
X46395Y70136D01*
X45923Y70608D01*
X45899Y70638D01*
X45880Y70672D01*
X45878Y70681D01*
X45869Y70710D01*
X45867Y70729D01*
X45865Y70748D01*
X45865Y70748D01*
Y73346D01*
X45865Y73347D01*
X45867Y73366D01*
X45869Y73385D01*
X45878Y73413D01*
X45880Y73422D01*
X45899Y73456D01*
X45911Y73471D01*
X45923Y73486D01*
X45923Y73486D01*
X46396Y73959D01*
X46426Y73983D01*
X46460Y74002D01*
X46468Y74004D01*
X46497Y74013D01*
X46516Y74015D01*
X46536Y74017D01*
X46536Y74017D01*
D02*
G37*
G36*
X232401Y55903D02*
X232438Y55891D01*
X232472Y55873D01*
X232489Y55860D01*
X232502Y55849D01*
X232502Y55848D01*
X233014Y55337D01*
X233038Y55307D01*
X233057Y55273D01*
X233059Y55264D01*
X233068Y55235D01*
X233070Y55216D01*
X233072Y55197D01*
X233072Y55197D01*
Y52677D01*
X233068Y52639D01*
X233059Y52610D01*
X233057Y52601D01*
X233038Y52567D01*
X233014Y52537D01*
X233014Y52537D01*
X232502Y52026D01*
X232502Y52026D01*
X232489Y52014D01*
X232472Y52001D01*
X232438Y51983D01*
X232401Y51971D01*
X232397Y51971D01*
X232362Y51968D01*
X232362Y51968D01*
X229410D01*
X229371Y51971D01*
X229334Y51983D01*
X229300Y52001D01*
X229270Y52026D01*
X229245Y52056D01*
X229227Y52090D01*
X229216Y52127D01*
X229212Y52165D01*
Y52692D01*
X227762Y53696D01*
X227748Y53707D01*
X227734Y53718D01*
X227733Y53720D01*
X227732Y53721D01*
X227721Y53735D01*
X227710Y53748D01*
X227709Y53750D01*
X227708Y53751D01*
X227700Y53767D01*
X227691Y53783D01*
X227691Y53784D01*
X227690Y53786D01*
X227685Y53803D01*
X227680Y53820D01*
X227680Y53821D01*
X227679Y53823D01*
X227678Y53841D01*
X227676Y53858D01*
Y54016D01*
X227678Y54033D01*
X227679Y54051D01*
X227680Y54053D01*
X227680Y54054D01*
X227685Y54071D01*
X227690Y54088D01*
X227691Y54090D01*
X227691Y54092D01*
X227700Y54107D01*
X227708Y54123D01*
X227709Y54124D01*
X227710Y54126D01*
X227721Y54140D01*
X227732Y54153D01*
X227733Y54154D01*
X227734Y54156D01*
X227748Y54167D01*
X227762Y54178D01*
X229212Y55182D01*
Y55709D01*
X229216Y55747D01*
X229227Y55784D01*
X229245Y55819D01*
X229270Y55849D01*
X229300Y55873D01*
X229334Y55891D01*
X229371Y55903D01*
X229410Y55906D01*
X232362D01*
X232362Y55906D01*
X232401Y55903D01*
D02*
G37*
G36*
X223898Y55906D02*
X228780D01*
X228818Y55903D01*
X228855Y55891D01*
X228889Y55873D01*
X228920Y55849D01*
X228944Y55819D01*
X228962Y55784D01*
X228974Y55747D01*
X228977Y55709D01*
Y55433D01*
X228976Y55415D01*
X228974Y55398D01*
X228974Y55396D01*
X228974Y55395D01*
X228968Y55377D01*
X228963Y55360D01*
X228963Y55359D01*
X228962Y55357D01*
X228954Y55342D01*
X228946Y55326D01*
X228945Y55325D01*
X228944Y55323D01*
X228933Y55309D01*
X228922Y55296D01*
X228921Y55295D01*
X228920Y55293D01*
X228906Y55282D01*
X228892Y55270D01*
X227442Y54267D01*
Y53608D01*
X228892Y52604D01*
X228906Y52592D01*
X228920Y52581D01*
X228921Y52580D01*
X228922Y52579D01*
X228933Y52565D01*
X228944Y52551D01*
X228945Y52549D01*
X228946Y52548D01*
X228954Y52532D01*
X228962Y52517D01*
X228963Y52515D01*
X228963Y52514D01*
X228969Y52496D01*
X228974Y52480D01*
X228974Y52478D01*
X228974Y52476D01*
X228976Y52458D01*
X228977Y52441D01*
Y52165D01*
X228974Y52127D01*
X228962Y52090D01*
X228944Y52056D01*
X228920Y52026D01*
X228889Y52001D01*
X228855Y51983D01*
X228818Y51971D01*
X228780Y51968D01*
X223898D01*
X223898Y51968D01*
X223878Y51969D01*
X223859Y51971D01*
X223831Y51980D01*
X223822Y51983D01*
X223788Y52001D01*
X223773Y52013D01*
X223758Y52026D01*
X223758Y52026D01*
X223285Y52498D01*
X223261Y52528D01*
X223242Y52562D01*
X223240Y52571D01*
X223231Y52599D01*
X223229Y52618D01*
X223227Y52638D01*
X223228Y52638D01*
Y55236D01*
X223227Y55236D01*
X223229Y55256D01*
X223231Y55275D01*
X223240Y55303D01*
X223242Y55312D01*
X223261Y55346D01*
X223273Y55361D01*
X223285Y55376D01*
X223285Y55376D01*
X223758Y55849D01*
X223788Y55873D01*
X223822Y55891D01*
X223831Y55894D01*
X223859Y55903D01*
X223878Y55905D01*
X223898Y55906D01*
X223898Y55906D01*
D02*
G37*
G36*
X67046Y55903D02*
X67084Y55891D01*
X67118Y55873D01*
X67134Y55860D01*
X67148Y55849D01*
X67148Y55848D01*
X67660Y55337D01*
X67684Y55307D01*
X67703Y55273D01*
X67705Y55264D01*
X67714Y55235D01*
X67716Y55216D01*
X67717Y55197D01*
X67717Y55197D01*
Y52677D01*
X67714Y52639D01*
X67705Y52610D01*
X67703Y52601D01*
X67684Y52567D01*
X67660Y52537D01*
X67659Y52537D01*
X67148Y52026D01*
X67148Y52026D01*
X67134Y52014D01*
X67118Y52001D01*
X67084Y51983D01*
X67046Y51971D01*
X67043Y51971D01*
X67008Y51968D01*
X67008Y51968D01*
X64055D01*
X64017Y51971D01*
X63980Y51983D01*
X63945Y52001D01*
X63915Y52026D01*
X63891Y52056D01*
X63872Y52090D01*
X63861Y52127D01*
X63857Y52165D01*
Y52692D01*
X62407Y53696D01*
X62393Y53707D01*
X62380Y53718D01*
X62379Y53720D01*
X62378Y53721D01*
X62366Y53735D01*
X62355Y53748D01*
X62354Y53750D01*
X62353Y53751D01*
X62345Y53767D01*
X62337Y53783D01*
X62336Y53784D01*
X62336Y53786D01*
X62331Y53803D01*
X62326Y53820D01*
X62326Y53821D01*
X62325Y53823D01*
X62324Y53841D01*
X62322Y53858D01*
Y54016D01*
X62324Y54033D01*
X62325Y54051D01*
X62326Y54053D01*
X62326Y54054D01*
X62331Y54071D01*
X62336Y54088D01*
X62336Y54090D01*
X62337Y54092D01*
X62345Y54107D01*
X62353Y54123D01*
X62354Y54124D01*
X62355Y54126D01*
X62367Y54140D01*
X62378Y54153D01*
X62379Y54154D01*
X62380Y54156D01*
X62394Y54167D01*
X62407Y54178D01*
X63857Y55182D01*
Y55709D01*
X63861Y55747D01*
X63872Y55784D01*
X63891Y55819D01*
X63915Y55849D01*
X63945Y55873D01*
X63980Y55891D01*
X64017Y55903D01*
X64055Y55906D01*
X67008D01*
X67008Y55906D01*
X67046Y55903D01*
D02*
G37*
G36*
X58543Y55906D02*
X63425D01*
X63464Y55903D01*
X63501Y55891D01*
X63535Y55873D01*
X63565Y55849D01*
X63590Y55819D01*
X63608Y55784D01*
X63619Y55747D01*
X63623Y55709D01*
Y55433D01*
X63621Y55415D01*
X63620Y55398D01*
X63619Y55396D01*
X63619Y55395D01*
X63614Y55377D01*
X63609Y55360D01*
X63608Y55359D01*
X63608Y55357D01*
X63600Y55342D01*
X63591Y55326D01*
X63590Y55325D01*
X63590Y55323D01*
X63578Y55309D01*
X63567Y55296D01*
X63566Y55295D01*
X63565Y55293D01*
X63551Y55282D01*
X63538Y55270D01*
X62088Y54267D01*
Y53608D01*
X63538Y52604D01*
X63551Y52592D01*
X63565Y52581D01*
X63566Y52580D01*
X63567Y52579D01*
X63578Y52565D01*
X63590Y52551D01*
X63591Y52549D01*
X63591Y52548D01*
X63600Y52532D01*
X63608Y52517D01*
X63608Y52515D01*
X63609Y52514D01*
X63614Y52496D01*
X63619Y52480D01*
X63619Y52478D01*
X63620Y52476D01*
X63621Y52458D01*
X63623Y52441D01*
Y52165D01*
X63619Y52127D01*
X63608Y52090D01*
X63590Y52056D01*
X63565Y52026D01*
X63535Y52001D01*
X63501Y51983D01*
X63464Y51971D01*
X63425Y51968D01*
X58543D01*
X58543Y51968D01*
X58524Y51969D01*
X58505Y51971D01*
X58476Y51980D01*
X58468Y51983D01*
X58434Y52001D01*
X58419Y52013D01*
X58403Y52026D01*
X58403Y52026D01*
X57931Y52498D01*
X57906Y52528D01*
X57888Y52562D01*
X57885Y52571D01*
X57877Y52599D01*
X57875Y52618D01*
X57873Y52638D01*
X57873Y52638D01*
Y55236D01*
X57873Y55236D01*
X57875Y55256D01*
X57877Y55275D01*
X57885Y55303D01*
X57888Y55312D01*
X57906Y55346D01*
X57919Y55361D01*
X57931Y55376D01*
X57931Y55376D01*
X58403Y55849D01*
X58434Y55873D01*
X58468Y55891D01*
X58476Y55894D01*
X58505Y55903D01*
X58524Y55905D01*
X58543Y55906D01*
X58543Y55906D01*
D02*
G37*
G36*
X232401Y46454D02*
X232438Y46443D01*
X232472Y46424D01*
X232489Y46411D01*
X232502Y46400D01*
X232502Y46400D01*
X233014Y45888D01*
X233038Y45858D01*
X233057Y45824D01*
X233059Y45815D01*
X233068Y45787D01*
X233070Y45767D01*
X233072Y45748D01*
X233072Y45748D01*
Y43228D01*
X233068Y43190D01*
X233059Y43161D01*
X233057Y43153D01*
X233038Y43119D01*
X233014Y43088D01*
X233014Y43088D01*
X232502Y42577D01*
X232502Y42577D01*
X232489Y42566D01*
X232472Y42552D01*
X232438Y42534D01*
X232401Y42523D01*
X232397Y42522D01*
X232362Y42519D01*
X232362Y42519D01*
X229410D01*
X229371Y42523D01*
X229334Y42534D01*
X229300Y42552D01*
X229270Y42577D01*
X229245Y42607D01*
X229227Y42641D01*
X229216Y42678D01*
X229212Y42717D01*
Y43243D01*
X227762Y44247D01*
X227748Y44258D01*
X227734Y44270D01*
X227733Y44271D01*
X227732Y44272D01*
X227721Y44286D01*
X227710Y44300D01*
X227709Y44301D01*
X227708Y44302D01*
X227700Y44318D01*
X227691Y44334D01*
X227691Y44335D01*
X227690Y44337D01*
X227685Y44354D01*
X227680Y44371D01*
X227680Y44372D01*
X227679Y44374D01*
X227678Y44392D01*
X227676Y44409D01*
Y44567D01*
X227678Y44585D01*
X227679Y44602D01*
X227680Y44604D01*
X227680Y44605D01*
X227685Y44623D01*
X227690Y44640D01*
X227691Y44641D01*
X227691Y44643D01*
X227700Y44658D01*
X227708Y44674D01*
X227709Y44675D01*
X227710Y44677D01*
X227721Y44691D01*
X227732Y44704D01*
X227733Y44706D01*
X227734Y44707D01*
X227748Y44718D01*
X227762Y44730D01*
X229212Y45734D01*
Y46260D01*
X229216Y46299D01*
X229227Y46336D01*
X229245Y46370D01*
X229270Y46400D01*
X229300Y46424D01*
X229334Y46443D01*
X229371Y46454D01*
X229410Y46458D01*
X232362D01*
X232362Y46458D01*
X232401Y46454D01*
D02*
G37*
G36*
X223898Y46458D02*
X228780D01*
X228818Y46454D01*
X228855Y46443D01*
X228889Y46424D01*
X228920Y46400D01*
X228944Y46370D01*
X228962Y46336D01*
X228974Y46299D01*
X228977Y46260D01*
Y45984D01*
X228976Y45967D01*
X228974Y45949D01*
X228974Y45947D01*
X228974Y45946D01*
X228968Y45929D01*
X228963Y45912D01*
X228963Y45910D01*
X228962Y45909D01*
X228954Y45893D01*
X228946Y45877D01*
X228945Y45876D01*
X228944Y45874D01*
X228933Y45861D01*
X228922Y45847D01*
X228921Y45846D01*
X228920Y45844D01*
X228906Y45833D01*
X228892Y45822D01*
X227442Y44818D01*
Y44159D01*
X228892Y43155D01*
X228906Y43143D01*
X228920Y43132D01*
X228921Y43131D01*
X228922Y43130D01*
X228933Y43116D01*
X228944Y43102D01*
X228945Y43101D01*
X228946Y43099D01*
X228954Y43084D01*
X228962Y43068D01*
X228963Y43066D01*
X228963Y43065D01*
X228969Y43048D01*
X228974Y43031D01*
X228974Y43029D01*
X228974Y43027D01*
X228976Y43010D01*
X228977Y42992D01*
Y42717D01*
X228974Y42678D01*
X228962Y42641D01*
X228944Y42607D01*
X228920Y42577D01*
X228889Y42552D01*
X228855Y42534D01*
X228818Y42523D01*
X228780Y42519D01*
X223898D01*
X223898Y42519D01*
X223878Y42521D01*
X223859Y42523D01*
X223831Y42531D01*
X223822Y42534D01*
X223788Y42552D01*
X223773Y42564D01*
X223758Y42577D01*
X223758Y42577D01*
X223285Y43049D01*
X223261Y43079D01*
X223242Y43113D01*
X223240Y43122D01*
X223231Y43150D01*
X223229Y43170D01*
X223227Y43189D01*
X223228Y43189D01*
Y45787D01*
X223227Y45787D01*
X223229Y45807D01*
X223231Y45826D01*
X223240Y45854D01*
X223242Y45863D01*
X223261Y45897D01*
X223273Y45912D01*
X223285Y45927D01*
X223285Y45927D01*
X223758Y46400D01*
X223788Y46424D01*
X223822Y46443D01*
X223831Y46445D01*
X223859Y46454D01*
X223878Y46456D01*
X223898Y46458D01*
X223898Y46458D01*
D02*
G37*
G36*
X67046Y46454D02*
X67084Y46443D01*
X67118Y46424D01*
X67134Y46411D01*
X67148Y46400D01*
X67148Y46400D01*
X67660Y45888D01*
X67684Y45858D01*
X67703Y45824D01*
X67705Y45815D01*
X67714Y45787D01*
X67716Y45767D01*
X67717Y45748D01*
X67717Y45748D01*
Y43228D01*
X67714Y43190D01*
X67705Y43161D01*
X67703Y43153D01*
X67684Y43119D01*
X67660Y43088D01*
X67659Y43088D01*
X67148Y42577D01*
X67148Y42577D01*
X67134Y42566D01*
X67118Y42552D01*
X67084Y42534D01*
X67046Y42523D01*
X67043Y42522D01*
X67008Y42519D01*
X67008Y42519D01*
X64055D01*
X64017Y42523D01*
X63980Y42534D01*
X63945Y42552D01*
X63915Y42577D01*
X63891Y42607D01*
X63872Y42641D01*
X63861Y42678D01*
X63857Y42717D01*
Y43243D01*
X62407Y44247D01*
X62393Y44258D01*
X62380Y44270D01*
X62379Y44271D01*
X62378Y44272D01*
X62366Y44286D01*
X62355Y44300D01*
X62354Y44301D01*
X62353Y44302D01*
X62345Y44318D01*
X62337Y44334D01*
X62336Y44335D01*
X62336Y44337D01*
X62331Y44354D01*
X62326Y44371D01*
X62326Y44372D01*
X62325Y44374D01*
X62324Y44392D01*
X62322Y44409D01*
Y44567D01*
X62324Y44585D01*
X62325Y44602D01*
X62326Y44604D01*
X62326Y44605D01*
X62331Y44623D01*
X62336Y44640D01*
X62336Y44641D01*
X62337Y44643D01*
X62345Y44658D01*
X62353Y44674D01*
X62354Y44675D01*
X62355Y44677D01*
X62367Y44691D01*
X62378Y44704D01*
X62379Y44706D01*
X62380Y44707D01*
X62394Y44718D01*
X62407Y44730D01*
X63857Y45734D01*
Y46260D01*
X63861Y46299D01*
X63872Y46336D01*
X63891Y46370D01*
X63915Y46400D01*
X63945Y46424D01*
X63980Y46443D01*
X64017Y46454D01*
X64055Y46458D01*
X67008D01*
X67008Y46458D01*
X67046Y46454D01*
D02*
G37*
G36*
X58543Y46458D02*
X63425D01*
X63464Y46454D01*
X63501Y46443D01*
X63535Y46424D01*
X63565Y46400D01*
X63590Y46370D01*
X63608Y46336D01*
X63619Y46299D01*
X63623Y46260D01*
Y45984D01*
X63621Y45967D01*
X63620Y45949D01*
X63619Y45947D01*
X63619Y45946D01*
X63614Y45929D01*
X63609Y45912D01*
X63608Y45910D01*
X63608Y45909D01*
X63600Y45893D01*
X63591Y45877D01*
X63590Y45876D01*
X63590Y45874D01*
X63578Y45861D01*
X63567Y45847D01*
X63566Y45846D01*
X63565Y45844D01*
X63551Y45833D01*
X63538Y45822D01*
X62088Y44818D01*
Y44159D01*
X63538Y43155D01*
X63551Y43143D01*
X63565Y43132D01*
X63566Y43131D01*
X63567Y43130D01*
X63578Y43116D01*
X63590Y43102D01*
X63591Y43101D01*
X63591Y43099D01*
X63600Y43084D01*
X63608Y43068D01*
X63608Y43066D01*
X63609Y43065D01*
X63614Y43048D01*
X63619Y43031D01*
X63619Y43029D01*
X63620Y43027D01*
X63621Y43010D01*
X63623Y42992D01*
Y42717D01*
X63619Y42678D01*
X63608Y42641D01*
X63590Y42607D01*
X63565Y42577D01*
X63535Y42552D01*
X63501Y42534D01*
X63464Y42523D01*
X63425Y42519D01*
X58543D01*
X58543Y42519D01*
X58524Y42521D01*
X58505Y42523D01*
X58476Y42531D01*
X58468Y42534D01*
X58434Y42552D01*
X58419Y42564D01*
X58403Y42577D01*
X58403Y42577D01*
X57931Y43049D01*
X57906Y43079D01*
X57888Y43113D01*
X57885Y43122D01*
X57877Y43150D01*
X57875Y43170D01*
X57873Y43189D01*
X57873Y43189D01*
Y45787D01*
X57873Y45787D01*
X57875Y45807D01*
X57877Y45826D01*
X57885Y45854D01*
X57888Y45863D01*
X57906Y45897D01*
X57919Y45912D01*
X57931Y45927D01*
X57931Y45927D01*
X58403Y46400D01*
X58434Y46424D01*
X58468Y46443D01*
X58476Y46445D01*
X58505Y46454D01*
X58524Y46456D01*
X58543Y46458D01*
X58543Y46458D01*
D02*
G37*
D48*
X11811Y324803D02*
D03*
X311024Y9842D02*
D03*
Y324803D02*
D03*
X11811Y9843D02*
D03*
D49*
X145669Y71654D02*
D03*
Y26772D02*
D03*
X311024Y71654D02*
D03*
Y26772D02*
D03*
X145669Y130709D02*
D03*
Y85827D02*
D03*
X311024Y130709D02*
D03*
Y85827D02*
D03*
X145669Y189764D02*
D03*
Y144882D02*
D03*
X311024Y189764D02*
D03*
Y144882D02*
D03*
X145669Y248819D02*
D03*
Y203937D02*
D03*
X311024Y248819D02*
D03*
Y203937D02*
D03*
X145669Y307874D02*
D03*
Y262992D02*
D03*
X311024Y307874D02*
D03*
Y262992D02*
D03*
D50*
X137402Y35433D02*
D03*
Y53150D02*
D03*
Y45276D02*
D03*
X302756Y35433D02*
D03*
Y53150D02*
D03*
Y45276D02*
D03*
X137402Y94488D02*
D03*
Y112205D02*
D03*
Y104331D02*
D03*
X302756Y94488D02*
D03*
Y112205D02*
D03*
Y104331D02*
D03*
X137402Y153543D02*
D03*
Y171260D02*
D03*
Y163386D02*
D03*
X302756Y153543D02*
D03*
Y171260D02*
D03*
Y163386D02*
D03*
X137402Y212598D02*
D03*
Y230315D02*
D03*
Y222441D02*
D03*
X302756Y212598D02*
D03*
Y230315D02*
D03*
Y222441D02*
D03*
X137402Y271654D02*
D03*
Y289370D02*
D03*
Y281496D02*
D03*
X302756Y271654D02*
D03*
Y289370D02*
D03*
Y281496D02*
D03*
D51*
X137402Y62992D02*
D03*
X302756D02*
D03*
X137402Y122047D02*
D03*
X302756D02*
D03*
X137402Y181102D02*
D03*
X302756D02*
D03*
X137402Y240158D02*
D03*
X302756D02*
D03*
X137402Y299213D02*
D03*
X302756D02*
D03*
D52*
X145669Y40354D02*
D03*
Y58071D02*
D03*
X311024Y40354D02*
D03*
Y58071D02*
D03*
X145669Y99410D02*
D03*
Y117126D02*
D03*
X311024Y99410D02*
D03*
Y117126D02*
D03*
X145669Y158465D02*
D03*
Y176181D02*
D03*
X311024Y158465D02*
D03*
Y176181D02*
D03*
X145669Y217520D02*
D03*
Y235236D02*
D03*
X311024Y217520D02*
D03*
Y235236D02*
D03*
X145669Y276575D02*
D03*
Y294291D02*
D03*
X311024Y276575D02*
D03*
Y294291D02*
D03*
D53*
X50787Y44213D02*
D03*
Y34213D02*
D03*
Y54213D02*
D03*
X30315Y44291D02*
D03*
Y34449D02*
D03*
Y54134D02*
D03*
X216142Y44213D02*
D03*
Y34213D02*
D03*
Y54213D02*
D03*
X195669Y44291D02*
D03*
Y34449D02*
D03*
Y54134D02*
D03*
X50787Y103268D02*
D03*
Y93268D02*
D03*
Y113268D02*
D03*
X30315Y103347D02*
D03*
Y93504D02*
D03*
Y113189D02*
D03*
X216142Y103268D02*
D03*
Y93268D02*
D03*
Y113268D02*
D03*
X195669Y103347D02*
D03*
Y93504D02*
D03*
Y113189D02*
D03*
X50787Y162323D02*
D03*
Y152323D02*
D03*
Y172323D02*
D03*
X30315Y162402D02*
D03*
Y152559D02*
D03*
Y172244D02*
D03*
X216142Y162323D02*
D03*
Y152323D02*
D03*
Y172323D02*
D03*
X195669Y162402D02*
D03*
Y152559D02*
D03*
Y172244D02*
D03*
X50787Y221378D02*
D03*
Y211378D02*
D03*
Y231378D02*
D03*
X30315Y221457D02*
D03*
Y211614D02*
D03*
Y231299D02*
D03*
X216142Y221378D02*
D03*
Y211378D02*
D03*
Y231378D02*
D03*
X195669Y221457D02*
D03*
Y211614D02*
D03*
Y231299D02*
D03*
X50787Y280433D02*
D03*
Y270433D02*
D03*
Y290433D02*
D03*
X30315Y280512D02*
D03*
Y270669D02*
D03*
Y290354D02*
D03*
X216142Y280433D02*
D03*
Y270433D02*
D03*
Y290433D02*
D03*
X195669Y280512D02*
D03*
Y270669D02*
D03*
Y290354D02*
D03*
D54*
X50787Y64213D02*
D03*
X30315Y63976D02*
D03*
X216142Y64213D02*
D03*
X195669Y63976D02*
D03*
X50787Y123268D02*
D03*
X30315Y123031D02*
D03*
X216142Y123268D02*
D03*
X195669Y123031D02*
D03*
X50787Y182323D02*
D03*
X30315Y182087D02*
D03*
X216142Y182323D02*
D03*
X195669Y182087D02*
D03*
X50787Y241378D02*
D03*
X30315Y241142D02*
D03*
X216142Y241378D02*
D03*
X195669Y241142D02*
D03*
X50787Y300433D02*
D03*
X30315Y300197D02*
D03*
X216142Y300433D02*
D03*
X195669Y300197D02*
D03*
D55*
X60394Y64213D02*
D03*
X40394Y54213D02*
D03*
Y34213D02*
D03*
X60394D02*
D03*
X225748Y64213D02*
D03*
X205748Y54213D02*
D03*
Y34213D02*
D03*
X225748D02*
D03*
X60394Y123268D02*
D03*
X40394Y113268D02*
D03*
Y93268D02*
D03*
X60394D02*
D03*
X225748Y123268D02*
D03*
X205748Y113268D02*
D03*
Y93268D02*
D03*
X225748D02*
D03*
X60394Y182323D02*
D03*
X40394Y172323D02*
D03*
Y152323D02*
D03*
X60394D02*
D03*
X225748Y182323D02*
D03*
X205748Y172323D02*
D03*
Y152323D02*
D03*
X225748D02*
D03*
X60394Y241378D02*
D03*
X40394Y231378D02*
D03*
Y211378D02*
D03*
X60394D02*
D03*
X225748Y241378D02*
D03*
X205748Y231378D02*
D03*
Y211378D02*
D03*
X225748D02*
D03*
X60394Y300433D02*
D03*
X40394Y290433D02*
D03*
Y270433D02*
D03*
X60394D02*
D03*
X225748Y300433D02*
D03*
X205748Y290433D02*
D03*
Y270433D02*
D03*
X225748D02*
D03*
D56*
X62972Y44488D02*
D03*
Y53937D02*
D03*
X50965Y72047D02*
D03*
X228327Y44488D02*
D03*
Y53937D02*
D03*
X216319Y72047D02*
D03*
X62972Y103543D02*
D03*
Y112992D02*
D03*
X50965Y131102D02*
D03*
X228327Y103543D02*
D03*
Y112992D02*
D03*
X216319Y131102D02*
D03*
X62972Y162599D02*
D03*
Y172047D02*
D03*
X50965Y190157D02*
D03*
X228327Y162599D02*
D03*
Y172047D02*
D03*
X216319Y190157D02*
D03*
X62972Y221654D02*
D03*
Y231102D02*
D03*
X50965Y249213D02*
D03*
X228327Y221654D02*
D03*
Y231102D02*
D03*
X216319Y249213D02*
D03*
X62972Y280709D02*
D03*
Y290158D02*
D03*
X50965Y308268D02*
D03*
X228327Y280709D02*
D03*
Y290158D02*
D03*
X216319Y308268D02*
D03*
M02*
