G04*
G04 #@! TF.GenerationSoftware,Altium Limited,Altium Designer,24.1.2 (44)*
G04*
G04 Layer_Color=13813960*
%FSLAX25Y25*%
%MOIN*%
G70*
G04*
G04 #@! TF.SameCoordinates,91A06C09-3FF3-49E1-B81E-27C0F3F2092E*
G04*
G04*
G04 #@! TF.FilePolarity,Positive*
G04*
G01*
G75*
%ADD35C,0.00472*%
%ADD57C,0.00866*%
D35*
X70157Y46742D02*
X71732D01*
X70945D01*
Y49104D01*
X72913D02*
X73700D01*
X74093Y48710D01*
Y47923D01*
X73700Y47529D01*
X72913D01*
X72519Y47923D01*
Y48710D01*
X72913Y49104D01*
X77242Y49891D02*
Y47529D01*
X78423D01*
X78816Y47923D01*
Y48710D01*
X78423Y49104D01*
X77242D01*
X79997D02*
X80784D01*
X81178Y48710D01*
Y47923D01*
X80784Y47529D01*
X79997D01*
X79603Y47923D01*
Y48710D01*
X79997Y49104D01*
X81965Y47529D02*
Y48710D01*
X82358Y49104D01*
X82752Y48710D01*
X83145Y49104D01*
X83539Y48710D01*
Y47529D01*
X85507Y49104D02*
X84720D01*
X84326Y48710D01*
Y47923D01*
X84720Y47529D01*
X85507D01*
X85900Y47923D01*
Y48316D01*
X84326D01*
X86688Y47529D02*
Y49104D01*
Y48316D01*
X87081Y47923D01*
X87475Y47529D01*
X87868D01*
X91410Y49104D02*
Y46742D01*
X92591D01*
X92985Y47136D01*
Y47923D01*
X92591Y48316D01*
X91410D01*
X93772Y46742D02*
Y49104D01*
X94559Y48316D01*
X95346Y49104D01*
Y46742D01*
X96133Y49104D02*
Y46742D01*
X96921Y47529D01*
X97708Y46742D01*
Y49104D01*
X102430Y46742D02*
X100856D01*
Y47923D01*
X101643D01*
X100856D01*
Y49104D01*
X103218D02*
Y47529D01*
X104005Y46742D01*
X104792Y47529D01*
Y49104D01*
Y47923D01*
X103218D01*
X105579Y49104D02*
Y46742D01*
X107153Y49104D01*
Y46742D01*
X111876Y47136D02*
X111483Y46742D01*
X110696D01*
X110302Y47136D01*
Y47529D01*
X110696Y47923D01*
X111483D01*
X111876Y48316D01*
Y48710D01*
X111483Y49104D01*
X110696D01*
X110302Y48710D01*
X112663Y46742D02*
Y49104D01*
Y47923D01*
X113057Y47529D01*
X113844D01*
X114238Y47923D01*
Y49104D01*
X115418D02*
X116206D01*
X116599Y48710D01*
Y47923D01*
X116206Y47529D01*
X115418D01*
X115025Y47923D01*
Y48710D01*
X115418Y49104D01*
X117386Y47529D02*
Y49104D01*
Y48316D01*
X117780Y47923D01*
X118174Y47529D01*
X118567D01*
X120141Y47136D02*
Y47529D01*
X119748D01*
X120535D01*
X120141D01*
Y48710D01*
X120535Y49104D01*
X124077Y46742D02*
Y49104D01*
X125258D01*
X125651Y48710D01*
Y48316D01*
X125258Y47923D01*
X124077D01*
X125258D01*
X125651Y47529D01*
Y47136D01*
X125258Y46742D01*
X124077D01*
X126438Y47136D02*
X126832Y46742D01*
X127619D01*
X128013Y47136D01*
Y47529D01*
X127619Y47923D01*
X127226D01*
X127619D01*
X128013Y48316D01*
Y48710D01*
X127619Y49104D01*
X126832D01*
X126438Y48710D01*
X70157Y51497D02*
X70945D01*
X70551D01*
Y53858D01*
X70157D01*
X70945D01*
X72125D02*
Y52284D01*
X73306D01*
X73700Y52678D01*
Y53858D01*
X74487D02*
X75668D01*
X76061Y53465D01*
X75668Y53071D01*
X74880D01*
X74487Y52678D01*
X74880Y52284D01*
X76061D01*
X77242Y51890D02*
Y52284D01*
X76848D01*
X77635D01*
X77242D01*
Y53465D01*
X77635Y53858D01*
X79210Y52284D02*
X79997D01*
X80390Y52678D01*
Y53858D01*
X79210D01*
X78816Y53465D01*
X79210Y53071D01*
X80390D01*
X81178Y53858D02*
X81965D01*
X81571D01*
Y51497D01*
X81178D01*
X83145Y53858D02*
X83933D01*
X83539D01*
Y51497D01*
X83145D01*
X89049D02*
X88262D01*
X88655D01*
Y53465D01*
X88262Y53858D01*
X87868D01*
X87475Y53465D01*
X89836Y51890D02*
X90230Y51497D01*
X91017D01*
X91410Y51890D01*
Y52284D01*
X91017Y52678D01*
X90623D01*
X91017D01*
X91410Y53071D01*
Y53465D01*
X91017Y53858D01*
X90230D01*
X89836Y53465D01*
X94559Y53858D02*
Y51497D01*
X95740D01*
X96133Y51890D01*
Y52678D01*
X95740Y53071D01*
X94559D01*
X95346D02*
X96133Y53858D01*
X98101D02*
X97314D01*
X96921Y53465D01*
Y52678D01*
X97314Y52284D01*
X98101D01*
X98495Y52678D01*
Y53071D01*
X96921D01*
X99282Y53858D02*
Y52284D01*
X99676D01*
X100069Y52678D01*
Y53858D01*
Y52678D01*
X100463Y52284D01*
X100856Y52678D01*
Y53858D01*
X102037D02*
X102824D01*
X103218Y53465D01*
Y52678D01*
X102824Y52284D01*
X102037D01*
X101643Y52678D01*
Y53465D01*
X102037Y53858D01*
X104005Y52284D02*
X104792Y53858D01*
X105579Y52284D01*
X107547Y53858D02*
X106760D01*
X106366Y53465D01*
Y52678D01*
X106760Y52284D01*
X107547D01*
X107940Y52678D01*
Y53071D01*
X106366D01*
X112663Y51497D02*
X111876D01*
X112270D01*
Y53465D01*
X111876Y53858D01*
X111483D01*
X111089Y53465D01*
X115025Y53858D02*
X113451D01*
X115025Y52284D01*
Y51890D01*
X114631Y51497D01*
X113844D01*
X113451Y51890D01*
X118567Y52284D02*
X119354D01*
X119748Y52678D01*
Y53858D01*
X118567D01*
X118173Y53465D01*
X118567Y53071D01*
X119748D01*
X120535Y53858D02*
Y52284D01*
X121716D01*
X122109Y52678D01*
Y53858D01*
X124471Y51497D02*
Y53858D01*
X123290D01*
X122896Y53465D01*
Y52678D01*
X123290Y52284D01*
X124471D01*
X127619Y51497D02*
Y53858D01*
Y53071D01*
X129193Y51497D01*
X128013Y52678D01*
X129193Y53858D01*
X129981D02*
X130768D01*
X130374D01*
Y51497D01*
X129981Y51890D01*
X70157Y29419D02*
X71732D01*
X70945D01*
Y31781D01*
X72913D02*
X73700D01*
X74093Y31387D01*
Y30600D01*
X73700Y30206D01*
X72913D01*
X72519Y30600D01*
Y31387D01*
X72913Y31781D01*
X77242Y32568D02*
Y30206D01*
X78423D01*
X78816Y30600D01*
Y31387D01*
X78423Y31781D01*
X77242D01*
X79997D02*
X80784D01*
X81178Y31387D01*
Y30600D01*
X80784Y30206D01*
X79997D01*
X79603Y30600D01*
Y31387D01*
X79997Y31781D01*
X81965Y30206D02*
Y31387D01*
X82358Y31781D01*
X82752Y31387D01*
X83145Y31781D01*
X83539Y31387D01*
Y30206D01*
X85507Y31781D02*
X84720D01*
X84326Y31387D01*
Y30600D01*
X84720Y30206D01*
X85507D01*
X85900Y30600D01*
Y30994D01*
X84326D01*
X86688Y30206D02*
Y31781D01*
Y30994D01*
X87081Y30600D01*
X87475Y30206D01*
X87868D01*
X92985Y29813D02*
X92591Y29419D01*
X91804D01*
X91410Y29813D01*
Y30206D01*
X91804Y30600D01*
X92591D01*
X92985Y30994D01*
Y31387D01*
X92591Y31781D01*
X91804D01*
X91410Y31387D01*
X93772Y29419D02*
X95346D01*
X94559D01*
Y31781D01*
X96133Y29419D02*
Y31781D01*
X97314D01*
X97708Y31387D01*
Y29813D01*
X97314Y29419D01*
X96133D01*
X102430D02*
X100856D01*
Y30600D01*
X101643D01*
X100856D01*
Y31781D01*
X103218D02*
Y30206D01*
X104005Y29419D01*
X104792Y30206D01*
Y31781D01*
Y30600D01*
X103218D01*
X105579Y31781D02*
Y29419D01*
X107153Y31781D01*
Y29419D01*
X111876Y29813D02*
X111483Y29419D01*
X110696D01*
X110302Y29813D01*
Y30206D01*
X110696Y30600D01*
X111483D01*
X111876Y30994D01*
Y31387D01*
X111483Y31781D01*
X110696D01*
X110302Y31387D01*
X112663Y29419D02*
Y31781D01*
Y30600D01*
X113057Y30206D01*
X113844D01*
X114238Y30600D01*
Y31781D01*
X115418D02*
X116206D01*
X116599Y31387D01*
Y30600D01*
X116206Y30206D01*
X115418D01*
X115025Y30600D01*
Y31387D01*
X115418Y31781D01*
X117386Y30206D02*
Y31781D01*
Y30994D01*
X117780Y30600D01*
X118174Y30206D01*
X118567D01*
X120141Y29813D02*
Y30206D01*
X119748D01*
X120535D01*
X120141D01*
Y31387D01*
X120535Y31781D01*
X124077Y29419D02*
Y31781D01*
X125258D01*
X125651Y31387D01*
Y30994D01*
X125258Y30600D01*
X124077D01*
X125258D01*
X125651Y30206D01*
Y29813D01*
X125258Y29419D01*
X124077D01*
X128013Y31781D02*
X126438D01*
X128013Y30206D01*
Y29813D01*
X127619Y29419D01*
X126832D01*
X126438Y29813D01*
X70157Y34174D02*
X70945D01*
X70551D01*
Y36535D01*
X70157D01*
X70945D01*
X72125D02*
Y34961D01*
X73306D01*
X73700Y35355D01*
Y36535D01*
X74487D02*
X75668D01*
X76061Y36142D01*
X75668Y35748D01*
X74880D01*
X74487Y35355D01*
X74880Y34961D01*
X76061D01*
X77242Y34567D02*
Y34961D01*
X76848D01*
X77635D01*
X77242D01*
Y36142D01*
X77635Y36535D01*
X79210Y34961D02*
X79997D01*
X80390Y35355D01*
Y36535D01*
X79210D01*
X78816Y36142D01*
X79210Y35748D01*
X80390D01*
X81178Y36535D02*
X81965D01*
X81571D01*
Y34174D01*
X81178D01*
X83145Y36535D02*
X83933D01*
X83539D01*
Y34174D01*
X83145D01*
X89049D02*
X88262D01*
X88655D01*
Y36142D01*
X88262Y36535D01*
X87868D01*
X87475Y36142D01*
X89836Y34567D02*
X90230Y34174D01*
X91017D01*
X91410Y34567D01*
Y34961D01*
X91017Y35355D01*
X90623D01*
X91017D01*
X91410Y35748D01*
Y36142D01*
X91017Y36535D01*
X90230D01*
X89836Y36142D01*
X94559Y36535D02*
Y34174D01*
X95740D01*
X96133Y34567D01*
Y35355D01*
X95740Y35748D01*
X94559D01*
X95346D02*
X96133Y36535D01*
X98101D02*
X97314D01*
X96921Y36142D01*
Y35355D01*
X97314Y34961D01*
X98101D01*
X98495Y35355D01*
Y35748D01*
X96921D01*
X99282Y36535D02*
Y34961D01*
X99676D01*
X100069Y35355D01*
Y36535D01*
Y35355D01*
X100463Y34961D01*
X100856Y35355D01*
Y36535D01*
X102037D02*
X102824D01*
X103218Y36142D01*
Y35355D01*
X102824Y34961D01*
X102037D01*
X101643Y35355D01*
Y36142D01*
X102037Y36535D01*
X104005Y34961D02*
X104792Y36535D01*
X105579Y34961D01*
X107547Y36535D02*
X106760D01*
X106366Y36142D01*
Y35355D01*
X106760Y34961D01*
X107547D01*
X107940Y35355D01*
Y35748D01*
X106366D01*
X112663Y34174D02*
X111876D01*
X112270D01*
Y36142D01*
X111876Y36535D01*
X111483D01*
X111089Y36142D01*
X115025Y36535D02*
X113451D01*
X115025Y34961D01*
Y34567D01*
X114631Y34174D01*
X113844D01*
X113451Y34567D01*
X118567Y34961D02*
X119354D01*
X119748Y35355D01*
Y36535D01*
X118567D01*
X118173Y36142D01*
X118567Y35748D01*
X119748D01*
X120535Y36535D02*
Y34961D01*
X121716D01*
X122109Y35355D01*
Y36535D01*
X124471Y34174D02*
Y36535D01*
X123290D01*
X122896Y36142D01*
Y35355D01*
X123290Y34961D01*
X124471D01*
X127619Y34174D02*
Y36535D01*
Y35748D01*
X129193Y34174D01*
X128013Y35355D01*
X129193Y36535D01*
X129981D02*
X130768D01*
X130374D01*
Y34174D01*
X129981Y34567D01*
X70157Y63641D02*
X71732D01*
X70945D01*
Y66002D01*
X72913D02*
X73700D01*
X74093Y65609D01*
Y64821D01*
X73700Y64428D01*
X72913D01*
X72519Y64821D01*
Y65609D01*
X72913Y66002D01*
X77242Y66789D02*
Y64428D01*
X78423D01*
X78816Y64821D01*
Y65609D01*
X78423Y66002D01*
X77242D01*
X79997D02*
X80784D01*
X81178Y65609D01*
Y64821D01*
X80784Y64428D01*
X79997D01*
X79603Y64821D01*
Y65609D01*
X79997Y66002D01*
X81965Y64428D02*
Y65609D01*
X82358Y66002D01*
X82752Y65609D01*
X83145Y66002D01*
X83539Y65609D01*
Y64428D01*
X85507Y66002D02*
X84720D01*
X84326Y65609D01*
Y64821D01*
X84720Y64428D01*
X85507D01*
X85900Y64821D01*
Y65215D01*
X84326D01*
X86688Y64428D02*
Y66002D01*
Y65215D01*
X87081Y64821D01*
X87475Y64428D01*
X87868D01*
X91804D02*
X92591D01*
X92985Y64821D01*
Y66002D01*
X91804D01*
X91410Y65609D01*
X91804Y65215D01*
X92985D01*
X97708Y63641D02*
X96133D01*
Y64821D01*
X96921Y64428D01*
X97314D01*
X97708Y64821D01*
Y65609D01*
X97314Y66002D01*
X96527D01*
X96133Y65609D01*
X98495Y63641D02*
Y65215D01*
X99282Y66002D01*
X100069Y65215D01*
Y63641D01*
X104792Y64034D02*
X104398Y63641D01*
X103611D01*
X103218Y64034D01*
Y64428D01*
X103611Y64821D01*
X104398D01*
X104792Y65215D01*
Y65609D01*
X104398Y66002D01*
X103611D01*
X103218Y65609D01*
X107153Y64034D02*
X106760Y63641D01*
X105973D01*
X105579Y64034D01*
Y64428D01*
X105973Y64821D01*
X106760D01*
X107153Y65215D01*
Y65609D01*
X106760Y66002D01*
X105973D01*
X105579Y65609D01*
X107941Y66002D02*
Y63641D01*
X109121D01*
X109515Y64034D01*
Y64821D01*
X109121Y65215D01*
X107941D01*
X108728D02*
X109515Y66002D01*
X114238Y64034D02*
X113844Y63641D01*
X113057D01*
X112663Y64034D01*
Y64428D01*
X113057Y64821D01*
X113844D01*
X114238Y65215D01*
Y65609D01*
X113844Y66002D01*
X113057D01*
X112663Y65609D01*
X115025Y63641D02*
Y66002D01*
Y64821D01*
X115419Y64428D01*
X116206D01*
X116599Y64821D01*
Y66002D01*
X117780D02*
X118567D01*
X118961Y65609D01*
Y64821D01*
X118567Y64428D01*
X117780D01*
X117386Y64821D01*
Y65609D01*
X117780Y66002D01*
X119748Y64428D02*
Y66002D01*
Y65215D01*
X120141Y64821D01*
X120535Y64428D01*
X120929D01*
X122503Y64034D02*
Y64428D01*
X122109D01*
X122896D01*
X122503D01*
Y65609D01*
X122896Y66002D01*
X126438Y63641D02*
Y66002D01*
X127619D01*
X128013Y65609D01*
Y65215D01*
X127619Y64821D01*
X126438D01*
X127619D01*
X128013Y64428D01*
Y64034D01*
X127619Y63641D01*
X126438D01*
X128800Y66002D02*
X129587D01*
X129193D01*
Y63641D01*
X128800Y64034D01*
X70157Y70757D02*
Y68395D01*
X71338D01*
X71732Y68789D01*
Y69576D01*
X71338Y69970D01*
X70157D01*
X72519Y70757D02*
X73306D01*
X72913D01*
Y69182D01*
X72519D01*
X74487Y70757D02*
Y69182D01*
X75668D01*
X76061Y69576D01*
Y70757D01*
X80784D02*
X79210D01*
X80784Y69182D01*
Y68789D01*
X80390Y68395D01*
X79603D01*
X79210Y68789D01*
X81571Y69182D02*
X81965D01*
Y69576D01*
X81571D01*
Y69182D01*
Y70363D02*
X81965D01*
Y70757D01*
X81571D01*
Y70363D01*
X87475Y68789D02*
X87081Y68395D01*
X86294D01*
X85900Y68789D01*
Y69182D01*
X86294Y69576D01*
X87081D01*
X87475Y69970D01*
Y70363D01*
X87081Y70757D01*
X86294D01*
X85900Y70363D01*
X89836Y68789D02*
X89443Y68395D01*
X88656D01*
X88262Y68789D01*
Y69182D01*
X88656Y69576D01*
X89443D01*
X89836Y69970D01*
Y70363D01*
X89443Y70757D01*
X88656D01*
X88262Y70363D01*
X90623Y70757D02*
Y68395D01*
X91804D01*
X92198Y68789D01*
Y69576D01*
X91804Y69970D01*
X90623D01*
X91410D02*
X92198Y70757D01*
X95346Y69576D02*
X96921D01*
X96133Y68789D02*
Y70363D01*
X71732Y72756D02*
X71338Y72363D01*
X70551D01*
X70157Y72756D01*
Y74331D01*
X70551Y74724D01*
X71338D01*
X71732Y74331D01*
Y73544D01*
X70945D01*
X72519Y74724D02*
Y72363D01*
X74093Y74724D01*
Y72363D01*
X74880D02*
Y74724D01*
X76061D01*
X76455Y74331D01*
Y72756D01*
X76061Y72363D01*
X74880D01*
X77242Y73150D02*
X77635D01*
Y73544D01*
X77242D01*
Y73150D01*
Y74331D02*
X77635D01*
Y74724D01*
X77242D01*
Y74331D01*
X87868Y72756D02*
X87475Y72363D01*
X86688D01*
X86294Y72756D01*
Y73150D01*
X86688Y73544D01*
X87475D01*
X87868Y73937D01*
Y74331D01*
X87475Y74724D01*
X86688D01*
X86294Y74331D01*
X90230Y72756D02*
X89836Y72363D01*
X89049D01*
X88656Y72756D01*
Y73150D01*
X89049Y73544D01*
X89836D01*
X90230Y73937D01*
Y74331D01*
X89836Y74724D01*
X89049D01*
X88656Y74331D01*
X91017Y74724D02*
Y72363D01*
X92198D01*
X92591Y72756D01*
Y73544D01*
X92198Y73937D01*
X91017D01*
X91804D02*
X92591Y74724D01*
X95740Y73544D02*
X97314D01*
X61024Y39252D02*
Y41614D01*
X62205D01*
X62599Y41220D01*
Y40827D01*
X62205Y40433D01*
X61024D01*
X62205D01*
X62599Y40040D01*
Y39646D01*
X62205Y39252D01*
X61024D01*
X64960Y41614D02*
X63386D01*
X64960Y40040D01*
Y39646D01*
X64566Y39252D01*
X63779D01*
X63386Y39646D01*
X61024Y56811D02*
Y59173D01*
X62205D01*
X62599Y58779D01*
Y58386D01*
X62205Y57992D01*
X61024D01*
X62205D01*
X62599Y57599D01*
Y57205D01*
X62205Y56811D01*
X61024D01*
X63386Y57205D02*
X63779Y56811D01*
X64566D01*
X64960Y57205D01*
Y57599D01*
X64566Y57992D01*
X64173D01*
X64566D01*
X64960Y58386D01*
Y58779D01*
X64566Y59173D01*
X63779D01*
X63386Y58779D01*
X41536Y70867D02*
Y73228D01*
X42717D01*
X43110Y72834D01*
Y72441D01*
X42717Y72047D01*
X41536D01*
X42717D01*
X43110Y71654D01*
Y71260D01*
X42717Y70867D01*
X41536D01*
X43897Y73228D02*
X44685D01*
X44291D01*
Y70867D01*
X43897Y71260D01*
X235512Y46742D02*
X237086D01*
X236299D01*
Y49104D01*
X238267D02*
X239054D01*
X239448Y48710D01*
Y47923D01*
X239054Y47529D01*
X238267D01*
X237873Y47923D01*
Y48710D01*
X238267Y49104D01*
X242596Y49891D02*
Y47529D01*
X243777D01*
X244170Y47923D01*
Y48710D01*
X243777Y49104D01*
X242596D01*
X245351D02*
X246138D01*
X246532Y48710D01*
Y47923D01*
X246138Y47529D01*
X245351D01*
X244958Y47923D01*
Y48710D01*
X245351Y49104D01*
X247319Y47529D02*
Y48710D01*
X247713Y49104D01*
X248106Y48710D01*
X248500Y49104D01*
X248893Y48710D01*
Y47529D01*
X250861Y49104D02*
X250074D01*
X249680Y48710D01*
Y47923D01*
X250074Y47529D01*
X250861D01*
X251255Y47923D01*
Y48316D01*
X249680D01*
X252042Y47529D02*
Y49104D01*
Y48316D01*
X252435Y47923D01*
X252829Y47529D01*
X253223D01*
X256765Y49104D02*
Y46742D01*
X257946D01*
X258339Y47136D01*
Y47923D01*
X257946Y48316D01*
X256765D01*
X259126Y46742D02*
Y49104D01*
X259913Y48316D01*
X260701Y49104D01*
Y46742D01*
X261488Y49104D02*
Y46742D01*
X262275Y47529D01*
X263062Y46742D01*
Y49104D01*
X267785Y46742D02*
X266211D01*
Y47923D01*
X266998D01*
X266211D01*
Y49104D01*
X268572D02*
Y47529D01*
X269359Y46742D01*
X270146Y47529D01*
Y49104D01*
Y47923D01*
X268572D01*
X270934Y49104D02*
Y46742D01*
X272508Y49104D01*
Y46742D01*
X277231Y47136D02*
X276837Y46742D01*
X276050D01*
X275656Y47136D01*
Y47529D01*
X276050Y47923D01*
X276837D01*
X277231Y48316D01*
Y48710D01*
X276837Y49104D01*
X276050D01*
X275656Y48710D01*
X278018Y46742D02*
Y49104D01*
Y47923D01*
X278411Y47529D01*
X279199D01*
X279592Y47923D01*
Y49104D01*
X280773D02*
X281560D01*
X281954Y48710D01*
Y47923D01*
X281560Y47529D01*
X280773D01*
X280379Y47923D01*
Y48710D01*
X280773Y49104D01*
X282741Y47529D02*
Y49104D01*
Y48316D01*
X283134Y47923D01*
X283528Y47529D01*
X283921D01*
X285496Y47136D02*
Y47529D01*
X285102D01*
X285889D01*
X285496D01*
Y48710D01*
X285889Y49104D01*
X289431Y46742D02*
Y49104D01*
X290612D01*
X291006Y48710D01*
Y48316D01*
X290612Y47923D01*
X289431D01*
X290612D01*
X291006Y47529D01*
Y47136D01*
X290612Y46742D01*
X289431D01*
X291793Y47136D02*
X292186Y46742D01*
X292974D01*
X293367Y47136D01*
Y47529D01*
X292974Y47923D01*
X292580D01*
X292974D01*
X293367Y48316D01*
Y48710D01*
X292974Y49104D01*
X292186D01*
X291793Y48710D01*
X235512Y51497D02*
X236299D01*
X235905D01*
Y53858D01*
X235512D01*
X236299D01*
X237480D02*
Y52284D01*
X238660D01*
X239054Y52678D01*
Y53858D01*
X239841D02*
X241022D01*
X241416Y53465D01*
X241022Y53071D01*
X240235D01*
X239841Y52678D01*
X240235Y52284D01*
X241416D01*
X242596Y51890D02*
Y52284D01*
X242203D01*
X242990D01*
X242596D01*
Y53465D01*
X242990Y53858D01*
X244564Y52284D02*
X245351D01*
X245745Y52678D01*
Y53858D01*
X244564D01*
X244170Y53465D01*
X244564Y53071D01*
X245745D01*
X246532Y53858D02*
X247319D01*
X246925D01*
Y51497D01*
X246532D01*
X248500Y53858D02*
X249287D01*
X248893D01*
Y51497D01*
X248500D01*
X254403D02*
X253616D01*
X254010D01*
Y53465D01*
X253616Y53858D01*
X253223D01*
X252829Y53465D01*
X255190Y51890D02*
X255584Y51497D01*
X256371D01*
X256765Y51890D01*
Y52284D01*
X256371Y52678D01*
X255978D01*
X256371D01*
X256765Y53071D01*
Y53465D01*
X256371Y53858D01*
X255584D01*
X255190Y53465D01*
X259913Y53858D02*
Y51497D01*
X261094D01*
X261488Y51890D01*
Y52678D01*
X261094Y53071D01*
X259913D01*
X260700D02*
X261488Y53858D01*
X263456D02*
X262668D01*
X262275Y53465D01*
Y52678D01*
X262668Y52284D01*
X263456D01*
X263849Y52678D01*
Y53071D01*
X262275D01*
X264636Y53858D02*
Y52284D01*
X265030D01*
X265423Y52678D01*
Y53858D01*
Y52678D01*
X265817Y52284D01*
X266211Y52678D01*
Y53858D01*
X267391D02*
X268178D01*
X268572Y53465D01*
Y52678D01*
X268178Y52284D01*
X267391D01*
X266998Y52678D01*
Y53465D01*
X267391Y53858D01*
X269359Y52284D02*
X270146Y53858D01*
X270933Y52284D01*
X272901Y53858D02*
X272114D01*
X271721Y53465D01*
Y52678D01*
X272114Y52284D01*
X272901D01*
X273295Y52678D01*
Y53071D01*
X271721D01*
X278018Y51497D02*
X277231D01*
X277624D01*
Y53465D01*
X277231Y53858D01*
X276837D01*
X276444Y53465D01*
X280379Y53858D02*
X278805D01*
X280379Y52284D01*
Y51890D01*
X279986Y51497D01*
X279199D01*
X278805Y51890D01*
X283921Y52284D02*
X284708D01*
X285102Y52678D01*
Y53858D01*
X283921D01*
X283528Y53465D01*
X283921Y53071D01*
X285102D01*
X285889Y53858D02*
Y52284D01*
X287070D01*
X287463Y52678D01*
Y53858D01*
X289825Y51497D02*
Y53858D01*
X288644D01*
X288251Y53465D01*
Y52678D01*
X288644Y52284D01*
X289825D01*
X292973Y51497D02*
Y53858D01*
Y53071D01*
X294548Y51497D01*
X293367Y52678D01*
X294548Y53858D01*
X295335D02*
X296122D01*
X295729D01*
Y51497D01*
X295335Y51890D01*
X235512Y29419D02*
X237086D01*
X236299D01*
Y31781D01*
X238267D02*
X239054D01*
X239448Y31387D01*
Y30600D01*
X239054Y30206D01*
X238267D01*
X237873Y30600D01*
Y31387D01*
X238267Y31781D01*
X242596Y32568D02*
Y30206D01*
X243777D01*
X244170Y30600D01*
Y31387D01*
X243777Y31781D01*
X242596D01*
X245351D02*
X246138D01*
X246532Y31387D01*
Y30600D01*
X246138Y30206D01*
X245351D01*
X244958Y30600D01*
Y31387D01*
X245351Y31781D01*
X247319Y30206D02*
Y31387D01*
X247713Y31781D01*
X248106Y31387D01*
X248500Y31781D01*
X248893Y31387D01*
Y30206D01*
X250861Y31781D02*
X250074D01*
X249680Y31387D01*
Y30600D01*
X250074Y30206D01*
X250861D01*
X251255Y30600D01*
Y30994D01*
X249680D01*
X252042Y30206D02*
Y31781D01*
Y30994D01*
X252435Y30600D01*
X252829Y30206D01*
X253223D01*
X258339Y29813D02*
X257946Y29419D01*
X257158D01*
X256765Y29813D01*
Y30206D01*
X257158Y30600D01*
X257946D01*
X258339Y30994D01*
Y31387D01*
X257946Y31781D01*
X257158D01*
X256765Y31387D01*
X259126Y29419D02*
X260701D01*
X259913D01*
Y31781D01*
X261488Y29419D02*
Y31781D01*
X262668D01*
X263062Y31387D01*
Y29813D01*
X262668Y29419D01*
X261488D01*
X267785D02*
X266211D01*
Y30600D01*
X266998D01*
X266211D01*
Y31781D01*
X268572D02*
Y30206D01*
X269359Y29419D01*
X270146Y30206D01*
Y31781D01*
Y30600D01*
X268572D01*
X270934Y31781D02*
Y29419D01*
X272508Y31781D01*
Y29419D01*
X277231Y29813D02*
X276837Y29419D01*
X276050D01*
X275656Y29813D01*
Y30206D01*
X276050Y30600D01*
X276837D01*
X277231Y30994D01*
Y31387D01*
X276837Y31781D01*
X276050D01*
X275656Y31387D01*
X278018Y29419D02*
Y31781D01*
Y30600D01*
X278411Y30206D01*
X279199D01*
X279592Y30600D01*
Y31781D01*
X280773D02*
X281560D01*
X281954Y31387D01*
Y30600D01*
X281560Y30206D01*
X280773D01*
X280379Y30600D01*
Y31387D01*
X280773Y31781D01*
X282741Y30206D02*
Y31781D01*
Y30994D01*
X283134Y30600D01*
X283528Y30206D01*
X283921D01*
X285496Y29813D02*
Y30206D01*
X285102D01*
X285889D01*
X285496D01*
Y31387D01*
X285889Y31781D01*
X289431Y29419D02*
Y31781D01*
X290612D01*
X291006Y31387D01*
Y30994D01*
X290612Y30600D01*
X289431D01*
X290612D01*
X291006Y30206D01*
Y29813D01*
X290612Y29419D01*
X289431D01*
X293367Y31781D02*
X291793D01*
X293367Y30206D01*
Y29813D01*
X292974Y29419D01*
X292186D01*
X291793Y29813D01*
X235512Y34174D02*
X236299D01*
X235905D01*
Y36535D01*
X235512D01*
X236299D01*
X237480D02*
Y34961D01*
X238660D01*
X239054Y35355D01*
Y36535D01*
X239841D02*
X241022D01*
X241416Y36142D01*
X241022Y35748D01*
X240235D01*
X239841Y35355D01*
X240235Y34961D01*
X241416D01*
X242596Y34567D02*
Y34961D01*
X242203D01*
X242990D01*
X242596D01*
Y36142D01*
X242990Y36535D01*
X244564Y34961D02*
X245351D01*
X245745Y35355D01*
Y36535D01*
X244564D01*
X244170Y36142D01*
X244564Y35748D01*
X245745D01*
X246532Y36535D02*
X247319D01*
X246925D01*
Y34174D01*
X246532D01*
X248500Y36535D02*
X249287D01*
X248893D01*
Y34174D01*
X248500D01*
X254403D02*
X253616D01*
X254010D01*
Y36142D01*
X253616Y36535D01*
X253223D01*
X252829Y36142D01*
X255190Y34567D02*
X255584Y34174D01*
X256371D01*
X256765Y34567D01*
Y34961D01*
X256371Y35355D01*
X255978D01*
X256371D01*
X256765Y35748D01*
Y36142D01*
X256371Y36535D01*
X255584D01*
X255190Y36142D01*
X259913Y36535D02*
Y34174D01*
X261094D01*
X261488Y34567D01*
Y35355D01*
X261094Y35748D01*
X259913D01*
X260700D02*
X261488Y36535D01*
X263456D02*
X262668D01*
X262275Y36142D01*
Y35355D01*
X262668Y34961D01*
X263456D01*
X263849Y35355D01*
Y35748D01*
X262275D01*
X264636Y36535D02*
Y34961D01*
X265030D01*
X265423Y35355D01*
Y36535D01*
Y35355D01*
X265817Y34961D01*
X266211Y35355D01*
Y36535D01*
X267391D02*
X268178D01*
X268572Y36142D01*
Y35355D01*
X268178Y34961D01*
X267391D01*
X266998Y35355D01*
Y36142D01*
X267391Y36535D01*
X269359Y34961D02*
X270146Y36535D01*
X270933Y34961D01*
X272901Y36535D02*
X272114D01*
X271721Y36142D01*
Y35355D01*
X272114Y34961D01*
X272901D01*
X273295Y35355D01*
Y35748D01*
X271721D01*
X278018Y34174D02*
X277231D01*
X277624D01*
Y36142D01*
X277231Y36535D01*
X276837D01*
X276444Y36142D01*
X280379Y36535D02*
X278805D01*
X280379Y34961D01*
Y34567D01*
X279986Y34174D01*
X279199D01*
X278805Y34567D01*
X283921Y34961D02*
X284708D01*
X285102Y35355D01*
Y36535D01*
X283921D01*
X283528Y36142D01*
X283921Y35748D01*
X285102D01*
X285889Y36535D02*
Y34961D01*
X287070D01*
X287463Y35355D01*
Y36535D01*
X289825Y34174D02*
Y36535D01*
X288644D01*
X288251Y36142D01*
Y35355D01*
X288644Y34961D01*
X289825D01*
X292973Y34174D02*
Y36535D01*
Y35748D01*
X294548Y34174D01*
X293367Y35355D01*
X294548Y36535D01*
X295335D02*
X296122D01*
X295729D01*
Y34174D01*
X295335Y34567D01*
X235512Y63641D02*
X237086D01*
X236299D01*
Y66002D01*
X238267D02*
X239054D01*
X239448Y65609D01*
Y64821D01*
X239054Y64428D01*
X238267D01*
X237873Y64821D01*
Y65609D01*
X238267Y66002D01*
X242596Y66789D02*
Y64428D01*
X243777D01*
X244170Y64821D01*
Y65609D01*
X243777Y66002D01*
X242596D01*
X245351D02*
X246138D01*
X246532Y65609D01*
Y64821D01*
X246138Y64428D01*
X245351D01*
X244958Y64821D01*
Y65609D01*
X245351Y66002D01*
X247319Y64428D02*
Y65609D01*
X247713Y66002D01*
X248106Y65609D01*
X248500Y66002D01*
X248893Y65609D01*
Y64428D01*
X250861Y66002D02*
X250074D01*
X249680Y65609D01*
Y64821D01*
X250074Y64428D01*
X250861D01*
X251255Y64821D01*
Y65215D01*
X249680D01*
X252042Y64428D02*
Y66002D01*
Y65215D01*
X252435Y64821D01*
X252829Y64428D01*
X253223D01*
X257158D02*
X257946D01*
X258339Y64821D01*
Y66002D01*
X257158D01*
X256765Y65609D01*
X257158Y65215D01*
X258339D01*
X263062Y63641D02*
X261488D01*
Y64821D01*
X262275Y64428D01*
X262668D01*
X263062Y64821D01*
Y65609D01*
X262668Y66002D01*
X261881D01*
X261488Y65609D01*
X263849Y63641D02*
Y65215D01*
X264636Y66002D01*
X265423Y65215D01*
Y63641D01*
X270146Y64034D02*
X269753Y63641D01*
X268966D01*
X268572Y64034D01*
Y64428D01*
X268966Y64821D01*
X269753D01*
X270146Y65215D01*
Y65609D01*
X269753Y66002D01*
X268966D01*
X268572Y65609D01*
X272508Y64034D02*
X272114Y63641D01*
X271327D01*
X270934Y64034D01*
Y64428D01*
X271327Y64821D01*
X272114D01*
X272508Y65215D01*
Y65609D01*
X272114Y66002D01*
X271327D01*
X270934Y65609D01*
X273295Y66002D02*
Y63641D01*
X274476D01*
X274869Y64034D01*
Y64821D01*
X274476Y65215D01*
X273295D01*
X274082D02*
X274869Y66002D01*
X279592Y64034D02*
X279199Y63641D01*
X278411D01*
X278018Y64034D01*
Y64428D01*
X278411Y64821D01*
X279199D01*
X279592Y65215D01*
Y65609D01*
X279199Y66002D01*
X278411D01*
X278018Y65609D01*
X280379Y63641D02*
Y66002D01*
Y64821D01*
X280773Y64428D01*
X281560D01*
X281954Y64821D01*
Y66002D01*
X283134D02*
X283921D01*
X284315Y65609D01*
Y64821D01*
X283921Y64428D01*
X283134D01*
X282741Y64821D01*
Y65609D01*
X283134Y66002D01*
X285102Y64428D02*
Y66002D01*
Y65215D01*
X285496Y64821D01*
X285889Y64428D01*
X286283D01*
X287857Y64034D02*
Y64428D01*
X287464D01*
X288251D01*
X287857D01*
Y65609D01*
X288251Y66002D01*
X291793Y63641D02*
Y66002D01*
X292974D01*
X293367Y65609D01*
Y65215D01*
X292974Y64821D01*
X291793D01*
X292974D01*
X293367Y64428D01*
Y64034D01*
X292974Y63641D01*
X291793D01*
X294154Y66002D02*
X294941D01*
X294548D01*
Y63641D01*
X294154Y64034D01*
X235512Y70757D02*
Y68395D01*
X236693D01*
X237086Y68789D01*
Y69576D01*
X236693Y69970D01*
X235512D01*
X237873Y70757D02*
X238661D01*
X238267D01*
Y69182D01*
X237873D01*
X239841Y70757D02*
Y69182D01*
X241022D01*
X241416Y69576D01*
Y70757D01*
X246138D02*
X244564D01*
X246138Y69182D01*
Y68789D01*
X245745Y68395D01*
X244958D01*
X244564Y68789D01*
X246925Y69182D02*
X247319D01*
Y69576D01*
X246925D01*
Y69182D01*
Y70363D02*
X247319D01*
Y70757D01*
X246925D01*
Y70363D01*
X252829Y68789D02*
X252435Y68395D01*
X251648D01*
X251255Y68789D01*
Y69182D01*
X251648Y69576D01*
X252435D01*
X252829Y69970D01*
Y70363D01*
X252435Y70757D01*
X251648D01*
X251255Y70363D01*
X255190Y68789D02*
X254797Y68395D01*
X254010D01*
X253616Y68789D01*
Y69182D01*
X254010Y69576D01*
X254797D01*
X255190Y69970D01*
Y70363D01*
X254797Y70757D01*
X254010D01*
X253616Y70363D01*
X255978Y70757D02*
Y68395D01*
X257158D01*
X257552Y68789D01*
Y69576D01*
X257158Y69970D01*
X255978D01*
X256765D02*
X257552Y70757D01*
X260701Y69576D02*
X262275D01*
X261488Y68789D02*
Y70363D01*
X237086Y72756D02*
X236693Y72363D01*
X235906D01*
X235512Y72756D01*
Y74331D01*
X235906Y74724D01*
X236693D01*
X237086Y74331D01*
Y73544D01*
X236299D01*
X237873Y74724D02*
Y72363D01*
X239448Y74724D01*
Y72363D01*
X240235D02*
Y74724D01*
X241416D01*
X241809Y74331D01*
Y72756D01*
X241416Y72363D01*
X240235D01*
X242596Y73150D02*
X242990D01*
Y73544D01*
X242596D01*
Y73150D01*
Y74331D02*
X242990D01*
Y74724D01*
X242596D01*
Y74331D01*
X253223Y72756D02*
X252829Y72363D01*
X252042D01*
X251648Y72756D01*
Y73150D01*
X252042Y73544D01*
X252829D01*
X253223Y73937D01*
Y74331D01*
X252829Y74724D01*
X252042D01*
X251648Y74331D01*
X255584Y72756D02*
X255190Y72363D01*
X254403D01*
X254010Y72756D01*
Y73150D01*
X254403Y73544D01*
X255190D01*
X255584Y73937D01*
Y74331D01*
X255190Y74724D01*
X254403D01*
X254010Y74331D01*
X256371Y74724D02*
Y72363D01*
X257552D01*
X257946Y72756D01*
Y73544D01*
X257552Y73937D01*
X256371D01*
X257158D02*
X257946Y74724D01*
X261094Y73544D02*
X262668D01*
X226379Y39252D02*
Y41614D01*
X227559D01*
X227953Y41220D01*
Y40827D01*
X227559Y40433D01*
X226379D01*
X227559D01*
X227953Y40040D01*
Y39646D01*
X227559Y39252D01*
X226379D01*
X230314Y41614D02*
X228740D01*
X230314Y40040D01*
Y39646D01*
X229921Y39252D01*
X229134D01*
X228740Y39646D01*
X226379Y56811D02*
Y59173D01*
X227559D01*
X227953Y58779D01*
Y58386D01*
X227559Y57992D01*
X226379D01*
X227559D01*
X227953Y57599D01*
Y57205D01*
X227559Y56811D01*
X226379D01*
X228740Y57205D02*
X229134Y56811D01*
X229921D01*
X230314Y57205D01*
Y57599D01*
X229921Y57992D01*
X229527D01*
X229921D01*
X230314Y58386D01*
Y58779D01*
X229921Y59173D01*
X229134D01*
X228740Y58779D01*
X206890Y70867D02*
Y73228D01*
X208071D01*
X208465Y72834D01*
Y72441D01*
X208071Y72047D01*
X206890D01*
X208071D01*
X208465Y71654D01*
Y71260D01*
X208071Y70867D01*
X206890D01*
X209252Y73228D02*
X210039D01*
X209645D01*
Y70867D01*
X209252Y71260D01*
X70157Y105797D02*
X71732D01*
X70945D01*
Y108159D01*
X72913D02*
X73700D01*
X74093Y107765D01*
Y106978D01*
X73700Y106584D01*
X72913D01*
X72519Y106978D01*
Y107765D01*
X72913Y108159D01*
X77242Y108946D02*
Y106584D01*
X78423D01*
X78816Y106978D01*
Y107765D01*
X78423Y108159D01*
X77242D01*
X79997D02*
X80784D01*
X81178Y107765D01*
Y106978D01*
X80784Y106584D01*
X79997D01*
X79603Y106978D01*
Y107765D01*
X79997Y108159D01*
X81965Y106584D02*
Y107765D01*
X82358Y108159D01*
X82752Y107765D01*
X83145Y108159D01*
X83539Y107765D01*
Y106584D01*
X85507Y108159D02*
X84720D01*
X84326Y107765D01*
Y106978D01*
X84720Y106584D01*
X85507D01*
X85900Y106978D01*
Y107371D01*
X84326D01*
X86688Y106584D02*
Y108159D01*
Y107371D01*
X87081Y106978D01*
X87475Y106584D01*
X87868D01*
X91410Y108159D02*
Y105797D01*
X92591D01*
X92985Y106191D01*
Y106978D01*
X92591Y107371D01*
X91410D01*
X93772Y105797D02*
Y108159D01*
X94559Y107371D01*
X95346Y108159D01*
Y105797D01*
X96133Y108159D02*
Y105797D01*
X96921Y106584D01*
X97708Y105797D01*
Y108159D01*
X102430Y105797D02*
X100856D01*
Y106978D01*
X101643D01*
X100856D01*
Y108159D01*
X103218D02*
Y106584D01*
X104005Y105797D01*
X104792Y106584D01*
Y108159D01*
Y106978D01*
X103218D01*
X105579Y108159D02*
Y105797D01*
X107153Y108159D01*
Y105797D01*
X111876Y106191D02*
X111483Y105797D01*
X110696D01*
X110302Y106191D01*
Y106584D01*
X110696Y106978D01*
X111483D01*
X111876Y107371D01*
Y107765D01*
X111483Y108159D01*
X110696D01*
X110302Y107765D01*
X112663Y105797D02*
Y108159D01*
Y106978D01*
X113057Y106584D01*
X113844D01*
X114238Y106978D01*
Y108159D01*
X115418D02*
X116206D01*
X116599Y107765D01*
Y106978D01*
X116206Y106584D01*
X115418D01*
X115025Y106978D01*
Y107765D01*
X115418Y108159D01*
X117386Y106584D02*
Y108159D01*
Y107371D01*
X117780Y106978D01*
X118174Y106584D01*
X118567D01*
X120141Y106191D02*
Y106584D01*
X119748D01*
X120535D01*
X120141D01*
Y107765D01*
X120535Y108159D01*
X124077Y105797D02*
Y108159D01*
X125258D01*
X125651Y107765D01*
Y107371D01*
X125258Y106978D01*
X124077D01*
X125258D01*
X125651Y106584D01*
Y106191D01*
X125258Y105797D01*
X124077D01*
X126438Y106191D02*
X126832Y105797D01*
X127619D01*
X128013Y106191D01*
Y106584D01*
X127619Y106978D01*
X127226D01*
X127619D01*
X128013Y107371D01*
Y107765D01*
X127619Y108159D01*
X126832D01*
X126438Y107765D01*
X70157Y110552D02*
X70945D01*
X70551D01*
Y112913D01*
X70157D01*
X70945D01*
X72125D02*
Y111339D01*
X73306D01*
X73700Y111733D01*
Y112913D01*
X74487D02*
X75668D01*
X76061Y112520D01*
X75668Y112126D01*
X74880D01*
X74487Y111733D01*
X74880Y111339D01*
X76061D01*
X77242Y110945D02*
Y111339D01*
X76848D01*
X77635D01*
X77242D01*
Y112520D01*
X77635Y112913D01*
X79210Y111339D02*
X79997D01*
X80390Y111733D01*
Y112913D01*
X79210D01*
X78816Y112520D01*
X79210Y112126D01*
X80390D01*
X81178Y112913D02*
X81965D01*
X81571D01*
Y110552D01*
X81178D01*
X83145Y112913D02*
X83933D01*
X83539D01*
Y110552D01*
X83145D01*
X89049D02*
X88262D01*
X88655D01*
Y112520D01*
X88262Y112913D01*
X87868D01*
X87475Y112520D01*
X89836Y110945D02*
X90230Y110552D01*
X91017D01*
X91410Y110945D01*
Y111339D01*
X91017Y111733D01*
X90623D01*
X91017D01*
X91410Y112126D01*
Y112520D01*
X91017Y112913D01*
X90230D01*
X89836Y112520D01*
X94559Y112913D02*
Y110552D01*
X95740D01*
X96133Y110945D01*
Y111733D01*
X95740Y112126D01*
X94559D01*
X95346D02*
X96133Y112913D01*
X98101D02*
X97314D01*
X96921Y112520D01*
Y111733D01*
X97314Y111339D01*
X98101D01*
X98495Y111733D01*
Y112126D01*
X96921D01*
X99282Y112913D02*
Y111339D01*
X99676D01*
X100069Y111733D01*
Y112913D01*
Y111733D01*
X100463Y111339D01*
X100856Y111733D01*
Y112913D01*
X102037D02*
X102824D01*
X103218Y112520D01*
Y111733D01*
X102824Y111339D01*
X102037D01*
X101643Y111733D01*
Y112520D01*
X102037Y112913D01*
X104005Y111339D02*
X104792Y112913D01*
X105579Y111339D01*
X107547Y112913D02*
X106760D01*
X106366Y112520D01*
Y111733D01*
X106760Y111339D01*
X107547D01*
X107940Y111733D01*
Y112126D01*
X106366D01*
X112663Y110552D02*
X111876D01*
X112270D01*
Y112520D01*
X111876Y112913D01*
X111483D01*
X111089Y112520D01*
X115025Y112913D02*
X113451D01*
X115025Y111339D01*
Y110945D01*
X114631Y110552D01*
X113844D01*
X113451Y110945D01*
X118567Y111339D02*
X119354D01*
X119748Y111733D01*
Y112913D01*
X118567D01*
X118173Y112520D01*
X118567Y112126D01*
X119748D01*
X120535Y112913D02*
Y111339D01*
X121716D01*
X122109Y111733D01*
Y112913D01*
X124471Y110552D02*
Y112913D01*
X123290D01*
X122896Y112520D01*
Y111733D01*
X123290Y111339D01*
X124471D01*
X127619Y110552D02*
Y112913D01*
Y112126D01*
X129193Y110552D01*
X128013Y111733D01*
X129193Y112913D01*
X129981D02*
X130768D01*
X130374D01*
Y110552D01*
X129981Y110945D01*
X70157Y88474D02*
X71732D01*
X70945D01*
Y90836D01*
X72913D02*
X73700D01*
X74093Y90442D01*
Y89655D01*
X73700Y89262D01*
X72913D01*
X72519Y89655D01*
Y90442D01*
X72913Y90836D01*
X77242Y91623D02*
Y89262D01*
X78423D01*
X78816Y89655D01*
Y90442D01*
X78423Y90836D01*
X77242D01*
X79997D02*
X80784D01*
X81178Y90442D01*
Y89655D01*
X80784Y89262D01*
X79997D01*
X79603Y89655D01*
Y90442D01*
X79997Y90836D01*
X81965Y89262D02*
Y90442D01*
X82358Y90836D01*
X82752Y90442D01*
X83145Y90836D01*
X83539Y90442D01*
Y89262D01*
X85507Y90836D02*
X84720D01*
X84326Y90442D01*
Y89655D01*
X84720Y89262D01*
X85507D01*
X85900Y89655D01*
Y90049D01*
X84326D01*
X86688Y89262D02*
Y90836D01*
Y90049D01*
X87081Y89655D01*
X87475Y89262D01*
X87868D01*
X92985Y88868D02*
X92591Y88474D01*
X91804D01*
X91410Y88868D01*
Y89262D01*
X91804Y89655D01*
X92591D01*
X92985Y90049D01*
Y90442D01*
X92591Y90836D01*
X91804D01*
X91410Y90442D01*
X93772Y88474D02*
X95346D01*
X94559D01*
Y90836D01*
X96133Y88474D02*
Y90836D01*
X97314D01*
X97708Y90442D01*
Y88868D01*
X97314Y88474D01*
X96133D01*
X102430D02*
X100856D01*
Y89655D01*
X101643D01*
X100856D01*
Y90836D01*
X103218D02*
Y89262D01*
X104005Y88474D01*
X104792Y89262D01*
Y90836D01*
Y89655D01*
X103218D01*
X105579Y90836D02*
Y88474D01*
X107153Y90836D01*
Y88474D01*
X111876Y88868D02*
X111483Y88474D01*
X110696D01*
X110302Y88868D01*
Y89262D01*
X110696Y89655D01*
X111483D01*
X111876Y90049D01*
Y90442D01*
X111483Y90836D01*
X110696D01*
X110302Y90442D01*
X112663Y88474D02*
Y90836D01*
Y89655D01*
X113057Y89262D01*
X113844D01*
X114238Y89655D01*
Y90836D01*
X115418D02*
X116206D01*
X116599Y90442D01*
Y89655D01*
X116206Y89262D01*
X115418D01*
X115025Y89655D01*
Y90442D01*
X115418Y90836D01*
X117386Y89262D02*
Y90836D01*
Y90049D01*
X117780Y89655D01*
X118174Y89262D01*
X118567D01*
X120141Y88868D02*
Y89262D01*
X119748D01*
X120535D01*
X120141D01*
Y90442D01*
X120535Y90836D01*
X124077Y88474D02*
Y90836D01*
X125258D01*
X125651Y90442D01*
Y90049D01*
X125258Y89655D01*
X124077D01*
X125258D01*
X125651Y89262D01*
Y88868D01*
X125258Y88474D01*
X124077D01*
X128013Y90836D02*
X126438D01*
X128013Y89262D01*
Y88868D01*
X127619Y88474D01*
X126832D01*
X126438Y88868D01*
X70157Y93229D02*
X70945D01*
X70551D01*
Y95591D01*
X70157D01*
X70945D01*
X72125D02*
Y94016D01*
X73306D01*
X73700Y94410D01*
Y95591D01*
X74487D02*
X75668D01*
X76061Y95197D01*
X75668Y94803D01*
X74880D01*
X74487Y94410D01*
X74880Y94016D01*
X76061D01*
X77242Y93623D02*
Y94016D01*
X76848D01*
X77635D01*
X77242D01*
Y95197D01*
X77635Y95591D01*
X79210Y94016D02*
X79997D01*
X80390Y94410D01*
Y95591D01*
X79210D01*
X78816Y95197D01*
X79210Y94803D01*
X80390D01*
X81178Y95591D02*
X81965D01*
X81571D01*
Y93229D01*
X81178D01*
X83145Y95591D02*
X83933D01*
X83539D01*
Y93229D01*
X83145D01*
X89049D02*
X88262D01*
X88655D01*
Y95197D01*
X88262Y95591D01*
X87868D01*
X87475Y95197D01*
X89836Y93623D02*
X90230Y93229D01*
X91017D01*
X91410Y93623D01*
Y94016D01*
X91017Y94410D01*
X90623D01*
X91017D01*
X91410Y94803D01*
Y95197D01*
X91017Y95591D01*
X90230D01*
X89836Y95197D01*
X94559Y95591D02*
Y93229D01*
X95740D01*
X96133Y93623D01*
Y94410D01*
X95740Y94803D01*
X94559D01*
X95346D02*
X96133Y95591D01*
X98101D02*
X97314D01*
X96921Y95197D01*
Y94410D01*
X97314Y94016D01*
X98101D01*
X98495Y94410D01*
Y94803D01*
X96921D01*
X99282Y95591D02*
Y94016D01*
X99676D01*
X100069Y94410D01*
Y95591D01*
Y94410D01*
X100463Y94016D01*
X100856Y94410D01*
Y95591D01*
X102037D02*
X102824D01*
X103218Y95197D01*
Y94410D01*
X102824Y94016D01*
X102037D01*
X101643Y94410D01*
Y95197D01*
X102037Y95591D01*
X104005Y94016D02*
X104792Y95591D01*
X105579Y94016D01*
X107547Y95591D02*
X106760D01*
X106366Y95197D01*
Y94410D01*
X106760Y94016D01*
X107547D01*
X107940Y94410D01*
Y94803D01*
X106366D01*
X112663Y93229D02*
X111876D01*
X112270D01*
Y95197D01*
X111876Y95591D01*
X111483D01*
X111089Y95197D01*
X115025Y95591D02*
X113451D01*
X115025Y94016D01*
Y93623D01*
X114631Y93229D01*
X113844D01*
X113451Y93623D01*
X118567Y94016D02*
X119354D01*
X119748Y94410D01*
Y95591D01*
X118567D01*
X118173Y95197D01*
X118567Y94803D01*
X119748D01*
X120535Y95591D02*
Y94016D01*
X121716D01*
X122109Y94410D01*
Y95591D01*
X124471Y93229D02*
Y95591D01*
X123290D01*
X122896Y95197D01*
Y94410D01*
X123290Y94016D01*
X124471D01*
X127619Y93229D02*
Y95591D01*
Y94803D01*
X129193Y93229D01*
X128013Y94410D01*
X129193Y95591D01*
X129981D02*
X130768D01*
X130374D01*
Y93229D01*
X129981Y93623D01*
X70157Y122696D02*
X71732D01*
X70945D01*
Y125057D01*
X72913D02*
X73700D01*
X74093Y124664D01*
Y123877D01*
X73700Y123483D01*
X72913D01*
X72519Y123877D01*
Y124664D01*
X72913Y125057D01*
X77242Y125844D02*
Y123483D01*
X78423D01*
X78816Y123877D01*
Y124664D01*
X78423Y125057D01*
X77242D01*
X79997D02*
X80784D01*
X81178Y124664D01*
Y123877D01*
X80784Y123483D01*
X79997D01*
X79603Y123877D01*
Y124664D01*
X79997Y125057D01*
X81965Y123483D02*
Y124664D01*
X82358Y125057D01*
X82752Y124664D01*
X83145Y125057D01*
X83539Y124664D01*
Y123483D01*
X85507Y125057D02*
X84720D01*
X84326Y124664D01*
Y123877D01*
X84720Y123483D01*
X85507D01*
X85900Y123877D01*
Y124270D01*
X84326D01*
X86688Y123483D02*
Y125057D01*
Y124270D01*
X87081Y123877D01*
X87475Y123483D01*
X87868D01*
X91804D02*
X92591D01*
X92985Y123877D01*
Y125057D01*
X91804D01*
X91410Y124664D01*
X91804Y124270D01*
X92985D01*
X97708Y122696D02*
X96133D01*
Y123877D01*
X96921Y123483D01*
X97314D01*
X97708Y123877D01*
Y124664D01*
X97314Y125057D01*
X96527D01*
X96133Y124664D01*
X98495Y122696D02*
Y124270D01*
X99282Y125057D01*
X100069Y124270D01*
Y122696D01*
X104792Y123089D02*
X104398Y122696D01*
X103611D01*
X103218Y123089D01*
Y123483D01*
X103611Y123877D01*
X104398D01*
X104792Y124270D01*
Y124664D01*
X104398Y125057D01*
X103611D01*
X103218Y124664D01*
X107153Y123089D02*
X106760Y122696D01*
X105973D01*
X105579Y123089D01*
Y123483D01*
X105973Y123877D01*
X106760D01*
X107153Y124270D01*
Y124664D01*
X106760Y125057D01*
X105973D01*
X105579Y124664D01*
X107941Y125057D02*
Y122696D01*
X109121D01*
X109515Y123089D01*
Y123877D01*
X109121Y124270D01*
X107941D01*
X108728D02*
X109515Y125057D01*
X114238Y123089D02*
X113844Y122696D01*
X113057D01*
X112663Y123089D01*
Y123483D01*
X113057Y123877D01*
X113844D01*
X114238Y124270D01*
Y124664D01*
X113844Y125057D01*
X113057D01*
X112663Y124664D01*
X115025Y122696D02*
Y125057D01*
Y123877D01*
X115419Y123483D01*
X116206D01*
X116599Y123877D01*
Y125057D01*
X117780D02*
X118567D01*
X118961Y124664D01*
Y123877D01*
X118567Y123483D01*
X117780D01*
X117386Y123877D01*
Y124664D01*
X117780Y125057D01*
X119748Y123483D02*
Y125057D01*
Y124270D01*
X120141Y123877D01*
X120535Y123483D01*
X120929D01*
X122503Y123089D02*
Y123483D01*
X122109D01*
X122896D01*
X122503D01*
Y124664D01*
X122896Y125057D01*
X126438Y122696D02*
Y125057D01*
X127619D01*
X128013Y124664D01*
Y124270D01*
X127619Y123877D01*
X126438D01*
X127619D01*
X128013Y123483D01*
Y123089D01*
X127619Y122696D01*
X126438D01*
X128800Y125057D02*
X129587D01*
X129193D01*
Y122696D01*
X128800Y123089D01*
X70157Y129812D02*
Y127451D01*
X71338D01*
X71732Y127844D01*
Y128631D01*
X71338Y129025D01*
X70157D01*
X72519Y129812D02*
X73306D01*
X72913D01*
Y128238D01*
X72519D01*
X74487Y129812D02*
Y128238D01*
X75668D01*
X76061Y128631D01*
Y129812D01*
X80784D02*
X79210D01*
X80784Y128238D01*
Y127844D01*
X80390Y127451D01*
X79603D01*
X79210Y127844D01*
X81571Y128238D02*
X81965D01*
Y128631D01*
X81571D01*
Y128238D01*
Y129418D02*
X81965D01*
Y129812D01*
X81571D01*
Y129418D01*
X87475Y127844D02*
X87081Y127451D01*
X86294D01*
X85900Y127844D01*
Y128238D01*
X86294Y128631D01*
X87081D01*
X87475Y129025D01*
Y129418D01*
X87081Y129812D01*
X86294D01*
X85900Y129418D01*
X89836Y127844D02*
X89443Y127451D01*
X88656D01*
X88262Y127844D01*
Y128238D01*
X88656Y128631D01*
X89443D01*
X89836Y129025D01*
Y129418D01*
X89443Y129812D01*
X88656D01*
X88262Y129418D01*
X90623Y129812D02*
Y127451D01*
X91804D01*
X92198Y127844D01*
Y128631D01*
X91804Y129025D01*
X90623D01*
X91410D02*
X92198Y129812D01*
X95346Y128631D02*
X96921D01*
X96133Y127844D02*
Y129418D01*
X71732Y131812D02*
X71338Y131418D01*
X70551D01*
X70157Y131812D01*
Y133386D01*
X70551Y133780D01*
X71338D01*
X71732Y133386D01*
Y132599D01*
X70945D01*
X72519Y133780D02*
Y131418D01*
X74093Y133780D01*
Y131418D01*
X74880D02*
Y133780D01*
X76061D01*
X76455Y133386D01*
Y131812D01*
X76061Y131418D01*
X74880D01*
X77242Y132205D02*
X77635D01*
Y132599D01*
X77242D01*
Y132205D01*
Y133386D02*
X77635D01*
Y133780D01*
X77242D01*
Y133386D01*
X87868Y131812D02*
X87475Y131418D01*
X86688D01*
X86294Y131812D01*
Y132205D01*
X86688Y132599D01*
X87475D01*
X87868Y132992D01*
Y133386D01*
X87475Y133780D01*
X86688D01*
X86294Y133386D01*
X90230Y131812D02*
X89836Y131418D01*
X89049D01*
X88656Y131812D01*
Y132205D01*
X89049Y132599D01*
X89836D01*
X90230Y132992D01*
Y133386D01*
X89836Y133780D01*
X89049D01*
X88656Y133386D01*
X91017Y133780D02*
Y131418D01*
X92198D01*
X92591Y131812D01*
Y132599D01*
X92198Y132992D01*
X91017D01*
X91804D02*
X92591Y133780D01*
X95740Y132599D02*
X97314D01*
X61024Y98308D02*
Y100669D01*
X62205D01*
X62599Y100275D01*
Y99882D01*
X62205Y99488D01*
X61024D01*
X62205D01*
X62599Y99095D01*
Y98701D01*
X62205Y98308D01*
X61024D01*
X64960Y100669D02*
X63386D01*
X64960Y99095D01*
Y98701D01*
X64566Y98308D01*
X63779D01*
X63386Y98701D01*
X61024Y115867D02*
Y118228D01*
X62205D01*
X62599Y117834D01*
Y117441D01*
X62205Y117047D01*
X61024D01*
X62205D01*
X62599Y116654D01*
Y116260D01*
X62205Y115867D01*
X61024D01*
X63386Y116260D02*
X63779Y115867D01*
X64566D01*
X64960Y116260D01*
Y116654D01*
X64566Y117047D01*
X64173D01*
X64566D01*
X64960Y117441D01*
Y117834D01*
X64566Y118228D01*
X63779D01*
X63386Y117834D01*
X41536Y129922D02*
Y132283D01*
X42717D01*
X43110Y131889D01*
Y131496D01*
X42717Y131102D01*
X41536D01*
X42717D01*
X43110Y130709D01*
Y130315D01*
X42717Y129922D01*
X41536D01*
X43897Y132283D02*
X44685D01*
X44291D01*
Y129922D01*
X43897Y130315D01*
X235512Y105797D02*
X237086D01*
X236299D01*
Y108159D01*
X238267D02*
X239054D01*
X239448Y107765D01*
Y106978D01*
X239054Y106584D01*
X238267D01*
X237873Y106978D01*
Y107765D01*
X238267Y108159D01*
X242596Y108946D02*
Y106584D01*
X243777D01*
X244170Y106978D01*
Y107765D01*
X243777Y108159D01*
X242596D01*
X245351D02*
X246138D01*
X246532Y107765D01*
Y106978D01*
X246138Y106584D01*
X245351D01*
X244958Y106978D01*
Y107765D01*
X245351Y108159D01*
X247319Y106584D02*
Y107765D01*
X247713Y108159D01*
X248106Y107765D01*
X248500Y108159D01*
X248893Y107765D01*
Y106584D01*
X250861Y108159D02*
X250074D01*
X249680Y107765D01*
Y106978D01*
X250074Y106584D01*
X250861D01*
X251255Y106978D01*
Y107371D01*
X249680D01*
X252042Y106584D02*
Y108159D01*
Y107371D01*
X252435Y106978D01*
X252829Y106584D01*
X253223D01*
X256765Y108159D02*
Y105797D01*
X257946D01*
X258339Y106191D01*
Y106978D01*
X257946Y107371D01*
X256765D01*
X259126Y105797D02*
Y108159D01*
X259913Y107371D01*
X260701Y108159D01*
Y105797D01*
X261488Y108159D02*
Y105797D01*
X262275Y106584D01*
X263062Y105797D01*
Y108159D01*
X267785Y105797D02*
X266211D01*
Y106978D01*
X266998D01*
X266211D01*
Y108159D01*
X268572D02*
Y106584D01*
X269359Y105797D01*
X270146Y106584D01*
Y108159D01*
Y106978D01*
X268572D01*
X270934Y108159D02*
Y105797D01*
X272508Y108159D01*
Y105797D01*
X277231Y106191D02*
X276837Y105797D01*
X276050D01*
X275656Y106191D01*
Y106584D01*
X276050Y106978D01*
X276837D01*
X277231Y107371D01*
Y107765D01*
X276837Y108159D01*
X276050D01*
X275656Y107765D01*
X278018Y105797D02*
Y108159D01*
Y106978D01*
X278411Y106584D01*
X279199D01*
X279592Y106978D01*
Y108159D01*
X280773D02*
X281560D01*
X281954Y107765D01*
Y106978D01*
X281560Y106584D01*
X280773D01*
X280379Y106978D01*
Y107765D01*
X280773Y108159D01*
X282741Y106584D02*
Y108159D01*
Y107371D01*
X283134Y106978D01*
X283528Y106584D01*
X283921D01*
X285496Y106191D02*
Y106584D01*
X285102D01*
X285889D01*
X285496D01*
Y107765D01*
X285889Y108159D01*
X289431Y105797D02*
Y108159D01*
X290612D01*
X291006Y107765D01*
Y107371D01*
X290612Y106978D01*
X289431D01*
X290612D01*
X291006Y106584D01*
Y106191D01*
X290612Y105797D01*
X289431D01*
X291793Y106191D02*
X292186Y105797D01*
X292974D01*
X293367Y106191D01*
Y106584D01*
X292974Y106978D01*
X292580D01*
X292974D01*
X293367Y107371D01*
Y107765D01*
X292974Y108159D01*
X292186D01*
X291793Y107765D01*
X235512Y110552D02*
X236299D01*
X235905D01*
Y112913D01*
X235512D01*
X236299D01*
X237480D02*
Y111339D01*
X238660D01*
X239054Y111733D01*
Y112913D01*
X239841D02*
X241022D01*
X241416Y112520D01*
X241022Y112126D01*
X240235D01*
X239841Y111733D01*
X240235Y111339D01*
X241416D01*
X242596Y110945D02*
Y111339D01*
X242203D01*
X242990D01*
X242596D01*
Y112520D01*
X242990Y112913D01*
X244564Y111339D02*
X245351D01*
X245745Y111733D01*
Y112913D01*
X244564D01*
X244170Y112520D01*
X244564Y112126D01*
X245745D01*
X246532Y112913D02*
X247319D01*
X246925D01*
Y110552D01*
X246532D01*
X248500Y112913D02*
X249287D01*
X248893D01*
Y110552D01*
X248500D01*
X254403D02*
X253616D01*
X254010D01*
Y112520D01*
X253616Y112913D01*
X253223D01*
X252829Y112520D01*
X255190Y110945D02*
X255584Y110552D01*
X256371D01*
X256765Y110945D01*
Y111339D01*
X256371Y111733D01*
X255978D01*
X256371D01*
X256765Y112126D01*
Y112520D01*
X256371Y112913D01*
X255584D01*
X255190Y112520D01*
X259913Y112913D02*
Y110552D01*
X261094D01*
X261488Y110945D01*
Y111733D01*
X261094Y112126D01*
X259913D01*
X260700D02*
X261488Y112913D01*
X263456D02*
X262668D01*
X262275Y112520D01*
Y111733D01*
X262668Y111339D01*
X263456D01*
X263849Y111733D01*
Y112126D01*
X262275D01*
X264636Y112913D02*
Y111339D01*
X265030D01*
X265423Y111733D01*
Y112913D01*
Y111733D01*
X265817Y111339D01*
X266211Y111733D01*
Y112913D01*
X267391D02*
X268178D01*
X268572Y112520D01*
Y111733D01*
X268178Y111339D01*
X267391D01*
X266998Y111733D01*
Y112520D01*
X267391Y112913D01*
X269359Y111339D02*
X270146Y112913D01*
X270933Y111339D01*
X272901Y112913D02*
X272114D01*
X271721Y112520D01*
Y111733D01*
X272114Y111339D01*
X272901D01*
X273295Y111733D01*
Y112126D01*
X271721D01*
X278018Y110552D02*
X277231D01*
X277624D01*
Y112520D01*
X277231Y112913D01*
X276837D01*
X276444Y112520D01*
X280379Y112913D02*
X278805D01*
X280379Y111339D01*
Y110945D01*
X279986Y110552D01*
X279199D01*
X278805Y110945D01*
X283921Y111339D02*
X284708D01*
X285102Y111733D01*
Y112913D01*
X283921D01*
X283528Y112520D01*
X283921Y112126D01*
X285102D01*
X285889Y112913D02*
Y111339D01*
X287070D01*
X287463Y111733D01*
Y112913D01*
X289825Y110552D02*
Y112913D01*
X288644D01*
X288251Y112520D01*
Y111733D01*
X288644Y111339D01*
X289825D01*
X292973Y110552D02*
Y112913D01*
Y112126D01*
X294548Y110552D01*
X293367Y111733D01*
X294548Y112913D01*
X295335D02*
X296122D01*
X295729D01*
Y110552D01*
X295335Y110945D01*
X235512Y88474D02*
X237086D01*
X236299D01*
Y90836D01*
X238267D02*
X239054D01*
X239448Y90442D01*
Y89655D01*
X239054Y89262D01*
X238267D01*
X237873Y89655D01*
Y90442D01*
X238267Y90836D01*
X242596Y91623D02*
Y89262D01*
X243777D01*
X244170Y89655D01*
Y90442D01*
X243777Y90836D01*
X242596D01*
X245351D02*
X246138D01*
X246532Y90442D01*
Y89655D01*
X246138Y89262D01*
X245351D01*
X244958Y89655D01*
Y90442D01*
X245351Y90836D01*
X247319Y89262D02*
Y90442D01*
X247713Y90836D01*
X248106Y90442D01*
X248500Y90836D01*
X248893Y90442D01*
Y89262D01*
X250861Y90836D02*
X250074D01*
X249680Y90442D01*
Y89655D01*
X250074Y89262D01*
X250861D01*
X251255Y89655D01*
Y90049D01*
X249680D01*
X252042Y89262D02*
Y90836D01*
Y90049D01*
X252435Y89655D01*
X252829Y89262D01*
X253223D01*
X258339Y88868D02*
X257946Y88474D01*
X257158D01*
X256765Y88868D01*
Y89262D01*
X257158Y89655D01*
X257946D01*
X258339Y90049D01*
Y90442D01*
X257946Y90836D01*
X257158D01*
X256765Y90442D01*
X259126Y88474D02*
X260701D01*
X259913D01*
Y90836D01*
X261488Y88474D02*
Y90836D01*
X262668D01*
X263062Y90442D01*
Y88868D01*
X262668Y88474D01*
X261488D01*
X267785D02*
X266211D01*
Y89655D01*
X266998D01*
X266211D01*
Y90836D01*
X268572D02*
Y89262D01*
X269359Y88474D01*
X270146Y89262D01*
Y90836D01*
Y89655D01*
X268572D01*
X270934Y90836D02*
Y88474D01*
X272508Y90836D01*
Y88474D01*
X277231Y88868D02*
X276837Y88474D01*
X276050D01*
X275656Y88868D01*
Y89262D01*
X276050Y89655D01*
X276837D01*
X277231Y90049D01*
Y90442D01*
X276837Y90836D01*
X276050D01*
X275656Y90442D01*
X278018Y88474D02*
Y90836D01*
Y89655D01*
X278411Y89262D01*
X279199D01*
X279592Y89655D01*
Y90836D01*
X280773D02*
X281560D01*
X281954Y90442D01*
Y89655D01*
X281560Y89262D01*
X280773D01*
X280379Y89655D01*
Y90442D01*
X280773Y90836D01*
X282741Y89262D02*
Y90836D01*
Y90049D01*
X283134Y89655D01*
X283528Y89262D01*
X283921D01*
X285496Y88868D02*
Y89262D01*
X285102D01*
X285889D01*
X285496D01*
Y90442D01*
X285889Y90836D01*
X289431Y88474D02*
Y90836D01*
X290612D01*
X291006Y90442D01*
Y90049D01*
X290612Y89655D01*
X289431D01*
X290612D01*
X291006Y89262D01*
Y88868D01*
X290612Y88474D01*
X289431D01*
X293367Y90836D02*
X291793D01*
X293367Y89262D01*
Y88868D01*
X292974Y88474D01*
X292186D01*
X291793Y88868D01*
X235512Y93229D02*
X236299D01*
X235905D01*
Y95591D01*
X235512D01*
X236299D01*
X237480D02*
Y94016D01*
X238660D01*
X239054Y94410D01*
Y95591D01*
X239841D02*
X241022D01*
X241416Y95197D01*
X241022Y94803D01*
X240235D01*
X239841Y94410D01*
X240235Y94016D01*
X241416D01*
X242596Y93623D02*
Y94016D01*
X242203D01*
X242990D01*
X242596D01*
Y95197D01*
X242990Y95591D01*
X244564Y94016D02*
X245351D01*
X245745Y94410D01*
Y95591D01*
X244564D01*
X244170Y95197D01*
X244564Y94803D01*
X245745D01*
X246532Y95591D02*
X247319D01*
X246925D01*
Y93229D01*
X246532D01*
X248500Y95591D02*
X249287D01*
X248893D01*
Y93229D01*
X248500D01*
X254403D02*
X253616D01*
X254010D01*
Y95197D01*
X253616Y95591D01*
X253223D01*
X252829Y95197D01*
X255190Y93623D02*
X255584Y93229D01*
X256371D01*
X256765Y93623D01*
Y94016D01*
X256371Y94410D01*
X255978D01*
X256371D01*
X256765Y94803D01*
Y95197D01*
X256371Y95591D01*
X255584D01*
X255190Y95197D01*
X259913Y95591D02*
Y93229D01*
X261094D01*
X261488Y93623D01*
Y94410D01*
X261094Y94803D01*
X259913D01*
X260700D02*
X261488Y95591D01*
X263456D02*
X262668D01*
X262275Y95197D01*
Y94410D01*
X262668Y94016D01*
X263456D01*
X263849Y94410D01*
Y94803D01*
X262275D01*
X264636Y95591D02*
Y94016D01*
X265030D01*
X265423Y94410D01*
Y95591D01*
Y94410D01*
X265817Y94016D01*
X266211Y94410D01*
Y95591D01*
X267391D02*
X268178D01*
X268572Y95197D01*
Y94410D01*
X268178Y94016D01*
X267391D01*
X266998Y94410D01*
Y95197D01*
X267391Y95591D01*
X269359Y94016D02*
X270146Y95591D01*
X270933Y94016D01*
X272901Y95591D02*
X272114D01*
X271721Y95197D01*
Y94410D01*
X272114Y94016D01*
X272901D01*
X273295Y94410D01*
Y94803D01*
X271721D01*
X278018Y93229D02*
X277231D01*
X277624D01*
Y95197D01*
X277231Y95591D01*
X276837D01*
X276444Y95197D01*
X280379Y95591D02*
X278805D01*
X280379Y94016D01*
Y93623D01*
X279986Y93229D01*
X279199D01*
X278805Y93623D01*
X283921Y94016D02*
X284708D01*
X285102Y94410D01*
Y95591D01*
X283921D01*
X283528Y95197D01*
X283921Y94803D01*
X285102D01*
X285889Y95591D02*
Y94016D01*
X287070D01*
X287463Y94410D01*
Y95591D01*
X289825Y93229D02*
Y95591D01*
X288644D01*
X288251Y95197D01*
Y94410D01*
X288644Y94016D01*
X289825D01*
X292973Y93229D02*
Y95591D01*
Y94803D01*
X294548Y93229D01*
X293367Y94410D01*
X294548Y95591D01*
X295335D02*
X296122D01*
X295729D01*
Y93229D01*
X295335Y93623D01*
X235512Y122696D02*
X237086D01*
X236299D01*
Y125057D01*
X238267D02*
X239054D01*
X239448Y124664D01*
Y123877D01*
X239054Y123483D01*
X238267D01*
X237873Y123877D01*
Y124664D01*
X238267Y125057D01*
X242596Y125844D02*
Y123483D01*
X243777D01*
X244170Y123877D01*
Y124664D01*
X243777Y125057D01*
X242596D01*
X245351D02*
X246138D01*
X246532Y124664D01*
Y123877D01*
X246138Y123483D01*
X245351D01*
X244958Y123877D01*
Y124664D01*
X245351Y125057D01*
X247319Y123483D02*
Y124664D01*
X247713Y125057D01*
X248106Y124664D01*
X248500Y125057D01*
X248893Y124664D01*
Y123483D01*
X250861Y125057D02*
X250074D01*
X249680Y124664D01*
Y123877D01*
X250074Y123483D01*
X250861D01*
X251255Y123877D01*
Y124270D01*
X249680D01*
X252042Y123483D02*
Y125057D01*
Y124270D01*
X252435Y123877D01*
X252829Y123483D01*
X253223D01*
X257158D02*
X257946D01*
X258339Y123877D01*
Y125057D01*
X257158D01*
X256765Y124664D01*
X257158Y124270D01*
X258339D01*
X263062Y122696D02*
X261488D01*
Y123877D01*
X262275Y123483D01*
X262668D01*
X263062Y123877D01*
Y124664D01*
X262668Y125057D01*
X261881D01*
X261488Y124664D01*
X263849Y122696D02*
Y124270D01*
X264636Y125057D01*
X265423Y124270D01*
Y122696D01*
X270146Y123089D02*
X269753Y122696D01*
X268966D01*
X268572Y123089D01*
Y123483D01*
X268966Y123877D01*
X269753D01*
X270146Y124270D01*
Y124664D01*
X269753Y125057D01*
X268966D01*
X268572Y124664D01*
X272508Y123089D02*
X272114Y122696D01*
X271327D01*
X270934Y123089D01*
Y123483D01*
X271327Y123877D01*
X272114D01*
X272508Y124270D01*
Y124664D01*
X272114Y125057D01*
X271327D01*
X270934Y124664D01*
X273295Y125057D02*
Y122696D01*
X274476D01*
X274869Y123089D01*
Y123877D01*
X274476Y124270D01*
X273295D01*
X274082D02*
X274869Y125057D01*
X279592Y123089D02*
X279199Y122696D01*
X278411D01*
X278018Y123089D01*
Y123483D01*
X278411Y123877D01*
X279199D01*
X279592Y124270D01*
Y124664D01*
X279199Y125057D01*
X278411D01*
X278018Y124664D01*
X280379Y122696D02*
Y125057D01*
Y123877D01*
X280773Y123483D01*
X281560D01*
X281954Y123877D01*
Y125057D01*
X283134D02*
X283921D01*
X284315Y124664D01*
Y123877D01*
X283921Y123483D01*
X283134D01*
X282741Y123877D01*
Y124664D01*
X283134Y125057D01*
X285102Y123483D02*
Y125057D01*
Y124270D01*
X285496Y123877D01*
X285889Y123483D01*
X286283D01*
X287857Y123089D02*
Y123483D01*
X287464D01*
X288251D01*
X287857D01*
Y124664D01*
X288251Y125057D01*
X291793Y122696D02*
Y125057D01*
X292974D01*
X293367Y124664D01*
Y124270D01*
X292974Y123877D01*
X291793D01*
X292974D01*
X293367Y123483D01*
Y123089D01*
X292974Y122696D01*
X291793D01*
X294154Y125057D02*
X294941D01*
X294548D01*
Y122696D01*
X294154Y123089D01*
X235512Y129812D02*
Y127451D01*
X236693D01*
X237086Y127844D01*
Y128631D01*
X236693Y129025D01*
X235512D01*
X237873Y129812D02*
X238661D01*
X238267D01*
Y128238D01*
X237873D01*
X239841Y129812D02*
Y128238D01*
X241022D01*
X241416Y128631D01*
Y129812D01*
X246138D02*
X244564D01*
X246138Y128238D01*
Y127844D01*
X245745Y127451D01*
X244958D01*
X244564Y127844D01*
X246925Y128238D02*
X247319D01*
Y128631D01*
X246925D01*
Y128238D01*
Y129418D02*
X247319D01*
Y129812D01*
X246925D01*
Y129418D01*
X252829Y127844D02*
X252435Y127451D01*
X251648D01*
X251255Y127844D01*
Y128238D01*
X251648Y128631D01*
X252435D01*
X252829Y129025D01*
Y129418D01*
X252435Y129812D01*
X251648D01*
X251255Y129418D01*
X255190Y127844D02*
X254797Y127451D01*
X254010D01*
X253616Y127844D01*
Y128238D01*
X254010Y128631D01*
X254797D01*
X255190Y129025D01*
Y129418D01*
X254797Y129812D01*
X254010D01*
X253616Y129418D01*
X255978Y129812D02*
Y127451D01*
X257158D01*
X257552Y127844D01*
Y128631D01*
X257158Y129025D01*
X255978D01*
X256765D02*
X257552Y129812D01*
X260701Y128631D02*
X262275D01*
X261488Y127844D02*
Y129418D01*
X237086Y131812D02*
X236693Y131418D01*
X235906D01*
X235512Y131812D01*
Y133386D01*
X235906Y133780D01*
X236693D01*
X237086Y133386D01*
Y132599D01*
X236299D01*
X237873Y133780D02*
Y131418D01*
X239448Y133780D01*
Y131418D01*
X240235D02*
Y133780D01*
X241416D01*
X241809Y133386D01*
Y131812D01*
X241416Y131418D01*
X240235D01*
X242596Y132205D02*
X242990D01*
Y132599D01*
X242596D01*
Y132205D01*
Y133386D02*
X242990D01*
Y133780D01*
X242596D01*
Y133386D01*
X253223Y131812D02*
X252829Y131418D01*
X252042D01*
X251648Y131812D01*
Y132205D01*
X252042Y132599D01*
X252829D01*
X253223Y132992D01*
Y133386D01*
X252829Y133780D01*
X252042D01*
X251648Y133386D01*
X255584Y131812D02*
X255190Y131418D01*
X254403D01*
X254010Y131812D01*
Y132205D01*
X254403Y132599D01*
X255190D01*
X255584Y132992D01*
Y133386D01*
X255190Y133780D01*
X254403D01*
X254010Y133386D01*
X256371Y133780D02*
Y131418D01*
X257552D01*
X257946Y131812D01*
Y132599D01*
X257552Y132992D01*
X256371D01*
X257158D02*
X257946Y133780D01*
X261094Y132599D02*
X262668D01*
X226379Y98308D02*
Y100669D01*
X227559D01*
X227953Y100275D01*
Y99882D01*
X227559Y99488D01*
X226379D01*
X227559D01*
X227953Y99095D01*
Y98701D01*
X227559Y98308D01*
X226379D01*
X230314Y100669D02*
X228740D01*
X230314Y99095D01*
Y98701D01*
X229921Y98308D01*
X229134D01*
X228740Y98701D01*
X226379Y115867D02*
Y118228D01*
X227559D01*
X227953Y117834D01*
Y117441D01*
X227559Y117047D01*
X226379D01*
X227559D01*
X227953Y116654D01*
Y116260D01*
X227559Y115867D01*
X226379D01*
X228740Y116260D02*
X229134Y115867D01*
X229921D01*
X230314Y116260D01*
Y116654D01*
X229921Y117047D01*
X229527D01*
X229921D01*
X230314Y117441D01*
Y117834D01*
X229921Y118228D01*
X229134D01*
X228740Y117834D01*
X206890Y129922D02*
Y132283D01*
X208071D01*
X208465Y131889D01*
Y131496D01*
X208071Y131102D01*
X206890D01*
X208071D01*
X208465Y130709D01*
Y130315D01*
X208071Y129922D01*
X206890D01*
X209252Y132283D02*
X210039D01*
X209645D01*
Y129922D01*
X209252Y130315D01*
X70157Y164852D02*
X71732D01*
X70945D01*
Y167214D01*
X72913D02*
X73700D01*
X74093Y166820D01*
Y166033D01*
X73700Y165639D01*
X72913D01*
X72519Y166033D01*
Y166820D01*
X72913Y167214D01*
X77242Y168001D02*
Y165639D01*
X78423D01*
X78816Y166033D01*
Y166820D01*
X78423Y167214D01*
X77242D01*
X79997D02*
X80784D01*
X81178Y166820D01*
Y166033D01*
X80784Y165639D01*
X79997D01*
X79603Y166033D01*
Y166820D01*
X79997Y167214D01*
X81965Y165639D02*
Y166820D01*
X82358Y167214D01*
X82752Y166820D01*
X83145Y167214D01*
X83539Y166820D01*
Y165639D01*
X85507Y167214D02*
X84720D01*
X84326Y166820D01*
Y166033D01*
X84720Y165639D01*
X85507D01*
X85900Y166033D01*
Y166427D01*
X84326D01*
X86688Y165639D02*
Y167214D01*
Y166427D01*
X87081Y166033D01*
X87475Y165639D01*
X87868D01*
X91410Y167214D02*
Y164852D01*
X92591D01*
X92985Y165246D01*
Y166033D01*
X92591Y166427D01*
X91410D01*
X93772Y164852D02*
Y167214D01*
X94559Y166427D01*
X95346Y167214D01*
Y164852D01*
X96133Y167214D02*
Y164852D01*
X96921Y165639D01*
X97708Y164852D01*
Y167214D01*
X102430Y164852D02*
X100856D01*
Y166033D01*
X101643D01*
X100856D01*
Y167214D01*
X103218D02*
Y165639D01*
X104005Y164852D01*
X104792Y165639D01*
Y167214D01*
Y166033D01*
X103218D01*
X105579Y167214D02*
Y164852D01*
X107153Y167214D01*
Y164852D01*
X111876Y165246D02*
X111483Y164852D01*
X110696D01*
X110302Y165246D01*
Y165639D01*
X110696Y166033D01*
X111483D01*
X111876Y166427D01*
Y166820D01*
X111483Y167214D01*
X110696D01*
X110302Y166820D01*
X112663Y164852D02*
Y167214D01*
Y166033D01*
X113057Y165639D01*
X113844D01*
X114238Y166033D01*
Y167214D01*
X115418D02*
X116206D01*
X116599Y166820D01*
Y166033D01*
X116206Y165639D01*
X115418D01*
X115025Y166033D01*
Y166820D01*
X115418Y167214D01*
X117386Y165639D02*
Y167214D01*
Y166427D01*
X117780Y166033D01*
X118174Y165639D01*
X118567D01*
X120141Y165246D02*
Y165639D01*
X119748D01*
X120535D01*
X120141D01*
Y166820D01*
X120535Y167214D01*
X124077Y164852D02*
Y167214D01*
X125258D01*
X125651Y166820D01*
Y166427D01*
X125258Y166033D01*
X124077D01*
X125258D01*
X125651Y165639D01*
Y165246D01*
X125258Y164852D01*
X124077D01*
X126438Y165246D02*
X126832Y164852D01*
X127619D01*
X128013Y165246D01*
Y165639D01*
X127619Y166033D01*
X127226D01*
X127619D01*
X128013Y166427D01*
Y166820D01*
X127619Y167214D01*
X126832D01*
X126438Y166820D01*
X70157Y169607D02*
X70945D01*
X70551D01*
Y171968D01*
X70157D01*
X70945D01*
X72125D02*
Y170394D01*
X73306D01*
X73700Y170788D01*
Y171968D01*
X74487D02*
X75668D01*
X76061Y171575D01*
X75668Y171181D01*
X74880D01*
X74487Y170788D01*
X74880Y170394D01*
X76061D01*
X77242Y170001D02*
Y170394D01*
X76848D01*
X77635D01*
X77242D01*
Y171575D01*
X77635Y171968D01*
X79210Y170394D02*
X79997D01*
X80390Y170788D01*
Y171968D01*
X79210D01*
X78816Y171575D01*
X79210Y171181D01*
X80390D01*
X81178Y171968D02*
X81965D01*
X81571D01*
Y169607D01*
X81178D01*
X83145Y171968D02*
X83933D01*
X83539D01*
Y169607D01*
X83145D01*
X89049D02*
X88262D01*
X88655D01*
Y171575D01*
X88262Y171968D01*
X87868D01*
X87475Y171575D01*
X89836Y170001D02*
X90230Y169607D01*
X91017D01*
X91410Y170001D01*
Y170394D01*
X91017Y170788D01*
X90623D01*
X91017D01*
X91410Y171181D01*
Y171575D01*
X91017Y171968D01*
X90230D01*
X89836Y171575D01*
X94559Y171968D02*
Y169607D01*
X95740D01*
X96133Y170001D01*
Y170788D01*
X95740Y171181D01*
X94559D01*
X95346D02*
X96133Y171968D01*
X98101D02*
X97314D01*
X96921Y171575D01*
Y170788D01*
X97314Y170394D01*
X98101D01*
X98495Y170788D01*
Y171181D01*
X96921D01*
X99282Y171968D02*
Y170394D01*
X99676D01*
X100069Y170788D01*
Y171968D01*
Y170788D01*
X100463Y170394D01*
X100856Y170788D01*
Y171968D01*
X102037D02*
X102824D01*
X103218Y171575D01*
Y170788D01*
X102824Y170394D01*
X102037D01*
X101643Y170788D01*
Y171575D01*
X102037Y171968D01*
X104005Y170394D02*
X104792Y171968D01*
X105579Y170394D01*
X107547Y171968D02*
X106760D01*
X106366Y171575D01*
Y170788D01*
X106760Y170394D01*
X107547D01*
X107940Y170788D01*
Y171181D01*
X106366D01*
X112663Y169607D02*
X111876D01*
X112270D01*
Y171575D01*
X111876Y171968D01*
X111483D01*
X111089Y171575D01*
X115025Y171968D02*
X113451D01*
X115025Y170394D01*
Y170001D01*
X114631Y169607D01*
X113844D01*
X113451Y170001D01*
X118567Y170394D02*
X119354D01*
X119748Y170788D01*
Y171968D01*
X118567D01*
X118173Y171575D01*
X118567Y171181D01*
X119748D01*
X120535Y171968D02*
Y170394D01*
X121716D01*
X122109Y170788D01*
Y171968D01*
X124471Y169607D02*
Y171968D01*
X123290D01*
X122896Y171575D01*
Y170788D01*
X123290Y170394D01*
X124471D01*
X127619Y169607D02*
Y171968D01*
Y171181D01*
X129193Y169607D01*
X128013Y170788D01*
X129193Y171968D01*
X129981D02*
X130768D01*
X130374D01*
Y169607D01*
X129981Y170001D01*
X70157Y147529D02*
X71732D01*
X70945D01*
Y149891D01*
X72913D02*
X73700D01*
X74093Y149497D01*
Y148710D01*
X73700Y148317D01*
X72913D01*
X72519Y148710D01*
Y149497D01*
X72913Y149891D01*
X77242Y150678D02*
Y148317D01*
X78423D01*
X78816Y148710D01*
Y149497D01*
X78423Y149891D01*
X77242D01*
X79997D02*
X80784D01*
X81178Y149497D01*
Y148710D01*
X80784Y148317D01*
X79997D01*
X79603Y148710D01*
Y149497D01*
X79997Y149891D01*
X81965Y148317D02*
Y149497D01*
X82358Y149891D01*
X82752Y149497D01*
X83145Y149891D01*
X83539Y149497D01*
Y148317D01*
X85507Y149891D02*
X84720D01*
X84326Y149497D01*
Y148710D01*
X84720Y148317D01*
X85507D01*
X85900Y148710D01*
Y149104D01*
X84326D01*
X86688Y148317D02*
Y149891D01*
Y149104D01*
X87081Y148710D01*
X87475Y148317D01*
X87868D01*
X92985Y147923D02*
X92591Y147529D01*
X91804D01*
X91410Y147923D01*
Y148317D01*
X91804Y148710D01*
X92591D01*
X92985Y149104D01*
Y149497D01*
X92591Y149891D01*
X91804D01*
X91410Y149497D01*
X93772Y147529D02*
X95346D01*
X94559D01*
Y149891D01*
X96133Y147529D02*
Y149891D01*
X97314D01*
X97708Y149497D01*
Y147923D01*
X97314Y147529D01*
X96133D01*
X102430D02*
X100856D01*
Y148710D01*
X101643D01*
X100856D01*
Y149891D01*
X103218D02*
Y148317D01*
X104005Y147529D01*
X104792Y148317D01*
Y149891D01*
Y148710D01*
X103218D01*
X105579Y149891D02*
Y147529D01*
X107153Y149891D01*
Y147529D01*
X111876Y147923D02*
X111483Y147529D01*
X110696D01*
X110302Y147923D01*
Y148317D01*
X110696Y148710D01*
X111483D01*
X111876Y149104D01*
Y149497D01*
X111483Y149891D01*
X110696D01*
X110302Y149497D01*
X112663Y147529D02*
Y149891D01*
Y148710D01*
X113057Y148317D01*
X113844D01*
X114238Y148710D01*
Y149891D01*
X115418D02*
X116206D01*
X116599Y149497D01*
Y148710D01*
X116206Y148317D01*
X115418D01*
X115025Y148710D01*
Y149497D01*
X115418Y149891D01*
X117386Y148317D02*
Y149891D01*
Y149104D01*
X117780Y148710D01*
X118174Y148317D01*
X118567D01*
X120141Y147923D02*
Y148317D01*
X119748D01*
X120535D01*
X120141D01*
Y149497D01*
X120535Y149891D01*
X124077Y147529D02*
Y149891D01*
X125258D01*
X125651Y149497D01*
Y149104D01*
X125258Y148710D01*
X124077D01*
X125258D01*
X125651Y148317D01*
Y147923D01*
X125258Y147529D01*
X124077D01*
X128013Y149891D02*
X126438D01*
X128013Y148317D01*
Y147923D01*
X127619Y147529D01*
X126832D01*
X126438Y147923D01*
X70157Y152284D02*
X70945D01*
X70551D01*
Y154646D01*
X70157D01*
X70945D01*
X72125D02*
Y153071D01*
X73306D01*
X73700Y153465D01*
Y154646D01*
X74487D02*
X75668D01*
X76061Y154252D01*
X75668Y153858D01*
X74880D01*
X74487Y153465D01*
X74880Y153071D01*
X76061D01*
X77242Y152678D02*
Y153071D01*
X76848D01*
X77635D01*
X77242D01*
Y154252D01*
X77635Y154646D01*
X79210Y153071D02*
X79997D01*
X80390Y153465D01*
Y154646D01*
X79210D01*
X78816Y154252D01*
X79210Y153858D01*
X80390D01*
X81178Y154646D02*
X81965D01*
X81571D01*
Y152284D01*
X81178D01*
X83145Y154646D02*
X83933D01*
X83539D01*
Y152284D01*
X83145D01*
X89049D02*
X88262D01*
X88655D01*
Y154252D01*
X88262Y154646D01*
X87868D01*
X87475Y154252D01*
X89836Y152678D02*
X90230Y152284D01*
X91017D01*
X91410Y152678D01*
Y153071D01*
X91017Y153465D01*
X90623D01*
X91017D01*
X91410Y153858D01*
Y154252D01*
X91017Y154646D01*
X90230D01*
X89836Y154252D01*
X94559Y154646D02*
Y152284D01*
X95740D01*
X96133Y152678D01*
Y153465D01*
X95740Y153858D01*
X94559D01*
X95346D02*
X96133Y154646D01*
X98101D02*
X97314D01*
X96921Y154252D01*
Y153465D01*
X97314Y153071D01*
X98101D01*
X98495Y153465D01*
Y153858D01*
X96921D01*
X99282Y154646D02*
Y153071D01*
X99676D01*
X100069Y153465D01*
Y154646D01*
Y153465D01*
X100463Y153071D01*
X100856Y153465D01*
Y154646D01*
X102037D02*
X102824D01*
X103218Y154252D01*
Y153465D01*
X102824Y153071D01*
X102037D01*
X101643Y153465D01*
Y154252D01*
X102037Y154646D01*
X104005Y153071D02*
X104792Y154646D01*
X105579Y153071D01*
X107547Y154646D02*
X106760D01*
X106366Y154252D01*
Y153465D01*
X106760Y153071D01*
X107547D01*
X107940Y153465D01*
Y153858D01*
X106366D01*
X112663Y152284D02*
X111876D01*
X112270D01*
Y154252D01*
X111876Y154646D01*
X111483D01*
X111089Y154252D01*
X115025Y154646D02*
X113451D01*
X115025Y153071D01*
Y152678D01*
X114631Y152284D01*
X113844D01*
X113451Y152678D01*
X118567Y153071D02*
X119354D01*
X119748Y153465D01*
Y154646D01*
X118567D01*
X118173Y154252D01*
X118567Y153858D01*
X119748D01*
X120535Y154646D02*
Y153071D01*
X121716D01*
X122109Y153465D01*
Y154646D01*
X124471Y152284D02*
Y154646D01*
X123290D01*
X122896Y154252D01*
Y153465D01*
X123290Y153071D01*
X124471D01*
X127619Y152284D02*
Y154646D01*
Y153858D01*
X129193Y152284D01*
X128013Y153465D01*
X129193Y154646D01*
X129981D02*
X130768D01*
X130374D01*
Y152284D01*
X129981Y152678D01*
X70157Y181751D02*
X71732D01*
X70945D01*
Y184112D01*
X72913D02*
X73700D01*
X74093Y183719D01*
Y182932D01*
X73700Y182538D01*
X72913D01*
X72519Y182932D01*
Y183719D01*
X72913Y184112D01*
X77242Y184899D02*
Y182538D01*
X78423D01*
X78816Y182932D01*
Y183719D01*
X78423Y184112D01*
X77242D01*
X79997D02*
X80784D01*
X81178Y183719D01*
Y182932D01*
X80784Y182538D01*
X79997D01*
X79603Y182932D01*
Y183719D01*
X79997Y184112D01*
X81965Y182538D02*
Y183719D01*
X82358Y184112D01*
X82752Y183719D01*
X83145Y184112D01*
X83539Y183719D01*
Y182538D01*
X85507Y184112D02*
X84720D01*
X84326Y183719D01*
Y182932D01*
X84720Y182538D01*
X85507D01*
X85900Y182932D01*
Y183325D01*
X84326D01*
X86688Y182538D02*
Y184112D01*
Y183325D01*
X87081Y182932D01*
X87475Y182538D01*
X87868D01*
X91804D02*
X92591D01*
X92985Y182932D01*
Y184112D01*
X91804D01*
X91410Y183719D01*
X91804Y183325D01*
X92985D01*
X97708Y181751D02*
X96133D01*
Y182932D01*
X96921Y182538D01*
X97314D01*
X97708Y182932D01*
Y183719D01*
X97314Y184112D01*
X96527D01*
X96133Y183719D01*
X98495Y181751D02*
Y183325D01*
X99282Y184112D01*
X100069Y183325D01*
Y181751D01*
X104792Y182144D02*
X104398Y181751D01*
X103611D01*
X103218Y182144D01*
Y182538D01*
X103611Y182932D01*
X104398D01*
X104792Y183325D01*
Y183719D01*
X104398Y184112D01*
X103611D01*
X103218Y183719D01*
X107153Y182144D02*
X106760Y181751D01*
X105973D01*
X105579Y182144D01*
Y182538D01*
X105973Y182932D01*
X106760D01*
X107153Y183325D01*
Y183719D01*
X106760Y184112D01*
X105973D01*
X105579Y183719D01*
X107941Y184112D02*
Y181751D01*
X109121D01*
X109515Y182144D01*
Y182932D01*
X109121Y183325D01*
X107941D01*
X108728D02*
X109515Y184112D01*
X114238Y182144D02*
X113844Y181751D01*
X113057D01*
X112663Y182144D01*
Y182538D01*
X113057Y182932D01*
X113844D01*
X114238Y183325D01*
Y183719D01*
X113844Y184112D01*
X113057D01*
X112663Y183719D01*
X115025Y181751D02*
Y184112D01*
Y182932D01*
X115419Y182538D01*
X116206D01*
X116599Y182932D01*
Y184112D01*
X117780D02*
X118567D01*
X118961Y183719D01*
Y182932D01*
X118567Y182538D01*
X117780D01*
X117386Y182932D01*
Y183719D01*
X117780Y184112D01*
X119748Y182538D02*
Y184112D01*
Y183325D01*
X120141Y182932D01*
X120535Y182538D01*
X120929D01*
X122503Y182144D02*
Y182538D01*
X122109D01*
X122896D01*
X122503D01*
Y183719D01*
X122896Y184112D01*
X126438Y181751D02*
Y184112D01*
X127619D01*
X128013Y183719D01*
Y183325D01*
X127619Y182932D01*
X126438D01*
X127619D01*
X128013Y182538D01*
Y182144D01*
X127619Y181751D01*
X126438D01*
X128800Y184112D02*
X129587D01*
X129193D01*
Y181751D01*
X128800Y182144D01*
X70157Y188867D02*
Y186506D01*
X71338D01*
X71732Y186899D01*
Y187686D01*
X71338Y188080D01*
X70157D01*
X72519Y188867D02*
X73306D01*
X72913D01*
Y187293D01*
X72519D01*
X74487Y188867D02*
Y187293D01*
X75668D01*
X76061Y187686D01*
Y188867D01*
X80784D02*
X79210D01*
X80784Y187293D01*
Y186899D01*
X80390Y186506D01*
X79603D01*
X79210Y186899D01*
X81571Y187293D02*
X81965D01*
Y187686D01*
X81571D01*
Y187293D01*
Y188473D02*
X81965D01*
Y188867D01*
X81571D01*
Y188473D01*
X87475Y186899D02*
X87081Y186506D01*
X86294D01*
X85900Y186899D01*
Y187293D01*
X86294Y187686D01*
X87081D01*
X87475Y188080D01*
Y188473D01*
X87081Y188867D01*
X86294D01*
X85900Y188473D01*
X89836Y186899D02*
X89443Y186506D01*
X88656D01*
X88262Y186899D01*
Y187293D01*
X88656Y187686D01*
X89443D01*
X89836Y188080D01*
Y188473D01*
X89443Y188867D01*
X88656D01*
X88262Y188473D01*
X90623Y188867D02*
Y186506D01*
X91804D01*
X92198Y186899D01*
Y187686D01*
X91804Y188080D01*
X90623D01*
X91410D02*
X92198Y188867D01*
X95346Y187686D02*
X96921D01*
X96133Y186899D02*
Y188473D01*
X71732Y190867D02*
X71338Y190473D01*
X70551D01*
X70157Y190867D01*
Y192441D01*
X70551Y192835D01*
X71338D01*
X71732Y192441D01*
Y191654D01*
X70945D01*
X72519Y192835D02*
Y190473D01*
X74093Y192835D01*
Y190473D01*
X74880D02*
Y192835D01*
X76061D01*
X76455Y192441D01*
Y190867D01*
X76061Y190473D01*
X74880D01*
X77242Y191260D02*
X77635D01*
Y191654D01*
X77242D01*
Y191260D01*
Y192441D02*
X77635D01*
Y192835D01*
X77242D01*
Y192441D01*
X87868Y190867D02*
X87475Y190473D01*
X86688D01*
X86294Y190867D01*
Y191260D01*
X86688Y191654D01*
X87475D01*
X87868Y192048D01*
Y192441D01*
X87475Y192835D01*
X86688D01*
X86294Y192441D01*
X90230Y190867D02*
X89836Y190473D01*
X89049D01*
X88656Y190867D01*
Y191260D01*
X89049Y191654D01*
X89836D01*
X90230Y192048D01*
Y192441D01*
X89836Y192835D01*
X89049D01*
X88656Y192441D01*
X91017Y192835D02*
Y190473D01*
X92198D01*
X92591Y190867D01*
Y191654D01*
X92198Y192048D01*
X91017D01*
X91804D02*
X92591Y192835D01*
X95740Y191654D02*
X97314D01*
X61024Y157363D02*
Y159724D01*
X62205D01*
X62599Y159330D01*
Y158937D01*
X62205Y158543D01*
X61024D01*
X62205D01*
X62599Y158150D01*
Y157756D01*
X62205Y157363D01*
X61024D01*
X64960Y159724D02*
X63386D01*
X64960Y158150D01*
Y157756D01*
X64566Y157363D01*
X63779D01*
X63386Y157756D01*
X61024Y174922D02*
Y177283D01*
X62205D01*
X62599Y176890D01*
Y176496D01*
X62205Y176102D01*
X61024D01*
X62205D01*
X62599Y175709D01*
Y175315D01*
X62205Y174922D01*
X61024D01*
X63386Y175315D02*
X63779Y174922D01*
X64566D01*
X64960Y175315D01*
Y175709D01*
X64566Y176102D01*
X64173D01*
X64566D01*
X64960Y176496D01*
Y176890D01*
X64566Y177283D01*
X63779D01*
X63386Y176890D01*
X41536Y188977D02*
Y191338D01*
X42717D01*
X43110Y190945D01*
Y190551D01*
X42717Y190157D01*
X41536D01*
X42717D01*
X43110Y189764D01*
Y189370D01*
X42717Y188977D01*
X41536D01*
X43897Y191338D02*
X44685D01*
X44291D01*
Y188977D01*
X43897Y189370D01*
X235512Y164852D02*
X237086D01*
X236299D01*
Y167214D01*
X238267D02*
X239054D01*
X239448Y166820D01*
Y166033D01*
X239054Y165639D01*
X238267D01*
X237873Y166033D01*
Y166820D01*
X238267Y167214D01*
X242596Y168001D02*
Y165639D01*
X243777D01*
X244170Y166033D01*
Y166820D01*
X243777Y167214D01*
X242596D01*
X245351D02*
X246138D01*
X246532Y166820D01*
Y166033D01*
X246138Y165639D01*
X245351D01*
X244958Y166033D01*
Y166820D01*
X245351Y167214D01*
X247319Y165639D02*
Y166820D01*
X247713Y167214D01*
X248106Y166820D01*
X248500Y167214D01*
X248893Y166820D01*
Y165639D01*
X250861Y167214D02*
X250074D01*
X249680Y166820D01*
Y166033D01*
X250074Y165639D01*
X250861D01*
X251255Y166033D01*
Y166427D01*
X249680D01*
X252042Y165639D02*
Y167214D01*
Y166427D01*
X252435Y166033D01*
X252829Y165639D01*
X253223D01*
X256765Y167214D02*
Y164852D01*
X257946D01*
X258339Y165246D01*
Y166033D01*
X257946Y166427D01*
X256765D01*
X259126Y164852D02*
Y167214D01*
X259913Y166427D01*
X260701Y167214D01*
Y164852D01*
X261488Y167214D02*
Y164852D01*
X262275Y165639D01*
X263062Y164852D01*
Y167214D01*
X267785Y164852D02*
X266211D01*
Y166033D01*
X266998D01*
X266211D01*
Y167214D01*
X268572D02*
Y165639D01*
X269359Y164852D01*
X270146Y165639D01*
Y167214D01*
Y166033D01*
X268572D01*
X270934Y167214D02*
Y164852D01*
X272508Y167214D01*
Y164852D01*
X277231Y165246D02*
X276837Y164852D01*
X276050D01*
X275656Y165246D01*
Y165639D01*
X276050Y166033D01*
X276837D01*
X277231Y166427D01*
Y166820D01*
X276837Y167214D01*
X276050D01*
X275656Y166820D01*
X278018Y164852D02*
Y167214D01*
Y166033D01*
X278411Y165639D01*
X279199D01*
X279592Y166033D01*
Y167214D01*
X280773D02*
X281560D01*
X281954Y166820D01*
Y166033D01*
X281560Y165639D01*
X280773D01*
X280379Y166033D01*
Y166820D01*
X280773Y167214D01*
X282741Y165639D02*
Y167214D01*
Y166427D01*
X283134Y166033D01*
X283528Y165639D01*
X283921D01*
X285496Y165246D02*
Y165639D01*
X285102D01*
X285889D01*
X285496D01*
Y166820D01*
X285889Y167214D01*
X289431Y164852D02*
Y167214D01*
X290612D01*
X291006Y166820D01*
Y166427D01*
X290612Y166033D01*
X289431D01*
X290612D01*
X291006Y165639D01*
Y165246D01*
X290612Y164852D01*
X289431D01*
X291793Y165246D02*
X292186Y164852D01*
X292974D01*
X293367Y165246D01*
Y165639D01*
X292974Y166033D01*
X292580D01*
X292974D01*
X293367Y166427D01*
Y166820D01*
X292974Y167214D01*
X292186D01*
X291793Y166820D01*
X235512Y169607D02*
X236299D01*
X235905D01*
Y171968D01*
X235512D01*
X236299D01*
X237480D02*
Y170394D01*
X238660D01*
X239054Y170788D01*
Y171968D01*
X239841D02*
X241022D01*
X241416Y171575D01*
X241022Y171181D01*
X240235D01*
X239841Y170788D01*
X240235Y170394D01*
X241416D01*
X242596Y170001D02*
Y170394D01*
X242203D01*
X242990D01*
X242596D01*
Y171575D01*
X242990Y171968D01*
X244564Y170394D02*
X245351D01*
X245745Y170788D01*
Y171968D01*
X244564D01*
X244170Y171575D01*
X244564Y171181D01*
X245745D01*
X246532Y171968D02*
X247319D01*
X246925D01*
Y169607D01*
X246532D01*
X248500Y171968D02*
X249287D01*
X248893D01*
Y169607D01*
X248500D01*
X254403D02*
X253616D01*
X254010D01*
Y171575D01*
X253616Y171968D01*
X253223D01*
X252829Y171575D01*
X255190Y170001D02*
X255584Y169607D01*
X256371D01*
X256765Y170001D01*
Y170394D01*
X256371Y170788D01*
X255978D01*
X256371D01*
X256765Y171181D01*
Y171575D01*
X256371Y171968D01*
X255584D01*
X255190Y171575D01*
X259913Y171968D02*
Y169607D01*
X261094D01*
X261488Y170001D01*
Y170788D01*
X261094Y171181D01*
X259913D01*
X260700D02*
X261488Y171968D01*
X263456D02*
X262668D01*
X262275Y171575D01*
Y170788D01*
X262668Y170394D01*
X263456D01*
X263849Y170788D01*
Y171181D01*
X262275D01*
X264636Y171968D02*
Y170394D01*
X265030D01*
X265423Y170788D01*
Y171968D01*
Y170788D01*
X265817Y170394D01*
X266211Y170788D01*
Y171968D01*
X267391D02*
X268178D01*
X268572Y171575D01*
Y170788D01*
X268178Y170394D01*
X267391D01*
X266998Y170788D01*
Y171575D01*
X267391Y171968D01*
X269359Y170394D02*
X270146Y171968D01*
X270933Y170394D01*
X272901Y171968D02*
X272114D01*
X271721Y171575D01*
Y170788D01*
X272114Y170394D01*
X272901D01*
X273295Y170788D01*
Y171181D01*
X271721D01*
X278018Y169607D02*
X277231D01*
X277624D01*
Y171575D01*
X277231Y171968D01*
X276837D01*
X276444Y171575D01*
X280379Y171968D02*
X278805D01*
X280379Y170394D01*
Y170001D01*
X279986Y169607D01*
X279199D01*
X278805Y170001D01*
X283921Y170394D02*
X284708D01*
X285102Y170788D01*
Y171968D01*
X283921D01*
X283528Y171575D01*
X283921Y171181D01*
X285102D01*
X285889Y171968D02*
Y170394D01*
X287070D01*
X287463Y170788D01*
Y171968D01*
X289825Y169607D02*
Y171968D01*
X288644D01*
X288251Y171575D01*
Y170788D01*
X288644Y170394D01*
X289825D01*
X292973Y169607D02*
Y171968D01*
Y171181D01*
X294548Y169607D01*
X293367Y170788D01*
X294548Y171968D01*
X295335D02*
X296122D01*
X295729D01*
Y169607D01*
X295335Y170001D01*
X235512Y147529D02*
X237086D01*
X236299D01*
Y149891D01*
X238267D02*
X239054D01*
X239448Y149497D01*
Y148710D01*
X239054Y148317D01*
X238267D01*
X237873Y148710D01*
Y149497D01*
X238267Y149891D01*
X242596Y150678D02*
Y148317D01*
X243777D01*
X244170Y148710D01*
Y149497D01*
X243777Y149891D01*
X242596D01*
X245351D02*
X246138D01*
X246532Y149497D01*
Y148710D01*
X246138Y148317D01*
X245351D01*
X244958Y148710D01*
Y149497D01*
X245351Y149891D01*
X247319Y148317D02*
Y149497D01*
X247713Y149891D01*
X248106Y149497D01*
X248500Y149891D01*
X248893Y149497D01*
Y148317D01*
X250861Y149891D02*
X250074D01*
X249680Y149497D01*
Y148710D01*
X250074Y148317D01*
X250861D01*
X251255Y148710D01*
Y149104D01*
X249680D01*
X252042Y148317D02*
Y149891D01*
Y149104D01*
X252435Y148710D01*
X252829Y148317D01*
X253223D01*
X258339Y147923D02*
X257946Y147529D01*
X257158D01*
X256765Y147923D01*
Y148317D01*
X257158Y148710D01*
X257946D01*
X258339Y149104D01*
Y149497D01*
X257946Y149891D01*
X257158D01*
X256765Y149497D01*
X259126Y147529D02*
X260701D01*
X259913D01*
Y149891D01*
X261488Y147529D02*
Y149891D01*
X262668D01*
X263062Y149497D01*
Y147923D01*
X262668Y147529D01*
X261488D01*
X267785D02*
X266211D01*
Y148710D01*
X266998D01*
X266211D01*
Y149891D01*
X268572D02*
Y148317D01*
X269359Y147529D01*
X270146Y148317D01*
Y149891D01*
Y148710D01*
X268572D01*
X270934Y149891D02*
Y147529D01*
X272508Y149891D01*
Y147529D01*
X277231Y147923D02*
X276837Y147529D01*
X276050D01*
X275656Y147923D01*
Y148317D01*
X276050Y148710D01*
X276837D01*
X277231Y149104D01*
Y149497D01*
X276837Y149891D01*
X276050D01*
X275656Y149497D01*
X278018Y147529D02*
Y149891D01*
Y148710D01*
X278411Y148317D01*
X279199D01*
X279592Y148710D01*
Y149891D01*
X280773D02*
X281560D01*
X281954Y149497D01*
Y148710D01*
X281560Y148317D01*
X280773D01*
X280379Y148710D01*
Y149497D01*
X280773Y149891D01*
X282741Y148317D02*
Y149891D01*
Y149104D01*
X283134Y148710D01*
X283528Y148317D01*
X283921D01*
X285496Y147923D02*
Y148317D01*
X285102D01*
X285889D01*
X285496D01*
Y149497D01*
X285889Y149891D01*
X289431Y147529D02*
Y149891D01*
X290612D01*
X291006Y149497D01*
Y149104D01*
X290612Y148710D01*
X289431D01*
X290612D01*
X291006Y148317D01*
Y147923D01*
X290612Y147529D01*
X289431D01*
X293367Y149891D02*
X291793D01*
X293367Y148317D01*
Y147923D01*
X292974Y147529D01*
X292186D01*
X291793Y147923D01*
X235512Y152284D02*
X236299D01*
X235905D01*
Y154646D01*
X235512D01*
X236299D01*
X237480D02*
Y153071D01*
X238660D01*
X239054Y153465D01*
Y154646D01*
X239841D02*
X241022D01*
X241416Y154252D01*
X241022Y153858D01*
X240235D01*
X239841Y153465D01*
X240235Y153071D01*
X241416D01*
X242596Y152678D02*
Y153071D01*
X242203D01*
X242990D01*
X242596D01*
Y154252D01*
X242990Y154646D01*
X244564Y153071D02*
X245351D01*
X245745Y153465D01*
Y154646D01*
X244564D01*
X244170Y154252D01*
X244564Y153858D01*
X245745D01*
X246532Y154646D02*
X247319D01*
X246925D01*
Y152284D01*
X246532D01*
X248500Y154646D02*
X249287D01*
X248893D01*
Y152284D01*
X248500D01*
X254403D02*
X253616D01*
X254010D01*
Y154252D01*
X253616Y154646D01*
X253223D01*
X252829Y154252D01*
X255190Y152678D02*
X255584Y152284D01*
X256371D01*
X256765Y152678D01*
Y153071D01*
X256371Y153465D01*
X255978D01*
X256371D01*
X256765Y153858D01*
Y154252D01*
X256371Y154646D01*
X255584D01*
X255190Y154252D01*
X259913Y154646D02*
Y152284D01*
X261094D01*
X261488Y152678D01*
Y153465D01*
X261094Y153858D01*
X259913D01*
X260700D02*
X261488Y154646D01*
X263456D02*
X262668D01*
X262275Y154252D01*
Y153465D01*
X262668Y153071D01*
X263456D01*
X263849Y153465D01*
Y153858D01*
X262275D01*
X264636Y154646D02*
Y153071D01*
X265030D01*
X265423Y153465D01*
Y154646D01*
Y153465D01*
X265817Y153071D01*
X266211Y153465D01*
Y154646D01*
X267391D02*
X268178D01*
X268572Y154252D01*
Y153465D01*
X268178Y153071D01*
X267391D01*
X266998Y153465D01*
Y154252D01*
X267391Y154646D01*
X269359Y153071D02*
X270146Y154646D01*
X270933Y153071D01*
X272901Y154646D02*
X272114D01*
X271721Y154252D01*
Y153465D01*
X272114Y153071D01*
X272901D01*
X273295Y153465D01*
Y153858D01*
X271721D01*
X278018Y152284D02*
X277231D01*
X277624D01*
Y154252D01*
X277231Y154646D01*
X276837D01*
X276444Y154252D01*
X280379Y154646D02*
X278805D01*
X280379Y153071D01*
Y152678D01*
X279986Y152284D01*
X279199D01*
X278805Y152678D01*
X283921Y153071D02*
X284708D01*
X285102Y153465D01*
Y154646D01*
X283921D01*
X283528Y154252D01*
X283921Y153858D01*
X285102D01*
X285889Y154646D02*
Y153071D01*
X287070D01*
X287463Y153465D01*
Y154646D01*
X289825Y152284D02*
Y154646D01*
X288644D01*
X288251Y154252D01*
Y153465D01*
X288644Y153071D01*
X289825D01*
X292973Y152284D02*
Y154646D01*
Y153858D01*
X294548Y152284D01*
X293367Y153465D01*
X294548Y154646D01*
X295335D02*
X296122D01*
X295729D01*
Y152284D01*
X295335Y152678D01*
X235512Y181751D02*
X237086D01*
X236299D01*
Y184112D01*
X238267D02*
X239054D01*
X239448Y183719D01*
Y182932D01*
X239054Y182538D01*
X238267D01*
X237873Y182932D01*
Y183719D01*
X238267Y184112D01*
X242596Y184899D02*
Y182538D01*
X243777D01*
X244170Y182932D01*
Y183719D01*
X243777Y184112D01*
X242596D01*
X245351D02*
X246138D01*
X246532Y183719D01*
Y182932D01*
X246138Y182538D01*
X245351D01*
X244958Y182932D01*
Y183719D01*
X245351Y184112D01*
X247319Y182538D02*
Y183719D01*
X247713Y184112D01*
X248106Y183719D01*
X248500Y184112D01*
X248893Y183719D01*
Y182538D01*
X250861Y184112D02*
X250074D01*
X249680Y183719D01*
Y182932D01*
X250074Y182538D01*
X250861D01*
X251255Y182932D01*
Y183325D01*
X249680D01*
X252042Y182538D02*
Y184112D01*
Y183325D01*
X252435Y182932D01*
X252829Y182538D01*
X253223D01*
X257158D02*
X257946D01*
X258339Y182932D01*
Y184112D01*
X257158D01*
X256765Y183719D01*
X257158Y183325D01*
X258339D01*
X263062Y181751D02*
X261488D01*
Y182932D01*
X262275Y182538D01*
X262668D01*
X263062Y182932D01*
Y183719D01*
X262668Y184112D01*
X261881D01*
X261488Y183719D01*
X263849Y181751D02*
Y183325D01*
X264636Y184112D01*
X265423Y183325D01*
Y181751D01*
X270146Y182144D02*
X269753Y181751D01*
X268966D01*
X268572Y182144D01*
Y182538D01*
X268966Y182932D01*
X269753D01*
X270146Y183325D01*
Y183719D01*
X269753Y184112D01*
X268966D01*
X268572Y183719D01*
X272508Y182144D02*
X272114Y181751D01*
X271327D01*
X270934Y182144D01*
Y182538D01*
X271327Y182932D01*
X272114D01*
X272508Y183325D01*
Y183719D01*
X272114Y184112D01*
X271327D01*
X270934Y183719D01*
X273295Y184112D02*
Y181751D01*
X274476D01*
X274869Y182144D01*
Y182932D01*
X274476Y183325D01*
X273295D01*
X274082D02*
X274869Y184112D01*
X279592Y182144D02*
X279199Y181751D01*
X278411D01*
X278018Y182144D01*
Y182538D01*
X278411Y182932D01*
X279199D01*
X279592Y183325D01*
Y183719D01*
X279199Y184112D01*
X278411D01*
X278018Y183719D01*
X280379Y181751D02*
Y184112D01*
Y182932D01*
X280773Y182538D01*
X281560D01*
X281954Y182932D01*
Y184112D01*
X283134D02*
X283921D01*
X284315Y183719D01*
Y182932D01*
X283921Y182538D01*
X283134D01*
X282741Y182932D01*
Y183719D01*
X283134Y184112D01*
X285102Y182538D02*
Y184112D01*
Y183325D01*
X285496Y182932D01*
X285889Y182538D01*
X286283D01*
X287857Y182144D02*
Y182538D01*
X287464D01*
X288251D01*
X287857D01*
Y183719D01*
X288251Y184112D01*
X291793Y181751D02*
Y184112D01*
X292974D01*
X293367Y183719D01*
Y183325D01*
X292974Y182932D01*
X291793D01*
X292974D01*
X293367Y182538D01*
Y182144D01*
X292974Y181751D01*
X291793D01*
X294154Y184112D02*
X294941D01*
X294548D01*
Y181751D01*
X294154Y182144D01*
X235512Y188867D02*
Y186506D01*
X236693D01*
X237086Y186899D01*
Y187686D01*
X236693Y188080D01*
X235512D01*
X237873Y188867D02*
X238661D01*
X238267D01*
Y187293D01*
X237873D01*
X239841Y188867D02*
Y187293D01*
X241022D01*
X241416Y187686D01*
Y188867D01*
X246138D02*
X244564D01*
X246138Y187293D01*
Y186899D01*
X245745Y186506D01*
X244958D01*
X244564Y186899D01*
X246925Y187293D02*
X247319D01*
Y187686D01*
X246925D01*
Y187293D01*
Y188473D02*
X247319D01*
Y188867D01*
X246925D01*
Y188473D01*
X252829Y186899D02*
X252435Y186506D01*
X251648D01*
X251255Y186899D01*
Y187293D01*
X251648Y187686D01*
X252435D01*
X252829Y188080D01*
Y188473D01*
X252435Y188867D01*
X251648D01*
X251255Y188473D01*
X255190Y186899D02*
X254797Y186506D01*
X254010D01*
X253616Y186899D01*
Y187293D01*
X254010Y187686D01*
X254797D01*
X255190Y188080D01*
Y188473D01*
X254797Y188867D01*
X254010D01*
X253616Y188473D01*
X255978Y188867D02*
Y186506D01*
X257158D01*
X257552Y186899D01*
Y187686D01*
X257158Y188080D01*
X255978D01*
X256765D02*
X257552Y188867D01*
X260701Y187686D02*
X262275D01*
X261488Y186899D02*
Y188473D01*
X237086Y190867D02*
X236693Y190473D01*
X235906D01*
X235512Y190867D01*
Y192441D01*
X235906Y192835D01*
X236693D01*
X237086Y192441D01*
Y191654D01*
X236299D01*
X237873Y192835D02*
Y190473D01*
X239448Y192835D01*
Y190473D01*
X240235D02*
Y192835D01*
X241416D01*
X241809Y192441D01*
Y190867D01*
X241416Y190473D01*
X240235D01*
X242596Y191260D02*
X242990D01*
Y191654D01*
X242596D01*
Y191260D01*
Y192441D02*
X242990D01*
Y192835D01*
X242596D01*
Y192441D01*
X253223Y190867D02*
X252829Y190473D01*
X252042D01*
X251648Y190867D01*
Y191260D01*
X252042Y191654D01*
X252829D01*
X253223Y192048D01*
Y192441D01*
X252829Y192835D01*
X252042D01*
X251648Y192441D01*
X255584Y190867D02*
X255190Y190473D01*
X254403D01*
X254010Y190867D01*
Y191260D01*
X254403Y191654D01*
X255190D01*
X255584Y192048D01*
Y192441D01*
X255190Y192835D01*
X254403D01*
X254010Y192441D01*
X256371Y192835D02*
Y190473D01*
X257552D01*
X257946Y190867D01*
Y191654D01*
X257552Y192048D01*
X256371D01*
X257158D02*
X257946Y192835D01*
X261094Y191654D02*
X262668D01*
X226379Y157363D02*
Y159724D01*
X227559D01*
X227953Y159330D01*
Y158937D01*
X227559Y158543D01*
X226379D01*
X227559D01*
X227953Y158150D01*
Y157756D01*
X227559Y157363D01*
X226379D01*
X230314Y159724D02*
X228740D01*
X230314Y158150D01*
Y157756D01*
X229921Y157363D01*
X229134D01*
X228740Y157756D01*
X226379Y174922D02*
Y177283D01*
X227559D01*
X227953Y176890D01*
Y176496D01*
X227559Y176102D01*
X226379D01*
X227559D01*
X227953Y175709D01*
Y175315D01*
X227559Y174922D01*
X226379D01*
X228740Y175315D02*
X229134Y174922D01*
X229921D01*
X230314Y175315D01*
Y175709D01*
X229921Y176102D01*
X229527D01*
X229921D01*
X230314Y176496D01*
Y176890D01*
X229921Y177283D01*
X229134D01*
X228740Y176890D01*
X206890Y188977D02*
Y191338D01*
X208071D01*
X208465Y190945D01*
Y190551D01*
X208071Y190157D01*
X206890D01*
X208071D01*
X208465Y189764D01*
Y189370D01*
X208071Y188977D01*
X206890D01*
X209252Y191338D02*
X210039D01*
X209645D01*
Y188977D01*
X209252Y189370D01*
X70157Y223907D02*
X71732D01*
X70945D01*
Y226269D01*
X72913D02*
X73700D01*
X74093Y225875D01*
Y225088D01*
X73700Y224695D01*
X72913D01*
X72519Y225088D01*
Y225875D01*
X72913Y226269D01*
X77242Y227056D02*
Y224695D01*
X78423D01*
X78816Y225088D01*
Y225875D01*
X78423Y226269D01*
X77242D01*
X79997D02*
X80784D01*
X81178Y225875D01*
Y225088D01*
X80784Y224695D01*
X79997D01*
X79603Y225088D01*
Y225875D01*
X79997Y226269D01*
X81965Y224695D02*
Y225875D01*
X82358Y226269D01*
X82752Y225875D01*
X83145Y226269D01*
X83539Y225875D01*
Y224695D01*
X85507Y226269D02*
X84720D01*
X84326Y225875D01*
Y225088D01*
X84720Y224695D01*
X85507D01*
X85900Y225088D01*
Y225482D01*
X84326D01*
X86688Y224695D02*
Y226269D01*
Y225482D01*
X87081Y225088D01*
X87475Y224695D01*
X87868D01*
X91410Y226269D02*
Y223907D01*
X92591D01*
X92985Y224301D01*
Y225088D01*
X92591Y225482D01*
X91410D01*
X93772Y223907D02*
Y226269D01*
X94559Y225482D01*
X95346Y226269D01*
Y223907D01*
X96133Y226269D02*
Y223907D01*
X96921Y224695D01*
X97708Y223907D01*
Y226269D01*
X102430Y223907D02*
X100856D01*
Y225088D01*
X101643D01*
X100856D01*
Y226269D01*
X103218D02*
Y224695D01*
X104005Y223907D01*
X104792Y224695D01*
Y226269D01*
Y225088D01*
X103218D01*
X105579Y226269D02*
Y223907D01*
X107153Y226269D01*
Y223907D01*
X111876Y224301D02*
X111483Y223907D01*
X110696D01*
X110302Y224301D01*
Y224695D01*
X110696Y225088D01*
X111483D01*
X111876Y225482D01*
Y225875D01*
X111483Y226269D01*
X110696D01*
X110302Y225875D01*
X112663Y223907D02*
Y226269D01*
Y225088D01*
X113057Y224695D01*
X113844D01*
X114238Y225088D01*
Y226269D01*
X115418D02*
X116206D01*
X116599Y225875D01*
Y225088D01*
X116206Y224695D01*
X115418D01*
X115025Y225088D01*
Y225875D01*
X115418Y226269D01*
X117386Y224695D02*
Y226269D01*
Y225482D01*
X117780Y225088D01*
X118174Y224695D01*
X118567D01*
X120141Y224301D02*
Y224695D01*
X119748D01*
X120535D01*
X120141D01*
Y225875D01*
X120535Y226269D01*
X124077Y223907D02*
Y226269D01*
X125258D01*
X125651Y225875D01*
Y225482D01*
X125258Y225088D01*
X124077D01*
X125258D01*
X125651Y224695D01*
Y224301D01*
X125258Y223907D01*
X124077D01*
X126438Y224301D02*
X126832Y223907D01*
X127619D01*
X128013Y224301D01*
Y224695D01*
X127619Y225088D01*
X127226D01*
X127619D01*
X128013Y225482D01*
Y225875D01*
X127619Y226269D01*
X126832D01*
X126438Y225875D01*
X70157Y228662D02*
X70945D01*
X70551D01*
Y231024D01*
X70157D01*
X70945D01*
X72125D02*
Y229449D01*
X73306D01*
X73700Y229843D01*
Y231024D01*
X74487D02*
X75668D01*
X76061Y230630D01*
X75668Y230237D01*
X74880D01*
X74487Y229843D01*
X74880Y229449D01*
X76061D01*
X77242Y229056D02*
Y229449D01*
X76848D01*
X77635D01*
X77242D01*
Y230630D01*
X77635Y231024D01*
X79210Y229449D02*
X79997D01*
X80390Y229843D01*
Y231024D01*
X79210D01*
X78816Y230630D01*
X79210Y230237D01*
X80390D01*
X81178Y231024D02*
X81965D01*
X81571D01*
Y228662D01*
X81178D01*
X83145Y231024D02*
X83933D01*
X83539D01*
Y228662D01*
X83145D01*
X89049D02*
X88262D01*
X88655D01*
Y230630D01*
X88262Y231024D01*
X87868D01*
X87475Y230630D01*
X89836Y229056D02*
X90230Y228662D01*
X91017D01*
X91410Y229056D01*
Y229449D01*
X91017Y229843D01*
X90623D01*
X91017D01*
X91410Y230237D01*
Y230630D01*
X91017Y231024D01*
X90230D01*
X89836Y230630D01*
X94559Y231024D02*
Y228662D01*
X95740D01*
X96133Y229056D01*
Y229843D01*
X95740Y230237D01*
X94559D01*
X95346D02*
X96133Y231024D01*
X98101D02*
X97314D01*
X96921Y230630D01*
Y229843D01*
X97314Y229449D01*
X98101D01*
X98495Y229843D01*
Y230237D01*
X96921D01*
X99282Y231024D02*
Y229449D01*
X99676D01*
X100069Y229843D01*
Y231024D01*
Y229843D01*
X100463Y229449D01*
X100856Y229843D01*
Y231024D01*
X102037D02*
X102824D01*
X103218Y230630D01*
Y229843D01*
X102824Y229449D01*
X102037D01*
X101643Y229843D01*
Y230630D01*
X102037Y231024D01*
X104005Y229449D02*
X104792Y231024D01*
X105579Y229449D01*
X107547Y231024D02*
X106760D01*
X106366Y230630D01*
Y229843D01*
X106760Y229449D01*
X107547D01*
X107940Y229843D01*
Y230237D01*
X106366D01*
X112663Y228662D02*
X111876D01*
X112270D01*
Y230630D01*
X111876Y231024D01*
X111483D01*
X111089Y230630D01*
X115025Y231024D02*
X113451D01*
X115025Y229449D01*
Y229056D01*
X114631Y228662D01*
X113844D01*
X113451Y229056D01*
X118567Y229449D02*
X119354D01*
X119748Y229843D01*
Y231024D01*
X118567D01*
X118173Y230630D01*
X118567Y230237D01*
X119748D01*
X120535Y231024D02*
Y229449D01*
X121716D01*
X122109Y229843D01*
Y231024D01*
X124471Y228662D02*
Y231024D01*
X123290D01*
X122896Y230630D01*
Y229843D01*
X123290Y229449D01*
X124471D01*
X127619Y228662D02*
Y231024D01*
Y230237D01*
X129193Y228662D01*
X128013Y229843D01*
X129193Y231024D01*
X129981D02*
X130768D01*
X130374D01*
Y228662D01*
X129981Y229056D01*
X70157Y206585D02*
X71732D01*
X70945D01*
Y208946D01*
X72913D02*
X73700D01*
X74093Y208553D01*
Y207765D01*
X73700Y207372D01*
X72913D01*
X72519Y207765D01*
Y208553D01*
X72913Y208946D01*
X77242Y209733D02*
Y207372D01*
X78423D01*
X78816Y207765D01*
Y208553D01*
X78423Y208946D01*
X77242D01*
X79997D02*
X80784D01*
X81178Y208553D01*
Y207765D01*
X80784Y207372D01*
X79997D01*
X79603Y207765D01*
Y208553D01*
X79997Y208946D01*
X81965Y207372D02*
Y208553D01*
X82358Y208946D01*
X82752Y208553D01*
X83145Y208946D01*
X83539Y208553D01*
Y207372D01*
X85507Y208946D02*
X84720D01*
X84326Y208553D01*
Y207765D01*
X84720Y207372D01*
X85507D01*
X85900Y207765D01*
Y208159D01*
X84326D01*
X86688Y207372D02*
Y208946D01*
Y208159D01*
X87081Y207765D01*
X87475Y207372D01*
X87868D01*
X92985Y206978D02*
X92591Y206585D01*
X91804D01*
X91410Y206978D01*
Y207372D01*
X91804Y207765D01*
X92591D01*
X92985Y208159D01*
Y208553D01*
X92591Y208946D01*
X91804D01*
X91410Y208553D01*
X93772Y206585D02*
X95346D01*
X94559D01*
Y208946D01*
X96133Y206585D02*
Y208946D01*
X97314D01*
X97708Y208553D01*
Y206978D01*
X97314Y206585D01*
X96133D01*
X102430D02*
X100856D01*
Y207765D01*
X101643D01*
X100856D01*
Y208946D01*
X103218D02*
Y207372D01*
X104005Y206585D01*
X104792Y207372D01*
Y208946D01*
Y207765D01*
X103218D01*
X105579Y208946D02*
Y206585D01*
X107153Y208946D01*
Y206585D01*
X111876Y206978D02*
X111483Y206585D01*
X110696D01*
X110302Y206978D01*
Y207372D01*
X110696Y207765D01*
X111483D01*
X111876Y208159D01*
Y208553D01*
X111483Y208946D01*
X110696D01*
X110302Y208553D01*
X112663Y206585D02*
Y208946D01*
Y207765D01*
X113057Y207372D01*
X113844D01*
X114238Y207765D01*
Y208946D01*
X115418D02*
X116206D01*
X116599Y208553D01*
Y207765D01*
X116206Y207372D01*
X115418D01*
X115025Y207765D01*
Y208553D01*
X115418Y208946D01*
X117386Y207372D02*
Y208946D01*
Y208159D01*
X117780Y207765D01*
X118174Y207372D01*
X118567D01*
X120141Y206978D02*
Y207372D01*
X119748D01*
X120535D01*
X120141D01*
Y208553D01*
X120535Y208946D01*
X124077Y206585D02*
Y208946D01*
X125258D01*
X125651Y208553D01*
Y208159D01*
X125258Y207765D01*
X124077D01*
X125258D01*
X125651Y207372D01*
Y206978D01*
X125258Y206585D01*
X124077D01*
X128013Y208946D02*
X126438D01*
X128013Y207372D01*
Y206978D01*
X127619Y206585D01*
X126832D01*
X126438Y206978D01*
X70157Y211339D02*
X70945D01*
X70551D01*
Y213701D01*
X70157D01*
X70945D01*
X72125D02*
Y212126D01*
X73306D01*
X73700Y212520D01*
Y213701D01*
X74487D02*
X75668D01*
X76061Y213307D01*
X75668Y212914D01*
X74880D01*
X74487Y212520D01*
X74880Y212126D01*
X76061D01*
X77242Y211733D02*
Y212126D01*
X76848D01*
X77635D01*
X77242D01*
Y213307D01*
X77635Y213701D01*
X79210Y212126D02*
X79997D01*
X80390Y212520D01*
Y213701D01*
X79210D01*
X78816Y213307D01*
X79210Y212914D01*
X80390D01*
X81178Y213701D02*
X81965D01*
X81571D01*
Y211339D01*
X81178D01*
X83145Y213701D02*
X83933D01*
X83539D01*
Y211339D01*
X83145D01*
X89049D02*
X88262D01*
X88655D01*
Y213307D01*
X88262Y213701D01*
X87868D01*
X87475Y213307D01*
X89836Y211733D02*
X90230Y211339D01*
X91017D01*
X91410Y211733D01*
Y212126D01*
X91017Y212520D01*
X90623D01*
X91017D01*
X91410Y212914D01*
Y213307D01*
X91017Y213701D01*
X90230D01*
X89836Y213307D01*
X94559Y213701D02*
Y211339D01*
X95740D01*
X96133Y211733D01*
Y212520D01*
X95740Y212914D01*
X94559D01*
X95346D02*
X96133Y213701D01*
X98101D02*
X97314D01*
X96921Y213307D01*
Y212520D01*
X97314Y212126D01*
X98101D01*
X98495Y212520D01*
Y212914D01*
X96921D01*
X99282Y213701D02*
Y212126D01*
X99676D01*
X100069Y212520D01*
Y213701D01*
Y212520D01*
X100463Y212126D01*
X100856Y212520D01*
Y213701D01*
X102037D02*
X102824D01*
X103218Y213307D01*
Y212520D01*
X102824Y212126D01*
X102037D01*
X101643Y212520D01*
Y213307D01*
X102037Y213701D01*
X104005Y212126D02*
X104792Y213701D01*
X105579Y212126D01*
X107547Y213701D02*
X106760D01*
X106366Y213307D01*
Y212520D01*
X106760Y212126D01*
X107547D01*
X107940Y212520D01*
Y212914D01*
X106366D01*
X112663Y211339D02*
X111876D01*
X112270D01*
Y213307D01*
X111876Y213701D01*
X111483D01*
X111089Y213307D01*
X115025Y213701D02*
X113451D01*
X115025Y212126D01*
Y211733D01*
X114631Y211339D01*
X113844D01*
X113451Y211733D01*
X118567Y212126D02*
X119354D01*
X119748Y212520D01*
Y213701D01*
X118567D01*
X118173Y213307D01*
X118567Y212914D01*
X119748D01*
X120535Y213701D02*
Y212126D01*
X121716D01*
X122109Y212520D01*
Y213701D01*
X124471Y211339D02*
Y213701D01*
X123290D01*
X122896Y213307D01*
Y212520D01*
X123290Y212126D01*
X124471D01*
X127619Y211339D02*
Y213701D01*
Y212914D01*
X129193Y211339D01*
X128013Y212520D01*
X129193Y213701D01*
X129981D02*
X130768D01*
X130374D01*
Y211339D01*
X129981Y211733D01*
X70157Y240806D02*
X71732D01*
X70945D01*
Y243167D01*
X72913D02*
X73700D01*
X74093Y242774D01*
Y241987D01*
X73700Y241593D01*
X72913D01*
X72519Y241987D01*
Y242774D01*
X72913Y243167D01*
X77242Y243955D02*
Y241593D01*
X78423D01*
X78816Y241987D01*
Y242774D01*
X78423Y243167D01*
X77242D01*
X79997D02*
X80784D01*
X81178Y242774D01*
Y241987D01*
X80784Y241593D01*
X79997D01*
X79603Y241987D01*
Y242774D01*
X79997Y243167D01*
X81965Y241593D02*
Y242774D01*
X82358Y243167D01*
X82752Y242774D01*
X83145Y243167D01*
X83539Y242774D01*
Y241593D01*
X85507Y243167D02*
X84720D01*
X84326Y242774D01*
Y241987D01*
X84720Y241593D01*
X85507D01*
X85900Y241987D01*
Y242380D01*
X84326D01*
X86688Y241593D02*
Y243167D01*
Y242380D01*
X87081Y241987D01*
X87475Y241593D01*
X87868D01*
X91804D02*
X92591D01*
X92985Y241987D01*
Y243167D01*
X91804D01*
X91410Y242774D01*
X91804Y242380D01*
X92985D01*
X97708Y240806D02*
X96133D01*
Y241987D01*
X96921Y241593D01*
X97314D01*
X97708Y241987D01*
Y242774D01*
X97314Y243167D01*
X96527D01*
X96133Y242774D01*
X98495Y240806D02*
Y242380D01*
X99282Y243167D01*
X100069Y242380D01*
Y240806D01*
X104792Y241200D02*
X104398Y240806D01*
X103611D01*
X103218Y241200D01*
Y241593D01*
X103611Y241987D01*
X104398D01*
X104792Y242380D01*
Y242774D01*
X104398Y243167D01*
X103611D01*
X103218Y242774D01*
X107153Y241200D02*
X106760Y240806D01*
X105973D01*
X105579Y241200D01*
Y241593D01*
X105973Y241987D01*
X106760D01*
X107153Y242380D01*
Y242774D01*
X106760Y243167D01*
X105973D01*
X105579Y242774D01*
X107941Y243167D02*
Y240806D01*
X109121D01*
X109515Y241200D01*
Y241987D01*
X109121Y242380D01*
X107941D01*
X108728D02*
X109515Y243167D01*
X114238Y241200D02*
X113844Y240806D01*
X113057D01*
X112663Y241200D01*
Y241593D01*
X113057Y241987D01*
X113844D01*
X114238Y242380D01*
Y242774D01*
X113844Y243167D01*
X113057D01*
X112663Y242774D01*
X115025Y240806D02*
Y243167D01*
Y241987D01*
X115419Y241593D01*
X116206D01*
X116599Y241987D01*
Y243167D01*
X117780D02*
X118567D01*
X118961Y242774D01*
Y241987D01*
X118567Y241593D01*
X117780D01*
X117386Y241987D01*
Y242774D01*
X117780Y243167D01*
X119748Y241593D02*
Y243167D01*
Y242380D01*
X120141Y241987D01*
X120535Y241593D01*
X120929D01*
X122503Y241200D02*
Y241593D01*
X122109D01*
X122896D01*
X122503D01*
Y242774D01*
X122896Y243167D01*
X126438Y240806D02*
Y243167D01*
X127619D01*
X128013Y242774D01*
Y242380D01*
X127619Y241987D01*
X126438D01*
X127619D01*
X128013Y241593D01*
Y241200D01*
X127619Y240806D01*
X126438D01*
X128800Y243167D02*
X129587D01*
X129193D01*
Y240806D01*
X128800Y241200D01*
X70157Y247922D02*
Y245561D01*
X71338D01*
X71732Y245954D01*
Y246742D01*
X71338Y247135D01*
X70157D01*
X72519Y247922D02*
X73306D01*
X72913D01*
Y246348D01*
X72519D01*
X74487Y247922D02*
Y246348D01*
X75668D01*
X76061Y246742D01*
Y247922D01*
X80784D02*
X79210D01*
X80784Y246348D01*
Y245954D01*
X80390Y245561D01*
X79603D01*
X79210Y245954D01*
X81571Y246348D02*
X81965D01*
Y246742D01*
X81571D01*
Y246348D01*
Y247529D02*
X81965D01*
Y247922D01*
X81571D01*
Y247529D01*
X87475Y245954D02*
X87081Y245561D01*
X86294D01*
X85900Y245954D01*
Y246348D01*
X86294Y246742D01*
X87081D01*
X87475Y247135D01*
Y247529D01*
X87081Y247922D01*
X86294D01*
X85900Y247529D01*
X89836Y245954D02*
X89443Y245561D01*
X88656D01*
X88262Y245954D01*
Y246348D01*
X88656Y246742D01*
X89443D01*
X89836Y247135D01*
Y247529D01*
X89443Y247922D01*
X88656D01*
X88262Y247529D01*
X90623Y247922D02*
Y245561D01*
X91804D01*
X92198Y245954D01*
Y246742D01*
X91804Y247135D01*
X90623D01*
X91410D02*
X92198Y247922D01*
X95346Y246742D02*
X96921D01*
X96133Y245954D02*
Y247529D01*
X71732Y249922D02*
X71338Y249528D01*
X70551D01*
X70157Y249922D01*
Y251496D01*
X70551Y251890D01*
X71338D01*
X71732Y251496D01*
Y250709D01*
X70945D01*
X72519Y251890D02*
Y249528D01*
X74093Y251890D01*
Y249528D01*
X74880D02*
Y251890D01*
X76061D01*
X76455Y251496D01*
Y249922D01*
X76061Y249528D01*
X74880D01*
X77242Y250315D02*
X77635D01*
Y250709D01*
X77242D01*
Y250315D01*
Y251496D02*
X77635D01*
Y251890D01*
X77242D01*
Y251496D01*
X87868Y249922D02*
X87475Y249528D01*
X86688D01*
X86294Y249922D01*
Y250315D01*
X86688Y250709D01*
X87475D01*
X87868Y251103D01*
Y251496D01*
X87475Y251890D01*
X86688D01*
X86294Y251496D01*
X90230Y249922D02*
X89836Y249528D01*
X89049D01*
X88656Y249922D01*
Y250315D01*
X89049Y250709D01*
X89836D01*
X90230Y251103D01*
Y251496D01*
X89836Y251890D01*
X89049D01*
X88656Y251496D01*
X91017Y251890D02*
Y249528D01*
X92198D01*
X92591Y249922D01*
Y250709D01*
X92198Y251103D01*
X91017D01*
X91804D02*
X92591Y251890D01*
X95740Y250709D02*
X97314D01*
X61024Y216418D02*
Y218779D01*
X62205D01*
X62599Y218386D01*
Y217992D01*
X62205Y217599D01*
X61024D01*
X62205D01*
X62599Y217205D01*
Y216811D01*
X62205Y216418D01*
X61024D01*
X64960Y218779D02*
X63386D01*
X64960Y217205D01*
Y216811D01*
X64566Y216418D01*
X63779D01*
X63386Y216811D01*
X61024Y233977D02*
Y236338D01*
X62205D01*
X62599Y235945D01*
Y235551D01*
X62205Y235158D01*
X61024D01*
X62205D01*
X62599Y234764D01*
Y234370D01*
X62205Y233977D01*
X61024D01*
X63386Y234370D02*
X63779Y233977D01*
X64566D01*
X64960Y234370D01*
Y234764D01*
X64566Y235158D01*
X64173D01*
X64566D01*
X64960Y235551D01*
Y235945D01*
X64566Y236338D01*
X63779D01*
X63386Y235945D01*
X41536Y248032D02*
Y250393D01*
X42717D01*
X43110Y250000D01*
Y249606D01*
X42717Y249213D01*
X41536D01*
X42717D01*
X43110Y248819D01*
Y248426D01*
X42717Y248032D01*
X41536D01*
X43897Y250393D02*
X44685D01*
X44291D01*
Y248032D01*
X43897Y248426D01*
X235512Y223907D02*
X237086D01*
X236299D01*
Y226269D01*
X238267D02*
X239054D01*
X239448Y225875D01*
Y225088D01*
X239054Y224695D01*
X238267D01*
X237873Y225088D01*
Y225875D01*
X238267Y226269D01*
X242596Y227056D02*
Y224695D01*
X243777D01*
X244170Y225088D01*
Y225875D01*
X243777Y226269D01*
X242596D01*
X245351D02*
X246138D01*
X246532Y225875D01*
Y225088D01*
X246138Y224695D01*
X245351D01*
X244958Y225088D01*
Y225875D01*
X245351Y226269D01*
X247319Y224695D02*
Y225875D01*
X247713Y226269D01*
X248106Y225875D01*
X248500Y226269D01*
X248893Y225875D01*
Y224695D01*
X250861Y226269D02*
X250074D01*
X249680Y225875D01*
Y225088D01*
X250074Y224695D01*
X250861D01*
X251255Y225088D01*
Y225482D01*
X249680D01*
X252042Y224695D02*
Y226269D01*
Y225482D01*
X252435Y225088D01*
X252829Y224695D01*
X253223D01*
X256765Y226269D02*
Y223907D01*
X257946D01*
X258339Y224301D01*
Y225088D01*
X257946Y225482D01*
X256765D01*
X259126Y223907D02*
Y226269D01*
X259913Y225482D01*
X260701Y226269D01*
Y223907D01*
X261488Y226269D02*
Y223907D01*
X262275Y224695D01*
X263062Y223907D01*
Y226269D01*
X267785Y223907D02*
X266211D01*
Y225088D01*
X266998D01*
X266211D01*
Y226269D01*
X268572D02*
Y224695D01*
X269359Y223907D01*
X270146Y224695D01*
Y226269D01*
Y225088D01*
X268572D01*
X270934Y226269D02*
Y223907D01*
X272508Y226269D01*
Y223907D01*
X277231Y224301D02*
X276837Y223907D01*
X276050D01*
X275656Y224301D01*
Y224695D01*
X276050Y225088D01*
X276837D01*
X277231Y225482D01*
Y225875D01*
X276837Y226269D01*
X276050D01*
X275656Y225875D01*
X278018Y223907D02*
Y226269D01*
Y225088D01*
X278411Y224695D01*
X279199D01*
X279592Y225088D01*
Y226269D01*
X280773D02*
X281560D01*
X281954Y225875D01*
Y225088D01*
X281560Y224695D01*
X280773D01*
X280379Y225088D01*
Y225875D01*
X280773Y226269D01*
X282741Y224695D02*
Y226269D01*
Y225482D01*
X283134Y225088D01*
X283528Y224695D01*
X283921D01*
X285496Y224301D02*
Y224695D01*
X285102D01*
X285889D01*
X285496D01*
Y225875D01*
X285889Y226269D01*
X289431Y223907D02*
Y226269D01*
X290612D01*
X291006Y225875D01*
Y225482D01*
X290612Y225088D01*
X289431D01*
X290612D01*
X291006Y224695D01*
Y224301D01*
X290612Y223907D01*
X289431D01*
X291793Y224301D02*
X292186Y223907D01*
X292974D01*
X293367Y224301D01*
Y224695D01*
X292974Y225088D01*
X292580D01*
X292974D01*
X293367Y225482D01*
Y225875D01*
X292974Y226269D01*
X292186D01*
X291793Y225875D01*
X235512Y228662D02*
X236299D01*
X235905D01*
Y231024D01*
X235512D01*
X236299D01*
X237480D02*
Y229449D01*
X238660D01*
X239054Y229843D01*
Y231024D01*
X239841D02*
X241022D01*
X241416Y230630D01*
X241022Y230237D01*
X240235D01*
X239841Y229843D01*
X240235Y229449D01*
X241416D01*
X242596Y229056D02*
Y229449D01*
X242203D01*
X242990D01*
X242596D01*
Y230630D01*
X242990Y231024D01*
X244564Y229449D02*
X245351D01*
X245745Y229843D01*
Y231024D01*
X244564D01*
X244170Y230630D01*
X244564Y230237D01*
X245745D01*
X246532Y231024D02*
X247319D01*
X246925D01*
Y228662D01*
X246532D01*
X248500Y231024D02*
X249287D01*
X248893D01*
Y228662D01*
X248500D01*
X254403D02*
X253616D01*
X254010D01*
Y230630D01*
X253616Y231024D01*
X253223D01*
X252829Y230630D01*
X255190Y229056D02*
X255584Y228662D01*
X256371D01*
X256765Y229056D01*
Y229449D01*
X256371Y229843D01*
X255978D01*
X256371D01*
X256765Y230237D01*
Y230630D01*
X256371Y231024D01*
X255584D01*
X255190Y230630D01*
X259913Y231024D02*
Y228662D01*
X261094D01*
X261488Y229056D01*
Y229843D01*
X261094Y230237D01*
X259913D01*
X260700D02*
X261488Y231024D01*
X263456D02*
X262668D01*
X262275Y230630D01*
Y229843D01*
X262668Y229449D01*
X263456D01*
X263849Y229843D01*
Y230237D01*
X262275D01*
X264636Y231024D02*
Y229449D01*
X265030D01*
X265423Y229843D01*
Y231024D01*
Y229843D01*
X265817Y229449D01*
X266211Y229843D01*
Y231024D01*
X267391D02*
X268178D01*
X268572Y230630D01*
Y229843D01*
X268178Y229449D01*
X267391D01*
X266998Y229843D01*
Y230630D01*
X267391Y231024D01*
X269359Y229449D02*
X270146Y231024D01*
X270933Y229449D01*
X272901Y231024D02*
X272114D01*
X271721Y230630D01*
Y229843D01*
X272114Y229449D01*
X272901D01*
X273295Y229843D01*
Y230237D01*
X271721D01*
X278018Y228662D02*
X277231D01*
X277624D01*
Y230630D01*
X277231Y231024D01*
X276837D01*
X276444Y230630D01*
X280379Y231024D02*
X278805D01*
X280379Y229449D01*
Y229056D01*
X279986Y228662D01*
X279199D01*
X278805Y229056D01*
X283921Y229449D02*
X284708D01*
X285102Y229843D01*
Y231024D01*
X283921D01*
X283528Y230630D01*
X283921Y230237D01*
X285102D01*
X285889Y231024D02*
Y229449D01*
X287070D01*
X287463Y229843D01*
Y231024D01*
X289825Y228662D02*
Y231024D01*
X288644D01*
X288251Y230630D01*
Y229843D01*
X288644Y229449D01*
X289825D01*
X292973Y228662D02*
Y231024D01*
Y230237D01*
X294548Y228662D01*
X293367Y229843D01*
X294548Y231024D01*
X295335D02*
X296122D01*
X295729D01*
Y228662D01*
X295335Y229056D01*
X235512Y206585D02*
X237086D01*
X236299D01*
Y208946D01*
X238267D02*
X239054D01*
X239448Y208553D01*
Y207765D01*
X239054Y207372D01*
X238267D01*
X237873Y207765D01*
Y208553D01*
X238267Y208946D01*
X242596Y209733D02*
Y207372D01*
X243777D01*
X244170Y207765D01*
Y208553D01*
X243777Y208946D01*
X242596D01*
X245351D02*
X246138D01*
X246532Y208553D01*
Y207765D01*
X246138Y207372D01*
X245351D01*
X244958Y207765D01*
Y208553D01*
X245351Y208946D01*
X247319Y207372D02*
Y208553D01*
X247713Y208946D01*
X248106Y208553D01*
X248500Y208946D01*
X248893Y208553D01*
Y207372D01*
X250861Y208946D02*
X250074D01*
X249680Y208553D01*
Y207765D01*
X250074Y207372D01*
X250861D01*
X251255Y207765D01*
Y208159D01*
X249680D01*
X252042Y207372D02*
Y208946D01*
Y208159D01*
X252435Y207765D01*
X252829Y207372D01*
X253223D01*
X258339Y206978D02*
X257946Y206585D01*
X257158D01*
X256765Y206978D01*
Y207372D01*
X257158Y207765D01*
X257946D01*
X258339Y208159D01*
Y208553D01*
X257946Y208946D01*
X257158D01*
X256765Y208553D01*
X259126Y206585D02*
X260701D01*
X259913D01*
Y208946D01*
X261488Y206585D02*
Y208946D01*
X262668D01*
X263062Y208553D01*
Y206978D01*
X262668Y206585D01*
X261488D01*
X267785D02*
X266211D01*
Y207765D01*
X266998D01*
X266211D01*
Y208946D01*
X268572D02*
Y207372D01*
X269359Y206585D01*
X270146Y207372D01*
Y208946D01*
Y207765D01*
X268572D01*
X270934Y208946D02*
Y206585D01*
X272508Y208946D01*
Y206585D01*
X277231Y206978D02*
X276837Y206585D01*
X276050D01*
X275656Y206978D01*
Y207372D01*
X276050Y207765D01*
X276837D01*
X277231Y208159D01*
Y208553D01*
X276837Y208946D01*
X276050D01*
X275656Y208553D01*
X278018Y206585D02*
Y208946D01*
Y207765D01*
X278411Y207372D01*
X279199D01*
X279592Y207765D01*
Y208946D01*
X280773D02*
X281560D01*
X281954Y208553D01*
Y207765D01*
X281560Y207372D01*
X280773D01*
X280379Y207765D01*
Y208553D01*
X280773Y208946D01*
X282741Y207372D02*
Y208946D01*
Y208159D01*
X283134Y207765D01*
X283528Y207372D01*
X283921D01*
X285496Y206978D02*
Y207372D01*
X285102D01*
X285889D01*
X285496D01*
Y208553D01*
X285889Y208946D01*
X289431Y206585D02*
Y208946D01*
X290612D01*
X291006Y208553D01*
Y208159D01*
X290612Y207765D01*
X289431D01*
X290612D01*
X291006Y207372D01*
Y206978D01*
X290612Y206585D01*
X289431D01*
X293367Y208946D02*
X291793D01*
X293367Y207372D01*
Y206978D01*
X292974Y206585D01*
X292186D01*
X291793Y206978D01*
X235512Y211339D02*
X236299D01*
X235905D01*
Y213701D01*
X235512D01*
X236299D01*
X237480D02*
Y212126D01*
X238660D01*
X239054Y212520D01*
Y213701D01*
X239841D02*
X241022D01*
X241416Y213307D01*
X241022Y212914D01*
X240235D01*
X239841Y212520D01*
X240235Y212126D01*
X241416D01*
X242596Y211733D02*
Y212126D01*
X242203D01*
X242990D01*
X242596D01*
Y213307D01*
X242990Y213701D01*
X244564Y212126D02*
X245351D01*
X245745Y212520D01*
Y213701D01*
X244564D01*
X244170Y213307D01*
X244564Y212914D01*
X245745D01*
X246532Y213701D02*
X247319D01*
X246925D01*
Y211339D01*
X246532D01*
X248500Y213701D02*
X249287D01*
X248893D01*
Y211339D01*
X248500D01*
X254403D02*
X253616D01*
X254010D01*
Y213307D01*
X253616Y213701D01*
X253223D01*
X252829Y213307D01*
X255190Y211733D02*
X255584Y211339D01*
X256371D01*
X256765Y211733D01*
Y212126D01*
X256371Y212520D01*
X255978D01*
X256371D01*
X256765Y212914D01*
Y213307D01*
X256371Y213701D01*
X255584D01*
X255190Y213307D01*
X259913Y213701D02*
Y211339D01*
X261094D01*
X261488Y211733D01*
Y212520D01*
X261094Y212914D01*
X259913D01*
X260700D02*
X261488Y213701D01*
X263456D02*
X262668D01*
X262275Y213307D01*
Y212520D01*
X262668Y212126D01*
X263456D01*
X263849Y212520D01*
Y212914D01*
X262275D01*
X264636Y213701D02*
Y212126D01*
X265030D01*
X265423Y212520D01*
Y213701D01*
Y212520D01*
X265817Y212126D01*
X266211Y212520D01*
Y213701D01*
X267391D02*
X268178D01*
X268572Y213307D01*
Y212520D01*
X268178Y212126D01*
X267391D01*
X266998Y212520D01*
Y213307D01*
X267391Y213701D01*
X269359Y212126D02*
X270146Y213701D01*
X270933Y212126D01*
X272901Y213701D02*
X272114D01*
X271721Y213307D01*
Y212520D01*
X272114Y212126D01*
X272901D01*
X273295Y212520D01*
Y212914D01*
X271721D01*
X278018Y211339D02*
X277231D01*
X277624D01*
Y213307D01*
X277231Y213701D01*
X276837D01*
X276444Y213307D01*
X280379Y213701D02*
X278805D01*
X280379Y212126D01*
Y211733D01*
X279986Y211339D01*
X279199D01*
X278805Y211733D01*
X283921Y212126D02*
X284708D01*
X285102Y212520D01*
Y213701D01*
X283921D01*
X283528Y213307D01*
X283921Y212914D01*
X285102D01*
X285889Y213701D02*
Y212126D01*
X287070D01*
X287463Y212520D01*
Y213701D01*
X289825Y211339D02*
Y213701D01*
X288644D01*
X288251Y213307D01*
Y212520D01*
X288644Y212126D01*
X289825D01*
X292973Y211339D02*
Y213701D01*
Y212914D01*
X294548Y211339D01*
X293367Y212520D01*
X294548Y213701D01*
X295335D02*
X296122D01*
X295729D01*
Y211339D01*
X295335Y211733D01*
X235512Y240806D02*
X237086D01*
X236299D01*
Y243167D01*
X238267D02*
X239054D01*
X239448Y242774D01*
Y241987D01*
X239054Y241593D01*
X238267D01*
X237873Y241987D01*
Y242774D01*
X238267Y243167D01*
X242596Y243955D02*
Y241593D01*
X243777D01*
X244170Y241987D01*
Y242774D01*
X243777Y243167D01*
X242596D01*
X245351D02*
X246138D01*
X246532Y242774D01*
Y241987D01*
X246138Y241593D01*
X245351D01*
X244958Y241987D01*
Y242774D01*
X245351Y243167D01*
X247319Y241593D02*
Y242774D01*
X247713Y243167D01*
X248106Y242774D01*
X248500Y243167D01*
X248893Y242774D01*
Y241593D01*
X250861Y243167D02*
X250074D01*
X249680Y242774D01*
Y241987D01*
X250074Y241593D01*
X250861D01*
X251255Y241987D01*
Y242380D01*
X249680D01*
X252042Y241593D02*
Y243167D01*
Y242380D01*
X252435Y241987D01*
X252829Y241593D01*
X253223D01*
X257158D02*
X257946D01*
X258339Y241987D01*
Y243167D01*
X257158D01*
X256765Y242774D01*
X257158Y242380D01*
X258339D01*
X263062Y240806D02*
X261488D01*
Y241987D01*
X262275Y241593D01*
X262668D01*
X263062Y241987D01*
Y242774D01*
X262668Y243167D01*
X261881D01*
X261488Y242774D01*
X263849Y240806D02*
Y242380D01*
X264636Y243167D01*
X265423Y242380D01*
Y240806D01*
X270146Y241200D02*
X269753Y240806D01*
X268966D01*
X268572Y241200D01*
Y241593D01*
X268966Y241987D01*
X269753D01*
X270146Y242380D01*
Y242774D01*
X269753Y243167D01*
X268966D01*
X268572Y242774D01*
X272508Y241200D02*
X272114Y240806D01*
X271327D01*
X270934Y241200D01*
Y241593D01*
X271327Y241987D01*
X272114D01*
X272508Y242380D01*
Y242774D01*
X272114Y243167D01*
X271327D01*
X270934Y242774D01*
X273295Y243167D02*
Y240806D01*
X274476D01*
X274869Y241200D01*
Y241987D01*
X274476Y242380D01*
X273295D01*
X274082D02*
X274869Y243167D01*
X279592Y241200D02*
X279199Y240806D01*
X278411D01*
X278018Y241200D01*
Y241593D01*
X278411Y241987D01*
X279199D01*
X279592Y242380D01*
Y242774D01*
X279199Y243167D01*
X278411D01*
X278018Y242774D01*
X280379Y240806D02*
Y243167D01*
Y241987D01*
X280773Y241593D01*
X281560D01*
X281954Y241987D01*
Y243167D01*
X283134D02*
X283921D01*
X284315Y242774D01*
Y241987D01*
X283921Y241593D01*
X283134D01*
X282741Y241987D01*
Y242774D01*
X283134Y243167D01*
X285102Y241593D02*
Y243167D01*
Y242380D01*
X285496Y241987D01*
X285889Y241593D01*
X286283D01*
X287857Y241200D02*
Y241593D01*
X287464D01*
X288251D01*
X287857D01*
Y242774D01*
X288251Y243167D01*
X291793Y240806D02*
Y243167D01*
X292974D01*
X293367Y242774D01*
Y242380D01*
X292974Y241987D01*
X291793D01*
X292974D01*
X293367Y241593D01*
Y241200D01*
X292974Y240806D01*
X291793D01*
X294154Y243167D02*
X294941D01*
X294548D01*
Y240806D01*
X294154Y241200D01*
X235512Y247922D02*
Y245561D01*
X236693D01*
X237086Y245954D01*
Y246742D01*
X236693Y247135D01*
X235512D01*
X237873Y247922D02*
X238661D01*
X238267D01*
Y246348D01*
X237873D01*
X239841Y247922D02*
Y246348D01*
X241022D01*
X241416Y246742D01*
Y247922D01*
X246138D02*
X244564D01*
X246138Y246348D01*
Y245954D01*
X245745Y245561D01*
X244958D01*
X244564Y245954D01*
X246925Y246348D02*
X247319D01*
Y246742D01*
X246925D01*
Y246348D01*
Y247529D02*
X247319D01*
Y247922D01*
X246925D01*
Y247529D01*
X252829Y245954D02*
X252435Y245561D01*
X251648D01*
X251255Y245954D01*
Y246348D01*
X251648Y246742D01*
X252435D01*
X252829Y247135D01*
Y247529D01*
X252435Y247922D01*
X251648D01*
X251255Y247529D01*
X255190Y245954D02*
X254797Y245561D01*
X254010D01*
X253616Y245954D01*
Y246348D01*
X254010Y246742D01*
X254797D01*
X255190Y247135D01*
Y247529D01*
X254797Y247922D01*
X254010D01*
X253616Y247529D01*
X255978Y247922D02*
Y245561D01*
X257158D01*
X257552Y245954D01*
Y246742D01*
X257158Y247135D01*
X255978D01*
X256765D02*
X257552Y247922D01*
X260701Y246742D02*
X262275D01*
X261488Y245954D02*
Y247529D01*
X237086Y249922D02*
X236693Y249528D01*
X235906D01*
X235512Y249922D01*
Y251496D01*
X235906Y251890D01*
X236693D01*
X237086Y251496D01*
Y250709D01*
X236299D01*
X237873Y251890D02*
Y249528D01*
X239448Y251890D01*
Y249528D01*
X240235D02*
Y251890D01*
X241416D01*
X241809Y251496D01*
Y249922D01*
X241416Y249528D01*
X240235D01*
X242596Y250315D02*
X242990D01*
Y250709D01*
X242596D01*
Y250315D01*
Y251496D02*
X242990D01*
Y251890D01*
X242596D01*
Y251496D01*
X253223Y249922D02*
X252829Y249528D01*
X252042D01*
X251648Y249922D01*
Y250315D01*
X252042Y250709D01*
X252829D01*
X253223Y251103D01*
Y251496D01*
X252829Y251890D01*
X252042D01*
X251648Y251496D01*
X255584Y249922D02*
X255190Y249528D01*
X254403D01*
X254010Y249922D01*
Y250315D01*
X254403Y250709D01*
X255190D01*
X255584Y251103D01*
Y251496D01*
X255190Y251890D01*
X254403D01*
X254010Y251496D01*
X256371Y251890D02*
Y249528D01*
X257552D01*
X257946Y249922D01*
Y250709D01*
X257552Y251103D01*
X256371D01*
X257158D02*
X257946Y251890D01*
X261094Y250709D02*
X262668D01*
X226379Y216418D02*
Y218779D01*
X227559D01*
X227953Y218386D01*
Y217992D01*
X227559Y217599D01*
X226379D01*
X227559D01*
X227953Y217205D01*
Y216811D01*
X227559Y216418D01*
X226379D01*
X230314Y218779D02*
X228740D01*
X230314Y217205D01*
Y216811D01*
X229921Y216418D01*
X229134D01*
X228740Y216811D01*
X226379Y233977D02*
Y236338D01*
X227559D01*
X227953Y235945D01*
Y235551D01*
X227559Y235158D01*
X226379D01*
X227559D01*
X227953Y234764D01*
Y234370D01*
X227559Y233977D01*
X226379D01*
X228740Y234370D02*
X229134Y233977D01*
X229921D01*
X230314Y234370D01*
Y234764D01*
X229921Y235158D01*
X229527D01*
X229921D01*
X230314Y235551D01*
Y235945D01*
X229921Y236338D01*
X229134D01*
X228740Y235945D01*
X206890Y248032D02*
Y250393D01*
X208071D01*
X208465Y250000D01*
Y249606D01*
X208071Y249213D01*
X206890D01*
X208071D01*
X208465Y248819D01*
Y248426D01*
X208071Y248032D01*
X206890D01*
X209252Y250393D02*
X210039D01*
X209645D01*
Y248032D01*
X209252Y248426D01*
X70157Y282963D02*
X71732D01*
X70945D01*
Y285324D01*
X72913D02*
X73700D01*
X74093Y284930D01*
Y284143D01*
X73700Y283750D01*
X72913D01*
X72519Y284143D01*
Y284930D01*
X72913Y285324D01*
X77242Y286111D02*
Y283750D01*
X78423D01*
X78816Y284143D01*
Y284930D01*
X78423Y285324D01*
X77242D01*
X79997D02*
X80784D01*
X81178Y284930D01*
Y284143D01*
X80784Y283750D01*
X79997D01*
X79603Y284143D01*
Y284930D01*
X79997Y285324D01*
X81965Y283750D02*
Y284930D01*
X82358Y285324D01*
X82752Y284930D01*
X83145Y285324D01*
X83539Y284930D01*
Y283750D01*
X85507Y285324D02*
X84720D01*
X84326Y284930D01*
Y284143D01*
X84720Y283750D01*
X85507D01*
X85900Y284143D01*
Y284537D01*
X84326D01*
X86688Y283750D02*
Y285324D01*
Y284537D01*
X87081Y284143D01*
X87475Y283750D01*
X87868D01*
X91410Y285324D02*
Y282963D01*
X92591D01*
X92985Y283356D01*
Y284143D01*
X92591Y284537D01*
X91410D01*
X93772Y282963D02*
Y285324D01*
X94559Y284537D01*
X95346Y285324D01*
Y282963D01*
X96133Y285324D02*
Y282963D01*
X96921Y283750D01*
X97708Y282963D01*
Y285324D01*
X102430Y282963D02*
X100856D01*
Y284143D01*
X101643D01*
X100856D01*
Y285324D01*
X103218D02*
Y283750D01*
X104005Y282963D01*
X104792Y283750D01*
Y285324D01*
Y284143D01*
X103218D01*
X105579Y285324D02*
Y282963D01*
X107153Y285324D01*
Y282963D01*
X111876Y283356D02*
X111483Y282963D01*
X110696D01*
X110302Y283356D01*
Y283750D01*
X110696Y284143D01*
X111483D01*
X111876Y284537D01*
Y284930D01*
X111483Y285324D01*
X110696D01*
X110302Y284930D01*
X112663Y282963D02*
Y285324D01*
Y284143D01*
X113057Y283750D01*
X113844D01*
X114238Y284143D01*
Y285324D01*
X115418D02*
X116206D01*
X116599Y284930D01*
Y284143D01*
X116206Y283750D01*
X115418D01*
X115025Y284143D01*
Y284930D01*
X115418Y285324D01*
X117386Y283750D02*
Y285324D01*
Y284537D01*
X117780Y284143D01*
X118174Y283750D01*
X118567D01*
X120141Y283356D02*
Y283750D01*
X119748D01*
X120535D01*
X120141D01*
Y284930D01*
X120535Y285324D01*
X124077Y282963D02*
Y285324D01*
X125258D01*
X125651Y284930D01*
Y284537D01*
X125258Y284143D01*
X124077D01*
X125258D01*
X125651Y283750D01*
Y283356D01*
X125258Y282963D01*
X124077D01*
X126438Y283356D02*
X126832Y282963D01*
X127619D01*
X128013Y283356D01*
Y283750D01*
X127619Y284143D01*
X127226D01*
X127619D01*
X128013Y284537D01*
Y284930D01*
X127619Y285324D01*
X126832D01*
X126438Y284930D01*
X70157Y287717D02*
X70945D01*
X70551D01*
Y290079D01*
X70157D01*
X70945D01*
X72125D02*
Y288505D01*
X73306D01*
X73700Y288898D01*
Y290079D01*
X74487D02*
X75668D01*
X76061Y289685D01*
X75668Y289292D01*
X74880D01*
X74487Y288898D01*
X74880Y288505D01*
X76061D01*
X77242Y288111D02*
Y288505D01*
X76848D01*
X77635D01*
X77242D01*
Y289685D01*
X77635Y290079D01*
X79210Y288505D02*
X79997D01*
X80390Y288898D01*
Y290079D01*
X79210D01*
X78816Y289685D01*
X79210Y289292D01*
X80390D01*
X81178Y290079D02*
X81965D01*
X81571D01*
Y287717D01*
X81178D01*
X83145Y290079D02*
X83933D01*
X83539D01*
Y287717D01*
X83145D01*
X89049D02*
X88262D01*
X88655D01*
Y289685D01*
X88262Y290079D01*
X87868D01*
X87475Y289685D01*
X89836Y288111D02*
X90230Y287717D01*
X91017D01*
X91410Y288111D01*
Y288505D01*
X91017Y288898D01*
X90623D01*
X91017D01*
X91410Y289292D01*
Y289685D01*
X91017Y290079D01*
X90230D01*
X89836Y289685D01*
X94559Y290079D02*
Y287717D01*
X95740D01*
X96133Y288111D01*
Y288898D01*
X95740Y289292D01*
X94559D01*
X95346D02*
X96133Y290079D01*
X98101D02*
X97314D01*
X96921Y289685D01*
Y288898D01*
X97314Y288505D01*
X98101D01*
X98495Y288898D01*
Y289292D01*
X96921D01*
X99282Y290079D02*
Y288505D01*
X99676D01*
X100069Y288898D01*
Y290079D01*
Y288898D01*
X100463Y288505D01*
X100856Y288898D01*
Y290079D01*
X102037D02*
X102824D01*
X103218Y289685D01*
Y288898D01*
X102824Y288505D01*
X102037D01*
X101643Y288898D01*
Y289685D01*
X102037Y290079D01*
X104005Y288505D02*
X104792Y290079D01*
X105579Y288505D01*
X107547Y290079D02*
X106760D01*
X106366Y289685D01*
Y288898D01*
X106760Y288505D01*
X107547D01*
X107940Y288898D01*
Y289292D01*
X106366D01*
X112663Y287717D02*
X111876D01*
X112270D01*
Y289685D01*
X111876Y290079D01*
X111483D01*
X111089Y289685D01*
X115025Y290079D02*
X113451D01*
X115025Y288505D01*
Y288111D01*
X114631Y287717D01*
X113844D01*
X113451Y288111D01*
X118567Y288505D02*
X119354D01*
X119748Y288898D01*
Y290079D01*
X118567D01*
X118173Y289685D01*
X118567Y289292D01*
X119748D01*
X120535Y290079D02*
Y288505D01*
X121716D01*
X122109Y288898D01*
Y290079D01*
X124471Y287717D02*
Y290079D01*
X123290D01*
X122896Y289685D01*
Y288898D01*
X123290Y288505D01*
X124471D01*
X127619Y287717D02*
Y290079D01*
Y289292D01*
X129193Y287717D01*
X128013Y288898D01*
X129193Y290079D01*
X129981D02*
X130768D01*
X130374D01*
Y287717D01*
X129981Y288111D01*
X70157Y265640D02*
X71732D01*
X70945D01*
Y268001D01*
X72913D02*
X73700D01*
X74093Y267608D01*
Y266821D01*
X73700Y266427D01*
X72913D01*
X72519Y266821D01*
Y267608D01*
X72913Y268001D01*
X77242Y268788D02*
Y266427D01*
X78423D01*
X78816Y266821D01*
Y267608D01*
X78423Y268001D01*
X77242D01*
X79997D02*
X80784D01*
X81178Y267608D01*
Y266821D01*
X80784Y266427D01*
X79997D01*
X79603Y266821D01*
Y267608D01*
X79997Y268001D01*
X81965Y266427D02*
Y267608D01*
X82358Y268001D01*
X82752Y267608D01*
X83145Y268001D01*
X83539Y267608D01*
Y266427D01*
X85507Y268001D02*
X84720D01*
X84326Y267608D01*
Y266821D01*
X84720Y266427D01*
X85507D01*
X85900Y266821D01*
Y267214D01*
X84326D01*
X86688Y266427D02*
Y268001D01*
Y267214D01*
X87081Y266821D01*
X87475Y266427D01*
X87868D01*
X92985Y266033D02*
X92591Y265640D01*
X91804D01*
X91410Y266033D01*
Y266427D01*
X91804Y266821D01*
X92591D01*
X92985Y267214D01*
Y267608D01*
X92591Y268001D01*
X91804D01*
X91410Y267608D01*
X93772Y265640D02*
X95346D01*
X94559D01*
Y268001D01*
X96133Y265640D02*
Y268001D01*
X97314D01*
X97708Y267608D01*
Y266033D01*
X97314Y265640D01*
X96133D01*
X102430D02*
X100856D01*
Y266821D01*
X101643D01*
X100856D01*
Y268001D01*
X103218D02*
Y266427D01*
X104005Y265640D01*
X104792Y266427D01*
Y268001D01*
Y266821D01*
X103218D01*
X105579Y268001D02*
Y265640D01*
X107153Y268001D01*
Y265640D01*
X111876Y266033D02*
X111483Y265640D01*
X110696D01*
X110302Y266033D01*
Y266427D01*
X110696Y266821D01*
X111483D01*
X111876Y267214D01*
Y267608D01*
X111483Y268001D01*
X110696D01*
X110302Y267608D01*
X112663Y265640D02*
Y268001D01*
Y266821D01*
X113057Y266427D01*
X113844D01*
X114238Y266821D01*
Y268001D01*
X115418D02*
X116206D01*
X116599Y267608D01*
Y266821D01*
X116206Y266427D01*
X115418D01*
X115025Y266821D01*
Y267608D01*
X115418Y268001D01*
X117386Y266427D02*
Y268001D01*
Y267214D01*
X117780Y266821D01*
X118174Y266427D01*
X118567D01*
X120141Y266033D02*
Y266427D01*
X119748D01*
X120535D01*
X120141D01*
Y267608D01*
X120535Y268001D01*
X124077Y265640D02*
Y268001D01*
X125258D01*
X125651Y267608D01*
Y267214D01*
X125258Y266821D01*
X124077D01*
X125258D01*
X125651Y266427D01*
Y266033D01*
X125258Y265640D01*
X124077D01*
X128013Y268001D02*
X126438D01*
X128013Y266427D01*
Y266033D01*
X127619Y265640D01*
X126832D01*
X126438Y266033D01*
X70157Y270394D02*
X70945D01*
X70551D01*
Y272756D01*
X70157D01*
X70945D01*
X72125D02*
Y271182D01*
X73306D01*
X73700Y271575D01*
Y272756D01*
X74487D02*
X75668D01*
X76061Y272362D01*
X75668Y271969D01*
X74880D01*
X74487Y271575D01*
X74880Y271182D01*
X76061D01*
X77242Y270788D02*
Y271182D01*
X76848D01*
X77635D01*
X77242D01*
Y272362D01*
X77635Y272756D01*
X79210Y271182D02*
X79997D01*
X80390Y271575D01*
Y272756D01*
X79210D01*
X78816Y272362D01*
X79210Y271969D01*
X80390D01*
X81178Y272756D02*
X81965D01*
X81571D01*
Y270394D01*
X81178D01*
X83145Y272756D02*
X83933D01*
X83539D01*
Y270394D01*
X83145D01*
X89049D02*
X88262D01*
X88655D01*
Y272362D01*
X88262Y272756D01*
X87868D01*
X87475Y272362D01*
X89836Y270788D02*
X90230Y270394D01*
X91017D01*
X91410Y270788D01*
Y271182D01*
X91017Y271575D01*
X90623D01*
X91017D01*
X91410Y271969D01*
Y272362D01*
X91017Y272756D01*
X90230D01*
X89836Y272362D01*
X94559Y272756D02*
Y270394D01*
X95740D01*
X96133Y270788D01*
Y271575D01*
X95740Y271969D01*
X94559D01*
X95346D02*
X96133Y272756D01*
X98101D02*
X97314D01*
X96921Y272362D01*
Y271575D01*
X97314Y271182D01*
X98101D01*
X98495Y271575D01*
Y271969D01*
X96921D01*
X99282Y272756D02*
Y271182D01*
X99676D01*
X100069Y271575D01*
Y272756D01*
Y271575D01*
X100463Y271182D01*
X100856Y271575D01*
Y272756D01*
X102037D02*
X102824D01*
X103218Y272362D01*
Y271575D01*
X102824Y271182D01*
X102037D01*
X101643Y271575D01*
Y272362D01*
X102037Y272756D01*
X104005Y271182D02*
X104792Y272756D01*
X105579Y271182D01*
X107547Y272756D02*
X106760D01*
X106366Y272362D01*
Y271575D01*
X106760Y271182D01*
X107547D01*
X107940Y271575D01*
Y271969D01*
X106366D01*
X112663Y270394D02*
X111876D01*
X112270D01*
Y272362D01*
X111876Y272756D01*
X111483D01*
X111089Y272362D01*
X115025Y272756D02*
X113451D01*
X115025Y271182D01*
Y270788D01*
X114631Y270394D01*
X113844D01*
X113451Y270788D01*
X118567Y271182D02*
X119354D01*
X119748Y271575D01*
Y272756D01*
X118567D01*
X118173Y272362D01*
X118567Y271969D01*
X119748D01*
X120535Y272756D02*
Y271182D01*
X121716D01*
X122109Y271575D01*
Y272756D01*
X124471Y270394D02*
Y272756D01*
X123290D01*
X122896Y272362D01*
Y271575D01*
X123290Y271182D01*
X124471D01*
X127619Y270394D02*
Y272756D01*
Y271969D01*
X129193Y270394D01*
X128013Y271575D01*
X129193Y272756D01*
X129981D02*
X130768D01*
X130374D01*
Y270394D01*
X129981Y270788D01*
X70157Y299861D02*
X71732D01*
X70945D01*
Y302223D01*
X72913D02*
X73700D01*
X74093Y301829D01*
Y301042D01*
X73700Y300648D01*
X72913D01*
X72519Y301042D01*
Y301829D01*
X72913Y302223D01*
X77242Y303010D02*
Y300648D01*
X78423D01*
X78816Y301042D01*
Y301829D01*
X78423Y302223D01*
X77242D01*
X79997D02*
X80784D01*
X81178Y301829D01*
Y301042D01*
X80784Y300648D01*
X79997D01*
X79603Y301042D01*
Y301829D01*
X79997Y302223D01*
X81965Y300648D02*
Y301829D01*
X82358Y302223D01*
X82752Y301829D01*
X83145Y302223D01*
X83539Y301829D01*
Y300648D01*
X85507Y302223D02*
X84720D01*
X84326Y301829D01*
Y301042D01*
X84720Y300648D01*
X85507D01*
X85900Y301042D01*
Y301435D01*
X84326D01*
X86688Y300648D02*
Y302223D01*
Y301435D01*
X87081Y301042D01*
X87475Y300648D01*
X87868D01*
X91804D02*
X92591D01*
X92985Y301042D01*
Y302223D01*
X91804D01*
X91410Y301829D01*
X91804Y301435D01*
X92985D01*
X97708Y299861D02*
X96133D01*
Y301042D01*
X96921Y300648D01*
X97314D01*
X97708Y301042D01*
Y301829D01*
X97314Y302223D01*
X96527D01*
X96133Y301829D01*
X98495Y299861D02*
Y301435D01*
X99282Y302223D01*
X100069Y301435D01*
Y299861D01*
X104792Y300255D02*
X104398Y299861D01*
X103611D01*
X103218Y300255D01*
Y300648D01*
X103611Y301042D01*
X104398D01*
X104792Y301435D01*
Y301829D01*
X104398Y302223D01*
X103611D01*
X103218Y301829D01*
X107153Y300255D02*
X106760Y299861D01*
X105973D01*
X105579Y300255D01*
Y300648D01*
X105973Y301042D01*
X106760D01*
X107153Y301435D01*
Y301829D01*
X106760Y302223D01*
X105973D01*
X105579Y301829D01*
X107941Y302223D02*
Y299861D01*
X109121D01*
X109515Y300255D01*
Y301042D01*
X109121Y301435D01*
X107941D01*
X108728D02*
X109515Y302223D01*
X114238Y300255D02*
X113844Y299861D01*
X113057D01*
X112663Y300255D01*
Y300648D01*
X113057Y301042D01*
X113844D01*
X114238Y301435D01*
Y301829D01*
X113844Y302223D01*
X113057D01*
X112663Y301829D01*
X115025Y299861D02*
Y302223D01*
Y301042D01*
X115419Y300648D01*
X116206D01*
X116599Y301042D01*
Y302223D01*
X117780D02*
X118567D01*
X118961Y301829D01*
Y301042D01*
X118567Y300648D01*
X117780D01*
X117386Y301042D01*
Y301829D01*
X117780Y302223D01*
X119748Y300648D02*
Y302223D01*
Y301435D01*
X120141Y301042D01*
X120535Y300648D01*
X120929D01*
X122503Y300255D02*
Y300648D01*
X122109D01*
X122896D01*
X122503D01*
Y301829D01*
X122896Y302223D01*
X126438Y299861D02*
Y302223D01*
X127619D01*
X128013Y301829D01*
Y301435D01*
X127619Y301042D01*
X126438D01*
X127619D01*
X128013Y300648D01*
Y300255D01*
X127619Y299861D01*
X126438D01*
X128800Y302223D02*
X129587D01*
X129193D01*
Y299861D01*
X128800Y300255D01*
X70157Y306977D02*
Y304616D01*
X71338D01*
X71732Y305010D01*
Y305797D01*
X71338Y306190D01*
X70157D01*
X72519Y306977D02*
X73306D01*
X72913D01*
Y305403D01*
X72519D01*
X74487Y306977D02*
Y305403D01*
X75668D01*
X76061Y305797D01*
Y306977D01*
X80784D02*
X79210D01*
X80784Y305403D01*
Y305010D01*
X80390Y304616D01*
X79603D01*
X79210Y305010D01*
X81571Y305403D02*
X81965D01*
Y305797D01*
X81571D01*
Y305403D01*
Y306584D02*
X81965D01*
Y306977D01*
X81571D01*
Y306584D01*
X87475Y305010D02*
X87081Y304616D01*
X86294D01*
X85900Y305010D01*
Y305403D01*
X86294Y305797D01*
X87081D01*
X87475Y306190D01*
Y306584D01*
X87081Y306977D01*
X86294D01*
X85900Y306584D01*
X89836Y305010D02*
X89443Y304616D01*
X88656D01*
X88262Y305010D01*
Y305403D01*
X88656Y305797D01*
X89443D01*
X89836Y306190D01*
Y306584D01*
X89443Y306977D01*
X88656D01*
X88262Y306584D01*
X90623Y306977D02*
Y304616D01*
X91804D01*
X92198Y305010D01*
Y305797D01*
X91804Y306190D01*
X90623D01*
X91410D02*
X92198Y306977D01*
X95346Y305797D02*
X96921D01*
X96133Y305010D02*
Y306584D01*
X71732Y308977D02*
X71338Y308583D01*
X70551D01*
X70157Y308977D01*
Y310551D01*
X70551Y310945D01*
X71338D01*
X71732Y310551D01*
Y309764D01*
X70945D01*
X72519Y310945D02*
Y308583D01*
X74093Y310945D01*
Y308583D01*
X74880D02*
Y310945D01*
X76061D01*
X76455Y310551D01*
Y308977D01*
X76061Y308583D01*
X74880D01*
X77242Y309371D02*
X77635D01*
Y309764D01*
X77242D01*
Y309371D01*
Y310551D02*
X77635D01*
Y310945D01*
X77242D01*
Y310551D01*
X87868Y308977D02*
X87475Y308583D01*
X86688D01*
X86294Y308977D01*
Y309371D01*
X86688Y309764D01*
X87475D01*
X87868Y310158D01*
Y310551D01*
X87475Y310945D01*
X86688D01*
X86294Y310551D01*
X90230Y308977D02*
X89836Y308583D01*
X89049D01*
X88656Y308977D01*
Y309371D01*
X89049Y309764D01*
X89836D01*
X90230Y310158D01*
Y310551D01*
X89836Y310945D01*
X89049D01*
X88656Y310551D01*
X91017Y310945D02*
Y308583D01*
X92198D01*
X92591Y308977D01*
Y309764D01*
X92198Y310158D01*
X91017D01*
X91804D02*
X92591Y310945D01*
X95740Y309764D02*
X97314D01*
X61024Y275473D02*
Y277834D01*
X62205D01*
X62599Y277441D01*
Y277047D01*
X62205Y276654D01*
X61024D01*
X62205D01*
X62599Y276260D01*
Y275867D01*
X62205Y275473D01*
X61024D01*
X64960Y277834D02*
X63386D01*
X64960Y276260D01*
Y275867D01*
X64566Y275473D01*
X63779D01*
X63386Y275867D01*
X61024Y293032D02*
Y295393D01*
X62205D01*
X62599Y295000D01*
Y294606D01*
X62205Y294213D01*
X61024D01*
X62205D01*
X62599Y293819D01*
Y293426D01*
X62205Y293032D01*
X61024D01*
X63386Y293426D02*
X63779Y293032D01*
X64566D01*
X64960Y293426D01*
Y293819D01*
X64566Y294213D01*
X64173D01*
X64566D01*
X64960Y294606D01*
Y295000D01*
X64566Y295393D01*
X63779D01*
X63386Y295000D01*
X41536Y307087D02*
Y309449D01*
X42717D01*
X43110Y309055D01*
Y308661D01*
X42717Y308268D01*
X41536D01*
X42717D01*
X43110Y307874D01*
Y307481D01*
X42717Y307087D01*
X41536D01*
X43897Y309449D02*
X44685D01*
X44291D01*
Y307087D01*
X43897Y307481D01*
X235512Y282963D02*
X237086D01*
X236299D01*
Y285324D01*
X238267D02*
X239054D01*
X239448Y284930D01*
Y284143D01*
X239054Y283750D01*
X238267D01*
X237873Y284143D01*
Y284930D01*
X238267Y285324D01*
X242596Y286111D02*
Y283750D01*
X243777D01*
X244170Y284143D01*
Y284930D01*
X243777Y285324D01*
X242596D01*
X245351D02*
X246138D01*
X246532Y284930D01*
Y284143D01*
X246138Y283750D01*
X245351D01*
X244958Y284143D01*
Y284930D01*
X245351Y285324D01*
X247319Y283750D02*
Y284930D01*
X247713Y285324D01*
X248106Y284930D01*
X248500Y285324D01*
X248893Y284930D01*
Y283750D01*
X250861Y285324D02*
X250074D01*
X249680Y284930D01*
Y284143D01*
X250074Y283750D01*
X250861D01*
X251255Y284143D01*
Y284537D01*
X249680D01*
X252042Y283750D02*
Y285324D01*
Y284537D01*
X252435Y284143D01*
X252829Y283750D01*
X253223D01*
X256765Y285324D02*
Y282963D01*
X257946D01*
X258339Y283356D01*
Y284143D01*
X257946Y284537D01*
X256765D01*
X259126Y282963D02*
Y285324D01*
X259913Y284537D01*
X260701Y285324D01*
Y282963D01*
X261488Y285324D02*
Y282963D01*
X262275Y283750D01*
X263062Y282963D01*
Y285324D01*
X267785Y282963D02*
X266211D01*
Y284143D01*
X266998D01*
X266211D01*
Y285324D01*
X268572D02*
Y283750D01*
X269359Y282963D01*
X270146Y283750D01*
Y285324D01*
Y284143D01*
X268572D01*
X270934Y285324D02*
Y282963D01*
X272508Y285324D01*
Y282963D01*
X277231Y283356D02*
X276837Y282963D01*
X276050D01*
X275656Y283356D01*
Y283750D01*
X276050Y284143D01*
X276837D01*
X277231Y284537D01*
Y284930D01*
X276837Y285324D01*
X276050D01*
X275656Y284930D01*
X278018Y282963D02*
Y285324D01*
Y284143D01*
X278411Y283750D01*
X279199D01*
X279592Y284143D01*
Y285324D01*
X280773D02*
X281560D01*
X281954Y284930D01*
Y284143D01*
X281560Y283750D01*
X280773D01*
X280379Y284143D01*
Y284930D01*
X280773Y285324D01*
X282741Y283750D02*
Y285324D01*
Y284537D01*
X283134Y284143D01*
X283528Y283750D01*
X283921D01*
X285496Y283356D02*
Y283750D01*
X285102D01*
X285889D01*
X285496D01*
Y284930D01*
X285889Y285324D01*
X289431Y282963D02*
Y285324D01*
X290612D01*
X291006Y284930D01*
Y284537D01*
X290612Y284143D01*
X289431D01*
X290612D01*
X291006Y283750D01*
Y283356D01*
X290612Y282963D01*
X289431D01*
X291793Y283356D02*
X292186Y282963D01*
X292974D01*
X293367Y283356D01*
Y283750D01*
X292974Y284143D01*
X292580D01*
X292974D01*
X293367Y284537D01*
Y284930D01*
X292974Y285324D01*
X292186D01*
X291793Y284930D01*
X235512Y287717D02*
X236299D01*
X235905D01*
Y290079D01*
X235512D01*
X236299D01*
X237480D02*
Y288505D01*
X238660D01*
X239054Y288898D01*
Y290079D01*
X239841D02*
X241022D01*
X241416Y289685D01*
X241022Y289292D01*
X240235D01*
X239841Y288898D01*
X240235Y288505D01*
X241416D01*
X242596Y288111D02*
Y288505D01*
X242203D01*
X242990D01*
X242596D01*
Y289685D01*
X242990Y290079D01*
X244564Y288505D02*
X245351D01*
X245745Y288898D01*
Y290079D01*
X244564D01*
X244170Y289685D01*
X244564Y289292D01*
X245745D01*
X246532Y290079D02*
X247319D01*
X246925D01*
Y287717D01*
X246532D01*
X248500Y290079D02*
X249287D01*
X248893D01*
Y287717D01*
X248500D01*
X254403D02*
X253616D01*
X254010D01*
Y289685D01*
X253616Y290079D01*
X253223D01*
X252829Y289685D01*
X255190Y288111D02*
X255584Y287717D01*
X256371D01*
X256765Y288111D01*
Y288505D01*
X256371Y288898D01*
X255978D01*
X256371D01*
X256765Y289292D01*
Y289685D01*
X256371Y290079D01*
X255584D01*
X255190Y289685D01*
X259913Y290079D02*
Y287717D01*
X261094D01*
X261488Y288111D01*
Y288898D01*
X261094Y289292D01*
X259913D01*
X260700D02*
X261488Y290079D01*
X263456D02*
X262668D01*
X262275Y289685D01*
Y288898D01*
X262668Y288505D01*
X263456D01*
X263849Y288898D01*
Y289292D01*
X262275D01*
X264636Y290079D02*
Y288505D01*
X265030D01*
X265423Y288898D01*
Y290079D01*
Y288898D01*
X265817Y288505D01*
X266211Y288898D01*
Y290079D01*
X267391D02*
X268178D01*
X268572Y289685D01*
Y288898D01*
X268178Y288505D01*
X267391D01*
X266998Y288898D01*
Y289685D01*
X267391Y290079D01*
X269359Y288505D02*
X270146Y290079D01*
X270933Y288505D01*
X272901Y290079D02*
X272114D01*
X271721Y289685D01*
Y288898D01*
X272114Y288505D01*
X272901D01*
X273295Y288898D01*
Y289292D01*
X271721D01*
X278018Y287717D02*
X277231D01*
X277624D01*
Y289685D01*
X277231Y290079D01*
X276837D01*
X276444Y289685D01*
X280379Y290079D02*
X278805D01*
X280379Y288505D01*
Y288111D01*
X279986Y287717D01*
X279199D01*
X278805Y288111D01*
X283921Y288505D02*
X284708D01*
X285102Y288898D01*
Y290079D01*
X283921D01*
X283528Y289685D01*
X283921Y289292D01*
X285102D01*
X285889Y290079D02*
Y288505D01*
X287070D01*
X287463Y288898D01*
Y290079D01*
X289825Y287717D02*
Y290079D01*
X288644D01*
X288251Y289685D01*
Y288898D01*
X288644Y288505D01*
X289825D01*
X292973Y287717D02*
Y290079D01*
Y289292D01*
X294548Y287717D01*
X293367Y288898D01*
X294548Y290079D01*
X295335D02*
X296122D01*
X295729D01*
Y287717D01*
X295335Y288111D01*
X235512Y265640D02*
X237086D01*
X236299D01*
Y268001D01*
X238267D02*
X239054D01*
X239448Y267608D01*
Y266821D01*
X239054Y266427D01*
X238267D01*
X237873Y266821D01*
Y267608D01*
X238267Y268001D01*
X242596Y268788D02*
Y266427D01*
X243777D01*
X244170Y266821D01*
Y267608D01*
X243777Y268001D01*
X242596D01*
X245351D02*
X246138D01*
X246532Y267608D01*
Y266821D01*
X246138Y266427D01*
X245351D01*
X244958Y266821D01*
Y267608D01*
X245351Y268001D01*
X247319Y266427D02*
Y267608D01*
X247713Y268001D01*
X248106Y267608D01*
X248500Y268001D01*
X248893Y267608D01*
Y266427D01*
X250861Y268001D02*
X250074D01*
X249680Y267608D01*
Y266821D01*
X250074Y266427D01*
X250861D01*
X251255Y266821D01*
Y267214D01*
X249680D01*
X252042Y266427D02*
Y268001D01*
Y267214D01*
X252435Y266821D01*
X252829Y266427D01*
X253223D01*
X258339Y266033D02*
X257946Y265640D01*
X257158D01*
X256765Y266033D01*
Y266427D01*
X257158Y266821D01*
X257946D01*
X258339Y267214D01*
Y267608D01*
X257946Y268001D01*
X257158D01*
X256765Y267608D01*
X259126Y265640D02*
X260701D01*
X259913D01*
Y268001D01*
X261488Y265640D02*
Y268001D01*
X262668D01*
X263062Y267608D01*
Y266033D01*
X262668Y265640D01*
X261488D01*
X267785D02*
X266211D01*
Y266821D01*
X266998D01*
X266211D01*
Y268001D01*
X268572D02*
Y266427D01*
X269359Y265640D01*
X270146Y266427D01*
Y268001D01*
Y266821D01*
X268572D01*
X270934Y268001D02*
Y265640D01*
X272508Y268001D01*
Y265640D01*
X277231Y266033D02*
X276837Y265640D01*
X276050D01*
X275656Y266033D01*
Y266427D01*
X276050Y266821D01*
X276837D01*
X277231Y267214D01*
Y267608D01*
X276837Y268001D01*
X276050D01*
X275656Y267608D01*
X278018Y265640D02*
Y268001D01*
Y266821D01*
X278411Y266427D01*
X279199D01*
X279592Y266821D01*
Y268001D01*
X280773D02*
X281560D01*
X281954Y267608D01*
Y266821D01*
X281560Y266427D01*
X280773D01*
X280379Y266821D01*
Y267608D01*
X280773Y268001D01*
X282741Y266427D02*
Y268001D01*
Y267214D01*
X283134Y266821D01*
X283528Y266427D01*
X283921D01*
X285496Y266033D02*
Y266427D01*
X285102D01*
X285889D01*
X285496D01*
Y267608D01*
X285889Y268001D01*
X289431Y265640D02*
Y268001D01*
X290612D01*
X291006Y267608D01*
Y267214D01*
X290612Y266821D01*
X289431D01*
X290612D01*
X291006Y266427D01*
Y266033D01*
X290612Y265640D01*
X289431D01*
X293367Y268001D02*
X291793D01*
X293367Y266427D01*
Y266033D01*
X292974Y265640D01*
X292186D01*
X291793Y266033D01*
X235512Y270394D02*
X236299D01*
X235905D01*
Y272756D01*
X235512D01*
X236299D01*
X237480D02*
Y271182D01*
X238660D01*
X239054Y271575D01*
Y272756D01*
X239841D02*
X241022D01*
X241416Y272362D01*
X241022Y271969D01*
X240235D01*
X239841Y271575D01*
X240235Y271182D01*
X241416D01*
X242596Y270788D02*
Y271182D01*
X242203D01*
X242990D01*
X242596D01*
Y272362D01*
X242990Y272756D01*
X244564Y271182D02*
X245351D01*
X245745Y271575D01*
Y272756D01*
X244564D01*
X244170Y272362D01*
X244564Y271969D01*
X245745D01*
X246532Y272756D02*
X247319D01*
X246925D01*
Y270394D01*
X246532D01*
X248500Y272756D02*
X249287D01*
X248893D01*
Y270394D01*
X248500D01*
X254403D02*
X253616D01*
X254010D01*
Y272362D01*
X253616Y272756D01*
X253223D01*
X252829Y272362D01*
X255190Y270788D02*
X255584Y270394D01*
X256371D01*
X256765Y270788D01*
Y271182D01*
X256371Y271575D01*
X255978D01*
X256371D01*
X256765Y271969D01*
Y272362D01*
X256371Y272756D01*
X255584D01*
X255190Y272362D01*
X259913Y272756D02*
Y270394D01*
X261094D01*
X261488Y270788D01*
Y271575D01*
X261094Y271969D01*
X259913D01*
X260700D02*
X261488Y272756D01*
X263456D02*
X262668D01*
X262275Y272362D01*
Y271575D01*
X262668Y271182D01*
X263456D01*
X263849Y271575D01*
Y271969D01*
X262275D01*
X264636Y272756D02*
Y271182D01*
X265030D01*
X265423Y271575D01*
Y272756D01*
Y271575D01*
X265817Y271182D01*
X266211Y271575D01*
Y272756D01*
X267391D02*
X268178D01*
X268572Y272362D01*
Y271575D01*
X268178Y271182D01*
X267391D01*
X266998Y271575D01*
Y272362D01*
X267391Y272756D01*
X269359Y271182D02*
X270146Y272756D01*
X270933Y271182D01*
X272901Y272756D02*
X272114D01*
X271721Y272362D01*
Y271575D01*
X272114Y271182D01*
X272901D01*
X273295Y271575D01*
Y271969D01*
X271721D01*
X278018Y270394D02*
X277231D01*
X277624D01*
Y272362D01*
X277231Y272756D01*
X276837D01*
X276444Y272362D01*
X280379Y272756D02*
X278805D01*
X280379Y271182D01*
Y270788D01*
X279986Y270394D01*
X279199D01*
X278805Y270788D01*
X283921Y271182D02*
X284708D01*
X285102Y271575D01*
Y272756D01*
X283921D01*
X283528Y272362D01*
X283921Y271969D01*
X285102D01*
X285889Y272756D02*
Y271182D01*
X287070D01*
X287463Y271575D01*
Y272756D01*
X289825Y270394D02*
Y272756D01*
X288644D01*
X288251Y272362D01*
Y271575D01*
X288644Y271182D01*
X289825D01*
X292973Y270394D02*
Y272756D01*
Y271969D01*
X294548Y270394D01*
X293367Y271575D01*
X294548Y272756D01*
X295335D02*
X296122D01*
X295729D01*
Y270394D01*
X295335Y270788D01*
X235512Y299861D02*
X237086D01*
X236299D01*
Y302223D01*
X238267D02*
X239054D01*
X239448Y301829D01*
Y301042D01*
X239054Y300648D01*
X238267D01*
X237873Y301042D01*
Y301829D01*
X238267Y302223D01*
X242596Y303010D02*
Y300648D01*
X243777D01*
X244170Y301042D01*
Y301829D01*
X243777Y302223D01*
X242596D01*
X245351D02*
X246138D01*
X246532Y301829D01*
Y301042D01*
X246138Y300648D01*
X245351D01*
X244958Y301042D01*
Y301829D01*
X245351Y302223D01*
X247319Y300648D02*
Y301829D01*
X247713Y302223D01*
X248106Y301829D01*
X248500Y302223D01*
X248893Y301829D01*
Y300648D01*
X250861Y302223D02*
X250074D01*
X249680Y301829D01*
Y301042D01*
X250074Y300648D01*
X250861D01*
X251255Y301042D01*
Y301435D01*
X249680D01*
X252042Y300648D02*
Y302223D01*
Y301435D01*
X252435Y301042D01*
X252829Y300648D01*
X253223D01*
X257158D02*
X257946D01*
X258339Y301042D01*
Y302223D01*
X257158D01*
X256765Y301829D01*
X257158Y301435D01*
X258339D01*
X263062Y299861D02*
X261488D01*
Y301042D01*
X262275Y300648D01*
X262668D01*
X263062Y301042D01*
Y301829D01*
X262668Y302223D01*
X261881D01*
X261488Y301829D01*
X263849Y299861D02*
Y301435D01*
X264636Y302223D01*
X265423Y301435D01*
Y299861D01*
X270146Y300255D02*
X269753Y299861D01*
X268966D01*
X268572Y300255D01*
Y300648D01*
X268966Y301042D01*
X269753D01*
X270146Y301435D01*
Y301829D01*
X269753Y302223D01*
X268966D01*
X268572Y301829D01*
X272508Y300255D02*
X272114Y299861D01*
X271327D01*
X270934Y300255D01*
Y300648D01*
X271327Y301042D01*
X272114D01*
X272508Y301435D01*
Y301829D01*
X272114Y302223D01*
X271327D01*
X270934Y301829D01*
X273295Y302223D02*
Y299861D01*
X274476D01*
X274869Y300255D01*
Y301042D01*
X274476Y301435D01*
X273295D01*
X274082D02*
X274869Y302223D01*
X279592Y300255D02*
X279199Y299861D01*
X278411D01*
X278018Y300255D01*
Y300648D01*
X278411Y301042D01*
X279199D01*
X279592Y301435D01*
Y301829D01*
X279199Y302223D01*
X278411D01*
X278018Y301829D01*
X280379Y299861D02*
Y302223D01*
Y301042D01*
X280773Y300648D01*
X281560D01*
X281954Y301042D01*
Y302223D01*
X283134D02*
X283921D01*
X284315Y301829D01*
Y301042D01*
X283921Y300648D01*
X283134D01*
X282741Y301042D01*
Y301829D01*
X283134Y302223D01*
X285102Y300648D02*
Y302223D01*
Y301435D01*
X285496Y301042D01*
X285889Y300648D01*
X286283D01*
X287857Y300255D02*
Y300648D01*
X287464D01*
X288251D01*
X287857D01*
Y301829D01*
X288251Y302223D01*
X291793Y299861D02*
Y302223D01*
X292974D01*
X293367Y301829D01*
Y301435D01*
X292974Y301042D01*
X291793D01*
X292974D01*
X293367Y300648D01*
Y300255D01*
X292974Y299861D01*
X291793D01*
X294154Y302223D02*
X294941D01*
X294548D01*
Y299861D01*
X294154Y300255D01*
X235512Y306977D02*
Y304616D01*
X236693D01*
X237086Y305010D01*
Y305797D01*
X236693Y306190D01*
X235512D01*
X237873Y306977D02*
X238661D01*
X238267D01*
Y305403D01*
X237873D01*
X239841Y306977D02*
Y305403D01*
X241022D01*
X241416Y305797D01*
Y306977D01*
X246138D02*
X244564D01*
X246138Y305403D01*
Y305010D01*
X245745Y304616D01*
X244958D01*
X244564Y305010D01*
X246925Y305403D02*
X247319D01*
Y305797D01*
X246925D01*
Y305403D01*
Y306584D02*
X247319D01*
Y306977D01*
X246925D01*
Y306584D01*
X252829Y305010D02*
X252435Y304616D01*
X251648D01*
X251255Y305010D01*
Y305403D01*
X251648Y305797D01*
X252435D01*
X252829Y306190D01*
Y306584D01*
X252435Y306977D01*
X251648D01*
X251255Y306584D01*
X255190Y305010D02*
X254797Y304616D01*
X254010D01*
X253616Y305010D01*
Y305403D01*
X254010Y305797D01*
X254797D01*
X255190Y306190D01*
Y306584D01*
X254797Y306977D01*
X254010D01*
X253616Y306584D01*
X255978Y306977D02*
Y304616D01*
X257158D01*
X257552Y305010D01*
Y305797D01*
X257158Y306190D01*
X255978D01*
X256765D02*
X257552Y306977D01*
X260701Y305797D02*
X262275D01*
X261488Y305010D02*
Y306584D01*
X237086Y308977D02*
X236693Y308583D01*
X235906D01*
X235512Y308977D01*
Y310551D01*
X235906Y310945D01*
X236693D01*
X237086Y310551D01*
Y309764D01*
X236299D01*
X237873Y310945D02*
Y308583D01*
X239448Y310945D01*
Y308583D01*
X240235D02*
Y310945D01*
X241416D01*
X241809Y310551D01*
Y308977D01*
X241416Y308583D01*
X240235D01*
X242596Y309371D02*
X242990D01*
Y309764D01*
X242596D01*
Y309371D01*
Y310551D02*
X242990D01*
Y310945D01*
X242596D01*
Y310551D01*
X253223Y308977D02*
X252829Y308583D01*
X252042D01*
X251648Y308977D01*
Y309371D01*
X252042Y309764D01*
X252829D01*
X253223Y310158D01*
Y310551D01*
X252829Y310945D01*
X252042D01*
X251648Y310551D01*
X255584Y308977D02*
X255190Y308583D01*
X254403D01*
X254010Y308977D01*
Y309371D01*
X254403Y309764D01*
X255190D01*
X255584Y310158D01*
Y310551D01*
X255190Y310945D01*
X254403D01*
X254010Y310551D01*
X256371Y310945D02*
Y308583D01*
X257552D01*
X257946Y308977D01*
Y309764D01*
X257552Y310158D01*
X256371D01*
X257158D02*
X257946Y310945D01*
X261094Y309764D02*
X262668D01*
X226379Y275473D02*
Y277834D01*
X227559D01*
X227953Y277441D01*
Y277047D01*
X227559Y276654D01*
X226379D01*
X227559D01*
X227953Y276260D01*
Y275867D01*
X227559Y275473D01*
X226379D01*
X230314Y277834D02*
X228740D01*
X230314Y276260D01*
Y275867D01*
X229921Y275473D01*
X229134D01*
X228740Y275867D01*
X226379Y293032D02*
Y295393D01*
X227559D01*
X227953Y295000D01*
Y294606D01*
X227559Y294213D01*
X226379D01*
X227559D01*
X227953Y293819D01*
Y293426D01*
X227559Y293032D01*
X226379D01*
X228740Y293426D02*
X229134Y293032D01*
X229921D01*
X230314Y293426D01*
Y293819D01*
X229921Y294213D01*
X229527D01*
X229921D01*
X230314Y294606D01*
Y295000D01*
X229921Y295393D01*
X229134D01*
X228740Y295000D01*
X206890Y307087D02*
Y309449D01*
X208071D01*
X208465Y309055D01*
Y308661D01*
X208071Y308268D01*
X206890D01*
X208071D01*
X208465Y307874D01*
Y307481D01*
X208071Y307087D01*
X206890D01*
X209252Y309449D02*
X210039D01*
X209645D01*
Y307087D01*
X209252Y307481D01*
D57*
X24094Y23348D02*
Y27284D01*
X24882Y28071D01*
X26456D01*
X27243Y27284D01*
Y23348D01*
X31966Y24135D02*
X31179Y23348D01*
X29605D01*
X28817Y24135D01*
Y24922D01*
X29605Y25709D01*
X31179D01*
X31966Y26497D01*
Y27284D01*
X31179Y28071D01*
X29605D01*
X28817Y27284D01*
X33540Y23348D02*
Y28071D01*
X35902D01*
X36689Y27284D01*
Y26497D01*
X35902Y25709D01*
X33540D01*
X35902D01*
X36689Y24922D01*
Y24135D01*
X35902Y23348D01*
X33540D01*
X38263Y25709D02*
X41412D01*
X46135Y24135D02*
X45347Y23348D01*
X43773D01*
X42986Y24135D01*
Y24922D01*
X43773Y25709D01*
X45347D01*
X46135Y26497D01*
Y27284D01*
X45347Y28071D01*
X43773D01*
X42986Y27284D01*
X47709Y23348D02*
Y28071D01*
X49283Y26497D01*
X50858Y28071D01*
Y23348D01*
X52432Y25709D02*
X55580D01*
X57155Y28071D02*
Y24922D01*
X58729Y23348D01*
X60303Y24922D01*
Y28071D01*
Y25709D01*
X57155D01*
X189449Y23348D02*
Y27284D01*
X190236Y28071D01*
X191810D01*
X192597Y27284D01*
Y23348D01*
X197320Y24135D02*
X196533Y23348D01*
X194959D01*
X194172Y24135D01*
Y24922D01*
X194959Y25709D01*
X196533D01*
X197320Y26497D01*
Y27284D01*
X196533Y28071D01*
X194959D01*
X194172Y27284D01*
X198895Y23348D02*
Y28071D01*
X201256D01*
X202043Y27284D01*
Y26497D01*
X201256Y25709D01*
X198895D01*
X201256D01*
X202043Y24922D01*
Y24135D01*
X201256Y23348D01*
X198895D01*
X203618Y25709D02*
X206766D01*
X211489Y24135D02*
X210702Y23348D01*
X209128D01*
X208340Y24135D01*
Y24922D01*
X209128Y25709D01*
X210702D01*
X211489Y26497D01*
Y27284D01*
X210702Y28071D01*
X209128D01*
X208340Y27284D01*
X213063Y23348D02*
Y28071D01*
X214638Y26497D01*
X216212Y28071D01*
Y23348D01*
X217786Y25709D02*
X220935D01*
X222509Y28071D02*
Y24922D01*
X224083Y23348D01*
X225658Y24922D01*
Y28071D01*
Y25709D01*
X222509D01*
X24094Y82403D02*
Y86339D01*
X24882Y87126D01*
X26456D01*
X27243Y86339D01*
Y82403D01*
X31966Y83190D02*
X31179Y82403D01*
X29605D01*
X28817Y83190D01*
Y83977D01*
X29605Y84765D01*
X31179D01*
X31966Y85552D01*
Y86339D01*
X31179Y87126D01*
X29605D01*
X28817Y86339D01*
X33540Y82403D02*
Y87126D01*
X35902D01*
X36689Y86339D01*
Y85552D01*
X35902Y84765D01*
X33540D01*
X35902D01*
X36689Y83977D01*
Y83190D01*
X35902Y82403D01*
X33540D01*
X38263Y84765D02*
X41412D01*
X46135Y83190D02*
X45347Y82403D01*
X43773D01*
X42986Y83190D01*
Y83977D01*
X43773Y84765D01*
X45347D01*
X46135Y85552D01*
Y86339D01*
X45347Y87126D01*
X43773D01*
X42986Y86339D01*
X47709Y82403D02*
Y87126D01*
X49283Y85552D01*
X50858Y87126D01*
Y82403D01*
X52432Y84765D02*
X55580D01*
X57155Y87126D02*
Y83977D01*
X58729Y82403D01*
X60303Y83977D01*
Y87126D01*
Y84765D01*
X57155D01*
X189449Y82403D02*
Y86339D01*
X190236Y87126D01*
X191810D01*
X192597Y86339D01*
Y82403D01*
X197320Y83190D02*
X196533Y82403D01*
X194959D01*
X194172Y83190D01*
Y83977D01*
X194959Y84765D01*
X196533D01*
X197320Y85552D01*
Y86339D01*
X196533Y87126D01*
X194959D01*
X194172Y86339D01*
X198895Y82403D02*
Y87126D01*
X201256D01*
X202043Y86339D01*
Y85552D01*
X201256Y84765D01*
X198895D01*
X201256D01*
X202043Y83977D01*
Y83190D01*
X201256Y82403D01*
X198895D01*
X203618Y84765D02*
X206766D01*
X211489Y83190D02*
X210702Y82403D01*
X209128D01*
X208340Y83190D01*
Y83977D01*
X209128Y84765D01*
X210702D01*
X211489Y85552D01*
Y86339D01*
X210702Y87126D01*
X209128D01*
X208340Y86339D01*
X213063Y82403D02*
Y87126D01*
X214638Y85552D01*
X216212Y87126D01*
Y82403D01*
X217786Y84765D02*
X220935D01*
X222509Y87126D02*
Y83977D01*
X224083Y82403D01*
X225658Y83977D01*
Y87126D01*
Y84765D01*
X222509D01*
X24094Y141458D02*
Y145394D01*
X24882Y146181D01*
X26456D01*
X27243Y145394D01*
Y141458D01*
X31966Y142245D02*
X31179Y141458D01*
X29605D01*
X28817Y142245D01*
Y143033D01*
X29605Y143820D01*
X31179D01*
X31966Y144607D01*
Y145394D01*
X31179Y146181D01*
X29605D01*
X28817Y145394D01*
X33540Y141458D02*
Y146181D01*
X35902D01*
X36689Y145394D01*
Y144607D01*
X35902Y143820D01*
X33540D01*
X35902D01*
X36689Y143033D01*
Y142245D01*
X35902Y141458D01*
X33540D01*
X38263Y143820D02*
X41412D01*
X46135Y142245D02*
X45347Y141458D01*
X43773D01*
X42986Y142245D01*
Y143033D01*
X43773Y143820D01*
X45347D01*
X46135Y144607D01*
Y145394D01*
X45347Y146181D01*
X43773D01*
X42986Y145394D01*
X47709Y141458D02*
Y146181D01*
X49283Y144607D01*
X50858Y146181D01*
Y141458D01*
X52432Y143820D02*
X55580D01*
X57155Y146181D02*
Y143033D01*
X58729Y141458D01*
X60303Y143033D01*
Y146181D01*
Y143820D01*
X57155D01*
X189449Y141458D02*
Y145394D01*
X190236Y146181D01*
X191810D01*
X192597Y145394D01*
Y141458D01*
X197320Y142245D02*
X196533Y141458D01*
X194959D01*
X194172Y142245D01*
Y143033D01*
X194959Y143820D01*
X196533D01*
X197320Y144607D01*
Y145394D01*
X196533Y146181D01*
X194959D01*
X194172Y145394D01*
X198895Y141458D02*
Y146181D01*
X201256D01*
X202043Y145394D01*
Y144607D01*
X201256Y143820D01*
X198895D01*
X201256D01*
X202043Y143033D01*
Y142245D01*
X201256Y141458D01*
X198895D01*
X203618Y143820D02*
X206766D01*
X211489Y142245D02*
X210702Y141458D01*
X209128D01*
X208340Y142245D01*
Y143033D01*
X209128Y143820D01*
X210702D01*
X211489Y144607D01*
Y145394D01*
X210702Y146181D01*
X209128D01*
X208340Y145394D01*
X213063Y141458D02*
Y146181D01*
X214638Y144607D01*
X216212Y146181D01*
Y141458D01*
X217786Y143820D02*
X220935D01*
X222509Y146181D02*
Y143033D01*
X224083Y141458D01*
X225658Y143033D01*
Y146181D01*
Y143820D01*
X222509D01*
X24094Y200513D02*
Y204449D01*
X24882Y205236D01*
X26456D01*
X27243Y204449D01*
Y200513D01*
X31966Y201301D02*
X31179Y200513D01*
X29605D01*
X28817Y201301D01*
Y202088D01*
X29605Y202875D01*
X31179D01*
X31966Y203662D01*
Y204449D01*
X31179Y205236D01*
X29605D01*
X28817Y204449D01*
X33540Y200513D02*
Y205236D01*
X35902D01*
X36689Y204449D01*
Y203662D01*
X35902Y202875D01*
X33540D01*
X35902D01*
X36689Y202088D01*
Y201301D01*
X35902Y200513D01*
X33540D01*
X38263Y202875D02*
X41412D01*
X46135Y201301D02*
X45347Y200513D01*
X43773D01*
X42986Y201301D01*
Y202088D01*
X43773Y202875D01*
X45347D01*
X46135Y203662D01*
Y204449D01*
X45347Y205236D01*
X43773D01*
X42986Y204449D01*
X47709Y200513D02*
Y205236D01*
X49283Y203662D01*
X50858Y205236D01*
Y200513D01*
X52432Y202875D02*
X55580D01*
X57155Y205236D02*
Y202088D01*
X58729Y200513D01*
X60303Y202088D01*
Y205236D01*
Y202875D01*
X57155D01*
X189449Y200513D02*
Y204449D01*
X190236Y205236D01*
X191810D01*
X192597Y204449D01*
Y200513D01*
X197320Y201301D02*
X196533Y200513D01*
X194959D01*
X194172Y201301D01*
Y202088D01*
X194959Y202875D01*
X196533D01*
X197320Y203662D01*
Y204449D01*
X196533Y205236D01*
X194959D01*
X194172Y204449D01*
X198895Y200513D02*
Y205236D01*
X201256D01*
X202043Y204449D01*
Y203662D01*
X201256Y202875D01*
X198895D01*
X201256D01*
X202043Y202088D01*
Y201301D01*
X201256Y200513D01*
X198895D01*
X203618Y202875D02*
X206766D01*
X211489Y201301D02*
X210702Y200513D01*
X209128D01*
X208340Y201301D01*
Y202088D01*
X209128Y202875D01*
X210702D01*
X211489Y203662D01*
Y204449D01*
X210702Y205236D01*
X209128D01*
X208340Y204449D01*
X213063Y200513D02*
Y205236D01*
X214638Y203662D01*
X216212Y205236D01*
Y200513D01*
X217786Y202875D02*
X220935D01*
X222509Y205236D02*
Y202088D01*
X224083Y200513D01*
X225658Y202088D01*
Y205236D01*
Y202875D01*
X222509D01*
X24094Y259569D02*
Y263504D01*
X24882Y264291D01*
X26456D01*
X27243Y263504D01*
Y259569D01*
X31966Y260356D02*
X31179Y259569D01*
X29605D01*
X28817Y260356D01*
Y261143D01*
X29605Y261930D01*
X31179D01*
X31966Y262717D01*
Y263504D01*
X31179Y264291D01*
X29605D01*
X28817Y263504D01*
X33540Y259569D02*
Y264291D01*
X35902D01*
X36689Y263504D01*
Y262717D01*
X35902Y261930D01*
X33540D01*
X35902D01*
X36689Y261143D01*
Y260356D01*
X35902Y259569D01*
X33540D01*
X38263Y261930D02*
X41412D01*
X46135Y260356D02*
X45347Y259569D01*
X43773D01*
X42986Y260356D01*
Y261143D01*
X43773Y261930D01*
X45347D01*
X46135Y262717D01*
Y263504D01*
X45347Y264291D01*
X43773D01*
X42986Y263504D01*
X47709Y259569D02*
Y264291D01*
X49283Y262717D01*
X50858Y264291D01*
Y259569D01*
X52432Y261930D02*
X55580D01*
X57155Y264291D02*
Y261143D01*
X58729Y259569D01*
X60303Y261143D01*
Y264291D01*
Y261930D01*
X57155D01*
X189449Y259569D02*
Y263504D01*
X190236Y264291D01*
X191810D01*
X192597Y263504D01*
Y259569D01*
X197320Y260356D02*
X196533Y259569D01*
X194959D01*
X194172Y260356D01*
Y261143D01*
X194959Y261930D01*
X196533D01*
X197320Y262717D01*
Y263504D01*
X196533Y264291D01*
X194959D01*
X194172Y263504D01*
X198895Y259569D02*
Y264291D01*
X201256D01*
X202043Y263504D01*
Y262717D01*
X201256Y261930D01*
X198895D01*
X201256D01*
X202043Y261143D01*
Y260356D01*
X201256Y259569D01*
X198895D01*
X203618Y261930D02*
X206766D01*
X211489Y260356D02*
X210702Y259569D01*
X209128D01*
X208340Y260356D01*
Y261143D01*
X209128Y261930D01*
X210702D01*
X211489Y262717D01*
Y263504D01*
X210702Y264291D01*
X209128D01*
X208340Y263504D01*
X213063Y259569D02*
Y264291D01*
X214638Y262717D01*
X216212Y264291D01*
Y259569D01*
X217786Y261930D02*
X220935D01*
X222509Y264291D02*
Y261143D01*
X224083Y259569D01*
X225658Y261143D01*
Y264291D01*
Y261930D01*
X222509D01*
M02*
