G04*
G04 #@! TF.GenerationSoftware,Altium Limited,Altium Designer,24.1.2 (44)*
G04*
G04 Layer_Color=65535*
%FSLAX25Y25*%
%MOIN*%
G70*
G04*
G04 #@! TF.SameCoordinates,5A4362CD-A9A7-4103-B8D8-DB43A4B804F2*
G04*
G04*
G04 #@! TF.FilePolarity,Positive*
G04*
G01*
G75*
%ADD22C,0.00787*%
%ADD23C,0.01181*%
%ADD30C,0.01968*%
%ADD34C,0.00394*%
D22*
X165354Y19685D02*
X322835D01*
X165354Y78740D02*
X322835D01*
X165354Y137795D02*
X322835D01*
X165354Y196851D02*
X322835D01*
X165354Y255906D02*
X322835D01*
X165354Y314961D02*
X322835D01*
X-0D02*
X157480D01*
X-0Y255906D02*
X157480D01*
X-0Y196851D02*
X157480D01*
X-0Y137795D02*
X157480D01*
X-0Y78740D02*
X157480D01*
X183071Y19685D02*
Y314961D01*
X-0Y19685D02*
X157480D01*
X183071Y-47244D02*
Y-3937D01*
X17717Y-47244D02*
Y-3937D01*
X17717Y314961D02*
X17717Y19685D01*
X326772Y314961D02*
X370079D01*
X326772Y255906D02*
X370079D01*
X326772Y196851D02*
X370079D01*
X326772Y137795D02*
X370079D01*
X326772Y78740D02*
X370079D01*
X326772Y19685D02*
X370079D01*
D23*
X192124Y-9449D02*
X187926D01*
X185827Y-11548D01*
X187926Y-13647D01*
X192124D01*
X188975Y-15746D02*
Y-19944D01*
X191074Y-26241D02*
X192124Y-25192D01*
Y-23093D01*
X191074Y-22043D01*
X186876D01*
X185827Y-23093D01*
Y-25192D01*
X186876Y-26241D01*
X192124Y-28340D02*
X186876D01*
X185827Y-29390D01*
Y-31489D01*
X186876Y-32538D01*
X192124D01*
Y-34637D02*
Y-38836D01*
Y-36737D01*
X185827D01*
X26770Y-9449D02*
X22571D01*
X20472Y-11548D01*
X22571Y-13647D01*
X26770D01*
X23621Y-15746D02*
Y-19944D01*
X25720Y-26241D02*
X26770Y-25192D01*
Y-23093D01*
X25720Y-22043D01*
X21522D01*
X20472Y-23093D01*
Y-25192D01*
X21522Y-26241D01*
X26770Y-28340D02*
X21522D01*
X20472Y-29390D01*
Y-31489D01*
X21522Y-32538D01*
X26770D01*
Y-34637D02*
Y-38836D01*
Y-36737D01*
X20472D01*
X332283Y324014D02*
Y319816D01*
X334383Y317717D01*
X336482Y319816D01*
Y324014D01*
X338581Y320865D02*
X342779D01*
X349076Y322964D02*
X348026Y324014D01*
X345927D01*
X344878Y322964D01*
Y318766D01*
X345927Y317717D01*
X348026D01*
X349076Y318766D01*
X351175Y324014D02*
Y318766D01*
X352224Y317717D01*
X354324D01*
X355373Y318766D01*
Y324014D01*
X357472D02*
X361670D01*
X359571D01*
Y317717D01*
X332283Y264959D02*
Y260761D01*
X334383Y258662D01*
X336482Y260761D01*
Y264959D01*
X338581Y261810D02*
X342779D01*
X349076Y263909D02*
X348026Y264959D01*
X345927D01*
X344878Y263909D01*
Y259711D01*
X345927Y258662D01*
X348026D01*
X349076Y259711D01*
X351175Y264959D02*
Y259711D01*
X352224Y258662D01*
X354324D01*
X355373Y259711D01*
Y264959D01*
X357472D02*
X361670D01*
X359571D01*
Y258662D01*
X332283Y205904D02*
Y201705D01*
X334383Y199606D01*
X336482Y201705D01*
Y205904D01*
X338581Y202755D02*
X342779D01*
X349076Y204854D02*
X348026Y205904D01*
X345927D01*
X344878Y204854D01*
Y200656D01*
X345927Y199606D01*
X348026D01*
X349076Y200656D01*
X351175Y205904D02*
Y200656D01*
X352224Y199606D01*
X354324D01*
X355373Y200656D01*
Y205904D01*
X357472D02*
X361670D01*
X359571D01*
Y199606D01*
X332283Y146848D02*
Y142650D01*
X334383Y140551D01*
X336482Y142650D01*
Y146848D01*
X338581Y143700D02*
X342779D01*
X349076Y145799D02*
X348026Y146848D01*
X345927D01*
X344878Y145799D01*
Y141601D01*
X345927Y140551D01*
X348026D01*
X349076Y141601D01*
X351175Y146848D02*
Y141601D01*
X352224Y140551D01*
X354324D01*
X355373Y141601D01*
Y146848D01*
X357472D02*
X361670D01*
X359571D01*
Y140551D01*
X332283Y87793D02*
Y83595D01*
X334383Y81496D01*
X336482Y83595D01*
Y87793D01*
X338581Y84645D02*
X342779D01*
X349076Y86744D02*
X348026Y87793D01*
X345927D01*
X344878Y86744D01*
Y82546D01*
X345927Y81496D01*
X348026D01*
X349076Y82546D01*
X351175Y87793D02*
Y82546D01*
X352224Y81496D01*
X354324D01*
X355373Y82546D01*
Y87793D01*
X357472D02*
X361670D01*
X359571D01*
Y81496D01*
X332283Y28738D02*
Y24540D01*
X334383Y22441D01*
X336482Y24540D01*
Y28738D01*
X338581Y25589D02*
X342779D01*
X349076Y27689D02*
X348026Y28738D01*
X345927D01*
X344878Y27689D01*
Y23491D01*
X345927Y22441D01*
X348026D01*
X349076Y23491D01*
X351175Y28738D02*
Y23491D01*
X352224Y22441D01*
X354324D01*
X355373Y23491D01*
Y28738D01*
X357472D02*
X361670D01*
X359571D01*
Y22441D01*
D30*
X84843Y70473D02*
D03*
X103150D02*
D03*
X120866Y29921D02*
D03*
X73425D02*
D03*
X90945Y34252D02*
D03*
X107087Y29724D02*
D03*
X114173Y66732D02*
D03*
X117913Y70473D02*
D03*
X121850Y46457D02*
D03*
X130905Y70473D02*
D03*
X120079Y61221D02*
D03*
X110433Y70473D02*
D03*
X250197D02*
D03*
X268504D02*
D03*
X286221Y29921D02*
D03*
X238780D02*
D03*
X256299Y34252D02*
D03*
X272441Y29724D02*
D03*
X279528Y66732D02*
D03*
X283268Y70473D02*
D03*
X287205Y46457D02*
D03*
X296260Y70473D02*
D03*
X285433Y61221D02*
D03*
X275787Y70473D02*
D03*
X84843Y129528D02*
D03*
X103150D02*
D03*
X120866Y88976D02*
D03*
X73425D02*
D03*
X90945Y93307D02*
D03*
X107087Y88780D02*
D03*
X114173Y125787D02*
D03*
X117913Y129528D02*
D03*
X121850Y105512D02*
D03*
X130905Y129528D02*
D03*
X120079Y120276D02*
D03*
X110433Y129528D02*
D03*
X250197D02*
D03*
X268504D02*
D03*
X286221Y88976D02*
D03*
X238780D02*
D03*
X256299Y93307D02*
D03*
X272441Y88780D02*
D03*
X279528Y125787D02*
D03*
X283268Y129528D02*
D03*
X287205Y105512D02*
D03*
X296260Y129528D02*
D03*
X285433Y120276D02*
D03*
X275787Y129528D02*
D03*
X84843Y188583D02*
D03*
X103150D02*
D03*
X120866Y148032D02*
D03*
X73425D02*
D03*
X90945Y152362D02*
D03*
X107087Y147835D02*
D03*
X114173Y184843D02*
D03*
X117913Y188583D02*
D03*
X121850Y164567D02*
D03*
X130905Y188583D02*
D03*
X120079Y179331D02*
D03*
X110433Y188583D02*
D03*
X250197D02*
D03*
X268504D02*
D03*
X286221Y148032D02*
D03*
X238780D02*
D03*
X256299Y152362D02*
D03*
X272441Y147835D02*
D03*
X279528Y184843D02*
D03*
X283268Y188583D02*
D03*
X287205Y164567D02*
D03*
X296260Y188583D02*
D03*
X285433Y179331D02*
D03*
X275787Y188583D02*
D03*
X84843Y247638D02*
D03*
X103150D02*
D03*
X120866Y207087D02*
D03*
X73425D02*
D03*
X90945Y211417D02*
D03*
X107087Y206890D02*
D03*
X114173Y243898D02*
D03*
X117913Y247638D02*
D03*
X121850Y223622D02*
D03*
X130905Y247638D02*
D03*
X120079Y238386D02*
D03*
X110433Y247638D02*
D03*
X250197D02*
D03*
X268504D02*
D03*
X286221Y207087D02*
D03*
X238780D02*
D03*
X256299Y211417D02*
D03*
X272441Y206890D02*
D03*
X279528Y243898D02*
D03*
X283268Y247638D02*
D03*
X287205Y223622D02*
D03*
X296260Y247638D02*
D03*
X285433Y238386D02*
D03*
X275787Y247638D02*
D03*
X84843Y306693D02*
D03*
X103150D02*
D03*
X120866Y266142D02*
D03*
X73425D02*
D03*
X90945Y270473D02*
D03*
X107087Y265945D02*
D03*
X114173Y302953D02*
D03*
X117913Y306693D02*
D03*
X121850Y282677D02*
D03*
X130905Y306693D02*
D03*
X120079Y297441D02*
D03*
X110433Y306693D02*
D03*
X250197D02*
D03*
X268504D02*
D03*
X286221Y266142D02*
D03*
X238780D02*
D03*
X256299Y270473D02*
D03*
X272441Y265945D02*
D03*
X279528Y302953D02*
D03*
X283268Y306693D02*
D03*
X287205Y282677D02*
D03*
X296260Y306693D02*
D03*
X285433Y297441D02*
D03*
X275787Y306693D02*
D03*
D34*
X157480Y19685D02*
G03*
X165354Y19685I3937J0D01*
G01*
X165354Y314961D02*
G03*
X157480Y314961I-3937J0D01*
G01*
X157480Y306693D02*
X157480Y19685D01*
X157480Y306693D02*
Y314961D01*
X165354Y307087D02*
Y314961D01*
X165354Y307087D02*
X165354Y19685D01*
X0Y0D02*
X322835D01*
X-0Y334646D02*
X0Y0D01*
X-0Y334646D02*
X322834D01*
X322835D02*
X322835Y0D01*
M02*
